<svg xmlns="http://www.w3.org/2000/svg" xmlns:xlink="http://www.w3.org/1999/xlink" id="Capa_1" x="0px" y="0px" viewBox="0 0 100 100" style="enable-background:new 0 0 100 100;" xml:space="preserve"><g> <path fill="#6f1f20" d="M69,99.9c-3.2-0.1-6.4-0.3-9-2.5c-1.7-1.5-2.6-3.5-3.2-5.6c-1-3.3-1.3-6.6-1.4-10c-0.1-5.4-0.2-10.8-0.3-16.3  c0-0.5,0-0.9,0-1.4c-0.1,0-0.1,0-0.2,0c-0.1,3.3-0.2,6.7-0.3,10c-0.1,4-0.1,8-0.6,11.9c-0.3,2.2-0.8,4.3-1.6,6.3  c-1.6,4.2-4.6,6.6-9,7.2c-2,0.3-4.1,0.3-6.1,0.3c-1.7,0.1-3.5,0-5.2,0c-0.3,0-0.5,0-1,0c0.6-0.4,1-0.7,1.4-1c1.5-1.3,2.4-3.1,3-5  c1.6-4.6,2.1-9.4,2.1-14.3c0.1-9.4,0.2-18.9,0.3-28.3c0-2.8,0.1-5.6,0.1-8.4c0-4.6,1.6-8.6,4.4-12.1c0.1-0.2,0.4-0.3,0.7-0.3  c4.7,0,9.4,0,14.1,0c0.2,0,0.5,0.2,0.7,0.3c2.8,3.6,4.4,7.6,4.5,12.2c0,9.9,0.2,19.8,0.3,29.7c0,3.8,0,7.5,0.2,11.3  c0.2,4,0.9,7.9,2.6,11.6C66.4,97.8,67,98.5,69,99.9z"></path> <path fill="#6f1f20" d="M49.7,14.5c-0.4,0.3-0.6,0.5-0.9,0.7c0,0.1,0.1,0.1,0.1,0.2c0.3-0.2,0.7-0.3,1-0.5c2.2-1.5,3.4-3.6,4.3-6  c1-2.6,1.4-5.4,1.4-8.2c0-0.5,0.2-0.8,0.7-0.7c0.7,0,1.4,0,2.1,0c0.2,0,0.5,0.3,0.5,0.4c0.5,3.6,0.9,7.2,1.5,10.7  c0.4,2.5,0,4.8-0.7,7.2c-0.9,3.3-1.7,6.7-2.5,10.1c-0.1,0.4-0.2,0.5-0.6,0.5c-4.3,0-8.6,0-12.8,0c-0.2,0-0.5-0.2-0.6-0.4  c-0.9-3.4-1.7-6.9-2.7-10.4c-0.8-2.8-0.9-5.6-0.4-8.4c0.5-3.1,0.9-6.2,1.3-9.4c0-0.2,0.3-0.4,0.4-0.4c0.8,0,1.6,0,2.4,0  c0.5,0,0.4,0.3,0.5,0.6c0.2,2,0.3,4,0.7,5.9C46,9.6,47.3,12.3,49.7,14.5z"></path></g></svg>