<svg xmlns="http://www.w3.org/2000/svg" enable-background="new 0 0 1364 960" viewBox="0 0 1364 960" id="Church"><linearGradient id="a" x1="764.188" x2="764.188" y1="299.211" y2="270.658" gradientUnits="userSpaceOnUse"><stop offset="0" stop-color="#ffffff" class="stopColorffffff svgShape"></stop><stop offset="1" stop-color="#99f4ff" class="stopColor99daff svgShape"></stop></linearGradient><path fill="url(#a)" d="M853.72,296.77c0,0-16.49-3.14-20.61-8.05c-4.12-4.91-16.09-8.37-27.09-4.32c-9.35,3.45-8.77-19.24-25.25-9.29
		c-13.45,8.11-25.65-34.54-37.69-1.05c0,0-1.79,13.39-22.24,8.9c-21.46-4.71-27.11-2.24-23.82,6.28c3.14,8.11-15.7-3.14-21.46,0
		c-3.12,1.7,2.88,7.52,2.88,7.52H853.72z"></path><linearGradient id="b" x1="1040.908" x2="1040.908" y1="167.542" y2="140.217" gradientUnits="userSpaceOnUse"><stop offset="0" stop-color="#ffffff" class="stopColorffffff svgShape"></stop><stop offset="1" stop-color="#99f4ff" class="stopColor99daff svgShape"></stop></linearGradient><path fill="url(#b)" d="M1126.58,165.21c0,0-15.78-3.01-19.72-7.7c-3.94-4.7-15.4-8.01-25.92-4.13c-8.95,3.3-8.39-18.41-24.17-8.89
		c-12.87,7.76-24.54-33.06-36.06-1c0,0-1.72,12.81-21.29,8.52c-20.54-4.51-25.95-2.15-22.79,6.01c3.01,7.76-15.03-3.01-20.54,0
		c-2.99,1.63,2.75,7.2,2.75,7.2H1126.58z"></path><linearGradient id="c" x1="314.365" x2="314.365" y1="217.402" y2="178.671" gradientUnits="userSpaceOnUse"><stop offset="0" stop-color="#ffffff" class="stopColorffffff svgShape"></stop><stop offset="1" stop-color="#99f4ff" class="stopColor99daff svgShape"></stop></linearGradient><path fill="url(#c)" d="M435.81,214.09c0,0-22.36-4.26-27.96-10.92c-5.59-6.66-21.83-11.36-36.74-5.86
		c-12.68,4.68-11.89-26.09-34.26-12.6c-18.24,11-34.79-46.86-51.12-1.42c0,0-2.43,18.16-30.17,12.07
		c-29.11-6.39-36.78-3.04-32.3,8.52c4.26,11-21.3-4.26-29.11,0c-4.24,2.31,3.91,10.21,3.91,10.21H435.81z"></path><path fill="#277d87" d="M1019.96,828.2c0,0,6.64-31.53,28.41-20.07c0,0,6.09-16.24,18.63-8.84c0,0,12.75-28.19,33.24-6.45
		c0,0,13.59-10.99,21.74,2.39c0,0,25.93-10.41,36.59,16.96c0,0,23.21-9.79,29.48,16.01H1019.96z" class="color648727 svgShape"></path><path fill="#429aa5" d="M164.3,828.2c0,0,6.27-29.76,26.81-18.94c0,0,5.74-15.33,17.58-8.34c0,0,12.04-26.6,31.37-6.09
		c0,0,12.82-10.37,20.52,2.25c0,0,24.47-9.83,34.53,16.01c0,0,21.9-9.24,27.82,15.1H164.3z" class="color77a542 svgShape"></path><path fill="#277d87" d="M1185.01,560.67c-18.11,16.42-4.79,40.02-14.07,57.72c-4.59,8.75-14.72,16.05-36.91,20.32
			c-22.38,4.3-22.63,37.04-66.63,20.95c0,0-44.84,10.06-68.53-10.2c-23.7-20.26-3.39-41.41-39.77-54.05
			c-42.48-14.77-39.4-58.65-10.15-68.73c50.76-17.49-4.62-75.01,41.46-76.86c2.06-0.08,4.1-0.31,6.09-0.66
			c38.73-6.9,63.71-61.68,87.83-26.69c28.77,41.74,70.24-2.43,67.69,51.05C1149.47,526.67,1216.19,532.4,1185.01,560.67z" class="color648727 svgShape"></path><path fill="#429aa5" d="M1185.01,560.67c-18.11,16.42-4.79,40.02-14.07,57.72c-29.63-71.77-95.61-45.93-138.51-64.68
			c-44.55-19.49-39.82-81.81-35.93-104.55c38.73-6.9,63.71-61.68,87.83-26.69c28.77,41.74,70.24-2.43,67.69,51.05
			C1149.47,526.67,1216.19,532.4,1185.01,560.67z" class="color77a542 svgShape"></path><path fill="#105d66" d="M1149.47,512.66c-5.3,1.6-10.41,3.81-15.29,6.48c-4.89,2.65-9.43,5.91-13.79,9.36
			c-4.37,3.46-8.41,7.3-12.27,11.3c-3.88,4-7.5,8.23-10.93,12.6c-6.91,8.73-13.01,18.05-18.59,27.67c-2.17,3.75-4.21,7.57-6.2,11.42
			c-0.9-6.31-2.32-12.5-4.09-18.49c-2.37-8.07-5.27-15.89-8.48-23.55c0.04-2.65,0.29-5.55,0.68-8.32c0.22-1.52,0.5-3.04,0.76-4.56
			c0.34-1.5,0.64-3.02,1.02-4.52c1.49-6.01,3.66-11.87,6.46-17.42l1.03-2.1c0.36-0.69,0.78-1.34,1.17-2.02
			c0.8-1.33,1.55-2.71,2.4-4.01c1.81-2.53,3.51-5.18,5.61-7.51c3.91-4.92,8.69-9.05,13.61-13.01l-0.67-0.95
			c-5.22,3.67-10.39,7.58-14.73,12.37c-2.32,2.26-4.24,4.86-6.29,7.38c-0.97,1.29-1.84,2.66-2.76,4c-0.45,0.68-0.93,1.33-1.35,2.03
			l-1.21,2.11c-3.29,5.6-5.96,11.58-7.93,17.8c-0.5,1.55-0.92,3.13-1.38,4.7c-0.31,1.28-0.62,2.57-0.91,3.86
			c-0.39-0.84-0.77-1.69-1.17-2.53c-5.52-11.67-11.55-23.03-18.22-34.07l-2.34,1.35c5.83,11.3,11.07,22.98,15.71,34.81
			c4.61,11.84,8.66,23.9,11.37,36.12c1.23,5.51,2.13,11.02,2.57,16.53c-4.51-7.43-9.97-14.18-16.08-20.15
			c-6.63-6.51-14.02-12.09-21.82-16.86c-7.83-4.73-16.02-8.76-24.7-11.62l-0.5,1.43c8.13,3.58,15.81,8.3,22.91,13.58
			c7.08,5.33,13.61,11.33,19.23,18.02c5.63,6.67,10.37,14,13.91,21.79c3.6,7.77,5.87,16.04,7.1,24.39l0.45-0.08
			c-0.12,9.47-0.37,18.97-0.67,28.46c-0.82,25.53-2.01,51.09-3.31,76.63c-1.32,25.54-3.92,61.96-5.51,87.45h29.8
			c-0.26-25.7-2.96-57.71-4.26-86.82c-1.14-25.63-2.33-51.65-3.37-77.33c-0.42-10.16-0.9-20.33-1.53-30.51l0.01,0
			c0-0.01-0.01-0.02-0.01-0.02c-0.12-1.96-0.25-3.93-0.39-5.89l0.04,0.01c1.55-4.88,3.49-10,5.5-14.94
			c2.02-4.97,4.19-9.89,6.52-14.73c4.66-9.68,9.86-19.13,15.87-28.04c2.99-4.47,6.16-8.81,9.59-12.94
			c3.42-4.13,7.03-8.14,10.97-11.78c3.94-3.64,8.07-7.12,12.59-10.03c4.5-2.94,9.29-5.46,14.33-7.42L1149.47,512.66z" class="color663d10 svgShape"></path><rect width="126.55" height="246.38" x="855.42" y="582.01" fill="#9edde5" class="colore5ca9e svgShape"></rect><path fill="#64a7af" d="M912.16 591.8h-32.71c-2.27 0-4.11 1.78-4.11 3.97v8.35c0 2.2 1.84 3.97 4.11 3.97h32.71c2.27 0 4.11-1.78 4.11-3.97v-8.35C916.28 593.57 914.44 591.8 912.16 591.8zM967.5 605.85h-32.71c-2.27 0-4.11 1.78-4.11 3.97v8.35c0 2.2 1.84 3.97 4.11 3.97h32.71c2.27 0 4.11-1.78 4.11-3.97v-8.35C971.62 607.63 969.78 605.85 967.5 605.85zM940.97 631.69h-32.71c-2.27 0-4.11 1.78-4.11 3.97v8.35c0 2.2 1.84 3.97 4.11 3.97h32.71c2.27 0 4.11-1.78 4.11-3.97v-8.35C945.08 633.47 943.24 631.69 940.97 631.69zM912.16 657.52h-32.71c-2.27 0-4.11 1.78-4.11 3.97v8.35c0 2.2 1.84 3.97 4.11 3.97h32.71c2.27 0 4.11-1.78 4.11-3.97v-8.35C916.28 659.3 914.44 657.52 912.16 657.52zM967.5 671.58h-32.71c-2.27 0-4.11 1.78-4.11 3.97v8.35c0 2.2 1.84 3.97 4.11 3.97h32.71c2.27 0 4.11-1.78 4.11-3.97v-8.35C971.62 673.36 969.78 671.58 967.5 671.58zM967.5 638.71h-7.25c-2.27 0-4.11 1.78-4.11 3.97v8.35c0 2.2 1.84 3.97 4.11 3.97h7.25c2.27 0 4.11-1.78 4.11-3.97v-8.35C971.62 640.49 969.78 638.71 967.5 638.71zM889.95 619.52h-10.49c-2.27 0-4.11 1.78-4.11 3.97v8.35c0 2.2 1.84 3.97 4.11 3.97h10.49c2.27 0 4.11-1.78 4.11-3.97v-8.35C894.06 621.3 892.22 619.52 889.95 619.52zM967.5 704.75h-7.25c-2.27 0-4.11 1.78-4.11 3.97v8.35c0 2.2 1.84 3.97 4.11 3.97h7.25c2.27 0 4.11-1.78 4.11-3.97v-8.35C971.62 706.53 969.78 704.75 967.5 704.75zM889.95 685.56h-10.49c-2.27 0-4.11 1.78-4.11 3.97v8.35c0 2.2 1.84 3.97 4.11 3.97h10.49c2.27 0 4.11-1.78 4.11-3.97v-8.35C894.06 687.34 892.22 685.56 889.95 685.56zM967.5 770.79h-7.25c-2.27 0-4.11 1.78-4.11 3.97v8.35c0 2.2 1.84 3.97 4.11 3.97h7.25c2.27 0 4.11-1.78 4.11-3.97v-8.35C971.62 772.57 969.78 770.79 967.5 770.79zM889.95 751.6h-10.49c-2.27 0-4.11 1.78-4.11 3.97v8.35c0 2.2 1.84 3.97 4.11 3.97h10.49c2.27 0 4.11-1.78 4.11-3.97v-8.35C894.06 753.38 892.22 751.6 889.95 751.6zM940.97 697.41h-32.71c-2.27 0-4.11 1.78-4.11 3.97v8.35c0 2.2 1.84 3.97 4.11 3.97h32.71c2.27 0 4.11-1.78 4.11-3.97v-8.35C945.08 699.19 943.24 697.41 940.97 697.41zM912.16 723.25h-32.71c-2.27 0-4.11 1.78-4.11 3.97v8.35c0 2.2 1.84 3.97 4.11 3.97h32.71c2.27 0 4.11-1.78 4.11-3.97v-8.35C916.28 725.03 914.44 723.25 912.16 723.25zM967.5 737.3h-32.71c-2.27 0-4.11 1.78-4.11 3.97v8.35c0 2.2 1.84 3.97 4.11 3.97h32.71c2.27 0 4.11-1.78 4.11-3.97v-8.35C971.62 739.08 969.78 737.3 967.5 737.3zM940.97 763.14h-32.71c-2.27 0-4.11 1.78-4.11 3.97v8.35c0 2.2 1.84 3.97 4.11 3.97h32.71c2.27 0 4.11-1.78 4.11-3.97v-8.35C945.08 764.92 943.24 763.14 940.97 763.14zM912.16 788.98h-32.71c-2.27 0-4.11 1.78-4.11 3.97v8.35c0 2.2 1.84 3.97 4.11 3.97h32.71c2.27 0 4.11-1.78 4.11-3.97v-8.35C916.28 790.76 914.44 788.98 912.16 788.98zM967.5 803.03h-32.71c-2.27 0-4.11 1.78-4.11 3.97v8.35c0 2.2 1.84 3.97 4.11 3.97h32.71c2.27 0 4.11-1.78 4.11-3.97v-8.35C971.62 804.81 969.78 803.03 967.5 803.03z" class="color999999 svgShape"></path><rect width="108.72" height="209.21" x="864.33" y="372.8" fill="#9edde5" class="colore5ca9e svgShape"></rect><path fill="#e6e6e6" d="M864.33,372.8v6.48h81.29c8.95,0,16.2,7.25,16.2,16.2v186.52h11.22V372.8H864.33z" class="colore6e6e6 svgShape"></path><rect width="90.41" height="143.59" x="873.49" y="229.21" fill="#9edde5" class="colore5ca9e svgShape"></rect><path fill="#e6e6e6" d="M873.49,229.21v5.04h72.21c5.42,0,9.82,4.39,9.82,9.82V372.8h8.38V229.21H873.49z" class="colore6e6e6 svgShape"></path><polygon fill="#376166" points="873.49 229.21 963.89 229.21 918.69 110.08" class="color66373c svgShape"></polygon><path fill="#376166" d="M974.73 354.45H862.65c-2.76 0-4.99 2.23-4.99 4.99v8.37c0 2.76 2.23 4.99 4.99 4.99h112.08c2.76 0 4.99-2.23 4.99-4.99v-8.37C979.72 356.68 977.49 354.45 974.73 354.45zM983.52 563.66H853.87c-2.76 0-4.99 2.23-4.99 4.99v8.37c0 2.76 2.23 4.99 4.99 4.99h129.65c2.76 0 4.99-2.23 4.99-4.99v-8.37C988.51 565.89 986.27 563.66 983.52 563.66z" class="color66373c svgShape"></path><g fill="#000000" class="color000000 svgShape"><path fill="#376166" d="M952.08,534.28h-66.77l0.02-91.94c0-19.74,12.77-36.62,29.78-38.66c0.37-0.05,0.75-0.08,1.12-0.12
					c19.4-1.66,35.83,16.4,35.83,38.86L952.08,534.28z" class="color66373c svgShape"></path><path fill="#ffffff" d="M920.18 530.74V407.03l2.4.24c7.23.78 13.89 4.64 18.78 10.88 4.87 6.22 7.55 14.27 7.55 22.66v89.93H920.18zM888.4 530.74v-89.93c0-8.39 2.68-16.44 7.55-22.66 4.88-6.24 11.55-10.1 18.78-10.88l2.4-.24v123.71H888.4z" class="colorffffff svgShape"></path><rect width="62.98" height="2.82" x="887.2" y="443.93" fill="#376166" class="color66373c svgShape"></rect><rect width="62.98" height="2.82" x="887.2" y="488.81" fill="#376166" class="color66373c svgShape"></rect></g><g fill="#000000" class="color000000 svgShape"><path fill="#376166" d="M943.84,341.75h-50.29l0.01-69.25c0-14.86,9.62-27.58,22.43-29.12c0.28-0.03,0.56-0.06,0.85-0.09
					c14.61-1.25,26.99,12.35,26.99,29.27L943.84,341.75z" class="color66373c svgShape"></path><path fill="#ffffff" d="M919.81 339.08v-93.18l1.8.18c5.44.59 10.46 3.5 14.14 8.19 3.67 4.69 5.69 10.75 5.69 17.07v67.73H919.81zM895.88 339.08v-67.73c0-6.32 2.02-12.38 5.69-17.07 3.68-4.7 8.7-7.61 14.14-8.19l1.81-.18v93.18H895.88z" class="colorffffff svgShape"></path><rect width="47.43" height="2.13" x="894.97" y="273.69" fill="#376166" class="color66373c svgShape"></rect><rect width="47.43" height="2.13" x="894.97" y="307.5" fill="#376166" class="color66373c svgShape"></rect></g><path fill="#e6e6e6" d="M855.42 582.01v6.04h100.31c7.53 0 13.63 6.1 13.63 13.63v226.7h12.61V582.01H855.42zM963.89 229.21h-90.4c39.46-8.14 59.27-37.63 68.45-57.88L963.89 229.21z" class="colore6e6e6 svgShape"></path><path fill="#64a7af" d="M929.06,137.4c-4.81,14.8-14.77,32.77-35.18,38.08l24.81-65.4L929.06,137.4z" class="color999999 svgShape"></path><g fill="#000000" class="color000000 svgShape"><rect width="126.55" height="246.38" x="341.04" y="582.01" fill="#9edde5" class="colore5ca9e svgShape"></rect><path fill="#64a7af" d="M390.05 591.8h-32.71c-2.27 0-4.11 1.78-4.11 3.97v8.35c0 2.2 1.84 3.97 4.11 3.97h32.71c2.27 0 4.11-1.78 4.11-3.97v-8.35C394.17 593.57 392.32 591.8 390.05 591.8zM445.39 605.85h-32.71c-2.27 0-4.11 1.78-4.11 3.97v8.35c0 2.2 1.84 3.97 4.11 3.97h32.71c2.27 0 4.11-1.78 4.11-3.97v-8.35C449.51 607.63 447.66 605.85 445.39 605.85zM418.85 631.69h-32.71c-2.27 0-4.11 1.78-4.11 3.97v8.35c0 2.2 1.84 3.97 4.11 3.97h32.71c2.27 0 4.11-1.78 4.11-3.97v-8.35C422.97 633.47 421.12 631.69 418.85 631.69zM390.05 657.52h-32.71c-2.27 0-4.11 1.78-4.11 3.97v8.35c0 2.2 1.84 3.97 4.11 3.97h32.71c2.27 0 4.11-1.78 4.11-3.97v-8.35C394.17 659.3 392.32 657.52 390.05 657.52zM445.39 671.58h-32.71c-2.27 0-4.11 1.78-4.11 3.97v8.35c0 2.2 1.84 3.97 4.11 3.97h32.71c2.27 0 4.11-1.78 4.11-3.97v-8.35C449.51 673.36 447.66 671.58 445.39 671.58zM445.39 638.71h-7.25c-2.27 0-4.11 1.78-4.11 3.97v8.35c0 2.2 1.84 3.97 4.11 3.97h7.25c2.27 0 4.11-1.78 4.11-3.97v-8.35C449.51 640.49 447.66 638.71 445.39 638.71zM367.83 619.52h-10.49c-2.27 0-4.11 1.78-4.11 3.97v8.35c0 2.2 1.84 3.97 4.11 3.97h10.49c2.27 0 4.11-1.78 4.11-3.97v-8.35C371.95 621.3 370.1 619.52 367.83 619.52zM445.39 704.75h-7.25c-2.27 0-4.11 1.78-4.11 3.97v8.35c0 2.2 1.84 3.97 4.11 3.97h7.25c2.27 0 4.11-1.78 4.11-3.97v-8.35C449.51 706.53 447.66 704.75 445.39 704.75zM367.83 685.56h-10.49c-2.27 0-4.11 1.78-4.11 3.97v8.35c0 2.2 1.84 3.97 4.11 3.97h10.49c2.27 0 4.11-1.78 4.11-3.97v-8.35C371.95 687.34 370.1 685.56 367.83 685.56zM445.39 770.79h-7.25c-2.27 0-4.11 1.78-4.11 3.97v8.35c0 2.2 1.84 3.97 4.11 3.97h7.25c2.27 0 4.11-1.78 4.11-3.97v-8.35C449.51 772.57 447.66 770.79 445.39 770.79zM367.83 751.6h-10.49c-2.27 0-4.11 1.78-4.11 3.97v8.35c0 2.2 1.84 3.97 4.11 3.97h10.49c2.27 0 4.11-1.78 4.11-3.97v-8.35C371.95 753.38 370.1 751.6 367.83 751.6zM418.85 697.41h-32.71c-2.27 0-4.11 1.78-4.11 3.97v8.35c0 2.2 1.84 3.97 4.11 3.97h32.71c2.27 0 4.11-1.78 4.11-3.97v-8.35C422.97 699.19 421.12 697.41 418.85 697.41zM390.05 723.25h-32.71c-2.27 0-4.11 1.78-4.11 3.97v8.35c0 2.2 1.84 3.97 4.11 3.97h32.71c2.27 0 4.11-1.78 4.11-3.97v-8.35C394.17 725.03 392.32 723.25 390.05 723.25zM445.39 737.3h-32.71c-2.27 0-4.11 1.78-4.11 3.97v8.35c0 2.2 1.84 3.97 4.11 3.97h32.71c2.27 0 4.11-1.78 4.11-3.97v-8.35C449.51 739.08 447.66 737.3 445.39 737.3zM418.85 763.14h-32.71c-2.27 0-4.11 1.78-4.11 3.97v8.35c0 2.2 1.84 3.97 4.11 3.97h32.71c2.27 0 4.11-1.78 4.11-3.97v-8.35C422.97 764.92 421.12 763.14 418.85 763.14zM390.05 788.98h-32.71c-2.27 0-4.11 1.78-4.11 3.97v8.35c0 2.2 1.84 3.97 4.11 3.97h32.71c2.27 0 4.11-1.78 4.11-3.97v-8.35C394.17 790.76 392.32 788.98 390.05 788.98zM445.39 803.03h-32.71c-2.27 0-4.11 1.78-4.11 3.97v8.35c0 2.2 1.84 3.97 4.11 3.97h32.71c2.27 0 4.11-1.78 4.11-3.97v-8.35C449.51 804.81 447.66 803.03 445.39 803.03z" class="color999999 svgShape"></path><rect width="108.72" height="209.21" x="349.96" y="372.8" fill="#9edde5" class="colore5ca9e svgShape"></rect><path fill="#e6e6e6" d="M349.96,372.8v6.48h81.29c8.95,0,16.2,7.25,16.2,16.2v186.52h11.22V372.8H349.96z" class="colore6e6e6 svgShape"></path><rect width="90.41" height="143.59" x="359.12" y="229.21" fill="#9edde5" class="colore5ca9e svgShape"></rect><path fill="#e6e6e6" d="M359.12,229.21v5.04h72.21c5.42,0,9.82,4.39,9.82,9.82V372.8h8.38V229.21H359.12z" class="colore6e6e6 svgShape"></path><polygon fill="#376166" points="359.12 229.21 449.52 229.21 404.32 110.08" class="color66373c svgShape"></polygon><path fill="#376166" d="M460.36 354.45H348.28c-2.76 0-4.99 2.23-4.99 4.99v8.37c0 2.76 2.23 4.99 4.99 4.99h112.08c2.76 0 4.99-2.23 4.99-4.99v-8.37C465.35 356.68 463.11 354.45 460.36 354.45zM469.14 563.66H339.49c-2.76 0-4.99 2.23-4.99 4.99v8.37c0 2.76 2.23 4.99 4.99 4.99h129.65c2.76 0 4.99-2.23 4.99-4.99v-8.37C474.13 565.89 471.9 563.66 469.14 563.66z" class="color66373c svgShape"></path><g fill="#000000" class="color000000 svgShape"><path fill="#376166" d="M437.7,534.28h-66.77l0.02-91.94c0-19.74,12.77-36.62,29.78-38.66c0.37-0.05,0.75-0.08,1.12-0.12
					c19.4-1.66,35.83,16.4,35.83,38.86L437.7,534.28z" class="color66373c svgShape"></path><path fill="#ffffff" d="M405.81 530.74V407.03l2.4.24c7.23.78 13.89 4.64 18.78 10.88 4.87 6.22 7.55 14.27 7.55 22.66v89.93H405.81zM374.03 530.74v-89.93c0-8.39 2.68-16.44 7.55-22.66 4.88-6.24 11.55-10.1 18.78-10.88l2.4-.24v123.71H374.03z" class="colorffffff svgShape"></path><rect width="62.98" height="2.82" x="372.83" y="443.93" fill="#376166" class="color66373c svgShape"></rect><rect width="62.98" height="2.82" x="372.83" y="488.81" fill="#376166" class="color66373c svgShape"></rect></g><g fill="#000000" class="color000000 svgShape"><path fill="#376166" d="M429.46,341.75h-50.29l0.01-69.25c0-14.86,9.62-27.58,22.43-29.12c0.28-0.03,0.56-0.06,0.85-0.09
					c14.61-1.25,26.99,12.35,26.99,29.27L429.46,341.75z" class="color66373c svgShape"></path><path fill="#ffffff" d="M405.44 339.08v-93.18l1.81.18c5.44.59 10.46 3.5 14.14 8.19 3.67 4.69 5.69 10.75 5.69 17.07v67.73H405.44zM381.51 339.08v-67.73c0-6.32 2.02-12.38 5.69-17.07 3.68-4.7 8.7-7.61 14.14-8.19l1.81-.18v93.18H381.51z" class="colorffffff svgShape"></path><rect width="47.43" height="2.13" x="380.6" y="273.69" fill="#376166" class="color66373c svgShape"></rect><rect width="47.43" height="2.13" x="380.6" y="307.5" fill="#376166" class="color66373c svgShape"></rect></g><path fill="#e6e6e6" d="M341.04 582.01v6.04h92.98c7.53 0 13.63 6.1 13.63 13.63v226.7h19.94V582.01H341.04zM449.52 229.21h-90.4c39.46-8.14 59.27-37.63 68.45-57.88L449.52 229.21z" class="colore6e6e6 svgShape"></path><path fill="#64a7af" d="M414.68,137.4c-4.81,14.8-14.77,32.77-35.18,38.08l24.81-65.4L414.68,137.4z" class="color999999 svgShape"></path></g><polygon fill="#2f393a" points="467.47 637.6 476.57 629.4 476.46 643.56 467.47 651.66" class="color3a2f30 svgShape"></polygon><g fill="#000000" class="color000000 svgShape"><polygon fill="#376166" points="657.61 233.52 667.41 233.52 667.41 179.77 684.91 179.77 684.91 169.72 667.41 169.72 667.41 154.01 657.61 154.01 657.61 169.72 640.11 169.72 640.11 179.77 657.61 179.77" class="color66373c svgShape"></polygon><polygon fill="#c3eff4" points="662.51 223.77 585.71 334.04 739.31 334.04" class="colorf4e3c3 svgShape"></polygon><path fill="#e6e6e6" d="M739.31,334.04h-153.6c2.94-4.29,30.32-4.09,36.9-4.09c82.97-0.01,81.19-27.2,65.51-67.87l1.27,0.29
				L739.31,334.04z" class="colore6e6e6 svgShape"></path><polygon fill="#c3eff4" points="585.71 334.04 585.71 486.41 739.31 487.71 739.31 334.04" class="colorf4e3c3 svgShape"></polygon><path fill="#e6e6e6" d="M585.71,334.04v18.74h122.07c10.21,0,18.49,8.28,18.49,18.49V487.6l13.04,0.11V334.04H585.71z" class="colore6e6e6 svgShape"></path><polygon fill="#376166" points="662.6 224.72 579.44 344.03 575.13 335.3 662.6 209.34 748.27 334.05 742.4 341.54" class="color66373c svgShape"></polygon><path fill="#376166" d="M754.57,347.18H568.12c-3.47,0-6.28-2.81-6.28-6.28v-1.33c0-3.47,2.81-6.28,6.28-6.28h186.46
				c3.47,0,6.28,2.81,6.28,6.28v1.33C760.85,344.37,758.04,347.18,754.57,347.18z" class="color66373c svgShape"></path><ellipse cx="662.51" cy="293.9" fill="#376166" rx="24.34" ry="24.97" class="color66373c svgShape"></ellipse><ellipse cx="662.51" cy="293.9" fill="#ffffff" rx="22.48" ry="23.06" class="colorffffff svgShape"></ellipse><polygon fill="#376166" points="664.18 281.62 664.18 295.2 653.61 295.2 652.33 294.59 653.61 293.98 662.87 293.91 662.79 281.62 663.48 280.21" class="color66373c svgShape"></polygon><rect width="3.21" height=".85" x="682.04" y="293.47" fill="#376166" class="color66373c svgShape"></rect><rect width="3.29" height=".83" x="660.86" y="271.94" fill="#376166" transform="rotate(90 662.51 272.354)" class="color66373c svgShape"></rect><rect width="3.29" height=".83" x="660.86" y="315.07" fill="#376166" transform="rotate(90 662.51 315.478)" class="color66373c svgShape"></rect><rect width="3.21" height=".85" x="639.92" y="293.47" fill="#376166" class="color66373c svgShape"></rect></g><g fill="#000000" class="color000000 svgShape"><polygon fill="#9edde5" points="458.7 555.18 458.7 828.21 864.32 828.21 864.32 555.18 661.51 410.83" class="colore5ca9e svgShape"></polygon><path fill="#e6e6e6" d="M661.51,410.83l-8.52,6.07L832,544.31c10.55,7.51,16.81,19.65,16.81,32.6v251.24l15.51,0.07V555.18
				L661.51,410.83z" class="colore6e6e6 svgShape"></path><polygon fill="#376166" points="661.51 410.83 458.7 555.18 458.7 536.87 661.51 390.7 864.32 538.06 864.32 555.18" class="color66373c svgShape"></polygon></g><g fill="#000000" class="color000000 svgShape"><polygon fill="#c3eff4" points="521.01 630.84 521.01 828.21 802.55 828.21 802.55 630.84 661.78 526.49" class="colorf4e3c3 svgShape"></polygon><path fill="#e6e6e6" d="M661.78,526.49l-6.97,5.17l129.14,95.73c4.13,3.06,6.56,7.9,6.56,13.04v187.74l12.03,0.05V630.84
				L661.78,526.49z" class="colore6e6e6 svgShape"></path><polygon fill="#376166" points="663.43 526.49 521.01 630.84 521.01 618.38 663.43 511.93 802.55 616.49 802.55 630.84" class="color66373c svgShape"></polygon></g><rect width="28.18" height="26.08" x="548.39" y="668.74" fill="#ffffff" class="colorffffff svgShape"></rect><rect width="28.18" height="26.08" x="548.39" y="723.18" fill="#ffffff" class="colorffffff svgShape"></rect><rect width="28.18" height="26.08" x="548.39" y="777.61" fill="#ffffff" class="colorffffff svgShape"></rect><rect width="28.18" height="26.08" x="745.93" y="668.74" fill="#ffffff" class="colorffffff svgShape"></rect><rect width="28.18" height="26.08" x="745.93" y="723.18" fill="#ffffff" class="colorffffff svgShape"></rect><rect width="28.18" height="26.08" x="745.93" y="777.61" fill="#ffffff" class="colorffffff svgShape"></rect><g fill="#000000" class="color000000 svgShape"><path fill="#376166" d="M722.14,828.21H601.42l0.03-144.02c0.01-30.91,23.09-57.36,53.84-60.56c0.68-0.07,1.35-0.13,2.03-0.18
				c35.08-2.6,64.79,25.69,64.79,60.87L722.14,828.21z" class="color66373c svgShape"></path><path fill="#589299" d="M664.47 822.67V628.89l4.33.38c13.06 1.22 25.12 7.27 33.95 17.04 8.81 9.74 13.66 22.35 13.66 35.49v140.87H664.47zM607.02 822.67V681.81c0-13.14 4.85-25.75 13.66-35.49 8.83-9.77 20.89-15.83 33.95-17.04l4.34-.38v193.78H607.02z" class="color99585f svgShape"></path><rect width="114.3" height="4.83" x="604.63" y="685.56" fill="#376166" class="color66373c svgShape"></rect><rect width="114.3" height="4.83" x="604.63" y="757.45" fill="#376166" class="color66373c svgShape"></rect></g><g fill="#000000" class="color000000 svgShape"><rect width="1103.03" height="2.66" x="130.49" y="828.2" fill="#c1c5c6" class="colorc1c4c6 svgShape"></rect><rect width="174.4" height="2.66" x="413.48" y="847.26" fill="#c1c5c6" class="colorc1c4c6 svgShape"></rect><rect width="41.77" height="2.66" x="605.9" y="847.26" fill="#c1c5c6" class="colorc1c4c6 svgShape"></rect></g><g fill="#000000" class="color000000 svgShape"><path fill="#277d87" d="M356.66,636.2c4.75,8.7,12.17,18.43,8.55,35.17c-4.67,21.65-27.79,42.4-56.41,30.33
			c-28.63-12.06-43.24,6.74-43.24,6.74s-35.22,21.66-53.18-6.52c-17.96-28.18-41.98-21.24-50.36-45.39
			c-11.5-33.19,2.08-64.51,29.22-76.24c1.46-0.63,2.79-1.45,4.02-2.45c13.77-11.06,14.86-42.49,41.09-46.77
			c23.22-3.79,36.3,25.99,53.13,20.61c16.83-5.39,37.59-23.23,54.39-12.57c14.66,9.28,35.93,46.48,13.77,74.83
			C350.72,622.79,352.81,629.16,356.66,636.2z" class="color648727 svgShape"></path><path fill="#429aa5" d="M357.63,613.95c-6.91,8.84-4.82,15.21-0.98,22.25c-55.28,59.14-72.18,5.23-120.51,6.96
			c-45.66,1.64-39.67-48.51-40.89-65.32c13.77-11.06,14.86-42.49,41.09-46.77c23.22-3.79,36.3,25.99,53.13,20.61
			c16.83-5.39,37.59-23.23,54.39-12.57C358.53,548.4,379.79,585.6,357.63,613.95z" class="color77a542 svgShape"></path><path fill="#105d66" d="M328.14,598.11c-8.37,4.13-16.26,9.35-23.13,15.76c-1.55,1.43-3.04,2.91-4.49,4.44
			c0.3-1.33,0.58-2.67,0.83-4.01c0.54-2.93,1-5.89,1.24-8.87c0.23-2.98,0.39-5.98,0.17-8.98c-0.21-2.99-0.68-6-1.72-8.86l-1.09,0.39
			c0.9,2.74,1.26,5.64,1.37,8.54c0.13,2.91-0.12,5.83-0.44,8.73c-0.33,2.9-0.87,5.79-1.49,8.65c-0.6,2.69-1.3,5.39-2.11,7.99
			c-3.71,4.31-7.05,8.94-10.01,13.81c-4.91,8.04-8.73,16.72-11.66,25.69c-1.05,3.24-1.97,6.53-2.77,9.85
			c-2.17-9.7-4.61-19.34-7.35-28.88l-0.53-1.81c0.39-2.56,0.99-5.24,1.71-7.8c0.83-2.87,1.81-5.71,3.07-8.42
			c1.27-2.7,2.75-5.31,4.56-7.68c1.85-2.33,4.03-4.39,6.56-6.01l-0.55-1.02c-2.82,1.43-5.36,3.41-7.57,5.7
			c-2.17,2.33-4,4.93-5.61,7.66c-1.6,2.74-2.92,5.62-4.09,8.56c-0.15,0.39-0.29,0.79-0.44,1.18l-0.56-1.72l0.01-0.01
			c0-0.01-0.01-0.01-0.01-0.01l-1.18-3.62c-0.84-2.48-1.57-5-2.5-7.45l-2.68-7.39c-3.71-9.8-7.66-19.48-12.47-28.84l-1.47,0.74
			c4.18,9.46,7.54,19.33,10.63,29.22l2.22,7.46c0.38,1.23,0.72,2.48,1.04,3.72c-0.94-0.86-1.88-1.72-2.83-2.57
			c-3.16-2.8-6.39-5.52-9.72-8.12c-6.67-5.16-13.71-9.97-21.47-13.36l-0.49,1.05c7.32,3.9,13.82,9.13,19.96,14.69
			c3.06,2.79,6.02,5.71,8.89,8.68c2.79,2.91,5.55,5.92,8.12,8.95l0.52,1.97l1.72,7.58c4.54,20.22,8.24,40.66,9.76,61.28
			c4.8,65.19-7.54,123.41-7.54,123.41l31.96-0.17c0,0-13.28-71.17-15.47-124.36c-0.28-6.82-4.14-19.81-2.49-27.91
			c0.91-4.47,1.79-8.95,3.04-13.34c2.52-8.78,5.93-17.33,10.41-25.31c4.46-7.98,9.98-15.4,16.5-21.86
			c6.48-6.5,14.05-11.91,22.16-16.28L328.14,598.11z" class="color663d10 svgShape"></path></g><path fill="#429aa5" d="M948.49,828.2c0,0,6.64-27.6,28.41-17.56c0,0,6.09-14.22,18.63-7.74c0,0,12.75-24.67,33.24-5.64
		c0,0,13.59-9.62,21.74,2.09c0,0,25.93-9.11,36.59,14.84c0,0,23.21-8.57,29.48,14.01H948.49z" class="color77a542 svgShape"></path></svg>