<svg xmlns="http://www.w3.org/2000/svg" xmlns:xlink="http://www.w3.org/1999/xlink" id="Capa_1" x="0px" y="0px" viewBox="0 0 100 22.5" style="enable-background:new 0 0 100 22.5;" xml:space="preserve"><style type="text/css">	.st0{fill:url(#SVGID_1_);}	.st1{fill:url(#SVGID_00000056393506391129492400000007576034038673147522_);}	.st2{fill:url(#SVGID_00000059276484643626392440000004385219482121028268_);}	.st3{fill:url(#SVGID_00000084527355704647385780000013848906653067839896_);}	.st4{fill:url(#SVGID_00000046305083734227458600000013586432229773308306_);}	.st5{fill:url(#SVGID_00000010275043417753775180000011339916916228315011_);}	.st6{fill:url(#SVGID_00000031184631990081364780000003053474252819769014_);}	.st7{fill:url(#SVGID_00000003801324329961908700000013887820870663092130_);}</style><g>	<g>		<g>			<linearGradient id="SVGID_1_" gradientUnits="userSpaceOnUse" x1="27.316" y1="40.6335" x2="72.684" y2="-4.7346">				<stop offset="0" style="stop-color:#d9b557"/>				<stop offset="0.3054" style="stop-color:#d9b557"/>				<stop offset="0.6522" style="stop-color:#d9b557"/>				<stop offset="1" style="stop-color:#d9b557"/>			</linearGradient>			<path class="st0" d="M93.5,19.6c-1-0.6-2.1-1.1-3.1-1.6c1.1-0.5,2.1-1,3.1-1.6c0.1-0.1,0.1-0.2,0.1-0.2C93.5,16,93.4,16,93.3,16    c-1.1,0.7-2.2,1.2-3.4,1.7c-2.4-1-5-1.5-7.7-1.7c-3.6-0.2-7.3,0.5-10.4,1.1c-0.5,0.1-1,0.2-1.5,0.3c-0.4,0.1-0.8,0.2-1.2,0.3    c-3.5-0.7-7.1-1.3-10.6-1.2c-2.1,0.1-4.1,0.5-5.9,1.2c-0.9-0.3-1.7-0.7-2.4-1.2c-0.1,0-0.1,0-0.2,0c-0.7,0.5-1.5,0.8-2.4,1.2    c-1.8-0.7-3.8-1.1-5.9-1.2c-3.6-0.2-7.2,0.5-10.6,1.2c-0.4-0.1-0.8-0.2-1.2-0.3c-0.5-0.1-1-0.2-1.5-0.3    c-3.1-0.6-6.8-1.3-10.4-1.1c-2.6,0.1-5.2,0.7-7.7,1.7C9,17.3,7.8,16.7,6.7,16c-0.1-0.1-0.2,0-0.2,0.1c-0.1,0.1,0,0.2,0.1,0.2    c1,0.6,2.1,1.1,3.1,1.6c-1.1,0.5-2.1,1-3.1,1.6c-0.1,0.1-0.1,0.2-0.1,0.2c0,0.1,0.1,0.1,0.2,0.1c0,0,0.1,0,0.1,0    c1.1-0.7,2.2-1.2,3.4-1.7c2.4,1,5,1.5,7.7,1.7c0.4,0,0.8,0,1.2,0c3.2,0,6.4-0.6,9.2-1.1c0.5-0.1,1-0.2,1.5-0.3    c0.4-0.1,0.8-0.2,1.2-0.3c3.5,0.7,7.1,1.3,10.6,1.2c2.1-0.1,4.1-0.5,5.9-1.2c0.9,0.3,1.7,0.7,2.4,1.2c0,0,0.1,0,0.1,0    c0,0,0.1,0,0.1,0c0.7-0.5,1.5-0.8,2.4-1.2c1.8,0.7,3.8,1.1,5.9,1.2c0.4,0,0.8,0,1.2,0c3.2,0,6.4-0.6,9.5-1.2    c0.4,0.1,0.8,0.2,1.2,0.3c0.5,0.1,1,0.2,1.5,0.3c2.8,0.6,6,1.1,9.2,1.1c0.4,0,0.8,0,1.2,0c2.6-0.1,5.2-0.7,7.7-1.7    c1.2,0.5,2.3,1.1,3.4,1.7c0,0,0.1,0,0.1,0c0.1,0,0.1,0,0.2-0.1C93.6,19.7,93.5,19.6,93.5,19.6z M29.7,18c-0.5,0.1-1,0.2-1.5,0.3    c-3.1,0.6-6.7,1.3-10.3,1.1c-2.5-0.1-4.9-0.6-7.2-1.5c2.3-0.9,4.7-1.4,7.2-1.5c3.6-0.2,7.2,0.5,10.3,1.1c0.5,0.1,1,0.2,1.5,0.3    c0.1,0,0.3,0.1,0.4,0.1C30,18,29.8,18,29.7,18z M41.6,19c-3.3,0.2-6.5-0.4-9.7-1c3.2-0.6,6.5-1.2,9.7-1c1.9,0.1,3.7,0.4,5.4,1    C45.3,18.5,43.5,18.9,41.6,19z M50,19c-0.6-0.4-1.3-0.7-2-1c0.7-0.3,1.4-0.6,2-1c0.6,0.4,1.3,0.7,2,1C51.3,18.2,50.6,18.6,50,19z     M58.4,19c-1.9-0.1-3.7-0.4-5.4-1c1.6-0.6,3.5-0.9,5.4-1c3.3-0.2,6.5,0.4,9.7,1C64.9,18.6,61.7,19.1,58.4,19z M82.2,19.5    c-3.6,0.2-7.2-0.5-10.3-1.1c-0.5-0.1-1-0.2-1.5-0.3c-0.1,0-0.3-0.1-0.4-0.1c0.1,0,0.3-0.1,0.4-0.1c0.5-0.1,1-0.2,1.5-0.3    c3.1-0.6,6.7-1.3,10.3-1.1c2.5,0.1,4.9,0.6,7.2,1.5C87.1,18.8,84.6,19.3,82.2,19.5z"/>							<linearGradient id="SVGID_00000022542617269600102250000016770063979420244360_" gradientUnits="userSpaceOnUse" x1="94.8471" y1="19.7682" x2="98.4909" y2="16.1244">				<stop offset="0" style="stop-color:#d9b557"/>				<stop offset="0.3054" style="stop-color:#d9b557"/>				<stop offset="0.6522" style="stop-color:#d9b557"/>				<stop offset="1" style="stop-color:#d9b557"/>			</linearGradient>			<path style="fill:url(#SVGID_00000022542617269600102250000016770063979420244360_);" d="M100,17.8c-0.1-0.3-0.4-0.7-0.9-0.8    c-0.7-0.2-1.5-0.2-2.3-0.1c-1.3,0.2-2.5,0.7-3.7,1.1c0.7,0.2,1.5,0.4,2.2,0.6c0.6,0.2,1.3,0.4,2,0.4c0.7,0.1,1.5,0,2-0.3    C99.8,18.5,100,18.2,100,17.8z"/>							<linearGradient id="SVGID_00000045621445733272253730000018136786369870952857_" gradientUnits="userSpaceOnUse" x1="1.5091" y1="19.7376" x2="5.1529" y2="16.0938">				<stop offset="0" style="stop-color:#d9b557"/>				<stop offset="0.3054" style="stop-color:#d9b557"/>				<stop offset="0.6522" style="stop-color:#d9b557"/>				<stop offset="1" style="stop-color:#d9b557"/>			</linearGradient>			<path style="fill:url(#SVGID_00000045621445733272253730000018136786369870952857_);" d="M4.7,17.3c-0.6-0.2-1.3-0.4-2-0.4    c-0.7-0.1-1.5,0-2,0.3C0.2,17.3,0,17.7,0,18c0.1,0.3,0.4,0.7,0.9,0.8c0.7,0.2,1.5,0.2,2.3,0.1c1.3-0.2,2.5-0.7,3.7-1.1    C6.2,17.7,5.5,17.5,4.7,17.3z"/>		</g>		<g>							<linearGradient id="SVGID_00000022525855467663329120000015447706635336799640_" gradientUnits="userSpaceOnUse" x1="31.7304" y1="30.2124" x2="68.2697" y2="-6.3269">				<stop offset="0" style="stop-color:#d9b557"/>				<stop offset="0.3054" style="stop-color:#d9b557"/>				<stop offset="0.6522" style="stop-color:#d9b557"/>				<stop offset="1" style="stop-color:#d9b557"/>			</linearGradient>			<path style="fill:url(#SVGID_00000022525855467663329120000015447706635336799640_);" d="M83,8.6c-1.5-2.2-4.5-3.2-6.9-2    c-1.7,0.9-2.8,2.8-2.6,4.6c0.1,1,0.7,1.9,1.5,2.5c0.8,0.6,1.7,0.8,2.5,0.7c0.9-0.2,1.8-0.8,2.2-1.8c0.4-0.9,0.4-1.8,0-2.6    c0-0.1-0.1-0.1-0.1-0.1c-0.1,0-0.1,0-0.2,0c-0.1,0-0.1,0.1-0.1,0.1c0,0.1,0,0.1,0,0.2c0.3,0.6,0.3,1.4,0,2.1    c-0.4,0.8-1.1,1.4-1.9,1.5c-0.7,0.1-1.5-0.1-2.1-0.6c-0.7-0.5-1.2-1.3-1.3-2.1c-0.2-1.6,0.7-3.3,2.3-4.1c2.1-1,4.9-0.2,6.3,1.9    c1.3,2,1.1,4.8-0.4,6.7c-1.4,1.8-3.9,2.9-6.4,2.6c-2.3-0.3-4.6-1.6-6.1-3.6c-0.5-0.6-0.9-1.3-1.2-1.9c-0.6-1-1.2-2-2-2.8    C63.7,7.1,59,7,56.2,9.6c-0.8,0.8-1.5,1.7-2.1,2.7c-0.3,0.4-0.5,0.8-0.8,1.2c-1.1,1.4-2.1,2.3-3.3,2.6l0,0l0,0    c-1.1-0.3-2.2-1.2-3.3-2.6c-0.3-0.4-0.5-0.8-0.8-1.2c-0.6-0.9-1.3-1.9-2.1-2.7C41,7,36.3,7.1,33.6,9.8c-0.8,0.8-1.4,1.8-2,2.8    c-0.4,0.6-0.8,1.3-1.2,1.9c-1.5,2-3.8,3.4-6.1,3.6c-2.5,0.3-5-0.7-6.4-2.6c-1.5-1.9-1.7-4.8-0.4-6.7c1.3-2,4.2-2.9,6.3-1.9    c1.6,0.8,2.5,2.5,2.3,4.1c-0.1,0.8-0.6,1.6-1.3,2.1c-0.7,0.5-1.4,0.7-2.1,0.6c-0.8-0.1-1.5-0.7-1.9-1.5c-0.4-0.7-0.4-1.5,0-2.1    c0-0.1,0-0.1,0-0.2c0-0.1-0.1-0.1-0.1-0.1c-0.1,0-0.1,0-0.2,0c-0.1,0-0.1,0.1-0.1,0.1c-0.4,0.8-0.4,1.7,0,2.6    c0.5,0.9,1.3,1.6,2.2,1.8c0.8,0.1,1.7-0.1,2.5-0.7c0.8-0.6,1.4-1.5,1.5-2.5c0.3-1.8-0.8-3.7-2.6-4.6c-2.3-1.1-5.4-0.2-6.9,2    c-1.4,2.1-1.2,5.2,0.4,7.3c1.3,1.7,3.6,2.8,6,2.8c0.3,0,0.6,0,0.8,0c0.2,0,0.4-0.1,0.6-0.1l0,0c0,0,1-0.2,1.5-0.4l0,0l0.3-0.1    c1.6-0.7,3-1.8,4-3.2c0.5-0.6,0.9-1.3,1.3-2c0.6-1,1.2-1.9,2-2.7c2.5-2.5,6.9-2.6,9.5-0.2c0.8,0.7,1.4,1.6,2,2.6    c0.3,0.4,0.5,0.8,0.8,1.2c0.7,1,1.4,1.7,2.2,2.2l0.5,0.3L48.4,16c-1.1-0.2-2.4-0.8-3.8-1.9c-0.2-0.2-0.5-0.4-0.7-0.6    c-1.3-1.1-2.6-2.1-4.2-2.6c-1.2-0.3-2.6-0.1-3.5,0.6c-0.6,0.4-1.1,1-1.2,1.7l0,0.1l-0.1,0c-0.2,0.1-0.5,0.2-0.6,0.3    c-0.5,0.4-0.6,1.1-0.4,1.6c0.3,0.5,0.9,0.9,1.5,0.8c0.6-0.1,1.1-0.6,1.1-1.2c0.1-0.5-0.2-1-0.7-1.4c-0.1,0-0.1-0.1-0.2-0.1    l-0.1,0l0-0.1c0.2-0.7,0.7-1.1,1-1.3c0.9-0.6,2.1-0.8,3.1-0.5c1.5,0.4,2.8,1.5,4,2.5c0.2,0.2,0.5,0.4,0.7,0.6    c2,1.7,3.8,2.3,5.4,2c0,0,0.1,0,0.1,0c0,0,0.1,0,0.1,0l0,0l0,0c0,0,0.1,0,0.1,0c0,0,0.1,0,0.1,0c1.6,0.3,3.4-0.4,5.4-2    c0.2-0.2,0.5-0.4,0.7-0.6l0.1,0c1.2-1,2.5-2.1,4-2.5c1-0.3,2.3-0.1,3.1,0.5c0.3,0.2,0.8,0.6,1,1.4l0,0.1l-0.1,0    c-0.1,0.1-0.2,0.1-0.3,0.2c-0.5,0.4-0.6,1.1-0.4,1.6c0.3,0.5,0.9,0.9,1.5,0.8c0.6-0.1,1.1-0.6,1.1-1.2c0.1-0.5-0.2-1-0.7-1.4    c-0.2-0.1-0.4-0.2-0.6-0.2l-0.1,0l0-0.1c-0.2-0.7-0.6-1.3-1.2-1.7c-1-0.7-2.4-0.9-3.5-0.6c-1.6,0.4-2.9,1.5-4.2,2.6l0,0    c-0.2,0.2-0.5,0.4-0.7,0.6c-1.4,1.1-2.6,1.8-3.8,1.9L51,16.1l0.5-0.3c0.8-0.5,1.5-1.2,2.2-2.2c0.3-0.4,0.5-0.8,0.8-1.2l0,0    c0.6-0.9,1.2-1.8,2-2.6c1.3-1.1,2.9-1.7,4.6-1.7c1.8,0,3.6,0.6,4.9,1.9c0.8,0.8,1.4,1.7,2,2.7c0.4,0.7,0.8,1.3,1.3,2    c1.1,1.5,2.7,2.6,4.4,3.3l0.3,0.1c0,0,1.1,0.3,1.8,0.4c0.3,0,0.6,0,0.8,0c2.4,0,4.7-1.1,6-2.8C84.2,13.7,84.4,10.7,83,8.6z"/>							<linearGradient id="SVGID_00000038407513760852971690000007988693896429929628_" gradientUnits="userSpaceOnUse" x1="46.6033" y1="10.174" x2="53.3956" y2="3.3817">				<stop offset="0" style="stop-color:#d9b557"/>				<stop offset="0.3054" style="stop-color:#d9b557"/>				<stop offset="0.6522" style="stop-color:#d9b557"/>				<stop offset="1" style="stop-color:#d9b557"/>			</linearGradient>			<path style="fill:url(#SVGID_00000038407513760852971690000007988693896429929628_);" d="M50,13.6c0.6-1.7,1.1-3.7,1.6-6.1    c0.2-1.2,0.5-2.5,0.3-3.8c-0.1-0.8-0.3-1.7-0.8-2.4c-0.4-0.5-0.8-0.9-1.1-1.3L50,0l-0.1,0.1c-0.4,0.4-0.7,0.8-1.1,1.3    c-0.4,0.7-0.7,1.5-0.7,2.3c-0.1,1.3,0.1,2.6,0.3,3.8C48.9,9.9,49.4,11.8,50,13.6z"/>							<linearGradient id="SVGID_00000170275054908736958730000009050805350150360755_" gradientUnits="userSpaceOnUse" x1="49.0559" y1="22.3486" x2="50.9641" y2="20.4405">				<stop offset="0" style="stop-color:#d9b557"/>				<stop offset="0.3054" style="stop-color:#d9b557"/>				<stop offset="0.6522" style="stop-color:#d9b557"/>				<stop offset="1" style="stop-color:#d9b557"/>			</linearGradient>			<path style="fill:url(#SVGID_00000170275054908736958730000009050805350150360755_);" d="M50.8,20.3c-0.2-0.1-0.5-0.2-0.8-0.2    c-0.2,0-0.3,0-0.4,0.1c-0.2,0.1-0.4,0.2-0.6,0.4c-0.3,0.3-0.4,0.8-0.3,1.1c0.1,0.4,0.4,0.7,0.7,0.8c0.5,0.2,1.1,0.2,1.5-0.1    c0.4-0.3,0.6-0.9,0.5-1.4C51.2,20.7,51,20.4,50.8,20.3z"/>							<linearGradient id="SVGID_00000105399877528969957040000012903054315486982019_" gradientUnits="userSpaceOnUse" x1="53.6896" y1="21.8544" x2="54.5996" y2="20.9444">				<stop offset="0" style="stop-color:#d9b557"/>				<stop offset="0.3054" style="stop-color:#d9b557"/>				<stop offset="0.6522" style="stop-color:#d9b557"/>				<stop offset="1" style="stop-color:#d9b557"/>			</linearGradient>			<path style="fill:url(#SVGID_00000105399877528969957040000012903054315486982019_);" d="M54.5,20.9c-0.1-0.1-0.2-0.1-0.4-0.1    c-0.1,0-0.1,0-0.2,0c-0.1,0-0.2,0.1-0.3,0.2c-0.1,0.1-0.2,0.4-0.2,0.5c0,0.2,0.2,0.3,0.4,0.4c0.2,0.1,0.5,0.1,0.7-0.1    c0.2-0.1,0.3-0.4,0.2-0.7C54.7,21,54.6,20.9,54.5,20.9z"/>							<linearGradient id="SVGID_00000175281085205772771910000016508566149694498185_" gradientUnits="userSpaceOnUse" x1="45.4005" y1="21.8647" x2="46.3105" y2="20.9547">				<stop offset="0" style="stop-color:#d9b557"/>				<stop offset="0.3054" style="stop-color:#d9b557"/>				<stop offset="0.6522" style="stop-color:#d9b557"/>				<stop offset="1" style="stop-color:#d9b557"/>			</linearGradient>			<path style="fill:url(#SVGID_00000175281085205772771910000016508566149694498185_);" d="M46.2,20.9c-0.1,0-0.2-0.1-0.3-0.1    c-0.2,0-0.3,0-0.4,0.1c-0.2,0.1-0.3,0.4-0.2,0.7c0.1,0.2,0.2,0.3,0.3,0.3c0.2,0.1,0.4,0.1,0.6,0.1c0.1,0,0.2-0.1,0.3-0.2    c0.1-0.1,0.2-0.4,0.2-0.5C46.5,21.1,46.3,20.9,46.2,20.9z"/>		</g>	</g></g></svg>