<svg xmlns="http://www.w3.org/2000/svg" xmlns:xlink="http://www.w3.org/1999/xlink" viewBox="0 0 1080 1080" width="1080" height="1080" style="width: 100%; height: 100%; transform: translate3d(0px, 0px, 0px);" preserveAspectRatio="xMidYMid meet" id="Inflatable Castle"><defs><clipPath id="__lottie_element_502"><rect width="1080" height="1080" x="0" y="0"/></clipPath><symbol id="__lottie_element_511"><g><g style="display: block;" transform="matrix(1,0,0,1,540,540)" opacity="1"><g opacity="1" transform="matrix(1,0,0,1,-3.174999952316284,437.7699890136719)"><path fill="rgb(233,123,165)" fill-opacity="1" d=" M416.1285095214844,-81.16649627685547 C416.1285095214844,-81.16649627685547 416.1285095214844,81.16649627685547 416.1285095214844,81.16649627685547 C416.1285095214844,81.16649627685547 -416.1285095214844,81.16649627685547 -416.1285095214844,81.16649627685547 C-416.1285095214844,81.16649627685547 -416.1285095214844,-81.16649627685547 -416.1285095214844,-81.16649627685547 C-416.1285095214844,-81.16649627685547 416.1285095214844,-81.16649627685547 416.1285095214844,-81.16649627685547z"/></g></g></g></symbol><filter id="__lottie_element_582" filterUnits="objectBoundingBox" x="0%" y="0%" width="100%" height="100%"><feComponentTransfer in="SourceGraphic"><feFuncA type="table" tableValues="1.0 0.0"/></feComponentTransfer></filter><mask id="__lottie_element_511_2" mask-type="alpha"><g filter="url(#__lottie_element_582)"><rect width="1080" height="1080" x="0" y="0" fill="#ffffff" opacity="0"/><use a0:href="#__lottie_element_511" xmlns:a0="http://www.w3.org/1999/xlink"/></g></mask></defs><g clip-path="url(#__lottie_element_502)"><g style="display: block;" transform="matrix(7.599999904632568,0,0,8,539.0499877929688,613.242919921875)" opacity="1"><g opacity="1" transform="matrix(1,0,0,1,0,0)"><path fill="rgb(255,223,81)" fill-opacity="1" d=" M10,-46 C10,-46 14,-44 14,-44 C6,-40 9,-47 0,-44 C0,-44 0,-50 0,-50 C3.5399999618530273,-51.18000030517578 5.21999979019165,-50.810001373291016 6.449999809265137,-50.16999816894531 C8.34000015258789,-49.189998626708984 9.149999618530273,-47.56999969482422 14,-50 C14,-50 10,-46 10,-46z"/></g><g opacity="1" transform="matrix(1,0,0,1,0,0)"><path stroke-linecap="round" stroke-linejoin="round" fill-opacity="0" stroke="rgb(95,118,44)" stroke-opacity="1" stroke-width="2" d=" M0,-39 C0,-39 0,-50 0,-50"/></g></g><g style="display: block;" transform="matrix(8.37957763671875,0,0,7.206362247467041,539.0499877929688,591.9349365234375)" opacity="1"><g opacity="1" transform="matrix(1,0,0,1,0,0)"/><g opacity="1" transform="matrix(1,0,0,1,0,0)"><path fill="rgb(255,223,81)" fill-opacity="1" d=" M28,-11 C28,-11 28,29 28,29 C28,29 -28,29 -28,29 C-28,29 -28,-11 -28,-11 C-28,-11 28,-11 28,-11z"/></g><g opacity="1" transform="matrix(1,0,0,1,0,0)"><path fill="rgb(255,112,166)" fill-opacity="1" d=" M15,-27.799999237060547 C15,-27.799999237060547 15,-11 15,-11 C15,-11 -15,-11 -15,-11 C-15,-11 -15,-27.799999237060547 -15,-27.799999237060547 C-15,-27.799999237060547 -7.5,-33.400001525878906 -7.5,-33.400001525878906 C-7.5,-33.400001525878906 -0.8999999761581421,-38.33000183105469 -0.8999999761581421,-38.33000183105469 C-0.8999999761581421,-38.33000183105469 0,-39 0,-39 C0,-39 4.309999942779541,-35.779998779296875 4.309999942779541,-35.779998779296875 C4.309999942779541,-35.779998779296875 7.5,-33.400001525878906 7.5,-33.400001525878906 C7.5,-33.400001525878906 15,-27.799999237060547 15,-27.799999237060547z"/></g><g opacity="0.5" transform="matrix(1,0,0,1,0,0)"><path fill="rgb(247,40,120)" fill-opacity="1" d=" M15,-27.799999237060547 C15,-27.799999237060547 15,-11 15,-11 C15,-11 -15,-11 -15,-11 C-15,-11 -15,-21 -15,-21 C-15,-21 7.389999866485596,-21 7.389999866485596,-21 C9.380000114440918,-21 11,-22.6200008392334 11,-24.610000610351562 C11,-24.610000610351562 11,-30.790000915527344 11,-30.790000915527344 C11,-30.790000915527344 15,-27.799999237060547 15,-27.799999237060547z"/></g><g opacity="0.5" transform="matrix(1,0,0,1,0,0)"><path fill="rgb(245,200,4)" fill-opacity="1" d=" M28,-11 C28,-11 28,29 28,29 C28,29 11,29 11,29 C12.612000465393066,-4.5269999504089355 8,-8 -3,-11 C-3,-11 28,-11 28,-11z"/></g><g opacity="1" transform="matrix(1,0,0,1,0,0)"/><g opacity="1" transform="matrix(1,0,0,1,0,0)"><path fill="rgb(255,246,209)" fill-opacity="1" d=" M0,-1 C0,-1 0,-1 0,-1 C-6.35099983215332,-1 -11.5,4.14900016784668 -11.5,10.5 C-11.5,10.5 -11.5,29 -11.5,29 C-11.5,29 11.5,29 11.5,29 C11.5,29 11.5,10.5 11.5,10.5 C11.5,4.14900016784668 6.35099983215332,-1 0,-1z"/></g><g opacity="0.5" transform="matrix(1,0,0,1,0,0)"><path fill="rgb(224,213,163)" fill-opacity="1" d=" M11.5,10.5 C11.5,10.5 11.5,29 11.5,29 C11.5,29 7,29 7,29 C7,29 7,10.5 7,10.5 C7,4.920000076293945 3.0199999809265137,0.27000001072883606 -2.25,-0.7799999713897705 C-1.5199999809265137,-0.9200000166893005 -0.7699999809265137,-1 0,-1 C6.349999904632568,-1 11.5,4.150000095367432 11.5,10.5z"/></g><g opacity="1" transform="matrix(1,0,0,1,0,0)"/><g opacity="1" transform="matrix(1,0,0,1,0,0)"><path fill="rgb(45,191,241)" fill-opacity="1" d=" M12.5,-22.045000076293945 C12.5,-22.045000076293945 12.5,-17 12.5,-17 C12.5,-17 7.5,-17 7.5,-17 C7.5,-17 7.5,-22.045000076293945 7.5,-22.045000076293945 C7.5,-22.57200050354004 7.072000026702881,-23 6.545000076293945,-23 C6.545000076293945,-23 3.4549999237060547,-23 3.4549999237060547,-23 C2.927999973297119,-23 2.5,-22.57200050354004 2.5,-22.045000076293945 C2.5,-22.045000076293945 2.5,-17 2.5,-17 C2.5,-17 -2.5,-17 -2.5,-17 C-2.5,-17 -2.5,-22.045000076293945 -2.5,-22.045000076293945 C-2.5,-22.57200050354004 -2.927999973297119,-23 -3.4549999237060547,-23 C-3.4549999237060547,-23 -6.545000076293945,-23 -6.545000076293945,-23 C-7.072000026702881,-23 -7.5,-22.57200050354004 -7.5,-22.045000076293945 C-7.5,-22.045000076293945 -7.5,-17 -7.5,-17 C-7.5,-17 -12.5,-17 -12.5,-17 C-12.5,-17 -12.5,-22.045000076293945 -12.5,-22.045000076293945 C-12.5,-22.57200050354004 -12.928000450134277,-23 -13.454999923706055,-23 C-13.454999923706055,-23 -16.545000076293945,-23 -16.545000076293945,-23 C-17.07200050354004,-23 -17.5,-22.57200050354004 -17.5,-22.045000076293945 C-17.5,-22.045000076293945 -17.5,-11 -17.5,-11 C-17.5,-11 -12.5,-11 -12.5,-11 C-12.5,-11 -7.5,-11 -7.5,-11 C-7.5,-11 -2.5,-11 -2.5,-11 C-2.5,-11 2.5,-11 2.5,-11 C2.5,-11 7.5,-11 7.5,-11 C7.5,-11 12.5,-11 12.5,-11 C12.5,-11 17.5,-11 17.5,-11 C17.5,-11 17.5,-22.045000076293945 17.5,-22.045000076293945 C17.5,-22.57200050354004 17.07200050354004,-23 16.545000076293945,-23 C16.545000076293945,-23 13.454999923706055,-23 13.454999923706055,-23 C12.928000450134277,-23 12.5,-22.57200050354004 12.5,-22.045000076293945z"/></g><g opacity="1" transform="matrix(1,0,0,1,0,0)"/></g><g style="display: block;" transform="matrix(8.37957763671875,0,0,7.206362247467041,539.0499877929688,591.9349365234375)" opacity="1"><g opacity="1" transform="matrix(1,0,0,1,0,0)"><path fill="rgb(255,223,81)" fill-opacity="1" d=" M-19,29 C-19,29 -31,29 -31,29 C-31,29 -31,-13 -31,-13 C-31,-13 -19,-13 -19,-13 C-19,-13 -19,29 -19,29z"/></g><g opacity="0.5" transform="matrix(1,0,0,1,0,0)"><path fill="rgb(245,200,4)" fill-opacity="1" d=" M-19,20 C-19,20 -19,29 -19,29 C-19,29 -31,29 -31,29 C-31,29 -31,25.726999282836914 -31,25.726999282836914 C-31,25.726999282836914 -26.31999969482422,25.726999282836914 -26.31999969482422,25.726999282836914 C-23.93400001525879,25.726999282836914 -22,24.145000457763672 -22,22.19300079345703 C-22,22.19300079345703 -22,22.19300079345703 -22,22.19300079345703 C-22,20.98200035095215 -20.799999237060547,20 -19.31999969482422,20 C-19.31999969482422,20 -19,20 -19,20z"/></g><g opacity="1" transform="matrix(1,0,0,1,0,0)"/><g opacity="1" transform="matrix(1,0,0,1,0,0)"><path fill="rgb(45,191,241)" fill-opacity="1" d=" M-19,-13 C-19,-13 -19,0 -19,0 C-19,0 -31,0 -31,0 C-31,0 -31,-13 -31,-13 C-31,-13 -19,-13 -19,-13z"/></g><g opacity="0.5" transform="matrix(1,0,0,1,0,0)"><path fill="rgb(39,148,185)" fill-opacity="1" d=" M-19,-13 C-19,-13 -19,-9.34000015258789 -19,-9.34000015258789 C-20.540000915527344,-9.119999885559082 -22.229999542236328,-9 -24,-9 C-26.579999923706055,-9 -28.979999542236328,-9.260000228881836 -31,-9.710000038146973 C-31,-9.710000038146973 -31,-13 -31,-13 C-31,-13 -19,-13 -19,-13z"/></g><g opacity="1" transform="matrix(1,0,0,1,0,0)"/><g opacity="1" transform="matrix(1,0,0,1,0,0)"><path fill="rgb(255,246,209)" fill-opacity="1" d=" M-23.63599967956543,-4 C-23.63599967956543,-4 -26.36400032043457,-4 -26.36400032043457,-4 C-26.71500015258789,-4 -27,-4.284999847412109 -27,-4.636000156402588 C-27,-4.636000156402588 -27,-8.36400032043457 -27,-8.36400032043457 C-27,-8.71500015258789 -26.71500015258789,-9 -26.36400032043457,-9 C-26.36400032043457,-9 -23.63599967956543,-9 -23.63599967956543,-9 C-23.28499984741211,-9 -23,-8.71500015258789 -23,-8.36400032043457 C-23,-8.36400032043457 -23,-4.636000156402588 -23,-4.636000156402588 C-23,-4.284999847412109 -23.28499984741211,-4 -23.63599967956543,-4z"/></g><g opacity="1" transform="matrix(1,0,0,1,0,0)"/><g opacity="1" transform="matrix(1,0,0,1,0,0)"><path fill="rgb(255,112,166)" fill-opacity="1" d=" M-14.199999809265137,-13 C-14.199999809265137,-13 -35,-13 -35,-13 C-35.90999984741211,-13 -36.400001525878906,-14.0600004196167 -35.810001373291016,-14.760000228881836 C-35.810001373291016,-14.760000228881836 -33.41999816894531,-17.579999923706055 -33.41999816894531,-17.579999923706055 C-33.41999816894531,-17.579999923706055 -30.950000762939453,-20.5 -30.950000762939453,-20.5 C-30.950000762939453,-20.5 -28.940000534057617,-22.8700008392334 -28.940000534057617,-22.8700008392334 C-28.940000534057617,-22.8700008392334 -25.40999984741211,-27.040000915527344 -25.40999984741211,-27.040000915527344 C-24.989999771118164,-27.540000915527344 -24.209999084472656,-27.540000915527344 -23.780000686645508,-27.040000915527344 C-23.780000686645508,-27.040000915527344 -18.25,-20.5 -18.25,-20.5 C-18.25,-20.5 -13.390000343322754,-14.760000228881836 -13.390000343322754,-14.760000228881836 C-12.800000190734863,-14.0600004196167 -13.289999961853027,-13 -14.199999809265137,-13z"/></g><g opacity="0.5" transform="matrix(1,0,0,1,0,0)"><path fill="rgb(247,40,120)" fill-opacity="1" d=" M-14.206000328063965,-13 C-14.206000328063965,-13 -34.736000061035156,-13 -34.736000061035156,-13 C-35.74800109863281,-13 -36.29899978637695,-14.180000305175781 -35.652000427246094,-14.956999778747559 C-35.652000427246094,-14.956999778747559 -35.652000427246094,-14.956999778747559 -35.652000427246094,-14.956999778747559 C-35.62900161743164,-14.984000205993652 -35.59600067138672,-15 -35.560001373291016,-15 C-35.560001373291016,-15 -21.20599937438965,-15 -21.20599937438965,-15 C-20.29599952697754,-15 -19.79599952697754,-16.059999465942383 -20.38599967956543,-16.760000228881836 C-20.38599967956543,-16.760000228881836 -25.246000289916992,-22.5 -25.246000289916992,-22.5 C-25.246000289916992,-22.5 -25.416000366210938,-22.700000762939453 -25.416000366210938,-22.700000762939453 C-26.47800064086914,-23.95199966430664 -26.47800064086914,-25.788000106811523 -25.416000366210938,-27.040000915527344 C-25.416000366210938,-27.040000915527344 -25.416000366210938,-27.040000915527344 -25.416000366210938,-27.040000915527344 C-24.986000061035156,-27.540000915527344 -24.215999603271484,-27.540000915527344 -23.785999298095703,-27.040000915527344 C-23.785999298095703,-27.040000915527344 -18.246000289916992,-20.5 -18.246000289916992,-20.5 C-18.246000289916992,-20.5 -13.38599967956543,-14.760000228881836 -13.38599967956543,-14.760000228881836 C-12.795999526977539,-14.0600004196167 -13.295999526977539,-13 -14.206000328063965,-13z"/></g><g opacity="1" transform="matrix(1,0,0,1,0,0)"/></g><g style="display: block;" transform="matrix(8.37957763671875,0,0,7.206362247467041,539.0499877929688,591.9349365234375)" opacity="1"><g opacity="1" transform="matrix(1,0,0,1,0,0)"><path fill="rgb(255,223,81)" fill-opacity="1" d=" M30.520000457763672,-13 C30.520000457763672,-13 30.520000457763672,29 30.520000457763672,29 C30.520000457763672,29 18.520000457763672,29 18.520000457763672,29 C18.520000457763672,29 18.520000457763672,-13 18.520000457763672,-13 C18.520000457763672,-13 30.520000457763672,-13 30.520000457763672,-13z"/></g><g opacity="0.5" transform="matrix(1,0,0,1,0,0)"><path fill="rgb(245,200,4)" fill-opacity="1" d=" M30.520000457763672,19 C30.520000457763672,19 30.520000457763672,29 30.520000457763672,29 C30.520000457763672,29 18.520000457763672,29 18.520000457763672,29 C18.520000457763672,29 18.520000457763672,26 18.520000457763672,26 C18.520000457763672,26 23.549999237060547,26 23.549999237060547,26 C25.447999954223633,26 27,24.447999954223633 27,22.549999237060547 C27,22.549999237060547 27,22.520000457763672 27,22.520000457763672 C27,20.576000213623047 28.576000213623047,19 30.520000457763672,19 C30.520000457763672,19 30.520000457763672,19 30.520000457763672,19z"/></g><g opacity="1" transform="matrix(1,0,0,1,0,0)"/><g opacity="1" transform="matrix(1,0,0,1,0,0)"><path fill="rgb(45,191,241)" fill-opacity="1" d=" M30.520000457763672,-13 C30.520000457763672,-13 30.520000457763672,0 30.520000457763672,0 C30.520000457763672,0 18.520000457763672,0 18.520000457763672,0 C18.520000457763672,0 18.520000457763672,-13 18.520000457763672,-13 C18.520000457763672,-13 30.520000457763672,-13 30.520000457763672,-13z"/></g><g opacity="0.5" transform="matrix(1,0,0,1,0,0)"><path fill="rgb(39,148,185)" fill-opacity="1" d=" M30.520000457763672,-13 C30.520000457763672,-13 30.520000457763672,-9.34000015258789 30.520000457763672,-9.34000015258789 C28.979999542236328,-9.119999885559082 27.290000915527344,-9 25.520000457763672,-9 C22.940000534057617,-9 20.540000915527344,-9.260000228881836 18.520000457763672,-9.710000038146973 C18.520000457763672,-9.710000038146973 18.520000457763672,-13 18.520000457763672,-13 C18.520000457763672,-13 30.520000457763672,-13 30.520000457763672,-13z"/></g><g opacity="1" transform="matrix(1,0,0,1,0,0)"/><g opacity="1" transform="matrix(1,0,0,1,0,0)"><path fill="rgb(255,246,209)" fill-opacity="1" d=" M25.88800048828125,-4 C25.88800048828125,-4 23.160999298095703,-4 23.160999298095703,-4 C22.809999465942383,-4 22.52400016784668,-4.284999847412109 22.52400016784668,-4.636000156402588 C22.52400016784668,-4.636000156402588 22.52400016784668,-8.36400032043457 22.52400016784668,-8.36400032043457 C22.52400016784668,-8.71500015258789 22.809999465942383,-9 23.160999298095703,-9 C23.160999298095703,-9 25.88800048828125,-9 25.88800048828125,-9 C26.23900032043457,-9 26.52400016784668,-8.71500015258789 26.52400016784668,-8.36400032043457 C26.52400016784668,-8.36400032043457 26.52400016784668,-4.636000156402588 26.52400016784668,-4.636000156402588 C26.52400016784668,-4.284999847412109 26.23900032043457,-4 25.88800048828125,-4z"/></g><g opacity="1" transform="matrix(1,0,0,1,0,0)"/><g opacity="1" transform="matrix(1,0,0,1,0,0)"><path fill="rgb(255,112,166)" fill-opacity="1" d=" M35.31999969482422,-13 C35.31999969482422,-13 14.529999732971191,-13 14.529999732971191,-13 C13.619999885559082,-13 13.119999885559082,-14.0600004196167 13.710000038146973,-14.760000228881836 C13.710000038146973,-14.760000228881836 16.610000610351562,-18.190000534057617 16.610000610351562,-18.190000534057617 C16.610000610351562,-18.190000534057617 18.56999969482422,-20.5 18.56999969482422,-20.5 C18.56999969482422,-20.5 20.399999618530273,-22.65999984741211 20.399999618530273,-22.65999984741211 C20.399999618530273,-22.65999984741211 24.110000610351562,-27.040000915527344 24.110000610351562,-27.040000915527344 C24.540000915527344,-27.540000915527344 25.309999465942383,-27.540000915527344 25.739999771118164,-27.040000915527344 C25.739999771118164,-27.040000915527344 31.280000686645508,-20.5 31.280000686645508,-20.5 C31.280000686645508,-20.5 36.13999938964844,-14.760000228881836 36.13999938964844,-14.760000228881836 C36.72999954223633,-14.0600004196167 36.22999954223633,-13 35.31999969482422,-13z"/></g><g opacity="0.5" transform="matrix(1,0,0,1,0,0)"><path fill="rgb(247,40,120)" fill-opacity="1" d=" M35.31999969482422,-13 C35.31999969482422,-13 14.529999732971191,-13 14.529999732971191,-13 C13.621999740600586,-13 13.12600040435791,-14.059000015258789 13.706999778747559,-14.756999969482422 C13.706999778747559,-14.756999969482422 13.90999984741211,-15 13.90999984741211,-15 C13.90999984741211,-15 28.31999969482422,-15 28.31999969482422,-15 C29.229999542236328,-15 29.729999542236328,-16.059999465942383 29.139999389648438,-16.760000228881836 C29.139999389648438,-16.760000228881836 24.280000686645508,-22.5 24.280000686645508,-22.5 C24.280000686645508,-22.5 24.110000610351562,-22.700000762939453 24.110000610351562,-22.700000762939453 C23.04800033569336,-23.95199966430664 23.04800033569336,-25.788000106811523 24.110000610351562,-27.040000915527344 C24.110000610351562,-27.040000915527344 24.110000610351562,-27.040000915527344 24.110000610351562,-27.040000915527344 C24.540000915527344,-27.540000915527344 25.309999465942383,-27.540000915527344 25.739999771118164,-27.040000915527344 C25.739999771118164,-27.040000915527344 31.280000686645508,-20.5 31.280000686645508,-20.5 C31.280000686645508,-20.5 36.13999938964844,-14.760000228881836 36.13999938964844,-14.760000228881836 C36.72999954223633,-14.0600004196167 36.22999954223633,-13 35.31999969482422,-13z"/></g><g opacity="1" transform="matrix(1,0,0,1,0,0)"/></g><g style="display: block;" mask="url(#__lottie_element_511_2)"><g transform="matrix(8.37957763671875,0,0,7.206362247467041,539.0499877929688,591.9349365234375)" opacity="1"><g opacity="1" transform="matrix(1,0,0,1,0,0)"><path fill="rgb(45,191,241)" fill-opacity="1" d=" M38,40 C38,40 38,40.5 38,40.5 C38,41.59000015258789 37.5,42.560001373291016 36.720001220703125,43.20000076293945 C36.119998931884766,43.70000076293945 35.34000015258789,44 34.5,44 C34.5,44 -34.5,44 -34.5,44 C-35,44 -35.470001220703125,43.900001525878906 -35.900001525878906,43.70000076293945 C-37.13999938964844,43.15999984741211 -38,41.93000030517578 -38,40.5 C-38,40.5 -38,40 -38,40 C-38,38.06999969482422 -36.43000030517578,36.5 -34.5,36.5 C-34.5,36.5 34.5,36.5 34.5,36.5 C36.43000030517578,36.5 38,38.06999969482422 38,40z"/></g><g opacity="1" transform="matrix(1,0,0,1,0,0)"><path fill="rgb(45,191,241)" fill-opacity="1" d=" M38,32.5 C38,32.5 38,33 38,33 C38,34.93000030517578 36.43000030517578,36.5 34.5,36.5 C34.5,36.5 -34.5,36.5 -34.5,36.5 C-36.43000030517578,36.5 -38,34.93000030517578 -38,33 C-38,33 -38,32.5 -38,32.5 C-38,30.56999969482422 -36.43000030517578,29 -34.5,29 C-34.5,29 34.5,29 34.5,29 C36.43000030517578,29 38,30.56999969482422 38,32.5z"/></g><g opacity="0.5" transform="matrix(1,0,0,1,0,0)"><path fill="rgb(39,148,185)" fill-opacity="1" d=" M28.18000030517578,44 C28.18000030517578,44 20.059999465942383,44 20.059999465942383,44 C20.059999465942383,44 16.93000030517578,36.5 16.93000030517578,36.5 C16.93000030517578,36.5 14.020000457763672,29.530000686645508 14.020000457763672,29.530000686645508 C13.949999809265137,29.360000610351562 13.890000343322754,29.18000030517578 13.850000381469727,29 C13.850000381469727,29 21.920000076293945,29 21.920000076293945,29 C21.920000076293945,29 28.18000030517578,44 28.18000030517578,44z"/></g><g opacity="0.5" transform="matrix(1,0,0,1,0,0)"><path fill="rgb(39,148,185)" fill-opacity="1" d=" M-28.149999618530273,44 C-28.149999618530273,44 -20.030000686645508,44 -20.030000686645508,44 C-20.030000686645508,44 -16.899999618530273,36.5 -16.899999618530273,36.5 C-16.899999618530273,36.5 -13.989999771118164,29.530000686645508 -13.989999771118164,29.530000686645508 C-13.920000076293945,29.360000610351562 -13.859999656677246,29.18000030517578 -13.819999694824219,29 C-13.819999694824219,29 -21.889999389648438,29 -21.889999389648438,29 C-21.889999389648438,29 -28.149999618530273,44 -28.149999618530273,44z"/></g></g></g><g style="display: block;" transform="matrix(6.009078502655029,0,0,7.206362247467041,545.0004272460938,536.827880859375)" opacity="1"><g opacity="1" transform="matrix(1,0,0,1,0,0)"><path stroke-linecap="round" stroke-linejoin="round" fill-opacity="0" stroke="rgb(63,121,140)" stroke-opacity="1" stroke-width="2" d=" M-48,44 C-48,44 46,44 46,44"/></g></g><g style="display: block;" transform="matrix(8,0,0,8,540,546)" opacity="1"><g opacity="1" transform="matrix(1,0,0,1,0,0)"><path stroke-linecap="round" stroke-linejoin="round" fill-opacity="0" stroke="rgb(63,121,140)" stroke-opacity="1" stroke-width="2" d=" M-48,44 C-48,44 46,44 46,44"/></g></g><g style="display: block;" transform="matrix(8.37957763671875,0,0,7.206362247467041,539.0499877929688,591.9349365234375)" opacity="1"><g opacity="1" transform="matrix(1,0,0,1,0,0)"><path fill="rgb(255,223,81)" fill-opacity="1" d=" M21,53 C21,53 -21,53 -21,53 C-21,53 -17.709999084472656,45.11000061035156 -17.709999084472656,45.11000061035156 C-17.709999084472656,45.11000061035156 -11,29 -11,29 C-11,29 11,29 11,29 C11,29 21,53 21,53z"/></g><g opacity="0.5" transform="matrix(1,0,0,1,0,0)"><path fill="rgb(223,193,62)" fill-opacity="1" d=" M21,53 C21,53 14.329999923706055,53 14.329999923706055,53 C14.329999923706055,53 7.800000190734863,37.310001373291016 7.800000190734863,37.310001373291016 C6.710000038146973,34.70000076293945 4.159999847412109,33 1.3300000429153442,33 C1.3300000429153442,33 -12.670000076293945,33 -12.670000076293945,33 C-12.670000076293945,33 -11,29 -11,29 C-11,29 11,29 11,29 C11,29 21,53 21,53z"/></g><g opacity="1" transform="matrix(1,0,0,1,0,0)"/><g opacity="1" transform="matrix(1,0,0,1,0,0)"><path fill="rgb(255,112,166)" fill-opacity="1" d=" M9.02299976348877,29.5310001373291 C9.02299976348877,29.5310001373291 17.847999572753906,50.68600082397461 17.847999572753906,50.68600082397461 C18.591999053955078,52.470001220703125 20.642000198364258,53.3129997253418 22.426000595092773,52.569000244140625 C22.426000595092773,52.569000244140625 22.886999130249023,52.375999450683594 22.886999130249023,52.375999450683594 C24.67099952697754,51.63199996948242 25.513999938964844,49.582000732421875 24.770000457763672,47.79800033569336 C24.770000457763672,47.79800033569336 15.944000244140625,26.64299964904785 15.944000244140625,26.64299964904785 C15.199999809265137,24.858999252319336 13.151000022888184,24.016000747680664 11.366999626159668,24.760000228881836 C11.366999626159668,24.760000228881836 10.904999732971191,24.952999114990234 10.904999732971191,24.952999114990234 C9.121000289916992,25.69700050354004 8.279000282287598,27.746999740600586 9.02299976348877,29.5310001373291z"/></g><g opacity="0.5" transform="matrix(1,0,0,1,0,0)"><path fill="rgb(247,40,120)" fill-opacity="1" d=" M22.100000381469727,52.689998626708984 C20.389999389648438,53.20000076293945 18.540000915527344,52.36000061035156 17.850000381469727,50.689998626708984 C17.850000381469727,50.689998626708984 9.020000457763672,29.530000686645508 9.020000457763672,29.530000686645508 C8.319999694824219,27.850000381469727 9.029999732971191,25.920000076293945 10.630000114440918,25.100000381469727 C10.670000076293945,25.25 10.720000267028809,25.389999389648438 10.779999732971191,25.540000915527344 C10.779999732971191,25.540000915527344 22.09000015258789,52.66999816894531 22.09000015258789,52.66999816894531 C22.09000015258789,52.68000030517578 22.100000381469727,52.68000030517578 22.100000381469727,52.689998626708984z"/></g><g opacity="1" transform="matrix(1,0,0,1,0,0)"/><g opacity="1" transform="matrix(1,0,0,1,0,0)"><path fill="rgb(255,112,166)" fill-opacity="1" d=" M-9.229999542236328,29.530000686645508 C-9.229999542236328,29.530000686645508 -18.059999465942383,50.689998626708984 -18.059999465942383,50.689998626708984 C-18.799999237060547,52.470001220703125 -20.850000381469727,53.310001373291016 -22.6299991607666,52.56999969482422 C-22.6299991607666,52.56999969482422 -23.09000015258789,52.380001068115234 -23.09000015258789,52.380001068115234 C-24.8799991607666,51.630001068115234 -25.719999313354492,49.58000183105469 -24.979999542236328,47.79999923706055 C-24.979999542236328,47.79999923706055 -24.010000228881836,45.4900016784668 -24.010000228881836,45.4900016784668 C-24.010000228881836,45.4900016784668 -22.149999618530273,41.02000045776367 -22.149999618530273,41.02000045776367 C-22.149999618530273,41.02000045776367 -16.149999618530273,26.639999389648438 -16.149999618530273,26.639999389648438 C-15.40999984741211,24.860000610351562 -13.359999656677246,24.020000457763672 -11.569999694824219,24.760000228881836 C-11.569999694824219,24.760000228881836 -11.109999656677246,24.950000762939453 -11.109999656677246,24.950000762939453 C-9.329999923706055,25.700000762939453 -8.489999771118164,27.75 -9.229999542236328,29.530000686645508z"/></g><g opacity="1" transform="matrix(1,0,0,1,0,0)"/></g><g style="display: block;" transform="matrix(5.686797618865967,-5.62675142288208,5.62675142288208,5.686797618865967,756.364013671875,764.780517578125)" opacity="1"><g opacity="1" transform="matrix(1,0,0,1,0,0)"><path fill="rgb(129,189,0)" fill-opacity="1" d=" M41.321998596191406,-17.56999969482422 C41.2140007019043,-18.11199951171875 41.564998626708984,-18.638999938964844 42.106998443603516,-18.746999740600586 C44.540000915527344,-19.232999801635742 46.124000549316406,-21.608999252319336 45.63800048828125,-24.04199981689453 C45.529998779296875,-24.583999633789062 45.880001068115234,-25.110000610351562 46.422000885009766,-25.218000411987305 C46.9640007019043,-25.326000213623047 47.49100112915039,-24.97599983215332 47.5989990234375,-24.43400001525879 C48.084999084472656,-22.000999450683594 50.46099853515625,-20.41699981689453 52.89400100708008,-20.902999877929688 C53.43600082397461,-21.01099967956543 53.96200180053711,-20.660999298095703 54.06999969482422,-20.118999481201172 C54.178001403808594,-19.57699966430664 53.827999114990234,-19.049999237060547 53.2859992980957,-18.941999435424805 C50.85300064086914,-18.45599937438965 49.26900100708008,-16.079999923706055 49.755001068115234,-13.647000312805176 C49.862998962402344,-13.104999542236328 49.51300048828125,-12.579000473022461 48.97100067138672,-12.470999717712402 C48.42900085449219,-12.36299991607666 47.902000427246094,-12.713000297546387 47.79399871826172,-13.255000114440918 C47.30799865722656,-15.687999725341797 44.93199920654297,-17.27199935913086 42.499000549316406,-16.785999298095703 C41.957000732421875,-16.67799949645996 41.43000030517578,-17.027999877929688 41.321998596191406,-17.56999969482422z"/></g><g opacity="1" transform="matrix(1,0,0,1,0,0)"><path stroke-linecap="round" stroke-linejoin="round" fill-opacity="0" stroke="rgb(62,90,0)" stroke-opacity="1" stroke-width="2" d=" M45.65700149536133,-19.915000915527344 C46.540000915527344,-21.111000061035156 46.933998107910156,-22.659000396728516 46.61800003051758,-24.238000869750977 C47.2140007019043,-21.256999969482422 50.10900115966797,-19.32699966430664 53.09000015258789,-19.92300033569336 C51.41299819946289,-19.58799934387207 50.073001861572266,-18.534000396728516 49.332000732421875,-17.142000198364258"/></g></g><g style="display: block;" transform="matrix(7.85678243637085,-1.5069748163223267,1.5069748163223267,7.85678243637085,574.4957275390625,462.9732360839844)" opacity="1"><g opacity="1" transform="matrix(1,0,0,1,0,0)"><path fill="rgb(45,191,241)" fill-opacity="1" d=" M-45,-27.5 C-45,-25.566999435424805 -46.56700134277344,-24 -48.5,-24 C-50.43299865722656,-24 -52,-25.566999435424805 -52,-27.5 C-52,-29.433000564575195 -50.43299865722656,-31 -48.5,-31 C-46.56700134277344,-31 -45,-29.433000564575195 -45,-27.5z"/></g><g opacity="1" transform="matrix(1,0,0,1,0,0)"><path stroke-linecap="round" stroke-linejoin="round" fill-opacity="0" stroke="rgb(63,121,140)" stroke-opacity="1" stroke-width="2" d=" M-47.29999923706055,-24.219999313354492 C-47.68000030517578,-24.06999969482422 -48.08000183105469,-24 -48.5,-24 C-50.43000030517578,-24 -52,-25.56999969482422 -52,-27.5 C-52,-29.43000030517578 -50.43000030517578,-31 -48.5,-31 C-46.83000183105469,-31 -45.43000030517578,-29.81999969482422 -45.08000183105469,-28.25"/></g></g><g style="display: block;" transform="matrix(3.066404342651367,7.388989448547363,-7.388989448547363,3.066404342651367,292.1267395019531,855.2369384765625)" opacity="1"><g opacity="1" transform="matrix(1,0,0,1,0,0)"><path stroke-linecap="round" stroke-linejoin="round" fill-opacity="0" stroke="rgb(63,121,140)" stroke-opacity="1" stroke-width="2" d=" M-45,-8 C-45,-8 -45,1 -45,1"/></g><g opacity="1" transform="matrix(1,0,0,1,0,0)"><path stroke-linecap="round" stroke-linejoin="round" fill-opacity="0" stroke="rgb(63,121,140)" stroke-opacity="1" stroke-width="2" d=" M-40.5,-3.5 C-40.5,-3.5 -49.5,-3.5 -49.5,-3.5"/></g></g><g style="display: block;" transform="matrix(6.840926647186279,0,0,6.840926647186279,589.4122314453125,507.8907470703125)" opacity="1"><g opacity="1" transform="matrix(1,0,0,1,0,0)"><path fill="rgb(152,46,87)" fill-opacity="1" d=" M41.27799987792969,6.250999927520752 C43.20800018310547,6.250999927520752 43.21200180053711,3.250999927520752 41.27799987792969,3.250999927520752 C39.347999572753906,3.250999927520752 39.34400177001953,6.250999927520752 41.27799987792969,6.250999927520752 C41.27799987792969,6.250999927520752 41.27799987792969,6.250999927520752 41.27799987792969,6.250999927520752z"/></g></g><g style="display: block;" transform="matrix(8.37957763671875,0,0,7.206362247467041,192.44552612304688,770.5301513671875)" opacity="1"><g opacity="1" transform="matrix(1,0,0,1,0,0)"><path stroke-linecap="round" stroke-linejoin="round" fill-opacity="0" stroke="rgb(152,46,87)" stroke-opacity="1" stroke-width="2" d=" M2.6029999256134033,-3.9579999446868896 C-0.9769999980926514,-3.1659998893737793 -3.236999988555908,0.3779999911785126 -2.444999933242798,3.9579999446868896"/></g></g><g style="display: block;" transform="matrix(8.37957763671875,0,0,7.206362247467041,539.0499877929688,591.9349365234375)" opacity="0.012537367303526151"><g opacity="1" transform="matrix(1,0,0,1,0,0)"><path stroke-linecap="round" stroke-linejoin="round" fill-opacity="0" stroke="rgb(152,46,87)" stroke-opacity="1" stroke-width="2" d=" M-40.7400016784668,13.140000343322754 C-42.47999954223633,13.529999732971191 -44.060001373291016,14.239999771118164 -45.43000030517578,15.1899995803833"/></g><g opacity="1" transform="matrix(1,0,0,1,0,0)"><path stroke-linecap="round" stroke-linejoin="round" fill-opacity="0" stroke="rgb(152,46,87)" stroke-opacity="1" stroke-width="2" d=" M-48.36000061035156,17.989999771118164 C-50.650001525878906,20.979999542236328 -51.65999984741211,24.93000030517578 -50.779998779296875,28.899999618530273"/></g><g opacity="1" transform="matrix(1,0,0,1,0,0)"><path stroke-linecap="round" stroke-linejoin="round" fill-opacity="0" stroke="rgb(152,46,87)" stroke-opacity="1" stroke-width="2" d=" M-40.7400016784668,13.140000343322754 C-42.47999954223633,13.529999732971191 -44.060001373291016,14.239999771118164 -45.43000030517578,15.1899995803833"/></g><g opacity="1" transform="matrix(1,0,0,1,0,0)"><path stroke-linecap="round" stroke-linejoin="round" fill-opacity="0" stroke="rgb(152,46,87)" stroke-opacity="1" stroke-width="2" d=" M-48.36000061035156,17.989999771118164 C-50.650001525878906,20.979999542236328 -51.65999984741211,24.93000030517578 -50.779998779296875,28.899999618530273"/></g></g><g style="display: block;" transform="matrix(8.37957763671875,0,0,7.206362247467041,539.0499877929688,591.9349365234375)" opacity="1"><g opacity="1" transform="matrix(1,0,0,1,0,0)"><path stroke-linecap="round" stroke-linejoin="round" fill-opacity="0" stroke="rgb(152,46,87)" stroke-opacity="1" stroke-width="2" d=" M40.902000427246094,20.825000762939453 C44.481998443603516,21.617000579833984 46.74100112915039,25.160999298095703 45.94900131225586,28.740999221801758"/></g><g opacity="1" transform="matrix(1,0,0,1,0,0)"><path stroke-linecap="round" stroke-linejoin="round" fill-opacity="0" stroke="rgb(152,46,87)" stroke-opacity="1" stroke-width="2" d=" M40.902000427246094,20.825000762939453 C44.481998443603516,21.617000579833984 46.74100112915039,25.160999298095703 45.94900131225586,28.740999221801758"/></g></g><g style="display: block;" transform="matrix(8.37957763671875,0,0,7.206362247467041,539.0499877929688,591.9349365234375)" opacity="1"><g opacity="1" transform="matrix(1,0,0,1,0,0)"><path stroke-linecap="round" stroke-linejoin="round" fill-opacity="0" stroke="rgb(152,46,87)" stroke-opacity="1" stroke-width="2" d=" M52.91999816894531,28.899999618530273 C53.209999084472656,27.59000015258789 53.29999923706055,26.270000457763672 53.20000076293945,25"/></g><g opacity="1" transform="matrix(1,0,0,1,0,0)"><path stroke-linecap="round" stroke-linejoin="round" fill-opacity="0" stroke="rgb(152,46,87)" stroke-opacity="1" stroke-width="2" d=" M52.58000183105469,21.90999984741211 C51.15999984741211,17.6299991607666 47.599998474121094,14.1899995803833 42.880001068115234,13.140000343322754"/></g><g opacity="1" transform="matrix(1,0,0,1,0,0)"><path stroke-linecap="round" stroke-linejoin="round" fill-opacity="0" stroke="rgb(152,46,87)" stroke-opacity="1" stroke-width="2" d=" M52.91999816894531,28.899999618530273 C53.209999084472656,27.59000015258789 53.29999923706055,26.270000457763672 53.20000076293945,25"/></g><g opacity="1" transform="matrix(1,0,0,1,0,0)"><path stroke-linecap="round" stroke-linejoin="round" fill-opacity="0" stroke="rgb(152,46,87)" stroke-opacity="1" stroke-width="2" d=" M52.58000183105469,21.90999984741211 C51.15999984741211,17.6299991607666 47.599998474121094,14.1899995803833 42.880001068115234,13.140000343322754"/></g></g><g style="display: block;" transform="matrix(8.37957763671875,0,0,7.206362247467041,840.7147827148438,339.71221923828125)" opacity="1"><g opacity="1" transform="matrix(1,0,0,1,0,0)"><path stroke-linecap="round" stroke-linejoin="round" fill-opacity="0" stroke="rgb(63,121,140)" stroke-opacity="1" stroke-width="2" d=" M-3,3 C-3,3 -1.309000015258789,1.309000015258789 0.2770000100135803,-0.2770000100135803"/></g></g><g style="display: block;" transform="matrix(8.37957763671875,0,0,7.206362247467041,838.200927734375,250.35333251953125)" opacity="1"><g opacity="1" transform="matrix(1,0,0,1,0,0)"><path stroke-linecap="round" stroke-linejoin="round" fill-opacity="0" stroke="rgb(63,121,140)" stroke-opacity="1" stroke-width="2" d=" M-1.8899999856948853,3.7799999713897705 C-1.2000000476837158,2.3989999294281006 0.21799999475479126,-0.4359999895095825 1.2120000123977661,-2.4240000247955322"/></g></g><g style="display: block;" transform="matrix(8.37957763671875,0,0,7.206362247467041,794.6270751953125,325.29949951171875)" opacity="1"><g opacity="1" transform="matrix(1,0,0,1,0,0)"><path stroke-linecap="round" stroke-linejoin="round" fill-opacity="0" stroke="rgb(63,121,140)" stroke-opacity="1" stroke-width="2" d=" M-0.7070000171661377,1.4129999876022339 C-0.035999998450279236,0.07199999690055847 0.8790000081062317,-1.7569999694824219 1.2869999408721924,-2.575000047683716"/></g></g><g style="display: block;" transform="matrix(8.37957763671875,0,0,7.206362247467041,748.5394287109375,307.2835998535156)" opacity="1"><g opacity="1" transform="matrix(1,0,0,1,0,0)"><path stroke-linecap="round" stroke-linejoin="round" fill-opacity="0" stroke="rgb(63,121,140)" stroke-opacity="1" stroke-width="2" d=" M0,0.13099999725818634 C0,-2.119999885559082 0,-4.413000106811523 0,-4.498000144958496"/></g></g><g style="display: block;" transform="matrix(8.37957763671875,0,0,7.206362247467041,337.94012451171875,307.2835998535156)" opacity="1"><g opacity="1" transform="matrix(1,0,0,1,0,0)"><path stroke-linecap="round" stroke-linejoin="round" fill-opacity="0" stroke="rgb(63,121,140)" stroke-opacity="1" stroke-width="2" d=" M0,-1.8849999904632568 C0,-3.3559999465942383 0,-4.5 0,-4.5"/></g></g><g style="display: block;" transform="matrix(8.37957763671875,0,0,7.206362247467041,249.32608032226562,252.1549072265625)" opacity="1"><g opacity="1" transform="matrix(1,0,0,1,0,0)"><path stroke-linecap="round" stroke-linejoin="round" fill-opacity="0" stroke="rgb(63,121,140)" stroke-opacity="1" stroke-width="2" d=" M-1.9049999713897705,-3.809999942779541 C-2.2249999046325684,-4.448999881744385 -2.424999952316284,-4.849999904632568 -2.424999952316284,-4.849999904632568"/></g></g><g style="display: block;" transform="matrix(8.37957763671875,0,0,7.206362247467041,292.355224609375,326.16424560546875)" opacity="0.2597655404813894"><g opacity="1" transform="matrix(1,0,0,1,0,0)"><path stroke-linecap="round" stroke-linejoin="round" fill-opacity="0" stroke="rgb(63,121,140)" stroke-opacity="1" stroke-width="2" d=" M-1.4190000295639038,-2.8380000591278076 C-1.4329999685287476,-2.865999937057495 -1.440000057220459,-2.880000114440918 -1.440000057220459,-2.880000114440918"/></g></g><g style="display: none;" transform="matrix(8.167261123657227,0,0,7.4061503410339355,253.19583129882812,318.523681640625)" opacity="0.070804949406932"><g opacity="1" transform="matrix(1,0,0,1,0,0)"><path stroke-linecap="round" stroke-linejoin="round" fill-opacity="0" stroke="rgb(63,121,140)" stroke-opacity="1" stroke-width="2" d=" M-2.989000082015991,-2.989000082015991 C-2.996000051498413,-2.996000051498413 -3,-3 -3,-3"/></g></g><g style="display: block;" transform="matrix(8,0,0,8,540,540)" opacity="1"/></g></svg>