<svg xmlns="http://www.w3.org/2000/svg" xmlns:xlink="http://www.w3.org/1999/xlink" viewBox="0 0 1000 1000" width="1000" height="1000" style="width: 100%; height: 100%; transform: translate3d(0px, 0px, 0px);" preserveAspectRatio="xMidYMid meet" id="Ice cream"><defs><clipPath id="__lottie_element_10915"><rect width="1000" height="1000" x="0" y="0"/></clipPath></defs><g clip-path="url(#__lottie_element_10915)"><g style="display: block;" transform="matrix(0,0,0,0,635.0880126953125,396.0670166015625)" opacity="1"><g opacity="1" transform="matrix(1,0,0,1,723.7230224609375,269.0929870605469)"><path fill="rgb(253,170,154)" fill-opacity="1" d=" M51.3380012512207,-110.34300231933594 C22.530000686645508,-126.9749984741211 -14.342000007629395,-115.48999786376953 -28.60700035095215,-85.44000244140625 C-28.60700035095215,-85.44000244140625 -88.63500213623047,41 -88.63500213623047,41 C-81.33200073242188,59.48899841308594 -77.31800079345703,79.62300109863281 -77.31800079345703,100.677001953125 C-77.31800079345703,101.8270034790039 -77.33699798583984,102.9749984741211 -77.36199951171875,104.12200164794922 C-63.00299835205078,109.86799621582031 -49.645999908447266,117.59700012207031 -37.632999420166016,126.9739990234375 C-37.632999420166016,126.9739990234375 69.74299621582031,-28.6560001373291 69.74299621582031,-28.6560001373291 C88.63400268554688,-56.0369987487793 80.14600372314453,-93.71099853515625 51.3380012512207,-110.34300231933594z"/></g><g opacity="1" transform="matrix(1,0,0,1,716.9010009765625,257.8110046386719)"><path fill="rgb(247,40,120)" fill-opacity="1" d=" M58.159000396728516,-99.06099700927734 C29.35099983215332,-115.69300079345703 -7.519999980926514,-104.20899963378906 -21.78499984741211,-74.15899658203125 C-21.78499984741211,-74.15899658203125 -80.9020004272461,50.35900115966797 -80.9020004272461,50.35900115966797 C-73.21199798583984,69.38600158691406 -68.96700286865234,90.17400360107422 -68.96700286865234,111.95800018310547 C-68.96700286865234,112.75299835205078 -68.98600006103516,113.54399871826172 -68.99800109863281,114.33699798583984 C-67.91200256347656,114.77799987792969 -66.83200073242188,115.23100280761719 -65.75900268554688,115.69300079345703 C-65.75900268554688,115.69300079345703 10.664999961853027,-45.28099822998047 10.664999961853027,-45.28099822998047 C23.371000289916992,-72.04299926757812 54.00199890136719,-84.06199645996094 80.9020004272461,-74.62699890136719 C76.12000274658203,-84.5009994506836 68.44200134277344,-93.125 58.159000396728516,-99.06099700927734z"/></g></g><g style="display: block;" transform="matrix(0.043060388416051865,0,0,0.043060388416051865,488.09088134765625,355.8427734375)" opacity="1"><g opacity="1" transform="matrix(1,0,0,1,510.05499267578125,275.6449890136719)"><path fill="rgb(253,207,1)" fill-opacity="1" d=" M-0.328000009059906,96.20999908447266 C43.94499969482422,88.3550033569336 111.94499969482422,79.3550033569336 163.6790008544922,72.34100341796875 C163.71099853515625,70.98899841308594 163.7310028076172,69.63300323486328 163.7310028076172,68.27200317382812 C163.7310028076172,-22.569000244140625 90.08999633789062,-96.20999908447266 -0.7519999742507935,-96.20999908447266 C-84.04499816894531,-96.20999908447266 -152.8679962158203,-34.29399871826172 -163.7310028076172,46.02199935913086 C-125.05500030517578,57.35499954223633 -81.05500030517578,72.3550033569336 -0.328000009059906,96.20999908447266z"/></g><g opacity="1" transform="matrix(1,0,0,1,444.3240051269531,260.3810119628906)"><path fill="rgb(245,200,4)" fill-opacity="1" d=" M-34.41899871826172,80.94499969482422 C-23.312000274658203,13.769000053405762 31.670000076293945,-64.10900115966797 98.0009994506836,-77.62799835205078 C87.33200073242188,-79.80400085449219 76.28800201416016,-80.94499969482422 64.97799682617188,-80.94499969482422 C-17.739999771118164,-80.94499969482422 -86.41899871826172,-18.22100067138672 -98.0009994506836,61.2859992980957 C-74.53399658203125,68.15599822998047 -56.09199905395508,74.1259994506836 -34.41899871826172,80.94499969482422z"/></g><g opacity="1" transform="matrix(1,0,0,1,522.3099975585938,275.6449890136719)"><path fill="rgb(253,170,154)" fill-opacity="1" d=" M-12.583000183105469,96.20999908447266 C0.020999999716877937,94.0459976196289 7.867000102996826,92.91300201416016 26.757999420166016,89.79900360107422 C26.757999420166016,89.79900360107422 76.09300231933594,-70.00399780273438 76.09300231933594,-70.00399780273438 C50.41699981689453,-86.58200073242188 19.82900047302246,-96.20999908447266 -13.006999969482422,-96.20999908447266 C-14.538999557495117,-96.20999908447266 -16.06599998474121,-96.18599700927734 -17.59000015258789,-96.14399719238281 C-17.59000015258789,-96.14399719238281 -76.09200286865234,77.01499938964844 -76.09200286865234,77.01499938964844 C-53.66299819946289,84.06099700927734 -41.3650016784668,87.61799621582031 -12.583000183105469,96.20999908447266z"/></g></g><g style="display: block;" transform="matrix(0.9606543183326721,0,0,0.9606543183326721,9.5242919921875,11.39697265625)" opacity="1"><g opacity="1" transform="matrix(1,0,0,1,387.3919982910156,418.21600341796875)"><path fill="rgb(171,230,45)" fill-opacity="1" d=" M159.01699829101562,103.32499694824219 C162.5780029296875,89.86499786376953 164.48199462890625,75.73400115966797 164.48199462890625,61.15800094604492 C164.48199462890625,-29.68400001525879 90.84200286865234,-103.32499694824219 0,-103.32499694824219 C-90.84100341796875,-103.32499694824219 -164.48199462890625,-29.68400001525879 -164.48199462890625,61.15800094604492 C-164.48199462890625,75.73600006103516 -162.5760040283203,89.86699676513672 -159.01600646972656,103.32499694824219 C-159.01600646972656,103.32499694824219 159.01699829101562,103.32499694824219 159.01699829101562,103.32499694824219z"/></g><g opacity="1" transform="matrix(1,0,0,1,325.7279968261719,417.4519958496094)"><path fill="rgb(159,214,40)" fill-opacity="1" d=" M-15.4350004196167,102.55799865722656 C-18.739999771118164,89.55999755859375 -20.511999130249023,75.9489974975586 -20.511999130249023,61.922000885009766 C-20.511999130249023,-14.708999633789062 31.892000198364258,-79.0989990234375 102.81800079345703,-97.36900329589844 C89.66500091552734,-100.75800323486328 75.8740005493164,-102.55999755859375 61.665000915527344,-102.55999755859375 C-29.177000045776367,-102.55999755859375 -102.81700134277344,-28.91900062561035 -102.81700134277344,61.92300033569336 C-102.81700134277344,75.9489974975586 -101.05699920654297,89.56300354003906 -97.75299835205078,102.55999755859375 C-97.75299835205078,102.55999755859375 -15.4350004196167,102.55999755859375 -15.4350004196167,102.55999755859375 C-15.4350004196167,102.55999755859375 -15.4350004196167,102.55799865722656 -15.4350004196167,102.55799865722656z"/></g></g><g style="display: block;" transform="matrix(0.04136614874005318,0,0,0.04136614874005318,332.73956298828125,373.808837890625)" opacity="1"><g opacity="1" transform="matrix(1,0,0,1,351.5929870605469,394.2309875488281)"><path fill="rgb(129,189,0)" fill-opacity="1" d=" M8.708000183105469,11.479999542236328 C8.708000183105469,11.479999542236328 -8.706999778747559,11.479999542236328 -8.706999778747559,11.479999542236328 C-15.04699993133545,11.479999542236328 -20.187999725341797,6.340000152587891 -20.187999725341797,0 C-20.187999725341797,-6.340000152587891 -15.04699993133545,-11.479999542236328 -8.706999778747559,-11.479999542236328 C-8.706999778747559,-11.479999542236328 8.708000183105469,-11.479999542236328 8.708000183105469,-11.479999542236328 C15.04800033569336,-11.479999542236328 20.187999725341797,-6.340000152587891 20.187999725341797,0 C20.187999725341797,6.340000152587891 15.04800033569336,11.479999542236328 8.708000183105469,11.479999542236328z"/></g></g><g style="display: block;" transform="matrix(0.04136614874005318,0,0,0.04136614874005318,408.118408203125,360.76141357421875)" opacity="1"><g opacity="1" transform="matrix(1,0,0,1,433.5899963378906,380.0379943847656)"><path fill="rgb(129,189,0)" fill-opacity="1" d=" M8.708000183105469,11.479999542236328 C8.708000183105469,11.479999542236328 -8.706999778747559,11.479999542236328 -8.706999778747559,11.479999542236328 C-15.04699993133545,11.479999542236328 -20.187999725341797,6.340000152587891 -20.187999725341797,0 C-20.187999725341797,-6.340000152587891 -15.04699993133545,-11.479999542236328 -8.706999778747559,-11.479999542236328 C-8.706999778747559,-11.479999542236328 8.708000183105469,-11.479999542236328 8.708000183105469,-11.479999542236328 C15.04800033569336,-11.479999542236328 20.187999725341797,-6.340000152587891 20.187999725341797,0 C20.187999725341797,6.340000152587891 15.04800033569336,11.479999542236328 8.708000183105469,11.479999542236328z"/></g></g><g style="display: block;" transform="matrix(0.36065852642059326,0,0,0.36065852642059326,241.37705993652344,286.2478332519531)" opacity="1"><g opacity="1" transform="matrix(1,0,0,1,386.42401123046875,458.0880126953125)"><path fill="rgb(129,189,0)" fill-opacity="1" d=" M8.708000183105469,11.479999542236328 C8.708000183105469,11.479999542236328 -8.708000183105469,11.479999542236328 -8.708000183105469,11.479999542236328 C-15.04800033569336,11.479999542236328 -20.187999725341797,6.340000152587891 -20.187999725341797,0 C-20.187999725341797,-6.340000152587891 -15.04800033569336,-11.479999542236328 -8.708000183105469,-11.479999542236328 C-8.708000183105469,-11.479999542236328 8.708000183105469,-11.479999542236328 8.708000183105469,-11.479999542236328 C15.04800033569336,-11.479999542236328 20.187999725341797,-6.340000152587891 20.187999725341797,0 C20.187999725341797,6.340000152587891 15.04800033569336,11.479999542236328 8.708000183105469,11.479999542236328z"/></g></g><g style="display: block;" transform="matrix(0.36065852642059326,0,0,0.36065852642059326,183.32504272460938,285.08685302734375)" opacity="1"><g opacity="1" transform="matrix(1,0,0,1,289.6700134277344,456.15301513671875)"><path fill="rgb(129,189,0)" fill-opacity="1" d=" M8.708000183105469,11.479999542236328 C8.708000183105469,11.479999542236328 -8.708000183105469,11.479999542236328 -8.708000183105469,11.479999542236328 C-15.04800033569336,11.479999542236328 -20.187999725341797,6.340000152587891 -20.187999725341797,0 C-20.187999725341797,-6.340000152587891 -15.04800033569336,-11.479999542236328 -8.708000183105469,-11.479999542236328 C-8.708000183105469,-11.479999542236328 8.708000183105469,-11.479999542236328 8.708000183105469,-11.479999542236328 C15.04800033569336,-11.479999542236328 20.187999725341797,-6.340000152587891 20.187999725341797,0 C20.187999725341797,6.340000152587891 15.04800033569336,11.479999542236328 8.708000183105469,11.479999542236328z"/></g></g><g style="display: block;" transform="matrix(1.0509462356567383,0,0,1.0509462356567383,-25.454071044921875,-35.6939697265625)" opacity="1"><g opacity="1" transform="matrix(1,0,0,1,499.6260070800781,551.6539916992188)"><path fill="rgb(239,251,255)" fill-opacity="1" d=" M291.1109924316406,30.113000869750977 C291.1109924316406,30.113000869750977 -291.1109924316406,30.113000869750977 -291.1109924316406,30.113000869750977 C-307.74200439453125,30.113000869750977 -321.2229919433594,16.631999969482422 -321.2229919433594,0.0010000000474974513 C-321.2229919433594,-16.6299991607666 -307.74200439453125,-30.113000869750977 -291.1109924316406,-30.113000869750977 C-291.1109924316406,-30.113000869750977 291.1109924316406,-30.113000869750977 291.1109924316406,-30.113000869750977 C307.74200439453125,-30.113000869750977 321.2229919433594,-16.6299991607666 321.2229919433594,0.0010000000474974513 C321.2229919433594,16.631999969482422 307.74200439453125,30.113000869750977 291.1109924316406,30.113000869750977z"/></g><g opacity="1" transform="matrix(1,0,0,1,245.03799438476562,551.6539916992188)"><path fill="rgb(222,244,251)" fill-opacity="1" d=" M36.52299880981445,0 C36.52299880981445,-16.631000518798828 50.00400161743164,-30.11199951171875 66.63500213623047,-30.11199951171875 C66.63500213623047,-30.11199951171875 -36.52299880981445,-30.11199951171875 -36.52299880981445,-30.11199951171875 C-53.15399932861328,-30.11199951171875 -66.63600158691406,-16.631000518798828 -66.63600158691406,0 C-66.63600158691406,16.631000518798828 -53.15399932861328,30.11199951171875 -36.52299880981445,30.11199951171875 C-36.52299880981445,30.11199951171875 66.63600158691406,30.11199951171875 66.63600158691406,30.11199951171875 C50.005001068115234,30.11199951171875 36.52299880981445,16.631000518798828 36.52299880981445,0z"/></g></g><g style="display: block;" transform="matrix(1.0224815607070923,0,0,1.0224815607070923,-11.23236083984375,-19.134124755859375)" opacity="1"><g opacity="1" transform="matrix(1,0,0,1,499.6260070800781,714.8829956054688)"><path fill="rgb(253,170,154)" fill-opacity="1" d=" M277.1759948730469,-136.218994140625 C277.1759948730469,-136.218994140625 247.6750030517578,41.926998138427734 247.6750030517578,41.926998138427734 C247.6750030517578,41.926998138427734 233.39999389648438,128.11500549316406 233.39999389648438,128.11500549316406 C232.6269989013672,132.7949981689453 228.58599853515625,136.218994140625 223.85000610351562,136.218994140625 C223.85000610351562,136.218994140625 -223.85000610351562,136.218994140625 -223.85000610351562,136.218994140625 C-228.58599853515625,136.218994140625 -232.6269989013672,132.7949981689453 -233.39999389648438,128.11500549316406 C-233.39999389648438,128.11500549316406 -247.6750030517578,41.926998138427734 -247.6750030517578,41.926998138427734 C-247.6750030517578,41.926998138427734 -277.1759948730469,-136.218994140625 -277.1759948730469,-136.218994140625 C-277.1759948730469,-136.218994140625 277.1759948730469,-136.218994140625 277.1759948730469,-136.218994140625z"/></g><g opacity="1" transform="matrix(1,0,0,1,499.6260070800781,803.9569702148438)"><path fill="rgb(45,191,241)" fill-opacity="1" d=" M247.6750030517578,-47.145999908447266 C247.6750030517578,-47.145999908447266 233.39999389648438,39.04100036621094 233.39999389648438,39.04100036621094 C232.6269989013672,43.720001220703125 228.58599853515625,47.145999908447266 223.85000610351562,47.145999908447266 C223.85000610351562,47.145999908447266 -223.85000610351562,47.145999908447266 -223.85000610351562,47.145999908447266 C-228.58599853515625,47.145999908447266 -232.6269989013672,43.720001220703125 -233.39999389648438,39.04100036621094 C-233.39999389648438,39.04100036621094 -247.6750030517578,-47.145999908447266 -247.6750030517578,-47.145999908447266 C-247.6750030517578,-47.145999908447266 247.6750030517578,-47.145999908447266 247.6750030517578,-47.145999908447266z"/></g><g opacity="1" transform="matrix(1,0,0,1,282.1809997558594,714.8820190429688)"><path fill="rgb(247,40,120)" fill-opacity="1" d=" M50.176998138427734,128.11900329589844 C50.176998138427734,128.11900329589844 6.4029998779296875,-136.2209930419922 6.4029998779296875,-136.2209930419922 C6.4029998779296875,-136.2209930419922 -59.729000091552734,-136.2209930419922 -59.729000091552734,-136.2209930419922 C-59.729000091552734,-136.2209930419922 -15.954999923706055,128.11900329589844 -15.954999923706055,128.11900329589844 C-15.180000305175781,132.79200744628906 -11.138999938964844,136.2209930419922 -6.4029998779296875,136.2209930419922 C-6.4029998779296875,136.2209930419922 59.72800064086914,136.2209930419922 59.72800064086914,136.2209930419922 C54.992000579833984,136.2209930419922 50.95100021362305,132.79200744628906 50.176998138427734,128.11900329589844z"/></g><g opacity="1" transform="matrix(1,0,0,1,296.9320068359375,803.9569702148438)"><path fill="rgb(33,140,175)" fill-opacity="1" d=" M-30.70400047302246,39.04600143432617 C-29.93000030517578,43.71900177001953 -25.889999389648438,47.14500045776367 -21.15399932861328,47.145999908447266 C-21.15399932861328,47.145999908447266 44.97800064086914,47.145999908447266 44.97800064086914,47.145999908447266 C40.242000579833984,47.14500045776367 36.20100021362305,43.71900177001953 35.42599868774414,39.04600143432617 C35.42599868774414,39.04600143432617 21.15399932861328,-47.145999908447266 21.15399932861328,-47.145999908447266 C21.15399932861328,-47.145999908447266 -44.979000091552734,-47.145999908447266 -44.979000091552734,-47.145999908447266 C-44.979000091552734,-47.145999908447266 -30.70400047302246,39.04600143432617 -30.70400047302246,39.04600143432617z"/></g></g><g style="display: block;" transform="matrix(0.9606543183326721,0,0,0.9606543183326721,29.7921142578125,11.39697265625)" opacity="1"><g opacity="1" transform="matrix(1,0,0,1,611.8619995117188,427.8919982910156)"><path fill="rgb(216,106,84)" fill-opacity="1" d=" M162.89999389648438,93.6500015258789 C163.93499755859375,86.19100189208984 164.48300170898438,78.57599639892578 164.48300170898438,70.83200073242188 C164.48300170898438,-20.009000778198242 90.84100341796875,-93.6500015258789 0,-93.6500015258789 C-90.84100341796875,-93.6500015258789 -164.48300170898438,-20.009000778198242 -164.48300170898438,70.83200073242188 C-164.48300170898438,78.57599639892578 -163.9340057373047,86.19200134277344 -162.89999389648438,93.6500015258789 C-162.89999389648438,93.6500015258789 162.89999389648438,93.6500015258789 162.89999389648438,93.6500015258789z"/></g><g opacity="1" transform="matrix(1,0,0,1,550.208984375,427.1260070800781)"><path fill="rgb(172,110,97)" fill-opacity="1" d=" M-19.10700035095215,92.88400268554688 C-20.006000518798828,85.91600036621094 -20.472999572753906,78.81099700927734 -20.472999572753906,71.5979995727539 C-20.472999572753906,-5.0229997634887695 31.91699981689453,-69.40699768066406 102.83100128173828,-87.68599700927734 C89.66899871826172,-91.0780029296875 75.87200164794922,-92.88400268554688 61.652000427246094,-92.88400268554688 C-29.18899917602539,-92.88400268554688 -102.83100128173828,-19.243000030517578 -102.83100128173828,71.5979995727539 C-102.83100128173828,78.81300354003906 -102.36199951171875,85.91600036621094 -101.46199798583984,92.88400268554688 C-101.46199798583984,92.88400268554688 -19.10700035095215,92.88400268554688 -19.10700035095215,92.88400268554688z"/></g></g><g style="display: block;" transform="matrix(0.36065852642059326,0,0,0.36065852642059326,329.78997802734375,311.3948669433594)" opacity="1"><g opacity="1" transform="matrix(1,0,0,1,506.26800537109375,496.4429931640625)"><path fill="rgb(254,179,164)" fill-opacity="1" d=" M0,-11.479999542236328 C6.340000152587891,-11.479999542236328 11.479999542236328,-6.340000152587891 11.479999542236328,0 C11.479999542236328,6.341000080108643 6.340000152587891,11.479999542236328 0,11.479999542236328 C-6.340000152587891,11.479999542236328 -11.479999542236328,6.341000080108643 -11.479999542236328,0 C-11.479999542236328,-6.340000152587891 -6.340000152587891,-11.479999542236328 0,-11.479999542236328z"/></g></g><g style="display: block;" transform="matrix(0.36065852642059326,0,0,0.36065852642059326,448.0311279296875,309.26068115234375)" opacity="1"><g opacity="1" transform="matrix(1,0,0,1,697.0700073242188,496.4429931640625)"><path fill="rgb(254,179,164)" fill-opacity="1" d=" M0,-11.479999542236328 C6.340000152587891,-11.479999542236328 11.479999542236328,-6.340000152587891 11.479999542236328,0 C11.479999542236328,6.341000080108643 6.340000152587891,11.479999542236328 0,11.479999542236328 C-6.340000152587891,11.479999542236328 -11.479999542236328,6.341000080108643 -11.479999542236328,0 C-11.479999542236328,-6.340000152587891 -6.340000152587891,-11.479999542236328 0,-11.479999542236328z"/></g></g><g style="display: block;" transform="matrix(0.36065852642059326,0,0,0.36065852642059326,412.07879638671875,289.97442626953125)" opacity="1"><g opacity="1" transform="matrix(1,0,0,1,637.1489868164062,464.29901123046875)"><path fill="rgb(254,179,164)" fill-opacity="1" d=" M0,-11.479999542236328 C6.341000080108643,-11.479999542236328 11.479000091552734,-6.340000152587891 11.479000091552734,0 C11.479000091552734,6.340000152587891 6.341000080108643,11.479999542236328 0,11.479999542236328 C-6.340000152587891,11.479999542236328 -11.479000091552734,6.340000152587891 -11.479000091552734,0 C-11.479000091552734,-6.340000152587891 -6.340000152587891,-11.479999542236328 0,-11.479999542236328z"/></g></g><g style="display: block;" transform="matrix(0.04136614874005318,0,0,0.04136614874005318,528.345947265625,412.11376953125)" opacity="1"><g opacity="1" transform="matrix(1,0,0,1,542.3259887695312,435.89898681640625)"><path fill="rgb(254,179,164)" fill-opacity="1" d=" M0.0010000000474974513,-11.479999542236328 C6.341000080108643,-11.479999542236328 11.479000091552734,-6.340000152587891 11.479000091552734,0 C11.479000091552734,6.340000152587891 6.341000080108643,11.479999542236328 0.0010000000474974513,11.479999542236328 C-6.340000152587891,11.479999542236328 -11.479000091552734,6.340000152587891 -11.479000091552734,0 C-11.479000091552734,-6.340000152587891 -6.340000152587891,-11.479999542236328 0.0010000000474974513,-11.479999542236328z"/></g></g><g style="display: block;" transform="matrix(0.04136614874005318,0,0,0.04136614874005318,687.9959716796875,412.11376953125)" opacity="1"><g opacity="1" transform="matrix(1,0,0,1,715.9929809570312,435.89898681640625)"><path fill="rgb(254,179,164)" fill-opacity="1" d=" M0,-11.479999542236328 C6.341000080108643,-11.479999542236328 11.479000091552734,-6.340000152587891 11.479000091552734,0 C11.479000091552734,6.340000152587891 6.341000080108643,11.479999542236328 0,11.479999542236328 C-6.340000152587891,11.479999542236328 -11.479000091552734,6.340000152587891 -11.479000091552734,0 C-11.479000091552734,-6.340000152587891 -6.340000152587891,-11.479999542236328 0,-11.479999542236328z"/></g></g><g style="display: block;" transform="matrix(0,0,0,0,641.8720092773438,356.3996276855469)" opacity="1"><g opacity="1" transform="matrix(1,0,0,1,637.1489868164062,359.13299560546875)"><path fill="rgb(254,179,164)" fill-opacity="1" d=" M0,-11.479999542236328 C6.341000080108643,-11.479999542236328 11.479000091552734,-6.340000152587891 11.479000091552734,0 C11.479000091552734,6.341000080108643 6.341000080108643,11.479999542236328 0,11.479999542236328 C-6.340000152587891,11.479999542236328 -11.479000091552734,6.341000080108643 -11.479000091552734,0 C-11.479000091552734,-6.340000152587891 -6.340000152587891,-11.479999542236328 0,-11.479999542236328z"/></g></g><g style="display: block;" transform="matrix(0,0,0,0,581.2787475585938,384.6985778808594)" opacity="1"><g opacity="1" transform="matrix(1,0,0,1,574.073974609375,388.59100341796875)"><path fill="rgb(254,179,164)" fill-opacity="1" d=" M0.0010000000474974513,-11.479999542236328 C6.341000080108643,-11.479999542236328 11.479000091552734,-6.340000152587891 11.479000091552734,0 C11.479000091552734,6.341000080108643 6.341000080108643,11.479999542236328 0.0010000000474974513,11.479999542236328 C-6.340000152587891,11.479999542236328 -11.479000091552734,6.341000080108643 -11.479000091552734,0 C-11.479000091552734,-6.340000152587891 -6.340000152587891,-11.479999542236328 0.0010000000474974513,-11.479999542236328z"/></g></g></g></svg>