<svg xmlns="http://www.w3.org/2000/svg" xmlns:xlink="http://www.w3.org/1999/xlink" viewBox="0 0 3000 3000" width="3000" height="3000" style="width: 100%; height: 100%; transform: translate3d(0px, 0px, 0px);" preserveAspectRatio="xMidYMid meet" id="Invite cart"><defs><clipPath id="__lottie_element_1835"><rect width="3000" height="3000" x="0" y="0"/></clipPath><symbol id="__lottie_element_1848"><g><g style="display: block;" transform="matrix(1.03242826461792,0,0,1.03242826461792,953.1664428710938,1069.516357421875)" opacity="1"><g opacity="1" transform="matrix(1,0,0,1,595.4710083007812,633.7769775390625)"><path fill="rgb(198,240,255)" fill-opacity="1" d=" M-327.3900146484375,626.0260009765625 C-329.27899169921875,626.0260009765625 -331.1029968261719,625.31298828125 -332.4939880371094,624.02099609375 C-333.9849853515625,622.635986328125 -334.8489990234375,620.7050170898438 -334.88800048828125,618.6699829101562 C-341.00799560546875,300.4049987792969 -462.8399963378906,-177.1909942626953 -588.1630249023438,-393.7760009765625 C-589.4920043945312,-396.0710144042969 -589.5089721679688,-398.89599609375 -588.2100219726562,-401.2070007324219 C-586.9110107421875,-403.51800537109375 -584.489990234375,-404.97198486328125 -581.8389892578125,-405.031005859375 C-330.2969970703125,-410.62200927734375 -98.05000305175781,-460.02398681640625 52.48699951171875,-500.4830017089844 C218.62600708007812,-545.1339721679688 350.93701171875,-597.8560180664062 391.9219970703125,-618.7080078125 C393.01300048828125,-619.2620239257812 482.59600830078125,-449.1400146484375 533.4359741210938,-107.87200164794922 C555.0960083007812,15.109999656677246 586.5960083007812,279.8599853515625 562.4290161132812,466.1600036621094 C562.0670166015625,468.9519958496094 561.7139892578125,470.8219909667969 559.072021484375,471.7929992675781 C486.4259948730469,498.4960021972656 399.04998779296875,521.405029296875 290.0010070800781,542.8400268554688 C202.8939971923828,559.9619750976562 105.822998046875,582.7440185546875 -0.49000000953674316,595.7620239257812 C-181.44500732421875,617.9199829101562 -325.5459899902344,625.9359741210938 -326.9809875488281,626.0150146484375 C-327.1180114746094,626.02197265625 -327.2539978027344,626.0260009765625 -327.3900146484375,626.0260009765625z"/></g></g></g></symbol><clipPath id="__lottie_element_1852"><path d="M0,0 L3000,0 L3000,3000 L0,3000z"/></clipPath><clipPath id="__lottie_element_1856"><path d="M0,0 L3000,0 L3000,3000 L0,3000z"/></clipPath><clipPath id="__lottie_element_1860"><path d="M0,0 L3000,0 L3000,3000 L0,3000z"/></clipPath><clipPath id="__lottie_element_1864"><path d="M0,0 L3000,0 L3000,3000 L0,3000z"/></clipPath><mask id="__lottie_element_1848_1" mask-type="alpha"><use a0:href="#__lottie_element_1848" xmlns:a0="http://www.w3.org/1999/xlink"/></mask><symbol id="__lottie_element_1909"><g><g style="display: block;" transform="matrix(0.9986486434936523,-0.05197027698159218,0.05197027698159218,0.9986486434936523,439.0866394042969,673.5038452148438)" opacity="1"><g opacity="1" transform="matrix(1,0,0,1,228.0800018310547,232.08799743652344)"><path fill="rgb(232,144,178)" fill-opacity="1" d=" M32.805999755859375,224.33799743652344 C-42.71799850463867,224.33799743652344 -118.71900177001953,179.77099609375 -165.53799438476562,108.02899932861328 C-199.66299438476562,55.736000061035156 -214.69200134277344,-4.624000072479248 -207.85499572753906,-61.933998107910156 C-200.9600067138672,-119.74299621582031 -171.6929931640625,-159.5469970703125 -127.26200103759766,-188.54299926757812 C-99.39900207519531,-206.7259979248047 -66.38999938964844,-216.33799743652344 -31.80500030517578,-216.33799743652344 C43.71799850463867,-216.33799743652344 120.46900177001953,-165.94200134277344 158.03700256347656,-105.02799987792969 C190.81500244140625,-51.88100051879883 208.1909942626953,4.125 201.35499572753906,61.435001373291016 C194.45899963378906,119.24299621582031 168.1929931640625,161.54800415039062 123.76200103759766,190.54299926757812 C95.89900207519531,208.7270050048828 67.39099884033203,224.33799743652344 32.805999755859375,224.33799743652344z"/></g></g></g></symbol><mask id="__lottie_element_1909_1" mask-type="alpha"><use a1:href="#__lottie_element_1909" xmlns:a1="http://www.w3.org/1999/xlink"/></mask><symbol id="__lottie_element_1924"><g><g style="display: block;" transform="matrix(0.9986486434936523,0.05197027698159218,-0.05197027698159218,0.9986486434936523,799.919189453125,467.05889892578125)" opacity="1"><g opacity="1" transform="matrix(1,0,0,1,225.68600463867188,236.2969970703125)"><path fill="rgb(255,233,137)" fill-opacity="1" d=" M27.920000076293945,223.5469970703125 C-12.486000061035156,223.5469970703125 -54.22600173950195,215.11399841308594 -90.89299774169922,189.6999969482422 C-128.21299743652344,163.83399963378906 -158.68099975585938,127.23200225830078 -179.0019989013672,83.85099792480469 C-205.49000549316406,27.305999755859375 -211.9409942626953,-34.5620002746582 -197.16799926757812,-90.35600280761719 C-182.26699829101562,-146.63499450683594 -148.6009979248047,-181.5240020751953 -100.55699920654297,-204.0290069580078 C-77.86699676513672,-214.6580047607422 -53.42900085449219,-220.0469970703125 -27.91900062561035,-220.0469970703125 C12.487000465393066,-220.0469970703125 51.22700119018555,-207.61399841308594 87.8949966430664,-182.1999969482422 C125.21399688720703,-156.33399963378906 155.8679962158203,-117.89800262451172 172.0030059814453,-83.35099792480469 C199.56399536132812,-24.340999603271484 204.4409942626953,35.0629997253418 189.66900634765625,90.85600280761719 C174.76800537109375,147.13499450683594 144.1020050048828,183.5240020751953 96.05799865722656,206.0290069580078 C73.36799621582031,216.6580047607422 53.43000030517578,223.5469970703125 27.920000076293945,223.5469970703125z"/></g></g></g></symbol><mask id="__lottie_element_1924_1" mask-type="alpha"><use a2:href="#__lottie_element_1924" xmlns:a2="http://www.w3.org/1999/xlink"/></mask><symbol id="__lottie_element_1939"><g><g style="display: block;" transform="matrix(0.998216986656189,-0.05968979746103287,0.05968979746103287,0.998216986656189,1045.786865234375,370.7752380371094)" opacity="1"><g opacity="1" transform="matrix(1,0,0,1,239.3719940185547,274.1400146484375)"><path fill="rgb(198,240,255)" fill-opacity="1" d=" M172.94500732421875,-15.213000297546387 C182.91900634765625,110.24299621582031 118.94300079345703,200.91799926757812 14.454000473022461,211.5290069580078 C-90.03600311279297,222.13999938964844 -176.51800537109375,144.04600524902344 -189.19500732421875,19.21299934387207 C-201.8719940185547,-105.61900329589844 -126.44300079345703,-198.91799926757812 -21.95400047302246,-209.5290069580078 C82.53600311279297,-220.13999938964844 163.72000122070312,-131.24099731445312 172.94500732421875,-15.213000297546387z"/><path stroke-linecap="round" stroke-linejoin="round" fill-opacity="0" stroke="rgb(129,189,0)" stroke-opacity="1" stroke-width="15" d=" M172.94500732421875,-15.213000297546387 C182.91900634765625,110.24299621582031 118.94300079345703,200.91799926757812 14.454000473022461,211.5290069580078 C-90.03600311279297,222.13999938964844 -176.51800537109375,144.04600524902344 -189.19500732421875,19.21299934387207 C-201.8719940185547,-105.61900329589844 -126.44300079345703,-198.91799926757812 -21.95400047302246,-209.5290069580078 C82.53600311279297,-220.13999938964844 163.72000122070312,-131.24099731445312 172.94500732421875,-15.213000297546387z"/></g></g></g></symbol><mask id="__lottie_element_1939_1" mask-type="alpha"><use a3:href="#__lottie_element_1939" xmlns:a3="http://www.w3.org/1999/xlink"/></mask></defs><g clip-path="url(#__lottie_element_1835)"><g style="display: block;" transform="matrix(1.03242826461792,0,0,1.03242826461792,925.8844604492188,929.721435546875)" opacity="1"><g opacity="1" transform="matrix(1,0,0,1,615.197998046875,702.583984375)"><path fill="rgb(170,228,247)" fill-opacity="1" d=" M-577.697998046875,-345.12200927734375 C-448.6990051269531,-171.03599548339844 -305.6619873046875,375.7760009765625 -314.4289855957031,665.083984375 C-314.4289855957031,665.083984375 505.0580139160156,541.1069946289062 555.155029296875,518.5640258789062 C577.697998046875,304.4010009765625 435.8231201171875,-412.1632080078125 273.81561279296875,-637.2798461914062 C126.19574737548828,-550.0094604492188 -78.21700286865234,-450.28399658203125 -577.697998046875,-345.12200927734375z"/><path stroke-linecap="round" stroke-linejoin="round" fill-opacity="0" stroke="rgb(129,189,0)" stroke-opacity="1" stroke-width="15" d=" M-577.697998046875,-345.12200927734375 C-448.6990051269531,-171.03599548339844 -305.6619873046875,375.7760009765625 -314.4289855957031,665.083984375 C-314.4289855957031,665.083984375 505.0580139160156,541.1069946289062 555.155029296875,518.5640258789062 C577.697998046875,304.4010009765625 435.8231201171875,-412.1632080078125 273.81561279296875,-637.2798461914062 C126.19574737548828,-550.0094604492188 -78.21700286865234,-450.28399658203125 -577.697998046875,-345.12200927734375z"/></g></g><g style="display: block;" transform="matrix(1.03242826461792,0,0,1.03242826461792,975.69091796875,1015.0113525390625)" opacity="1"><g opacity="1" transform="matrix(1,0,0,1,491.52398681640625,182.42300415039062)"><path fill="rgb(45,191,241)" fill-opacity="1" d=" M366.1435241699219,-161.32086181640625 C345.6585388183594,-131.0808563232422 47.90399932861328,29.256000518798828 -491.27398681640625,90.00800323486328 C-491.27398681640625,90.00800323486328 -452.51800537109375,182.1739959716797 -452.51800537109375,182.1739959716797 C-452.51800537109375,182.1739959716797 -117.9229965209961,141.20399475097656 160.09300231933594,68.04100036621094 C438.1090087890625,-5.120999813079834 420.7705383300781,-59.867862701416016 420.7705383300781,-59.867862701416016 C420.7705383300781,-59.867862701416016 390.529541015625,-119.37386322021484 384.6765441894531,-131.07986450195312 C378.82354736328125,-142.78585815429688 366.1435241699219,-161.32086181640625 366.1435241699219,-161.32086181640625z"/></g></g><g style="display: block;" transform="matrix(1.03242826461792,0,0,1.03242826461792,953.1663818359375,1069.516357421875)" opacity="1"><g opacity="1" transform="matrix(1,0,0,1,595.4710083007812,633.7769775390625)"><path fill="rgb(198,240,255)" fill-opacity="1" d=" M-327.3900146484375,626.0260009765625 C-329.27899169921875,626.0260009765625 -331.1029968261719,625.31298828125 -332.4939880371094,624.02099609375 C-333.9849853515625,622.635986328125 -334.8489990234375,620.7050170898438 -334.88800048828125,618.6699829101562 C-341.00799560546875,300.4049987792969 -460.7149963378906,-186.6909942626953 -586.0380249023438,-403.2760009765625 C-587.3670043945312,-405.5710144042969 -587.3839721679688,-408.39599609375 -586.0850219726562,-410.7070007324219 C-584.7860107421875,-413.01800537109375 -582.364990234375,-414.47198486328125 -579.7139892578125,-414.531005859375 C-328.1719970703125,-420.12200927734375 -95.92500305175781,-469.52398681640625 54.61199951171875,-509.9830017089844 C220.75100708007812,-554.6339721679688 347.68701171875,-604.3560180664062 388.6719970703125,-625.2080078125 C389.7619934082031,-625.7620239257812 390.9230041503906,-626.0260009765625 392.0679931640625,-626.0260009765625 C394.7720031738281,-626.0260009765625 397.3810119628906,-624.5590209960938 398.718994140625,-622.0009765625 C453.0199890136719,-518.2249755859375 506.1860046386719,-326.8689880371094 540.9359741210938,-110.12200164794922 C576.9080200195312,114.24099731445312 587.3839721679688,326.2929992675781 569.6790161132812,471.6600036621094 C569.3389892578125,474.4540100097656 567.4639892578125,476.8219909667969 564.822021484375,477.7929992675781 C492.1759948730469,504.4960021972656 400.04998779296875,528.905029296875 291.0010070800781,550.3400268554688 C203.8939971923828,567.4619750976562 105.822998046875,582.7440185546875 -0.49000000953674316,595.7620239257812 C-181.44500732421875,617.9199829101562 -325.5459899902344,625.9359741210938 -326.9809875488281,626.0150146484375 C-327.1180114746094,626.02197265625 -327.2539978027344,626.0260009765625 -327.3900146484375,626.0260009765625z"/></g><g opacity="1" transform="matrix(1,0,0,1,597.7880249023438,633.7760009765625)"><path fill="rgb(129,189,0)" fill-opacity="1" d=" M389.7569885253906,-618.5230102539062 C502.4739990234375,-403.1080017089844 597.5369873046875,161.8730010986328 559.9169921875,470.7539978027344 C243.05599975585938,587.22900390625 -329.7070007324219,618.5260009765625 -329.7070007324219,618.5260009765625 C-336.010986328125,290.63800048828125 -459.7539978027344,-196 -581.864013671875,-407.0320129394531 C-107.74600219726562,-417.5710144042969 316.4259948730469,-581.2150268554688 389.7569885253906,-618.5230102539062z M389.7449951171875,-633.5260009765625 C387.45599365234375,-633.5260009765625 385.13299560546875,-633 382.9549865722656,-631.8920288085938 C342.2380065917969,-611.177001953125 215.9340057373047,-561.72802734375 50.3489990234375,-517.2249755859375 C-99.79000091552734,-476.8739929199219 -331.40399169921875,-427.6029968261719 -582.197998046875,-422.02801513671875 C-587.4990234375,-421.9100036621094 -592.3419799804688,-419.00299072265625 -594.9400024414062,-414.3800048828125 C-597.5369873046875,-409.7590026855469 -597.5020141601562,-404.1090087890625 -594.8460083007812,-399.5190124511719 C-470.0299987792969,-183.81199645996094 -350.8030090332031,301.56298828125 -344.7030029296875,618.8150024414062 C-344.625,622.8839721679688 -342.89801025390625,626.7470092773438 -339.9150085449219,629.5170288085938 C-337.13299560546875,632.0999755859375 -333.4840087890625,633.5260009765625 -329.7080078125,633.5260009765625 C-329.43499755859375,633.5260009765625 -329.1629943847656,633.5189819335938 -328.8890075683594,633.5040283203125 C-327.4519958496094,633.426025390625 -183.09800720214844,625.39501953125 -1.8949999809265137,603.2069702148438 C104.59600067138672,590.1669921875 202.84800720214844,574.8560180664062 290.1310119628906,557.7000122070312 C399.5669860839844,536.18798828125 492.0769958496094,511.6719970703125 565.0919799804688,484.8330078125 C570.375,482.8909912109375 574.1259765625,478.1549987792969 574.8070068359375,472.5679931640625 C583.97802734375,397.2699890136719 585.7349853515625,305.4739990234375 580.0289916992188,199.72999572753906 C574.7659912109375,102.1709976196289 563.0070190429688,-5.383999824523926 546.0239868164062,-111.30899810791016 C529.3060302734375,-215.58799743652344 507.7380065917969,-317.093994140625 483.65301513671875,-404.85198974609375 C458.15301513671875,-497.7650146484375 431.0329895019531,-571.9940185546875 403.0469970703125,-625.4769897460938 C400.3699951171875,-630.593017578125 395.1520080566406,-633.5260009765625 389.7449951171875,-633.5260009765625z"/></g><g opacity="1" transform="matrix(1,0,0,1,509.8800048828125,1052.907958984375)"><path stroke-linecap="round" stroke-linejoin="round" fill-opacity="0" stroke="rgb(224,247,255)" stroke-opacity="1" stroke-width="25" d=" M-47.895999908447266,5.869999885559082 C-34.611000061035156,8.170999526977539 20.625999450683594,2.493000030517578 47.895999908447266,-8.17199993133545"/></g><g opacity="1" transform="matrix(1,0,0,1,623.8389892578125,1030.8709716796875)"><path stroke-linecap="round" stroke-linejoin="round" fill-opacity="0" stroke="rgb(224,247,255)" stroke-opacity="1" stroke-width="25" d=" M-14.310999870300293,2.7829999923706055 C-5.36299991607666,3.7100000381469727 9.503999710083008,-0.9599999785423279 14.310999870300293,-3.7100000381469727"/></g></g><g style="display: block;" mask="url(#__lottie_element_1848_1)"><g transform="matrix(1.03242826461792,0,0,1.03242826461792,1912.049560546875,952.065185546875)" opacity="1"><g opacity="1" transform="matrix(1,0,0,1,249.9759979248047,649.4420166015625)"><path fill="rgb(183,225,239)" fill-opacity="1" d=" M-249.7270050048828,-518.4760131835938 C-171.68699645996094,-349.7149963378906 -64.54900360107422,258.2019958496094 -90.72100067138672,441.4110107421875 C-101.4520034790039,516.5239868164062 -101.94000244140625,621.3900146484375 -217.04800415039062,632.1199951171875 C-217.04800415039062,632.1199951171875 249.7270050048828,649.1920166015625 249.7270050048828,649.1920166015625 C249.7270050048828,649.1920166015625 -57.55500030517578,-649.1920166015625 -57.55500030517578,-649.1920166015625 C-57.55500030517578,-649.1920166015625 -249.7270050048828,-518.4760131835938 -249.7270050048828,-518.4760131835938z"/></g></g></g><g clip-path="url(#__lottie_element_1852)" style="display: block;" transform="matrix(1.03242826461792,0,0,1.03242826461792,-50.28371047973633,-54.14035415649414)" opacity="1"><g style="display: block;" transform="matrix(1,0,0,1,1351.5899658203125,1424.2769775390625)" opacity="1"><g opacity="1" transform="matrix(1,0,0,1,300.8760070800781,384.2919921875)"><path fill="rgb(255,233,137)" fill-opacity="1" d=" M-151.81500244140625,175.6750030517578 C-213.53700256347656,175.67300415039062 -248.89599609375,52.790000915527344 -274.7139892578125,-36.93600082397461 C-278.5530090332031,-50.2760009765625 -282.177001953125,-62.875999450683594 -285.46600341796875,-73.46700286865234 C-285.46600341796875,-73.46700286865234 -286.2659912109375,-76.04399871826172 -286.2659912109375,-76.04399871826172 C-286.2659912109375,-76.04399871826172 -285.24200439453125,-78.54000091552734 -285.24200439453125,-78.54000091552734 C-281.7460021972656,-87.05500030517578 -270.1440124511719,-100.31700134277344 -210.00900268554688,-117.10800170898438 C-173.8040008544922,-127.21700286865234 -123.66400146484375,-137.51499938964844 -65.01000213623047,-146.88800048828125 C37.68600082397461,-163.2989959716797 159.50999450683594,-175.6750030517578 218.36399841308594,-175.6750030517578 C247.78900146484375,-175.6750030517578 252.31500244140625,-172.4600067138672 254.88999938964844,-168.57699584960938 C268.6889953613281,-147.76699829101562 283.9930114746094,-42.36899948120117 285.7860107421875,24.135000228881836 C286.2659912109375,41.95500183105469 280.2850036621094,57.77899932861328 268.0060119628906,71.16600036621094 C257.2330017089844,82.91300201416016 241.5570068359375,93.02899932861328 220.08399963378906,102.09200286865234 C180.95899963378906,118.60399627685547 126.24700164794922,129.84500122070312 68.322998046875,141.7469940185547 C68.322998046875,141.7469940185547 63.83599853515625,142.66799926757812 63.83599853515625,142.66799926757812 C-29.475000381469727,161.8489990234375 -113.70600128173828,174.8000030517578 -150.7519989013672,175.66299438476562 C-151.10699462890625,175.67100524902344 -151.46099853515625,175.6750030517578 -151.81500244140625,175.6750030517578z"/></g><g opacity="1" transform="matrix(1,0,0,1,300.6719970703125,384.2919921875)"><path fill="rgb(129,189,0)" fill-opacity="1" d=" M218.5679931640625,-168.1750030517578 C236.19700622558594,-168.1750030517578 247.1490020751953,-166.98800659179688 248.843994140625,-164.4320068359375 C261.0769958496094,-145.98199462890625 276.6839904785156,-42.78099822998047 278.4939880371094,24.336999893188477 C280.3030090332031,91.427001953125 181.7469940185547,110.81700134277344 62.529998779296875,135.32200622558594 C-31.430999755859375,154.63600158691406 -114.18599700927734,167.31300354003906 -150.7220001220703,168.1649932861328 C-151.01800537109375,168.1719970703125 -151.31399536132812,168.1750030517578 -151.61000061035156,168.1750030517578 C-216.822998046875,168.1750030517578 -254.46400451660156,0.42899999022483826 -278.0989990234375,-75.69100189208984 C-258.885986328125,-122.48799896240234 109.06999969482422,-168.1750030517578 218.5679931640625,-168.1750030517578z M218.5679931640625,-183.1750030517578 C159.375,-183.1750030517578 37.04199981689453,-170.75900268554688 -65.98899841308594,-154.29400634765625 C-124.91799926757812,-144.8769989013672 -175.3470001220703,-134.51600646972656 -211.8209991455078,-124.33200073242188 C-232.80999755859375,-118.47100067138672 -249.74099731445312,-112.5260009765625 -262.1440124511719,-106.66200256347656 C-278.614013671875,-98.8740005493164 -288.0929870605469,-90.84300231933594 -291.9739990234375,-81.38800048828125 C-291.9739990234375,-81.38800048828125 -294.02398681640625,-76.39700317382812 -294.02398681640625,-76.39700317382812 C-294.02398681640625,-76.39700317382812 -292.42401123046875,-71.24299621582031 -292.42401123046875,-71.24299621582031 C-289.15899658203125,-60.72800064086914 -285.54400634765625,-48.165000915527344 -281.7170104980469,-34.86399841308594 C-269.6090087890625,7.214000225067139 -254.54100036621094,59.582000732421875 -235.1540069580078,102 C-224.11000061035156,126.16400146484375 -212.98399353027344,144.32400512695312 -201.14100646972656,157.51600646972656 C-185.8560028076172,174.54200744628906 -169.1909942626953,183.1750030517578 -151.61000061035156,183.1750030517578 C-151.197998046875,183.1750030517578 -150.78700256347656,183.1699981689453 -150.37399291992188,183.16099548339844 C-112.33999633789062,182.2740020751953 -29.60300064086914,169.57400512695312 65.55000305175781,150.01499938964844 C65.55000305175781,150.01499938964844 70.03600311279297,149.09300231933594 70.03600311279297,149.09300231933594 C128.33399963378906,137.11500549316406 183.3979949951172,125.802001953125 223.2050018310547,109.0009994506836 C245.69200134277344,99.51100158691406 262.22198486328125,88.79299926757812 273.739013671875,76.23500061035156 C287.3789978027344,61.36399841308594 294.02398681640625,43.76599884033203 293.489013671875,23.933000564575195 C292.6099853515625,-8.66100025177002 288.4649963378906,-51.474998474121094 282.4010009765625,-90.59600067138672 C275.6390075683594,-134.2169952392578 268.55499267578125,-161.84800720214844 261.3450012207031,-172.7209930419922 C256.8789978027344,-179.45799255371094 249.14999389648438,-181.23699951171875 241.46200561523438,-182.156005859375 C235.72799682617188,-182.8419952392578 228.23899841308594,-183.1750030517578 218.5679931640625,-183.1750030517578z"/></g><g opacity="1" transform="matrix(1,0,0,1,286.468994140625,285.54400634765625)"><path fill="rgb(255,163,198)" fill-opacity="1" d=" M-17.554000854492188,147.05099487304688 C-39.992000579833984,147.05099487304688 -55.6879997253418,107.43000030517578 -70.86599731445312,69.11299896240234 C-75.71800231933594,56.86399841308594 -82.00900268554688,40.98500061035156 -86.36799621582031,33.654998779296875 C-86.3740005493164,35.99300003051758 -86.11299896240234,38.957000732421875 -85.92500305175781,41.07099914550781 C-84.89800262451172,52.6870002746582 -83.34400177001953,70.24099731445312 -101.52100372314453,78.30999755859375 C-104.62300109863281,79.68699645996094 -107.72899627685547,80.38600158691406 -110.7490005493164,80.38600158691406 C-124.86900329589844,80.38600158691406 -132.4080047607422,66.2249984741211 -138.46499633789062,54.84600067138672 C-140.47900390625,51.064998626708984 -143.65499877929688,45.10200119018555 -145.83900451660156,42.88600158691406 C-146.33900451660156,46.319000244140625 -145.2530059814453,53.965999603271484 -144.5659942626953,58.80500030517578 C-142.26699829101562,74.98899841308594 -139.1179962158203,97.1520004272461 -157.52699279785156,105.3219985961914 C-159.64500427246094,106.26200103759766 -161.89500427246094,106.73899841308594 -164.21400451660156,106.73899841308594 C-181.69200134277344,106.73899841308594 -197.62100219726562,80.5780029296875 -216.62899780273438,46.37699890136719 C-218.3260040283203,43.32500076293945 -220.18299865722656,39.98099899291992 -221.9290008544922,36.93299865722656 C-226.83900451660156,49.819000244140625 -235.63299560546875,64.072998046875 -247.5260009765625,64.072998046875 C-263.2430114746094,64.072998046875 -268.510009765625,39.98400115966797 -270.2409973144531,32.069000244140625 C-274.52398681640625,12.473999977111816 -270.9830017089844,-6.2230000495910645 -259.7139892578125,-23.503000259399414 C-230.23699951171875,-68.7030029296875 -148.46299743652344,-104.33399963378906 -9.720000267028809,-132.43099975585938 C38.180999755859375,-142.1320037841797 80.95500183105469,-147.05099487304688 117.41000366210938,-147.05099487304688 C258.4200134277344,-147.05099487304688 273.2909851074219,-74.49600219726562 274.4909973144531,-52.257999420166016 C274.52398681640625,-51.63800048828125 274.4800109863281,-51.01499938964844 274.3599853515625,-50.40599822998047 C271.7980041503906,-37.388999938964844 264.0350036621094,-35.44499969482422 259.635009765625,-35.44499969482422 C259.635009765625,-35.44499969482422 259.6340026855469,-35.44499969482422 259.6340026855469,-35.44499969482422 C254.98699951171875,-35.44499969482422 250.55999755859375,-37.48500061035156 245.875,-39.645999908447266 C241.6490020751953,-41.59400177001953 237.2790069580078,-43.608001708984375 233.66000366210938,-43.608001708984375 C233.01400756835938,-43.608001708984375 232.4199981689453,-43.542999267578125 231.85400390625,-43.4109992980957 C230.6929931640625,-40.0989990234375 233.1739959716797,-28.892000198364258 234.531005859375,-22.756000518798828 C236.07200622558594,-15.791999816894531 237.6649932861328,-8.590999603271484 237.80099487304688,-2.513000011444092 C238.0850067138672,10.190999984741211 231.38299560546875,14.130000114440918 227.36300659179688,15.347999572753906 C225.88999938964844,15.793999671936035 224.3730010986328,16.020000457763672 222.8520050048828,16.020000457763672 C212.63800048828125,16.020000457763672 205.27999877929688,6.465000152587891 197.49000549316406,-3.6519999504089355 C190.6529998779297,-12.531000137329102 182.9029998779297,-22.593000411987305 175.47900390625,-22.593000411987305 C175.01199340820312,-22.593000411987305 174.53500366210938,-22.55500030517578 174.0590057373047,-22.479000091552734 C168.8300018310547,-21.645999908447266 167.76800537109375,-11.934000015258789 166.83900451660156,1.6970000267028809 C165.7689971923828,17.371000289916992 164.43800354003906,36.87900161743164 147.00399780273438,39.61199951171875 C145.8489990234375,39.792999267578125 144.69500732421875,39.8849983215332 143.57400512695312,39.8849983215332 C129.38699340820312,39.8849983215332 123.01499938964844,26.530000686645508 117.8949966430664,15.800000190734863 C114.67500305175781,9.050999641418457 111.02300262451172,1.4010000228881836 107.36000061035156,1.4010000228881836 C106.49099731445312,1.4010000228881836 105.36599731445312,1.6959999799728394 104.10399627685547,2.255000114440918 C97.54499816894531,5.163000106811523 97.41999816894531,11.807999610900879 98.6969985961914,26.27899932861328 C99.87000274658203,39.57099914550781 101.47599792480469,57.77399826049805 84.40599822998047,65.2969970703125 C81.57099914550781,66.5469970703125 78.63899993896484,67.18000030517578 75.69100189208984,67.18000030517578 C61.48899841308594,67.18000030517578 50.94599914550781,53.104000091552734 40.749000549316406,39.49100112915039 C33.715999603271484,30.100000381469727 24.961000442504883,18.41200065612793 18.768999099731445,18.41200065612793 C18.56999969482422,18.41200065612793 18.368999481201172,18.424999237060547 18.170000076293945,18.450000762939453 C17.738000869750977,18.874000549316406 15.831999778747559,21.27400016784668 14.72599983215332,31.277999877929688 C13.793999671936035,39.71500015258789 13.720999717712402,50.577999114990234 13.644000053405762,62.08000183105469 C13.418000221252441,95.72200012207031 13.15999984741211,133.85299682617188 -8.680999755859375,144.875 C-11.541000366210938,146.31900024414062 -14.526000022888184,147.05099487304688 -17.554000854492188,147.05099487304688z"/></g><g opacity="1" transform="matrix(1,0,0,1,286.343994140625,285.54400634765625)"><path fill="rgb(129,189,0)" fill-opacity="1" d=" M117.53500366210938,-139.55099487304688 C248.68099975585938,-139.55099487304688 265.8420104980469,-75.68000030517578 267.12701416015625,-51.854000091552734 C265.8070068359375,-45.150001525878906 263.2030029296875,-42.94499969482422 259.760009765625,-42.94499969482422 C253.13699340820312,-42.94499969482422 243.41600036621094,-51.108001708984375 233.78500366210938,-51.108001708984375 C232.3000030517578,-51.108001708984375 230.81300354003906,-50.91299819946289 229.343994140625,-50.4640007019043 C213.41900634765625,-45.599998474121094 241.25100708007812,3.3429999351501465 225.31300354003906,8.170000076293945 C224.5290069580078,8.407999992370605 223.75,8.520999908447266 222.9759979248047,8.520999908447266 C208.66200256347656,8.520999908447266 196.0240020751953,-30.093000411987305 175.60400390625,-30.093000411987305 C174.7519989013672,-30.093000411987305 173.88499450683594,-30.025999069213867 173.0050048828125,-29.88599967956543 C149.947998046875,-26.211999893188477 169.01199340820312,28.59000015258789 145.96800231933594,32.202999114990234 C145.18099975585938,32.32600021362305 144.42799377441406,32.3849983215332 143.6999969482422,32.3849983215332 C125.15599822998047,32.3849983215332 124.61299896240234,-6.098999977111816 107.48600006103516,-6.098999977111816 C105.60299682617188,-6.098999977111816 103.51899719238281,-5.633999824523926 101.19000244140625,-4.60099983215332 C76.89199829101562,6.168000221252441 105.80899810791016,47.722999572753906 81.50700378417969,58.433998107910156 C79.56800079345703,59.28900146484375 77.67400360107422,59.68000030517578 75.81500244140625,59.68000030517578 C55.0880012512207,59.68000030517578 38.94900131225586,10.911999702453613 18.895000457763672,10.911999702453613 C18.253999710083008,10.911999702453613 17.606000900268555,10.961999893188477 16.957000732421875,11.0649995803833 C-5.781000137329102,14.67199993133545 20.65999984741211,121.73100280761719 -11.934000015258789,138.17999267578125 C-13.781999588012695,139.11300659179688 -15.612000465393066,139.55099487304688 -17.43000030517578,139.55099487304688 C-47.01499938964844,139.55099487304688 -72.302001953125,22.992000579833984 -87.04499816894531,22.992000579833984 C-87.31800079345703,22.992000579833984 -87.58799743652344,23.031999588012695 -87.85299682617188,23.11400032043457 C-103.3290023803711,27.85700035095215 -80.54000091552734,60.84700012207031 -104.43800354003906,71.45500183105469 C-106.65799713134766,72.44100189208984 -108.71299743652344,72.88600158691406 -110.6240005493164,72.88600158691406 C-128.3300018310547,72.88600158691406 -133.77200317382812,34.683998107910156 -146.3040008544922,34.683998107910156 C-146.9409942626953,34.683998107910156 -147.59800720214844,34.78300094604492 -148.2740020751953,34.9900016784668 C-163.6649932861328,39.7130012512207 -136.6699981689453,87.91600036621094 -160.44400024414062,98.46700286865234 C-161.625,98.99099731445312 -162.83999633789062,99.23899841308594 -164.08900451660156,99.23899841308594 C-186.26199340820312,99.23899841308594 -217.98699951171875,20.851999282836914 -224.31100463867188,20.851999282836914 C-224.7779998779297,20.851999282836914 -225.1060028076172,21.2810001373291 -225.28199768066406,22.20199966430664 C-227.83900451660156,35.61000061035156 -237.63999938964844,56.573001861572266 -247.4010009765625,56.573001861572266 C-253.0030059814453,56.573001861572266 -258.5920104980469,49.66699981689453 -262.7900085449219,30.466999053955078 C-281.0409851074219,-53.016998291015625 -138.7169952392578,-98.62999725341797 -8.107999801635742,-125.08100128173828 C42.457000732421875,-135.3209991455078 83.76499938964844,-139.55099487304688 117.53500366210938,-139.55099487304688z M117.53500366210938,-154.55099487304688 C80.58100128173828,-154.55099487304688 37.30699920654297,-149.58200073242188 -11.083999633789062,-139.78199768066406 C-72.47100067138672,-127.3499984741211 -121.6500015258789,-113.7750015258789 -161.42799377441406,-98.28099822998047 C-214.05999755859375,-77.77999877929688 -248.22300720214844,-54.65999984741211 -265.8699951171875,-27.600000381469727 C-278.27801513671875,-8.574000358581543 -282.1719970703125,12.039999961853027 -277.4429931640625,33.66999816894531 C-275.0480041503906,44.62300109863281 -272.0509948730469,52.832000732421875 -268.2820129394531,58.763999938964844 C-261.20001220703125,69.90899658203125 -252.16000366210938,71.572998046875 -247.4010009765625,71.572998046875 C-240.5449981689453,71.572998046875 -230.53199768066406,68.3280029296875 -221.34500122070312,53.095001220703125 C-201.2519989013672,89.06500244140625 -185.10400390625,114.23899841308594 -164.08900451660156,114.23899841308594 C-160.71499633789062,114.23899841308594 -157.4409942626953,113.54499816894531 -154.35899353027344,112.177001953125 C-146.7570037841797,108.8030014038086 -137.30999755859375,101.2249984741211 -135.4720001220703,84.28199768066406 C-135.1179962158203,81.01300048828125 -135.07400512695312,77.6780014038086 -135.218994140625,74.3550033569336 C-134.9149932861328,74.74600219726562 -134.6060028076172,75.13200378417969 -134.29200744628906,75.51300048828125 C-127.51599884033203,83.7229995727539 -119.552001953125,87.88600158691406 -110.6240005493164,87.88600158691406 C-106.5479965209961,87.88600158691406 -102.41999816894531,86.97000122070312 -98.35299682617188,85.16500091552734 C-89.4520034790039,81.21399688720703 -83.1989974975586,74.60600280761719 -80.0790023803711,65.91799926757812 C-79.25,67.99700164794922 -78.4540023803711,70.00499725341797 -77.71399688720703,71.875 C-71.07599639892578,88.63099670410156 -63.55400085449219,107.62200164794922 -55.32600021362305,122.60299682617188 C-47.792999267578125,136.3179931640625 -35.66899871826172,154.55099487304688 -17.43000030517578,154.55099487304688 C-13.217000007629395,154.55099487304688 -9.095000267028809,153.5489959716797 -5.176000118255615,151.5709991455078 C7.321000099182129,145.26400756835938 15.081000328063965,131.9739990234375 18.54599952697754,110.94300079345703 C21.04199981689453,95.78500366210938 21.156999588012695,78.6760025024414 21.26799964904785,62.130001068115234 C21.333999633789062,52.33000183105469 21.398000717163086,43.07400131225586 21.988000869750977,35.52000045776367 C22.194000244140625,32.89400100708008 22.441999435424805,30.788999557495117 22.697999954223633,29.111000061035156 C23.124000549316406,29.525999069213867 23.58300018310547,29.993000030517578 24.077999114990234,30.51799964904785 C27.5,34.14699935913086 31.08099937438965,38.926998138427734 34.87099838256836,43.98699951171875 C45.64799880981445,58.374000549316406 57.86000061035156,74.68000030517578 75.81500244140625,74.68000030517578 C79.81199645996094,74.68000030517578 83.76399993896484,73.83200073242188 87.55699920654297,72.16000366210938 C94.5250015258789,69.08899688720703 103.40499877929688,62.483001708984375 106.14099884033203,48.45199966430664 C107.63300323486328,40.801998138427734 106.95099639892578,33.08399963378906 106.29199981689453,25.6200008392334 C105.81600189208984,20.226999282836914 105.3239974975586,14.652000427246094 106.00499725341797,11.151000022888184 C106.14299774169922,10.440999984741211 106.24800109863281,10.029999732971191 106.39099884033203,9.76200008392334 C107.96399688720703,12.144000053405762 109.94499969482422,16.29400062561035 111.25,19.030000686645508 C113.79900360107422,24.3700008392334 116.68800354003906,30.423999786376953 120.70800018310547,35.48500061035156 C128.52000427246094,45.31999969482422 137.52200317382812,47.3849983215332 143.6999969482422,47.3849983215332 C145.20799255371094,47.3849983215332 146.7530059814453,47.26300048828125 148.29100036621094,47.02199935913086 C154.5800018310547,46.0359992980957 165.88900756835938,41.999000549316406 170.96400451660156,26.042999267578125 C173.3260040283203,18.618000030517578 173.89599609375,10.274999618530273 174.44700622558594,2.2070000171661377 C174.77499389648438,-2.609999895095825 175.3489990234375,-11.015999794006348 176.6199951171875,-14.819000244140625 C177.55299377441406,-14.414999961853027 178.927001953125,-13.529999732971191 180.66700744628906,-11.954000473022461 C184.26699829101562,-8.692000389099121 188.03199768066406,-3.803999900817871 191.6719970703125,0.9240000247955322 C200.2270050048828,12.032999992370605 209.07200622558594,23.520999908447266 222.9759979248047,23.520999908447266 C225.23300170898438,23.520999908447266 227.48300170898438,23.18600082397461 229.66099548339844,22.525999069213867 C234.53799438476562,21.048999786376953 245.83299255371094,15.63700008392334 245.42300415039062,-2.680000066757202 C245.27099609375,-9.494000434875488 243.59800720214844,-17.059999465942383 241.97900390625,-24.37700080871582 C241.37100219726562,-27.124000549316406 240.5540008544922,-30.815000534057617 239.96400451660156,-34.14500045776367 C240.9709930419922,-33.70500183105469 241.96400451660156,-33.24700164794922 242.85899353027344,-32.83399963378906 C247.8300018310547,-30.54199981689453 253.46600341796875,-27.94499969482422 259.760009765625,-27.94499969482422 C263.97100830078125,-27.94499969482422 278.0060119628906,-29.459999084472656 281.843994140625,-48.957000732421875 C282.0840148925781,-50.17599868774414 282.1719970703125,-51.42100143432617 282.1050109863281,-52.6619987487793 C281.3659973144531,-66.37200164794922 276.35699462890625,-92.7959976196289 251.11700439453125,-115.73699951171875 C222.78199768066406,-141.49200439453125 177.83900451660156,-154.55099487304688 117.53500366210938,-154.55099487304688z"/></g><g opacity="1" transform="matrix(1,0,0,1,263.1499938964844,149.49600219726562)"><path fill="rgb(232,144,178)" fill-opacity="1" d=" M0.5320000052452087,70.40899658203125 C-8.62600040435791,70.40899658203125 -14.02299976348877,67.68000030517578 -15.01099967956543,67.13200378417969 C-17.142000198364258,65.9520034790039 -18.566999435424805,63.81100082397461 -18.832000732421875,61.38999938964844 C-21.41200065612793,37.90800094604492 -37.435001373291016,-54.108001708984375 -37.59700012207031,-55.03499984741211 C-38.26900100708008,-58.89099884033203 -35.862998962402344,-62.61600112915039 -32.071998596191406,-63.5880012512207 C-32.071998596191406,-63.5880012512207 -6.394999980926514,-70.1729965209961 -6.394999980926514,-70.1729965209961 C-5.770999908447266,-70.33200073242188 -5.145999908447266,-70.40899658203125 -4.5289998054504395,-70.40899658203125 C-1.3380000591278076,-70.40899658203125 1.600000023841858,-68.36000061035156 2.611999988555908,-65.18800354003906 C5.873000144958496,-54.97200012207031 11.812999725341797,-34.7599983215332 18.10300064086914,-13.362000465393066 C26.136999130249023,13.972999572753906 34.44499969482422,42.2400016784668 37.332000732421875,50.20399856567383 C38.26900100708008,52.78900146484375 37.71799850463867,55.67900085449219 35.893001556396484,57.736000061035156 C34.88600158691406,58.87300109863281 29.051000595092773,64.7490005493164 13.173999786376953,68.76599884033203 C8.862000465393066,69.85700225830078 4.609000205993652,70.40899658203125 0.5320000052452087,70.40899658203125z"/></g><g opacity="1" transform="matrix(1,0,0,1,263.11199951171875,149.49600219726562)"><path fill="rgb(129,189,0)" fill-opacity="1" d=" M-4.494999885559082,-62.90700149536133 C2.943000078201294,-39.60300064086914 25.06999969482422,38.28099822998047 30.31800079345703,52.7599983215332 C30.31800079345703,52.7599983215332 25.81399917602539,57.840999603271484 11.371000289916992,61.494998931884766 C7.251999855041504,62.5369987487793 3.634999990463257,62.9109992980957 0.5680000185966492,62.9109992980957 C-7.116000175476074,62.9109992980957 -11.340999603271484,60.57099914550781 -11.340999603271484,60.57099914550781 C-13.97599983215332,36.58100128173828 -30.172000885009766,-56.323001861572266 -30.172000885009766,-56.323001861572266 C-30.172000885009766,-56.323001861572266 -4.494999885559082,-62.90700149536133 -4.494999885559082,-62.90700149536133z M-4.486999988555908,-77.91100311279297 C-5.7210001945495605,-77.91100311279297 -6.9730000495910645,-77.75800323486328 -8.220999717712402,-77.43800354003906 C-8.220999717712402,-77.43800354003906 -33.89799880981445,-70.85199737548828 -33.89799880981445,-70.85199737548828 C-41.48099899291992,-68.90799713134766 -46.29399871826172,-61.45800018310547 -44.94900131225586,-53.74599838256836 C-44.78799819946289,-52.821998596191406 -28.804000854492188,38.959999084472656 -26.250999450683594,62.20800018310547 C-25.7189998626709,67.0510025024414 -22.868000030517578,71.33300018310547 -18.60700035095215,73.69300079345703 C-16.81999969482422,74.68199920654297 -10.157999992370605,77.91100311279297 0.5680000185966492,77.91100311279297 C5.265999794006348,77.91100311279297 10.137999534606934,77.27899932861328 15.050999641418457,76.03700256347656 C32.12900161743164,71.71600341796875 39.26599884033203,65.27899932861328 41.54199981689453,62.71200180053711 C45.18899917602539,58.597999572753906 46.29399871826172,52.819000244140625 44.41999816894531,47.650001525878906 C41.612998962402344,39.904998779296875 32.96900177001953,10.491999626159668 25.341999053955078,-15.458000183105469 C19.03700065612793,-36.90800094604492 13.083000183105469,-57.16699981689453 9.795000076293945,-67.46900177001953 C7.769999980926514,-73.81300354003906 1.8940000534057617,-77.91100311279297 -4.486999988555908,-77.91100311279297z"/></g><g opacity="1" transform="matrix(1,0,0,1,269.4200134277344,150.61700439453125)"><path fill="rgb(213,133,164)" fill-opacity="1" d="M0 0"/></g><g opacity="1" transform="matrix(1,0,0,1,244.92300415039062,84.85900115966797)"><path fill="rgb(232,144,178)" fill-opacity="1" d=" M-12.07800006866455,10.652999877929688 C-14.317000389099121,10.652999877929688 -21.1299991607666,10.652999877929688 -22.39699935913086,5.235000133514404 C-23.687000274658203,-0.2840000092983246 -17.30299949645996,-3.3540000915527344 -15.204999923706055,-4.36299991607666 C-11.748000144958496,-6.026000022888184 -7.074999809265137,-7.589000225067139 -2.0490000247955322,-8.763999938964844 C3.1630001068115234,-9.982000350952148 8.180000305175781,-10.652999877929688 12.07699966430664,-10.652999877929688 C14.317000389099121,-10.652999877929688 21.1299991607666,-10.652999877929688 22.39699935913086,-5.235000133514404 C23.687000274658203,0.2840000092983246 17.302000045776367,3.3550000190734863 15.204000473022461,4.36299991607666 C11.746999740600586,6.026000022888184 7.073999881744385,7.589000225067139 2.0480000972747803,8.763999938964844 C-3.1640000343322754,9.982000350952148 -8.180999755859375,10.652999877929688 -12.07800006866455,10.652999877929688z"/></g><g opacity="1" transform="matrix(1,0,0,1,244.92300415039062,84.86000061035156)"><path fill="rgb(129,189,0)" fill-opacity="1" d=" M12.076000213623047,-5.6529998779296875 C15.229000091552734,-5.6529998779296875 17.284000396728516,-5.13700008392334 17.527000427246094,-4.0970001220703125 C18.030000686645508,-1.9459999799728394 10.58899974822998,1.6319999694824219 0.9089999794960022,3.8949999809265137 C-4.090000152587891,5.063000202178955 -8.710000038146973,5.6529998779296875 -12.07800006866455,5.6529998779296875 C-15.229999542236328,5.6529998779296875 -17.285999298095703,5.13700008392334 -17.52899932861328,4.0970001220703125 C-18.0310001373291,1.9450000524520874 -10.590999603271484,-1.6330000162124634 -0.9110000133514404,-3.8949999809265137 C4.089000225067139,-5.064000129699707 8.708000183105469,-5.6529998779296875 12.076000213623047,-5.6529998779296875z M12.07800006866455,-15.652999877929688 C12.07800006866455,-15.652999877929688 12.076000213623047,-15.652999877929688 12.076000213623047,-15.652999877929688 C7.806000232696533,-15.652999877929688 2.38700008392334,-14.9350004196167 -3.187000036239624,-13.633000373840332 C-8.557999610900879,-12.376999855041504 -13.595000267028809,-10.685999870300293 -17.371999740600586,-8.869999885559082 C-19.72800064086914,-7.736000061035156 -21.586000442504883,-6.570000171661377 -23.048999786376953,-5.302999973297119 C-28.26300048828125,-0.7910000085830688 -27.736000061035156,4.363999843597412 -27.267000198364258,6.370999813079834 C-26.45599937438965,9.83899974822998 -23.40399932861328,15.652999877929688 -12.07800006866455,15.652999877929688 C-7.809000015258789,15.652999877929688 -2.3889999389648438,14.9350004196167 3.184999942779541,13.631999969482422 C8.555999755859375,12.376999855041504 13.595000267028809,10.6850004196167 17.371000289916992,8.869000434875488 C19.726999282836914,7.736000061035156 21.583999633789062,6.568999767303467 23.04800033569336,5.302999973297119 C28.26300048828125,0.7900000214576721 27.732999801635742,-4.366000175476074 27.263999938964844,-6.373000144958496 C26.45400047302246,-9.838000297546387 23.4060001373291,-15.652999877929688 12.07800006866455,-15.652999877929688z"/></g><g opacity="1" transform="matrix(0.9954065084457397,0,0,0.9954065084457397,1.10760498046875,0.3719482421875)"><g opacity="1" transform="matrix(1,0,0,1,243.1219940185547,42.4739990234375)"><path fill="rgb(255,233,137)" fill-opacity="1" d=" M-1.6269999742507935,35.722999572753906 C-1.8170000314712524,35.722999572753906 -2.007999897003174,35.715999603271484 -2.1989998817443848,35.69900131225586 C-4.26200008392334,35.516998291015625 -6.114999771118164,34.36199951171875 -7.188000202178955,32.59199905395508 C-22.908000946044922,6.64900016784668 -17.336000442504883,-18.68199920654297 -12.614999771118164,-31.472999572753906 C-11.776000022888184,-33.74800109863281 -9.739999771118164,-35.36800003051758 -7.335000038146973,-35.67300033569336 C-7.061999797821045,-35.707000732421875 -6.788000106811523,-35.722999572753906 -6.517000198364258,-35.722999572753906 C-4.401000022888184,-35.722999572753906 -2.3989999294281006,-34.691001892089844 -1.1749999523162842,-32.92399978637695 C17.183000564575195,-6.415999889373779 22.906999588012695,11.13700008392334 3.255000114440918,33.51300048828125 C2.015000104904175,34.92399978637695 0.2329999953508377,35.722999572753906 -1.6269999742507935,35.722999572753906z"/></g><g opacity="1" transform="matrix(1,0,0,1,241.1009979248047,42.472999572753906)"><path fill="rgb(129,189,0)" fill-opacity="1" d=" M-4.497000217437744,-29.224000930786133 C14.222000122070312,-2.193000078201294 16.458999633789062,10.930999755859375 0.3930000066757202,29.224000930786133 C-12.11400032043457,8.585000038146973 -10.548999786376953,-12.824999809265137 -4.497000217437744,-29.224000930786133z M-4.494999885559082,-42.2239990234375 C-5.038000106811523,-42.2239990234375 -5.584000110626221,-42.189998626708984 -6.131999969482422,-42.119998931884766 C-10.942999839782715,-41.51100158691406 -15.015000343322754,-38.27399826049805 -16.69300079345703,-33.7239990234375 C-25.542999267578125,-9.743000030517578 -23.423999786376953,15.005999565124512 -10.725000381469727,35.96200180053711 C-8.579000473022461,39.50299835205078 -4.874000072479248,41.810001373291016 -0.7490000128746033,42.17399978637695 C-0.367000013589859,42.20800018310547 0.014000000432133675,42.2239990234375 0.39399999380111694,42.2239990234375 C4.114999771118164,42.2239990234375 7.681000232696533,40.625 10.15999984741211,37.801998138427734 C16.8439998626709,30.191999435424805 25.542999267578125,18.201000213623047 23.92799949645996,1.9889999628067017 C22.854000091552734,-8.795000076293945 17.71500015258789,-19.98200035095215 6.190000057220459,-36.624000549316406 C3.743000030517578,-40.15700149536133 -0.26600000262260437,-42.2239990234375 -4.494999885559082,-42.2239990234375z"/></g></g></g><g style="display: block;" transform="matrix(1,0,0,1,1351.5899658203125,1424.2760009765625)" opacity="0.43"><g opacity="1" transform="matrix(1,0,0,1,269.4200134277344,150.61700439453125)"><path fill="rgb(213,133,164)" fill-opacity="1" d=" M-17.440000534057617,-52.87699890136719 C-3.9769999980926514,-8.557000160217285 4.35699987411499,39.97200012207031 7.561999797821045,60.01499938964844 C17.48900032043457,56.856998443603516 24.489999771118164,51.606998443603516 24.489999771118164,51.606998443603516 C24.489999771118164,51.606998443603516 -7.760000228881836,-55.643001556396484 -7.760000228881836,-55.643001556396484 C-7.760000228881836,-55.643001556396484 -10.38599967956543,-56.39400100708008 -17.440000534057617,-52.87699890136719z"/></g></g><g style="display: block;" transform="matrix(1,0,0,1,1552.25,1516.2509765625)" opacity="0.66"><g opacity="1" transform="matrix(1,0,0,1,199.25,104.25)"><path fill="rgb(239,147,183)" fill-opacity="1" d=" M-99.51100158691406,-23.027000427246094 C-40.09299850463867,-21.951000213623047 12.760000228881836,-14.567999839782715 34.5,-3.5 C89.5,24.5 101,61 112.5,97.5 C112.5,97.5 118.81400299072266,95.35299682617188 116.61900329589844,81.99600219726562 C114.75,70.625 106.39099884033203,44.10499954223633 113.50700378417969,40.237998962402344 C123.375,34.875 141.15899658203125,48.36199951171875 148.51699829101562,46.805999755859375 C155.875,45.25 152.5,26.5 152.5,26.5 C152.5,26.5 141,-43.25 32,-49 C-14.126999855041504,-51.43299865722656 -63.8390007019043,-46.277000427246094 -104.76699829101562,-39.47700119018555 C-100.125,-25.125 -101.25,-27.125 -99.51100158691406,-23.027000427246094z"/></g></g><g style="display: block;" transform="matrix(1,0,0,1,1838.25,1579.2509765625)" opacity="0.49"><g opacity="1" transform="matrix(1,0,0,1,76.25,169.25)"><path fill="rgb(245,200,4)" fill-opacity="1" d=" M-33.125,-29.25 C-35.89699935913086,-23.32200050354004 -37.625,-17.75 -51.582000732421875,-15.399999618530273 C-42.005001068115234,49.89500045776367 -39.8120002746582,125.93000030517578 -50.112998962402344,158.3730010986328 C-32.75,151.5 -4,136 8.25,117.25 C17.391000747680664,103.25900268554688 15.78499984741211,85.56500244140625 15.78499984741211,85.56500244140625 C15.78499984741211,85.56500244140625 13.88599967956543,44.119998931884766 12.192999839782715,21.809999465942383 C10.5,-0.5 0.25,-58.625 0.25,-58.625 C0.25,-58.625 -2.75,-71.75 -2.75,-71.75 C-2.75,-71.75 -9.98799991607666,-66.2979965209961 -16.618999481201172,-66.64900207519531 C-23.25,-67 -36.38999938964844,-72.3949966430664 -36.38999938964844,-72.3949966430664 C-36.38999938964844,-72.3949966430664 -28.625,-38.875 -33.125,-29.25z"/></g></g><g style="display: block;" transform="matrix(0.6209362149238586,0.9071385264396667,-0.9071385264396667,0.6209362149238586,1886.232666015625,-700.860595703125)" opacity="1"><g opacity="1" transform="matrix(1,0,0,1,1351.5899658203125,1424.2760009765625)"><g opacity="1" transform="matrix(1,0,0,1,45.92499923706055,71.08799743652344)"><path fill="rgb(232,144,178)" fill-opacity="1" d=" M29.77199935913086,39.09600067138672 C29.01799964904785,39.09600067138672 28.256000518798828,38.981998443603516 27.513999938964844,38.74800109863281 C27.513999938964844,38.74800109863281 -32.12200164794922,19.92300033569336 -32.12200164794922,19.92300033569336 C-34.54499816894531,19.158000946044922 -36.41600036621094,17.216999053955078 -37.09199905395508,14.765999794006348 C-37.76900100708008,12.315999984741211 -37.159000396728516,9.6899995803833 -35.47100067138672,7.789999961853027 C-35.47100067138672,7.789999961853027 3.944999933242798,-36.57699966430664 3.944999933242798,-36.57699966430664 C5.383999824523926,-38.196998596191406 7.433000087738037,-39.09600067138672 9.550999641418457,-39.09600067138672 C10.067000389099121,-39.09600067138672 10.586000442504883,-39.042999267578125 11.10200023651123,-38.933998107910156 C13.73900032043457,-38.375999450683594 15.87399959564209,-36.448001861572266 16.69499969482422,-33.88199996948242 C16.69499969482422,-33.88199996948242 36.91600036621094,29.309999465942383 36.91600036621094,29.309999465942383 C37.76900100708008,31.979999542236328 37.064998626708984,34.90299987792969 35.08599853515625,36.888999938964844 C33.65800094604492,38.323001861572266 31.736000061035156,39.09600067138672 29.77199935913086,39.09600067138672z"/></g></g><g opacity="1" transform="matrix(1,0,0,1,1351.5899658203125,1424.2760009765625)"><g opacity="1" transform="matrix(1,0,0,1,45.97100067138672,71.08799743652344)"><path fill="rgb(129,189,0)" fill-opacity="1" d=" M9.505000114440918,-31.597000122070312 C9.505000114440918,-31.597000122070312 29.726999282836914,31.594999313354492 29.726999282836914,31.594999313354492 C29.726999282836914,31.594999313354492 -29.909000396728516,12.770999908447266 -29.909000396728516,12.770999908447266 C-29.909000396728516,12.770999908447266 9.505000114440918,-31.597000122070312 9.505000114440918,-31.597000122070312z M9.505000114440918,-46.59700012207031 C5.26800012588501,-46.59700012207031 1.1699999570846558,-44.79800033569336 -1.7079999446868896,-41.55799865722656 C-1.7079999446868896,-41.55799865722656 -41.12300109863281,2.808000087738037 -41.12300109863281,2.808000087738037 C-44.499000549316406,6.609000205993652 -45.72100067138672,11.861000061035156 -44.36800003051758,16.761999130249023 C-43.01599884033203,21.66200065612793 -39.27199935913086,25.54400062561035 -34.42399978637695,27.073999404907227 C-34.42399978637695,27.073999404907227 25.211000442504883,45.900001525878906 25.211000442504883,45.900001525878906 C26.69300079345703,46.36899948120117 28.215999603271484,46.59700012207031 29.725000381469727,46.59700012207031 C33.65299987792969,46.59700012207031 37.49599838256836,45.051998138427734 40.354000091552734,42.18199920654297 C44.310001373291016,38.209999084472656 45.72200012207031,32.36399841308594 44.01300048828125,27.024999618530273 C44.01300048828125,27.024999618530273 23.79199981689453,-36.16699981689453 23.79199981689453,-36.16699981689453 C22.149999618530273,-41.29999923706055 17.878999710083008,-45.15700149536133 12.607000350952148,-46.270999908447266 C11.574999809265137,-46.48899841308594 10.53600025177002,-46.59700012207031 9.505000114440918,-46.59700012207031z"/></g></g></g></g><g clip-path="url(#__lottie_element_1856)" style="display: block;" transform="matrix(1.0310330390930176,-0.053655583411455154,0.053655583411455154,1.0310330390930176,-118.98631286621094,4.5594682693481445)" opacity="1"><g style="display: block;" transform="matrix(1,0,0,1,462.45001220703125,653.3550415039062)" opacity="1"><g opacity="1" transform="matrix(1,0,0,1,486.4110107421875,556.14501953125)"><path stroke-linecap="round" stroke-linejoin="round" fill-opacity="0" stroke="rgb(129,189,0)" stroke-opacity="1" stroke-width="15" d=" M-105.36100006103516,-93 C-82.04127502441406,-4.475131034851074 59.28236770629883,-52.531471252441406 109.62501525878906,89.0279769897461"/></g></g><g style="display: block;" transform="matrix(0.9986486434936523,-0.05197027698159218,0.05197027698159218,0.9986486434936523,439.0866394042969,673.5038452148438)" opacity="1"><g opacity="1" transform="matrix(1,0,0,1,228.0800018310547,232.08799743652344)"><path fill="rgb(232,144,178)" fill-opacity="1" d=" M32.80500030517578,224.33799743652344 C-42.71900177001953,224.33799743652344 -118.71900177001953,179.77099609375 -165.53799438476562,108.02899932861328 C-199.66299438476562,55.736000061035156 -214.69200134277344,-4.624000072479248 -207.85499572753906,-61.933998107910156 C-200.9600067138672,-119.74299621582031 -172.6929931640625,-167.5469970703125 -128.26199340820312,-196.54299926757812 C-100.39900207519531,-214.7259979248047 -67.38999938964844,-224.33799743652344 -32.80500030517578,-224.33799743652344 C42.71799850463867,-224.33799743652344 118.71800231933594,-179.77000427246094 165.53700256347656,-108.02799987792969 C199.66200256347656,-55.736000061035156 214.6909942626953,4.625 207.85499572753906,61.935001373291016 C200.95899963378906,119.74299621582031 172.6929931640625,167.54800415039062 128.26199340820312,196.54299926757812 C100.39900207519531,214.7270050048828 67.38999938964844,224.33799743652344 32.80500030517578,224.33799743652344z"/></g><g opacity="1" transform="matrix(1,0,0,1,228.0800018310547,232.08799743652344)"><path fill="rgb(129,189,0)" fill-opacity="1" d=" M-32.80500030517578,-216.83799743652344 C37.731998443603516,-216.8419952392578 112.21299743652344,-176.01699829101562 159.25599670410156,-103.93000030517578 C227.8300018310547,1.1490000486373901 212.11900329589844,132.86300659179688 124.16400146484375,190.26199340820312 C96.54900360107422,208.2830047607422 65.08599853515625,216.83799743652344 32.80500030517578,216.83799743652344 C-37.73099899291992,216.83799743652344 -112.21199798583984,176.01699829101562 -159.25599670410156,103.92900085449219 C-227.8300018310547,-1.149999976158142 -212.1179962158203,-132.86300659179688 -124.16300201416016,-190.26199340820312 C-96.5479965209961,-208.2830047607422 -65.08599853515625,-216.83599853515625 -32.80500030517578,-216.83799743652344z M-32.79499816894531,-231.83799743652344 C-32.79499816894531,-231.83799743652344 -32.79499816894531,-216.83799743652344 -32.79499816894531,-216.83799743652344 C-32.79499816894531,-216.83799743652344 -32.79800033569336,-231.83799743652344 -32.79800033569336,-231.83799743652344 C-68.85299682617188,-231.83599853515625 -103.27799987792969,-221.80299377441406 -132.36099243164062,-202.82400512695312 C-155.8470001220703,-187.4969940185547 -175.02999877929688,-167.1580047607422 -189.3780059814453,-142.37100219726562 C-203.11399841308594,-118.63899993896484 -211.83700561523438,-91.875 -215.302001953125,-62.823001861572266 C-218.73699951171875,-34.02399826049805 -216.83599853515625,-4.394999980926514 -209.6490020751953,25.23900032043457 C-202.24200439453125,55.777000427246094 -189.51400756835938,85.01000213623047 -171.8179931640625,112.12699890136719 C-147.8179931640625,148.90199279785156 -115.90599822998047,179.42999267578125 -79.52899932861328,200.41000366210938 C-43.88100051879883,220.97000122070312 -5.0370001792907715,231.83799743652344 32.80500030517578,231.83799743652344 C68.8499984741211,231.83799743652344 103.2760009765625,221.80499267578125 132.36199951171875,202.822998046875 C155.84800720214844,187.4969940185547 175.031005859375,167.15699768066406 189.3780059814453,142.3699951171875 C203.11500549316406,118.63899993896484 211.83700561523438,91.875 215.30299377441406,62.823001861572266 C218.73800659179688,34.02299880981445 216.83599853515625,4.394999980926514 209.6490020751953,-25.23900032043457 C202.2429962158203,-55.777000427246094 189.51499938964844,-85.01000213623047 171.8179931640625,-112.12699890136719 C147.82000732421875,-148.9010009765625 115.90899658203125,-179.42799377441406 79.53500366210938,-200.40899658203125 C43.88800048828125,-220.97000122070312 5.044000148773193,-231.83799743652344 -32.79499816894531,-231.83799743652344z"/></g><g opacity="1" transform="matrix(1,0,0,1,371.0140075683594,454.14599609375)"><path fill="rgb(232,144,178)" fill-opacity="1" d=" M-31.461999893188477,30.75 C-33.37099838256836,30.75 -35.26300048828125,30.02199935913086 -36.70199966430664,28.618000030517578 C-39.125,26.253000259399414 -39.66299819946289,22.55900001525879 -38.018001556396484,19.60300064086914 C-37.89899826049805,19.38599967956543 -31.954999923706055,8.289999961853027 -29.927000045776367,-11.996999740600586 C-29.702999114990234,-14.229999542236328 -28.490999221801758,-16.246000289916992 -26.624000549316406,-17.490999221801758 C-26.624000549316406,-17.490999221801758 -8.62399959564209,-29.490999221801758 -8.62399959564209,-29.490999221801758 C-7.361999988555908,-30.332000732421875 -5.9120001792907715,-30.75 -4.464000225067139,-30.75 C-2.878000020980835,-30.75 -1.2940000295639038,-30.24799919128418 0.035999998450279236,-29.25 C4.017000198364258,-26.263999938964844 18.611000061035156,-21.75 31.535999298095703,-21.75 C34.9119987487793,-21.75 37.87200164794922,-19.4950008392334 38.766998291015625,-16.239999771118164 C39.66299819946289,-12.984000205993652 38.27299880981445,-9.531999588012695 35.37200164794922,-7.806000232696533 C35.37200164794922,-7.806000232696533 -27.628000259399414,29.694000244140625 -27.628000259399414,29.694000244140625 C-28.819000244140625,30.40399932861328 -30.145000457763672,30.75 -31.461999893188477,30.75z"/></g><g opacity="1" transform="matrix(1,0,0,1,370.9020080566406,454.1669921875)"><path fill="rgb(129,189,0)" fill-opacity="1" d=" M-4.353000164031982,-23.270999908447266 C1.6469999551773071,-18.770999908447266 18.14699935913086,-14.270999908447266 31.64699935913086,-14.270999908447266 C31.64699935913086,-14.270999908447266 -31.35300064086914,23.229000091552734 -31.35300064086914,23.229000091552734 C-31.35300064086914,23.229000091552734 -24.60300064086914,11.229000091552734 -22.35300064086914,-11.270999908447266 C-22.35300064086914,-11.270999908447266 -4.353000164031982,-23.270999908447266 -4.353000164031982,-23.270999908447266z M-4.3460001945495605,-38.27799987792969 C-7.242000102996826,-38.27799987792969 -10.144000053405762,-37.43899917602539 -12.67300033569336,-35.75299835205078 C-12.67300033569336,-35.75299835205078 -30.67300033569336,-23.753000259399414 -30.67300033569336,-23.753000259399414 C-34.40800094604492,-21.26300048828125 -36.83100128173828,-17.229999542236328 -37.27799987792969,-12.763999938964844 C-39.05699920654297,5.0269999504089355 -44.00600051879883,15.043000221252441 -44.46699905395508,15.944000244140625 C-47.9010009765625,21.833999633789062 -46.85300064086914,29.17300033569336 -42.016998291015625,33.9900016784668 C-39.16600036621094,36.83100128173828 -35.36800003051758,38.27799987792969 -31.527000427246094,38.27799987792969 C-28.82900047302246,38.27799987792969 -26.111000061035156,37.56399917602539 -23.680999755859375,36.117000579833984 C-23.680999755859375,36.117000579833984 39.319000244140625,-1.3830000162124634 39.319000244140625,-1.3830000162124634 C45.12099838256836,-4.835999965667725 47.9010009765625,-11.739999771118164 46.111000061035156,-18.25 C44.31999969482422,-24.760000228881836 38.39899826049805,-29.270999908447266 31.64699935913086,-29.270999908447266 C20.31100082397461,-29.270999908447266 7.5320000648498535,-33.220001220703125 4.63100004196167,-35.284000396728516 C1.975000023841858,-37.277000427246094 -1.1820000410079956,-38.27799987792969 -4.3460001945495605,-38.27799987792969z"/></g></g><g style="display: block;" transform="matrix(0.9986486434936523,-0.05197027698159218,0.05197027698159218,0.9986486434936523,439.0866394042969,673.5038452148438)" opacity="0.3"><g opacity="1" transform="matrix(1,0,0,1,378.29998779296875,446.1390075683594)"><path fill="rgb(247,40,120)" fill-opacity="1" d=" M-18.5,-10.619000434875488 C-9.25,0.38100001215934753 -5.117000102996826,3.507999897003174 4,6.13100004196167 C14.875,-0.9940000176429749 24.125,-5.74399995803833 24.125,-5.74399995803833 C24.125,-5.74399995803833 11.923999786376953,-6.889999866485596 4.336999893188477,-8.567000389099121 C-3.25,-10.244000434875488 -11.875,-14.994000434875488 -11.875,-14.994000434875488 C-11.875,-14.994000434875488 -18.5,-10.619000434875488 -18.5,-10.619000434875488z"/></g></g><g style="display: block;" mask="url(#__lottie_element_1909_1)"><g transform="matrix(0.9986486434936523,-0.05197027698159218,0.05197027698159218,0.9986486434936523,544.8462524414062,573.7677001953125)" opacity="1"><g opacity="1" transform="matrix(1,0,0,1,255.75,250.88900756835938)"><path fill="rgb(247,40,120)" fill-opacity="1" d=" M-255.5,-129.63900756835938 C-83,-138.13900756835938 49,88.86100006103516 11.111000061035156,250.63900756835938 C70.5,245.36099243164062 255.5,99.36100006103516 139.5,-51.638999938964844 C23.5,-202.63900756835938 -171.5,-250.63900756835938 -255.5,-129.63900756835938z"/></g></g></g></g><g clip-path="url(#__lottie_element_1860)" style="display: block;" transform="matrix(1.0310330390930176,0.053655583411455154,-0.053655583411455154,1.0310330390930176,19.183259963989258,-115.69044494628906)" opacity="1"><g style="display: block;" transform="matrix(1,0,0,1,774.7500610351562,484.0439453125)" opacity="1"><g opacity="1" transform="matrix(1,0,0,1,375.0870056152344,652.4559936523438)"><path stroke-linecap="round" stroke-linejoin="round" fill-opacity="0" stroke="rgb(129,189,0)" stroke-opacity="1" stroke-width="15" d=" M-33.3380012512207,-156 C-34.6619987487793,-102.48899841308594 -5.409104347229004,-99.66200256347656 8.773895263671875,-33 C18.773895263671875,14 23.96268653869629,71.5314712524414 41.592063903808594,152.02796936035156"/></g></g><g style="display: block;" transform="matrix(0.9986486434936523,0.05197027698159218,-0.05197027698159218,0.9986486434936523,799.919189453125,467.05889892578125)" opacity="1"><g opacity="1" transform="matrix(1,0,0,1,225.68600463867188,236.2969970703125)"><path fill="rgb(255,233,137)" fill-opacity="1" d=" M26.920000076293945,228.5469970703125 C-13.486000061035156,228.5469970703125 -54.22600173950195,215.11399841308594 -90.89299774169922,189.6999969482422 C-128.21299743652344,163.83399963378906 -158.68099975585938,127.23200225830078 -179.0019989013672,83.85099792480469 C-205.49000549316406,27.305999755859375 -211.9409942626953,-34.5620002746582 -197.16799926757812,-90.35600280761719 C-182.26699829101562,-146.63499450683594 -147.6009979248047,-190.0240020751953 -99.55699920654297,-212.5290069580078 C-76.86699676513672,-223.1580047607422 -52.42900085449219,-228.5469970703125 -26.91900062561035,-228.5469970703125 C13.487000465393066,-228.5469970703125 54.22700119018555,-215.11399841308594 90.8949966430664,-189.6999969482422 C128.21400451660156,-163.83399963378906 158.6820068359375,-127.23200225830078 179.0030059814453,-83.85099792480469 C205.49000549316406,-27.30500030517578 211.9409942626953,34.5629997253418 197.16900634765625,90.35600280761719 C182.26800537109375,146.63499450683594 147.6020050048828,190.0240020751953 99.55799865722656,212.5290069580078 C76.86799621582031,223.1580047607422 52.43000030517578,228.5469970703125 26.920000076293945,228.5469970703125z"/></g><g opacity="1" transform="matrix(1,0,0,1,225.68600463867188,236.2969970703125)"><path fill="rgb(129,189,0)" fill-opacity="1" d=" M-26.91900062561035,-221.0469970703125 C51.16899871826172,-221.05499267578125 131.38999938964844,-167.80999755859375 172.20899963378906,-80.66999816894531 C225.43600463867188,32.95600128173828 191.48300170898438,161.18499755859375 96.3740005493164,205.73800659179688 C74.20500183105469,216.1230010986328 50.652000427246094,221.0469970703125 26.917999267578125,221.0469970703125 C-51.16999816894531,221.0469970703125 -131.38999938964844,167.80999755859375 -172.2100067138672,80.66999816894531 C-225.43600463867188,-32.95600128173828 -191.48399353027344,-161.18499755859375 -96.375,-205.73800659179688 C-74.20500183105469,-216.1230010986328 -50.652000427246094,-221.0449981689453 -26.91900062561035,-221.0469970703125z M-26.900999069213867,-236.0469970703125 C-26.900999069213867,-236.0469970703125 -26.900999069213867,-221.0469970703125 -26.900999069213867,-221.0469970703125 C-26.900999069213867,-221.0469970703125 -26.905000686645508,-236.0469970703125 -26.905000686645508,-236.0469970703125 C-53.542999267578125,-236.04400634765625 -79.0510025024414,-230.41700744628906 -102.73699951171875,-219.3209991455078 C-128.13400268554688,-207.4250030517578 -149.97000122070312,-189.96400451660156 -167.63800048828125,-167.42300415039062 C-184.55499267578125,-145.84300231933594 -196.9290008544922,-120.55899810791016 -204.41900634765625,-92.2760009765625 C-211.8419952392578,-64.23799896240234 -214.0959930419922,-34.6349983215332 -211.1179962158203,-4.2870001792907715 C-208.0500030517578,26.985000610351562 -199.5290069580078,57.709999084472656 -185.79299926757812,87.03299713134766 C-164.91099548339844,131.61199951171875 -133.57200622558594,169.2449951171875 -95.16500091552734,195.86399841308594 C-57.23699951171875,222.15199279785156 -15.022000312805176,236.0469970703125 26.917999267578125,236.0469970703125 C53.5359992980957,236.0469970703125 79.0459976196289,230.4199981689453 102.73899841308594,219.3209991455078 C128.13499450683594,207.4250030517578 149.97000122070312,189.96400451660156 167.63900756835938,167.42300415039062 C184.55599975585938,145.84300231933594 196.92999267578125,120.55899810791016 204.41900634765625,92.2760009765625 C211.84300231933594,64.23799896240234 214.0970001220703,34.6349983215332 211.11900329589844,4.2870001792907715 C208.0500030517578,-26.985000610351562 199.52999877929688,-57.709999084472656 185.79400634765625,-87.03299713134766 C164.91299438476562,-131.60800170898438 133.57699584960938,-169.23899841308594 95.1729965209961,-195.86000061035156 C57.244998931884766,-222.14999389648438 15.034000396728516,-236.0469970703125 -26.900999069213867,-236.0469970703125z"/></g><g opacity="1" transform="matrix(1,0,0,1,335.5379943847656,473.6319885253906)"><path fill="rgb(255,233,137)" fill-opacity="1" d=" M-33.73099899291992,28.636999130249023 C-36.00299835205078,28.636999130249023 -38.215999603271484,27.60300064086914 -39.66999816894531,25.719999313354492 C-41.7400016784668,23.040000915527344 -41.75600051879883,19.30699920654297 -39.7130012512207,16.608999252319336 C-39.54499816894531,16.382999420166016 -32.124000549316406,6.22599983215332 -27.288999557495117,-13.550000190734863 C-26.7549991607666,-15.729999542236328 -25.274999618530273,-17.55699920654297 -23.25200080871582,-18.52899932861328 C-23.25200080871582,-18.52899932861328 -3.752000093460083,-27.89699935913086 -3.752000093460083,-27.89699935913086 C-2.7160000801086426,-28.395000457763672 -1.6069999933242798,-28.636999130249023 -0.5059999823570251,-28.636999130249023 C1.4359999895095825,-28.636999130249023 3.3510000705718994,-27.882999420166016 4.789999961853027,-26.450000762939453 C8.314000129699707,-22.937000274658203 22.135000228881836,-16.429000854492188 34.933998107910156,-14.62399959564209 C38.277000427246094,-14.152999877929688 40.891998291015625,-11.505999565124512 41.32500076293945,-8.156999588012695 C41.75600051879883,-4.809000015258789 39.89799880981445,-1.5850000381469727 36.78499984741211,-0.2800000011920929 C36.78499984741211,-0.2800000011920929 -30.834999084472656,28.054000854492188 -30.834999084472656,28.054000854492188 C-31.774999618530273,28.447999954223633 -32.757999420166016,28.636999130249023 -33.73099899291992,28.636999130249023z"/></g><g opacity="1" transform="matrix(1,0,0,1,335.3890075683594,473.64300537109375)"><path fill="rgb(129,189,0)" fill-opacity="1" d=" M-0.35499998927116394,-21.148000717163086 C4.958000183105469,-15.854999542236328 20.667999267578125,-9.093999862670898 34.0359992980957,-7.209000110626221 C34.0359992980957,-7.209000110626221 -33.58399963378906,21.125 -33.58399963378906,21.125 C-33.58399963378906,21.125 -25.224000930786133,10.1850004196167 -19.854000091552734,-11.779999732971191 C-19.854000091552734,-11.779999732971191 -0.35499998927116394,-21.148000717163086 -0.35499998927116394,-21.148000717163086z M-0.34700000286102295,-36.15299987792969 C-2.5510001182556152,-36.15299987792969 -4.771999835968018,-35.66699981689453 -6.849999904632568,-34.66899871826172 C-6.849999904632568,-34.66899871826172 -26.350000381469727,-25.299999237060547 -26.350000381469727,-25.299999237060547 C-30.395999908447266,-23.35700035095215 -33.35900115966797,-19.702999114990234 -34.42499923706055,-15.342000007629395 C-38.672000885009766,2.0280001163482666 -44.97200012207031,11.253999710083008 -45.553001403808594,12.079999923706055 C-49.7760009765625,17.433000564575195 -49.76300048828125,24.84600067138672 -45.64699935913086,30.29199981689453 C-42.76900100708008,34.099998474121094 -38.30099868774414,36.15299987792969 -33.71900177001953,36.15299987792969 C-31.722000122070312,36.15299987792969 -29.704999923706055,35.76300048828125 -27.78700065612793,34.959999084472656 C-27.78700065612793,34.959999084472656 39.83300018310547,6.625999927520752 39.83300018310547,6.625999927520752 C46.060001373291016,4.015999794006348 49.7760009765625,-2.431999921798706 48.9109992980957,-9.128999710083008 C48.04800033569336,-15.824999809265137 42.816001892089844,-21.118999481201172 36.130001068115234,-22.062000274658203 C24.90399932861328,-23.645000457763672 12.803000450134277,-29.339000701904297 10.218000411987305,-31.788999557495117 C7.3460001945495605,-34.650001525878906 3.5280001163482666,-36.15299987792969 -0.34700000286102295,-36.15299987792969z"/></g><g opacity="1" transform="matrix(1,0,0,1,346.0610046386719,470.322998046875)"><path fill="rgb(245,200,4)" fill-opacity="1" d="M0 0"/></g></g><g style="display: block;" transform="matrix(0.9945982098579407,0.10380009561777115,-0.10380009561777115,0.9945982098579407,825.5740356445312,451.19158935546875)" opacity="0.6900000000000001"><g opacity="1" transform="matrix(1,0,0,1,346.0610046386719,470.322998046875)"><path fill="rgb(245,200,4)" fill-opacity="1" d=" M-19.059999465942383,-14.677000045776367 C-12.744000434875488,-5.781000137329102 -7.300000190734863,0.871999979019165 1.1929999589920044,5.098999977111816 C11.005999565124512,1.218999981880188 23.33300018310547,-4.489999771118164 23.33300018310547,-4.489999771118164 C23.33300018310547,-4.489999771118164 11.74899959564209,-6.26200008392334 4.502999782562256,-9.520999908447266 C-2.743000030517578,-12.779999732971191 -11.312999725341797,-17.91200065612793 -11.312999725341797,-17.91200065612793 C-11.312999725341797,-17.91200065612793 -19.059999465942383,-14.677000045776367 -19.059999465942383,-14.677000045776367z"/></g></g><g style="display: block;" mask="url(#__lottie_element_1924_1)"><g transform="matrix(0.9986486434936523,0.05197027698159218,-0.05197027698159218,0.9986486434936523,942.6530151367188,383.04931640625)" opacity="1"><g opacity="1" transform="matrix(1,0,0,1,237.2550048828125,262.7179870605469)"><path fill="rgb(245,200,4)" fill-opacity="1" d=" M-237.0050048828125,-154.38499450683594 C-65.00800323486328,-138.71099853515625 33.99599838256836,104.5 -26.114999771118164,259.3999938964844 C33.42900085449219,262.4679870605469 237.0050048828125,143.73599243164062 143.2310028076172,-21.985000610351562 C49.45600128173828,-187.7050018310547 -136.92999267578125,-262.4679870605469 -237.0050048828125,-154.38499450683594z"/></g></g></g></g><g clip-path="url(#__lottie_element_1864)" style="display: block;" transform="matrix(1.03242826461792,0,0,1.03242826461792,-50.28364562988281,-54.14035415649414)" opacity="1"><g style="display: block;" transform="matrix(0.9993993043899536,-0.03465552628040314,0.03465552628040314,0.9993993043899536,1059.3721923828125,363.58734130859375)" opacity="1"><g opacity="1" transform="matrix(1,0,0,1,237.04100036621094,734.3829956054688)"><path stroke-linecap="round" stroke-linejoin="round" fill-opacity="0" stroke="rgb(129,189,0)" stroke-opacity="1" stroke-width="15" d=" M27,-185 C55,-126 1.0276685953140259,-77.15431213378906 -2,-27 C-8.159882545471191,75.20975494384766 29.962656021118164,126.87020111083984 -16.175363540649414,187.4696044921875"/></g></g><g style="display: block;" transform="matrix(0.998216986656189,-0.05968979746103287,0.05968979746103287,0.998216986656189,1045.786865234375,370.7752380371094)" opacity="1"><g opacity="1" transform="matrix(1,0,0,1,239.3719940185547,274.1400146484375)"><path fill="rgb(198,240,255)" fill-opacity="1" d=" M189.19500732421875,-19.21299934387207 C201.8719940185547,105.62000274658203 127.44300079345703,215.41799926757812 22.95400047302246,226.0290069580078 C-81.53600311279297,236.63999938964844 -176.51800537109375,144.04600524902344 -189.19500732421875,19.21299934387207 C-201.8719940185547,-105.61900329589844 -127.44300079345703,-215.41799926757812 -22.95400047302246,-226.0290069580078 C81.53600311279297,-236.63999938964844 176.51800537109375,-144.04600524902344 189.19500732421875,-19.21299934387207z"/><path stroke-linecap="round" stroke-linejoin="round" fill-opacity="0" stroke="rgb(129,189,0)" stroke-opacity="1" stroke-width="15" d=" M189.19500732421875,-19.21299934387207 C201.8719940185547,105.62000274658203 127.44300079345703,215.41799926757812 22.95400047302246,226.0290069580078 C-81.53600311279297,236.63999938964844 -176.51800537109375,144.04600524902344 -189.19500732421875,19.21299934387207 C-201.8719940185547,-105.61900329589844 -127.44300079345703,-215.41799926757812 -22.95400047302246,-226.0290069580078 C81.53600311279297,-236.63999938964844 176.51800537109375,-144.04600524902344 189.19500732421875,-19.21299934387207z"/></g><g opacity="1" transform="matrix(1,0,0,1,262.2950134277344,528.7860107421875)"><path fill="rgb(198,240,255)" fill-opacity="1" d=" M-36.520999908447266,21.957000732421875 C-39.73400115966797,21.957000732421875 -42.612998962402344,19.900999069213867 -43.63600158691406,16.820999145507812 C-44.702999114990234,13.607999801635742 -43.48500061035156,10.079999923706055 -40.66699981689453,8.208999633789062 C-40.46200180053711,8.071000099182129 -30.086000442504883,0.9419999718666077 -18.969999313354492,-16.14900016784668 C-17.746999740600586,-18.0310001373291 -15.744999885559082,-19.264999389648438 -13.513999938964844,-19.513999938964844 C-13.513999938964844,-19.513999938964844 7.986000061035156,-21.90999984741211 7.986000061035156,-21.90999984741211 C8.265000343322754,-21.94099998474121 8.543000221252441,-21.957000732421875 8.819999694824219,-21.957000732421875 C11.670000076293945,-21.957000732421875 14.307999610900879,-20.33099937438965 15.569999694824219,-17.719999313354492 C17.735000610351562,-13.241000175476074 28.625999450683594,-2.5309998989105225 40.11000061035156,3.4040000438690186 C43.10900115966797,4.953999996185303 44.702999114990234,8.315999984741211 44.00400161743164,11.619000434875488 C43.30500030517578,14.92199993133545 40.486000061035156,17.35099983215332 37.11600112915039,17.55299949645996 C37.11600112915039,17.55299949645996 -36.069000244140625,21.944000244140625 -36.069000244140625,21.944000244140625 C-36.220001220703125,21.952999114990234 -36.37200164794922,21.957000732421875 -36.520999908447266,21.957000732421875z"/></g><g opacity="1" transform="matrix(1,0,0,1,262.156005859375,528.7860107421875)"><path fill="rgb(129,189,0)" fill-opacity="1" d=" M8.954999923706055,-14.456000328063965 C12.220000267028809,-7.703999996185303 24.812000274658203,3.86899995803833 36.80500030517578,10.067000389099121 C36.80500030517578,10.067000389099121 -36.37900161743164,14.456999778747559 -36.37900161743164,14.456999778747559 C-36.37900161743164,14.456999778747559 -24.87299919128418,6.895999908447266 -12.545000076293945,-12.0600004196167 C-12.545000076293945,-12.0600004196167 8.954999923706055,-14.456000328063965 8.954999923706055,-14.456000328063965z M8.968000411987305,-29.45800018310547 C8.413000106811523,-29.45800018310547 7.855000019073486,-29.427000045776367 7.294000148773193,-29.364999771118164 C7.294000148773193,-29.364999771118164 -14.206000328063965,-26.966999053955078 -14.206000328063965,-26.966999053955078 C-18.667999267578125,-26.469999313354492 -22.672000885009766,-24.000999450683594 -25.118999481201172,-20.238000869750977 C-34.86899948120117,-5.248000144958496 -43.86399841308594,1.378000020980835 -44.685001373291016,1.965000033378601 C-50.439998626708984,5.620999813079834 -52.87799835205078,12.621000289916992 -50.79399871826172,19.121000289916992 C-48.79600143432617,25.35300064086914 -42.887001037597656,29.45800018310547 -36.40299987792969,29.45800018310547 C-36.09600067138672,29.45800018310547 -35.78900146484375,29.448999404907227 -35.48099899291992,29.43000030517578 C-35.48099899291992,29.43000030517578 37.70399856567383,25.040000915527344 37.70399856567383,25.040000915527344 C44.444000244140625,24.63599967956543 50.08300018310547,19.777999877929688 51.47999954223633,13.17199993133545 C52.87799835205078,6.566999912261963 49.689998626708984,-0.1589999943971634 43.69200134277344,-3.259000062942505 C33.62099838256836,-8.463000297546387 24.08099937438965,-17.83799934387207 22.450000762939453,-21.003999710083008 C19.92799949645996,-26.22100067138672 14.664999961853027,-29.45800018310547 8.968000411987305,-29.45800018310547z"/></g></g><g style="display: block;" transform="matrix(0.9955257177352905,-0.09449061751365662,0.09449061751365662,0.9955257177352905,1028.025634765625,381.862060546875)" opacity="0.29"><g opacity="1" transform="matrix(1,0,0,1,279.552001953125,529.0490112304688)"><path fill="rgb(183,225,239)" fill-opacity="1" d=" M-17.871000289916992,-13.920000076293945 C-17.819000244140625,-9.815999984741211 -12.800000190734863,4.763999938964844 -6.182000160217285,11.560999870300293 C5.767000198364258,11.57800006866455 19.445999145507812,10.196000099182129 19.445999145507812,10.196000099182129 C19.445999145507812,10.196000099182129 10.604000091552734,4.616000175476074 3.5959999561309814,-0.9829999804496765 C-3.4119999408721924,-6.581999778747559 -8.553000450134277,-14.435999870300293 -8.553000450134277,-14.435999870300293 C-8.553000450134277,-14.435999870300293 -17.871000289916992,-13.920000076293945 -17.871000289916992,-13.920000076293945z"/></g></g><g style="display: block;" mask="url(#__lottie_element_1939_1)"><g transform="matrix(0.998216986656189,-0.05968979746103287,0.05968979746103287,0.998216986656189,1272.7835693359375,326.3105773925781)" opacity="1"><g opacity="1" transform="matrix(1,0,0,1,174.66299438476562,276.1210021972656)"><path fill="rgb(183,225,239)" fill-opacity="1" d=" M-174.41299438476562,-206.94200134277344 C-17.264999389648438,-135.2969970703125 -4.216000080108643,126.96900177001953 -112.1500015258789,253.29400634765625 C-56.96699905395508,275.8710021972656 174.41400146484375,231.1020050048828 140.68699645996094,43.70100021362305 C106.95999908447266,-143.7010040283203 -44.23699951171875,-275.8710021972656 -174.41299438476562,-206.94200134277344z"/></g></g></g></g><g style="display: block;" transform="matrix(1,0,0,1,832.1460571289062,1132.447998046875)" opacity="1"><g opacity="1" transform="matrix(1,0,0,1,1598.885009765625,59.88800048828125)"><path stroke-linecap="round" stroke-linejoin="round" fill-opacity="0" stroke="rgb(129,189,0)" stroke-opacity="1" stroke-width="15" d="M0 0"/></g><g opacity="1" transform="matrix(1,0,0,1,1609.8909912109375,148.11199951171875)"><path stroke-linecap="round" stroke-linejoin="round" fill-opacity="0" stroke="rgb(129,189,0)" stroke-opacity="1" stroke-width="15" d="M0 0"/></g><g opacity="1" transform="matrix(1,0,0,1,59.55699920654297,1171.428955078125)"><path stroke-linecap="round" stroke-linejoin="round" fill-opacity="0" stroke="rgb(129,189,0)" stroke-opacity="1" stroke-width="15" d="M0 0"/></g></g><g style="display: block;" transform="matrix(1.1588810682296753,0,0,1.1588810682296753,398.7982177734375,395.68310546875)" opacity="1"><g opacity="1" transform="matrix(1,0,0,1,1195.8680419921875,1828.14794921875)"><path fill="rgb(255,204,223)" fill-opacity="1" d=" M60.83300018310547,0 C60.83300018310547,33.59700012207031 33.59700012207031,60.83300018310547 0,60.83300018310547 C-33.59700012207031,60.83300018310547 -60.83300018310547,33.59700012207031 -60.83300018310547,0 C-60.83300018310547,-33.59700012207031 -33.59700012207031,-60.83300018310547 0,-60.83300018310547 C33.59700012207031,-60.83300018310547 60.83300018310547,-33.59700012207031 60.83300018310547,0z"/><path stroke-linecap="butt" stroke-linejoin="miter" fill-opacity="0" stroke-miterlimit="10" stroke="rgb(129,189,0)" stroke-opacity="1" stroke-width="15" d=" M60.83300018310547,0 C60.83300018310547,33.59700012207031 33.59700012207031,60.83300018310547 0,60.83300018310547 C-33.59700012207031,60.83300018310547 -60.83300018310547,33.59700012207031 -60.83300018310547,0 C-60.83300018310547,-33.59700012207031 -33.59700012207031,-60.83300018310547 0,-60.83300018310547 C33.59700012207031,-60.83300018310547 60.83300018310547,-33.59700012207031 60.83300018310547,0z"/></g></g><g style="display: block;" transform="matrix(0.9747257828712463,-0.2234046757221222,0.2234046757221222,0.9747257828712463,339.65771484375,1134.139892578125)" opacity="1"><g opacity="1" transform="matrix(1,0,0,1,0,0)"><g opacity="1" transform="matrix(1,0,0,1,1802.5179443359375,1319.155029296875)"><path fill="rgb(255,233,137)" fill-opacity="1" d=" M23.841999053955078,40.99399948120117 C22.94700050354004,40.99399948120117 22.049999237060547,40.83399963378906 21.19499969482422,40.51100158691406 C21.19499969482422,40.51100158691406 -40.790000915527344,17.131999969482422 -40.790000915527344,17.131999969482422 C-44.41600036621094,15.763999938964844 -46.40299987792969,11.859000205993652 -45.374000549316406,8.123000144958496 C-45.374000549316406,8.123000144958496 -33.3650016784668,-35.48500061035156 -33.3650016784668,-35.48500061035156 C-32.46200180053711,-38.768001556396484 -29.47800064086914,-40.99399948120117 -26.141000747680664,-40.99399948120117 C-25.863000869750977,-40.99399948120117 -25.582000732421875,-40.979000091552734 -25.299999237060547,-40.946998596191406 C-25.299999237060547,-40.946998596191406 39.441001892089844,-33.691001892089844 39.441001892089844,-33.691001892089844 C41.58700180053711,-33.45100021362305 43.5260009765625,-32.297000885009766 44.7599983215332,-30.524999618530273 C45.99399948120117,-28.753000259399414 46.40399932861328,-26.53499984741211 45.887001037597656,-24.437999725341797 C45.887001037597656,-24.437999725341797 31.121999740600586,35.29399871826172 31.121999740600586,35.29399871826172 C30.607999801635742,37.374000549316406 29.22800064086914,39.13600158691406 27.329999923706055,40.132999420166016 C26.242000579833984,40.70500183105469 25.04400062561035,40.99399948120117 23.841999053955078,40.99399948120117z"/></g><g opacity="1" transform="matrix(1,0,0,1,1802.2879638671875,1319.155029296875)"><path fill="rgb(129,189,0)" fill-opacity="1" d=" M-25.905000686645508,-33.49300003051758 C-25.905000686645508,-33.49300003051758 38.834999084472656,-26.23699951171875 38.834999084472656,-26.23699951171875 C38.834999084472656,-26.23699951171875 24.06999969482422,33.494998931884766 24.06999969482422,33.494998931884766 C24.06999969482422,33.494998931884766 -37.91400146484375,10.114999771118164 -37.91400146484375,10.114999771118164 C-37.91400146484375,10.114999771118164 -25.905000686645508,-33.49300003051758 -25.905000686645508,-33.49300003051758z M-25.916000366210938,-48.494998931884766 C-32.590999603271484,-48.494998931884766 -38.558998107910156,-44.04199981689453 -40.36800003051758,-37.47600173950195 C-40.36800003051758,-37.47600173950195 -52.375999450683594,6.131999969482422 -52.375999450683594,6.131999969482422 C-54.433998107910156,13.604000091552734 -50.459999084472656,21.415000915527344 -43.20899963378906,24.149999618530273 C-43.20899963378906,24.149999618530273 18.775999069213867,47.529998779296875 18.775999069213867,47.529998779296875 C20.48699951171875,48.17499923706055 22.2810001373291,48.494998931884766 24.06999969482422,48.494998931884766 C26.47599983215332,48.494998931884766 28.87299919128418,47.915000915527344 31.048999786376953,46.77199935913086 C34.84299850463867,44.777000427246094 37.604000091552734,41.25600051879883 38.63199996948242,37.09400177001953 C38.63199996948242,37.09400177001953 53.39699935913086,-22.63800048828125 53.39699935913086,-22.63800048828125 C54.433998107910156,-26.83099937438965 53.611000061035156,-31.267000198364258 51.143001556396484,-34.81100082397461 C48.67399978637695,-38.35499954223633 44.797000885009766,-40.66299819946289 40.505001068115234,-41.14400100708008 C40.505001068115234,-41.14400100708008 -24.233999252319336,-48.400001525878906 -24.233999252319336,-48.400001525878906 C-24.79800033569336,-48.4630012512207 -25.360000610351562,-48.494998931884766 -25.916000366210938,-48.494998931884766z"/></g></g></g><g style="display: block;" transform="matrix(1,0,0,1,588.7990112304688,656.6026611328125)" opacity="1"><g opacity="1" transform="matrix(1,0,0,1,0,0)"><g opacity="1" transform="matrix(1,0,0,1,151.86500549316406,1041.5159912109375)"><path fill="rgb(198,240,255)" fill-opacity="1" d=" M9.991999626159668,71.2699966430664 C-8.35200023651123,71.2699966430664 -27.36199951171875,68.30400085449219 -46.50699996948242,62.45399856567383 C-108.27899932861328,43.57899856567383 -124.5999984741211,13.84000015258789 -127.41500091552734,-7.784999847412109 C-130.88400268554688,-34.428001403808594 -115.052001953125,-59.32099914550781 -97.61900329589844,-70.14099884033203 C-96.41000366210938,-70.89199829101562 -95.03800201416016,-71.26899719238281 -93.66400146484375,-71.26899719238281 C-92.39800262451172,-71.26899719238281 -91.13099670410156,-70.9489974975586 -89.98699951171875,-70.30599975585938 C-54.96500015258789,-50.60599899291992 -40.81399917602539,-36.305999755859375 -21.22800064086914,-16.513999938964844 C-14.210000038146973,-9.42300033569336 -6.322000026702881,-1.4520000219345093 3.5399999618530273,7.743000030517578 C48.69200134277344,5.51800012588501 89.63600158691406,-48.24599838256836 90.0530014038086,-48.79999923706055 C91.47799682617188,-50.696998596191406 93.70700073242188,-51.79499816894531 96.0479965209961,-51.79499816894531 C96.3239974975586,-51.79499816894531 96.60099792480469,-51.779998779296875 96.87899780273438,-51.749000549316406 C99.51399993896484,-51.45500183105469 101.8010025024414,-49.792999267578125 102.88899993896484,-47.375 C102.88899993896484,-47.375 129.71499633789062,12.236000061035156 129.71499633789062,12.236000061035156 C130.88499450683594,14.836999893188477 130.4770050048828,17.87700080871582 128.6649932861328,20.079999923706055 C126.94400024414062,22.170000076293945 85.66500091552734,71.2699966430664 9.991999626159668,71.2699966430664z"/></g><g opacity="1" transform="matrix(1,0,0,1,145.5050048828125,1041.5159912109375)"><path fill="rgb(129,189,0)" fill-opacity="1" d=" M-87.30400085449219,-63.77000045776367 C-39.61600112915039,-36.94499969482422 -31.71500015258789,-20.452999114990234 7.0320000648498535,15.312999725341797 C57.70199966430664,15.312999725341797 102.41000366210938,-44.297000885009766 102.41000366210938,-44.297000885009766 C102.41000366210938,-44.297000885009766 129.23500061035156,15.312999725341797 129.23500061035156,15.312999725341797 C129.23500061035156,15.312999725341797 89.35399627685547,63.77000045776367 16.351999282836914,63.77000045776367 C-0.09200000017881393,63.77000045776367 -18.229000091552734,61.30799865722656 -37.95500183105469,55.28099822998047 C-145.2550048828125,22.4950008392334 -116.30400085449219,-45.77000045776367 -87.30400085449219,-63.77000045776367z M-87.30400085449219,-78.7699966430664 C-90.052001953125,-78.7699966430664 -92.7959976196289,-78.01599884033203 -95.21499633789062,-76.51499938964844 C-114.68800354003906,-64.4280014038086 -132.37100219726562,-36.60599899291992 -128.4929962158203,-6.816999912261963 C-126.375,9.446000099182129 -118.36900329589844,24.141000747680664 -104.6969985961914,36.85900115966797 C-90.13099670410156,50.409000396728516 -69.1510009765625,61.43299865722656 -42.3380012512207,69.625 C-22.481000900268555,75.69300079345703 -2.734999895095825,78.7699966430664 16.351999282836914,78.7699966430664 C95.5260009765625,78.7699966430664 139.00399780273438,27.04800033569336 140.81700134277344,24.84600067138672 C144.44200134277344,20.44099998474121 145.2550048828125,14.359999656677246 142.91299438476562,9.156999588012695 C142.91299438476562,9.156999588012695 116.08899688720703,-50.452999114990234 116.08899688720703,-50.452999114990234 C113.91000366210938,-55.292999267578125 109.33699798583984,-58.62099838256836 104.06099700927734,-59.20500183105469 C103.50800323486328,-59.266998291015625 102.95600128173828,-59.297000885009766 102.40699768066406,-59.297000885009766 C97.71900177001953,-59.297000885009766 93.26100158691406,-57.097999572753906 90.41000366210938,-53.297000885009766 C90.03399658203125,-52.79899978637695 52.983001708984375,-4.256999969482422 12.621999740600586,0.014999999664723873 C3.9639999866485596,-8.147000312805176 -3.1500000953674316,-15.335000038146973 -9.536999702453613,-21.788999557495117 C-28.798999786376953,-41.25400161743164 -44.01300048828125,-56.62900161743164 -79.94999694824219,-76.84400177001953 C-82.23699951171875,-78.12999725341797 -84.77200317382812,-78.7699966430664 -87.30400085449219,-78.7699966430664z"/></g><g opacity="1" transform="matrix(1,0,0,1,128.02000427246094,1090.06201171875)"><path fill="rgb(255,233,137)" fill-opacity="1" d=" M-45.737998962402344,135.58299255371094 C-48.11899948120117,135.58299255371094 -50.4370002746582,134.44900512695312 -51.88100051879883,132.39300537109375 C-51.88100051879883,132.39300537109375 -91.9010009765625,75.39800262451172 -91.9010009765625,75.39800262451172 C-93.20500183105469,73.54100036621094 -93.5979995727539,71.19499969482422 -92.97100067138672,69.01499938964844 C-92.34400177001953,66.83499908447266 -90.76399993896484,65.05599975585938 -88.67400360107422,64.1760025024414 C-30.834999084472656,39.823001861572266 5.0960001945495605,5.925000190734863 5.0960001945495605,-24.290000915527344 C5.0960001945495605,-62.31100082397461 -22.216999053955078,-88.81500244140625 -76.08200073242188,-103.06600189208984 C-78.89099884033203,-103.80899810791016 -81.01899719238281,-106.11000061035156 -81.54199981689453,-108.96900177001953 C-82.06400299072266,-111.8270034790039 -80.88800048828125,-114.7300033569336 -78.52300262451172,-116.41899871826172 C-60.720001220703125,-129.13499450683594 -42.30099868774414,-135.58299255371094 -23.77899932861328,-135.58299255371094 C1.8220000267028809,-135.58299255371094 27.406999588012695,-122.80599975585938 48.26499938964844,-99.60600280761719 C65.91699981689453,-79.97100067138672 78.74700164794922,-54.505001068115234 82.58300018310547,-31.482999801635742 C93.59700012207031,34.59000015258789 51.49700164794922,90.55899810791016 -42.547000885009766,134.8679962158203 C-43.57400131225586,135.3520050048828 -44.6619987487793,135.58299255371094 -45.737998962402344,135.58299255371094z"/></g><g opacity="1" transform="matrix(1,0,0,1,125.04299926757812,1090.06201171875)"><path fill="rgb(129,189,0)" fill-opacity="1" d=" M-20.802000045776367,-128.08399963378906 C31.34600067138672,-128.08399963378906 71.30799865722656,-71.38600158691406 78.16400146484375,-30.250999450683594 C87.10600280761719,23.398000717163086 60.32699966430664,79.51000213623047 -42.76499938964844,128.08200073242188 C-42.76499938964844,128.08200073242188 -82.78500366210938,71.08699798583984 -82.78500366210938,71.08699798583984 C-26.155000686645508,47.242000579833984 15.572999954223633,11.47599983215332 15.572999954223633,-24.291000366210938 C15.572999954223633,-55.40800094604492 -0.6340000033378601,-91.6520004272461 -71.18599700927734,-110.31700134277344 C-53.6510009765625,-122.84300231933594 -36.667999267578125,-128.08399963378906 -20.802000045776367,-128.08399963378906z M-20.802000045776367,-143.08399963378906 C-40.91899871826172,-143.08399963378906 -60.80400085449219,-136.16600036621094 -79.90499877929688,-122.52300262451172 C-84.63500213623047,-119.1449966430664 -86.98699951171875,-113.33799743652344 -85.94200134277344,-107.62000274658203 C-84.89700317382812,-101.9020004272461 -80.64199829101562,-97.3030014038086 -75.02300262451172,-95.81600189208984 C-24.155000686645508,-82.35900115966797 0.5730000138282776,-58.9630012512207 0.5730000138282776,-24.291000366210938 C0.5730000138282776,2.440999984741211 -34.43199920654297,34.45199966430664 -88.60600280761719,57.262001037597656 C-92.78700256347656,59.02299880981445 -95.9469985961914,62.58100128173828 -97.19999694824219,66.94100189208984 C-98.4540023803711,71.3010025024414 -97.66799926757812,75.99400329589844 -95.06099700927734,79.70700073242188 C-95.06099700927734,79.70700073242188 -55.04100036621094,136.70199584960938 -55.04100036621094,136.70199584960938 C-52.154998779296875,140.81300354003906 -47.52000045776367,143.08399963378906 -42.75899887084961,143.08399963378906 C-40.60499954223633,143.08399963378906 -38.426998138427734,142.6199951171875 -36.37200164794922,141.65199279785156 C-10.475000381469727,129.4499969482422 11.855999946594238,116.21099853515625 30.003999710083008,102.3010025024414 C47.520999908447266,88.8740005493164 61.672000885009766,74.41600036621094 72.06400299072266,59.327999114990234 C91.42400360107422,31.22100067138672 98.45500183105469,0.2529999911785126 92.95999908447266,-32.71699905395508 C88.89800262451172,-57.0890007019043 75.38800048828125,-83.96900177001953 56.82099914550781,-104.62200164794922 C34.52199935913086,-129.4250030517578 6.954999923706055,-143.08399963378906 -20.802000045776367,-143.08399963378906z"/></g></g></g><g style="display: block;" transform="matrix(0.8924978375434875,0.45105165243148804,-0.45105165243148804,0.8924978375434875,779.3316650390625,16.9678955078125)" opacity="1"><g opacity="1" transform="matrix(1,0,0,1,0,0)"><g opacity="1" transform="matrix(1,0,0,1,1509.5660400390625,62.641998291015625)"><path fill="rgb(255,233,137)" fill-opacity="1" d=" M-23.277999877929688,54.89099884033203 C-23.892000198364258,54.89099884033203 -24.511999130249023,54.81700134277344 -25.125,54.6609992980957 C-27.840999603271484,53.97200012207031 -29.94700050354004,51.82500076293945 -30.58300018310547,49.095001220703125 C-30.58300018310547,49.095001220703125 -52.68199920654297,-45.6879997253418 -52.68199920654297,-45.6879997253418 C-53.25899887084961,-48.16400146484375 -52.54399871826172,-50.76300048828125 -50.78099822998047,-52.59400177001953 C-49.35300064086914,-54.07600021362305 -47.39699935913086,-54.89099884033203 -45.380001068115234,-54.89099884033203 C-44.904998779296875,-54.89099884033203 -44.426998138427734,-54.84700012207031 -43.95199966430664,-54.755001068115234 C-43.95199966430664,-54.755001068115234 46.71900177001953,-37.17300033569336 46.71900177001953,-37.17300033569336 C49.3650016784668,-36.65999984741211 51.53099822998047,-34.768001556396484 52.39500045776367,-32.21500015258789 C53.25899887084961,-29.663000106811523 52.68899917602539,-26.8439998626709 50.900001525878906,-24.82900047302246 C50.900001525878906,-24.82900047302246 -17.672000885009766,52.37200164794922 -17.672000885009766,52.37200164794922 C-19.11400032043457,53.99599838256836 -21.163999557495117,54.89099884033203 -23.277999877929688,54.89099884033203z"/></g><g opacity="1" transform="matrix(1,0,0,1,1509.6090087890625,62.641998291015625)"><path fill="rgb(129,189,0)" fill-opacity="1" d=" M-45.422000885009766,-47.391998291015625 C-45.422000885009766,-47.391998291015625 45.24800109863281,-29.809999465942383 45.24800109863281,-29.809999465942383 C45.24800109863281,-29.809999465942383 -23.32200050354004,47.39099884033203 -23.32200050354004,47.39099884033203 C-23.32200050354004,47.39099884033203 -45.422000885009766,-47.391998291015625 -45.422000885009766,-47.391998291015625z M-45.422000885009766,-62.391998291015625 C-49.457000732421875,-62.391998291015625 -53.369998931884766,-60.762001037597656 -56.224998474121094,-57.797000885009766 C-59.75199890136719,-54.13600158691406 -61.183998107910156,-48.9370002746582 -60.02899932861328,-43.986000061035156 C-60.02899932861328,-43.986000061035156 -37.93000030517578,50.797000885009766 -37.93000030517578,50.797000885009766 C-36.65700149536133,56.25699996948242 -32.44599914550781,60.55099868774414 -27.01300048828125,61.93000030517578 C-25.790000915527344,62.24100112915039 -24.551000595092773,62.391998291015625 -23.322999954223633,62.391998291015625 C-19.0939998626709,62.391998291015625 -14.991999626159668,60.599998474121094 -12.107999801635742,57.35200119018555 C-12.107999801635742,57.35200119018555 56.4640007019043,-19.849000930786133 56.4640007019043,-19.849000930786133 C60.042999267578125,-23.878000259399414 61.183998107910156,-29.517000198364258 59.45600128173828,-34.62099838256836 C57.72700119018555,-39.724998474121094 53.39400100708008,-43.5099983215332 48.104000091552734,-44.5359992980957 C48.104000091552734,-44.5359992980957 -42.56700134277344,-62.117000579833984 -42.56700134277344,-62.117000579833984 C-43.518001556396484,-62.301998138427734 -44.472999572753906,-62.391998291015625 -45.422000885009766,-62.391998291015625z"/></g></g></g></g></svg>