<svg xmlns="http://www.w3.org/2000/svg" xmlns:xlink="http://www.w3.org/1999/xlink" viewBox="0 0 512 512" width="512" height="512" style="width: 100%; height: 100%; transform: translate3d(0px, 0px, 0px);" preserveAspectRatio="xMidYMid meet" id="Popsicle"><defs><clipPath id="__lottie_element_9815"><rect width="512" height="512" x="0" y="0"/></clipPath></defs><g clip-path="url(#__lottie_element_9815)"><g style="display: block;" transform="matrix(1,0,0,1,255.99998474121094,256)" opacity="1"><g opacity="1" transform="matrix(1,0,0,1,0,0)"><path fill="rgb(238,36,114)" fill-opacity="1" d=" M167.9980010986328,16.336999893188477 C167.9980010986328,16.336999893188477 162.281005859375,27.445999145507812 162.281005859375,27.445999145507812 C161.85899353027344,28.586000442504883 160.98899841308594,29.593000411987305 160.27099609375,30.52199935913086 C158.83599853515625,32.380001068115234 156.8520050048828,33.858001708984375 154.4459991455078,34.65999984741211 C154.4459991455078,34.65999984741211 38.00699996948242,72.06500244140625 38.00699996948242,72.06500244140625 C31.716999053955078,74.09200286865234 25.003999710083008,70.62899780273438 22.97800064086914,64.33899688720703 C22.97800064086914,64.33899688720703 11.748000144958496,29.424999237060547 11.748000144958496,29.424999237060547 C11.748000144958496,29.424999237060547 -26.54400062561035,-89.9260025024414 -26.54400062561035,-89.9260025024414 C-38.91400146484375,-128.34500122070312 -17.76300048828125,-169.5500030517578 20.697999954223633,-181.8780059814453 C28.128000259399414,-184.24200439453125 35.643001556396484,-185.3820037841797 43.03099822998047,-185.3820037841797 C73.93499755859375,-185.3820037841797 102.68599700927734,-165.6230010986328 112.64900207519531,-134.63499450683594 C112.64900207519531,-134.63499450683594 161.28500366210938,16.801000595092773 161.28500366210938,16.801000595092773 C161.28500366210938,16.801000595092773 167.9980010986328,16.336999893188477 167.9980010986328,16.336999893188477z"/></g><g opacity="1" transform="matrix(1,0,0,1,0,0)"><path fill="rgb(100,88,79)" fill-opacity="1" d=" M34.32899856567383,74.197998046875 C32.2130012512207,74.197998046875 30.118000030517578,73.69300079345703 28.18400001525879,72.697998046875 C24.98200035095215,71.0510025024414 22.607999801635742,68.2509994506836 21.50200080871582,64.81500244140625 C21.50200080871582,64.81500244140625 -28.02400016784668,-89.45099639892578 -28.02400016784668,-89.45099639892578 C-34.13199996948242,-108.43000030517578 -32.47700119018555,-128.65499877929688 -23.361000061035156,-146.3990020751953 C-14.244999885559082,-164.14300537109375 1.2339999675750732,-177.26699829101562 20.22599983215332,-183.35299682617188 C27.687000274658203,-185.72900390625 35.36199951171875,-186.9320068359375 43.03300094604492,-186.9320068359375 C75.58999633789062,-186.9320068359375 104.15799713134766,-166.1060028076172 114.1259994506836,-135.10899353027344 C114.1259994506836,-135.10899353027344 162.39199829101562,15.170000076293945 162.39199829101562,15.170000076293945 C162.39199829101562,15.170000076293945 167.88699340820312,14.791000366210938 167.88699340820312,14.791000366210938 C168.45199584960938,14.746999740600586 168.9810028076172,15.015000343322754 169.29200744628906,15.484999656677246 C169.5989990234375,15.951000213623047 169.63099670410156,16.54800033569336 169.3730010986328,17.045000076293945 C169.3730010986328,17.045000076293945 163.66000366210938,28.15399932861328 163.66000366210938,28.15399932861328 C163.29299926757812,29.18600082397461 162.50900268554688,30.183000564575195 161.81900024414062,31.062999725341797 C161.81900024414062,31.062999725341797 161.5,31.466999053955078 161.5,31.466999053955078 C159.81199645996094,33.64899826049805 157.54400634765625,35.2599983215332 154.94000244140625,36.130001068115234 C154.94000244140625,36.130001068115234 38.479000091552734,73.54000091552734 38.479000091552734,73.54000091552734 C37.11800003051758,73.9800033569336 35.72200012207031,74.197998046875 34.32899856567383,74.197998046875z M43.03300094604492,-183.83099365234375 C35.680999755859375,-183.83099365234375 28.325000762939453,-182.677001953125 21.16699981689453,-180.39999389648438 C2.9709999561309814,-174.5659942626953 -11.866000175476074,-161.98699951171875 -20.60300064086914,-144.98199462890625 C-29.34000015258789,-127.97699737548828 -30.926000595092773,-108.59200286865234 -25.06800079345703,-90.4000015258789 C-25.06800079345703,-90.4000015258789 24.452999114990234,63.86399841308594 24.452999114990234,63.86399841308594 C26.208999633789062,69.3239974975586 32.058998107910156,72.34200286865234 37.529998779296875,70.58799743652344 C37.529998779296875,70.58799743652344 153.97500610351562,33.185001373291016 153.97500610351562,33.185001373291016 C155.97799682617188,32.51499938964844 157.73800659179688,31.264999389648438 159.04600524902344,29.572999954223633 C159.04600524902344,29.572999954223633 159.3769989013672,29.14900016784668 159.3769989013672,29.14900016784668 C159.95399475097656,28.41200065612793 160.55099487304688,27.652000427246094 160.8300018310547,26.905000686645508 C160.8300018310547,26.905000686645508 165.36399841308594,18.072999954223633 165.36399841308594,18.072999954223633 C165.36399841308594,18.072999954223633 161.39500427246094,18.347000122070312 161.39500427246094,18.347000122070312 C160.66799926757812,18.385000228881836 160.031005859375,17.95400047302246 159.8090057373047,17.275999069213867 C159.8090057373047,17.275999069213867 111.1709976196289,-134.16000366210938 111.1709976196289,-134.16000366210938 C101.61900329589844,-163.87100219726562 74.23699951171875,-183.83099365234375 43.03300094604492,-183.83099365234375z"/></g><g opacity="1" transform="matrix(1,0,0,1,0,0)"><path fill="rgb(243,237,236)" fill-opacity="1" d=" M138.3040008544922,159.4550018310547 C125.00499725341797,163.718994140625 110.39700317382812,154.05099487304688 106.7239990234375,138.5570068359375 C106.7239990234375,138.5570068359375 90.5979995727539,70.12100219726562 90.5979995727539,70.12100219726562 C90.5979995727539,70.12100219726562 83.63099670410156,40.5260009765625 83.63099670410156,40.5260009765625 C83.63099670410156,40.5260009765625 113.4800033569336,30.94300079345703 113.4800033569336,30.94300079345703 C113.4800033569336,30.94300079345703 121.75399780273438,51.03799819946289 121.75399780273438,51.03799819946289 C121.75399780273438,51.03799819946289 151.77200317382812,124.11799621582031 151.77200317382812,124.11799621582031 C157.8509979248047,138.80999755859375 151.60299682617188,155.1909942626953 138.3040008544922,159.4550018310547z"/></g><g opacity="1" transform="matrix(1,0,0,1,0,0)"><path fill="rgb(172,110,97)" fill-opacity="1" d=" M121.75399780273438,51.03799819946289 C118.41899871826172,49.939998626708984 115,46.22600173950195 111.70700073242188,47.57699966430664 C109.34300231933594,48.59000015258789 108.66699981689453,51.630001068115234 108.58200073242188,54.20500183105469 C108.54000091552734,56.779998779296875 108.625,59.69300079345703 106.80899810791016,61.55099868774414 C104.86699676513672,63.53499984741211 101.65899658203125,63.36600112915039 98.95700073242188,63.999000549316406 C95.49500274658203,64.8010025024414 92.58200073242188,67.16600036621094 90.5979995727539,70.12100219726562 C90.5979995727539,70.12100219726562 83.63099670410156,40.5260009765625 83.63099670410156,40.5260009765625 C83.63099670410156,40.5260009765625 113.4800033569336,30.94300079345703 113.4800033569336,30.94300079345703 C113.4800033569336,30.94300079345703 121.75399780273438,51.03799819946289 121.75399780273438,51.03799819946289z"/></g><g opacity="1" transform="matrix(1,0,0,1,0,0)"><path fill="rgb(254,82,148)" fill-opacity="1" d=" M169.2220001220703,11.946000099182129 C168.88400268554688,16.631999969482422 165.7169952392578,20.812000274658203 160.98899841308594,22.374000549316406 C160.98899841308594,22.374000549316406 44.55099868774414,59.779998779296875 44.55099868774414,59.779998779296875 C38.26100158691406,61.805999755859375 31.54800033569336,58.34400177001953 29.52199935913086,52.05400085449219 C29.52199935913086,52.05400085449219 18.29199981689453,17.138999938964844 18.29199981689453,17.138999938964844 C18.29199981689453,17.138999938964844 -20,-102.21199798583984 -20,-102.21199798583984 C-31.524999618530273,-137.9290008544922 -14.005999565124512,-176.09300231933594 19.43199920654297,-191.1230010986328 C19.43199920654297,-191.1649932861328 19.43199920654297,-191.16600036621094 19.43199920654297,-191.16600036621094 C21.964000701904297,-192.30599975585938 24.540000915527344,-193.31900024414062 27.242000579833984,-194.16299438476562 C34.672000885009766,-196.52699279785156 42.1870002746582,-197.66700744628906 49.57500076293945,-197.66700744628906 C64.77400207519531,-197.66700744628906 79.4229965209961,-192.89599609375 91.6240005493164,-184.3260040283203 C104.20500183105469,-175.5449981689453 114.12699890136719,-162.66799926757812 119.19300079345703,-146.92100524902344 C119.19300079345703,-146.92100524902344 168.71499633789062,7.34499979019165 168.71499633789062,7.34499979019165 C169.2220001220703,8.864999771118164 169.39100646972656,10.425999641418457 169.2220001220703,11.946000099182129z"/></g><g opacity="1" transform="matrix(1,0,0,1,0,0)"><path fill="rgb(247,40,120)" fill-opacity="1" d=" M91.6240005493164,-184.3260040283203 C91.49700164794922,-183.18600463867188 91.3290023803711,-182.08900451660156 91.07599639892578,-180.94900512695312 C89.76699829101562,-174.95399475097656 85.5459976196289,-168.66299438476562 79.38200378417969,-168.45199584960938 C74.56900024414062,-168.3249969482422 70.5999984741211,-171.8719940185547 67.05400085449219,-175.1649932861328 C63.54999923706055,-178.41600036621094 59.2859992980957,-181.8350067138672 54.51499938964844,-181.24400329589844 C49.15299987792969,-180.61099243164062 45.60599899291992,-175.1649932861328 40.45600128173828,-173.51800537109375 C35.26300048828125,-171.87100219726562 29.520999908447266,-174.53199768066406 25.933000564575195,-178.5850067138672 C22.85099983215332,-182.17300415039062 21.035999298095703,-186.6479949951172 19.43199920654297,-191.1230010986328 C19.43199920654297,-191.1649932861328 19.43199920654297,-191.16600036621094 19.43199920654297,-191.16600036621094 C21.964000701904297,-192.30599975585938 24.540000915527344,-193.31900024414062 27.242000579833984,-194.16299438476562 C34.672000885009766,-196.52699279785156 42.1870002746582,-197.66700744628906 49.57500076293945,-197.66700744628906 C64.77400207519531,-197.66700744628906 79.4229965209961,-192.89599609375 91.6240005493164,-184.3260040283203z"/></g><g opacity="1" transform="matrix(1,0,0,1,0,0)"><path fill="rgb(247,40,120)" fill-opacity="1" d=" M87.40299987792969,-152.25 C87.33799743652344,-152.25 87.2750015258789,-152.2519989013672 87.21399688720703,-152.2519989013672 C81.24299621582031,-152.29800415039062 76.33699798583984,-156.06399536132812 72.21099853515625,-159.58900451660156 C72.21099853515625,-159.58900451660156 71.71800231933594,-160.0030059814453 71.71800231933594,-160.0030059814453 C67.93099975585938,-163.2050018310547 64.01499938964844,-166.51699829101562 59.375999450683594,-167.25999450683594 C54.5880012512207,-168.0050048828125 49.96099853515625,-165.9149932861328 45.06399917602539,-163.70899963378906 C40.33599853515625,-161.57899475097656 35.43899917602539,-159.3470001220703 30.13800048828125,-159.72900390625 C23.71500015258789,-160.1929931640625 17.59000015258789,-164.45799255371094 13.73799991607666,-171.13999938964844 C10.960000038146973,-175.91400146484375 9.555000305175781,-181.1909942626953 8.545999526977539,-185.7209930419922 C8.545999526977539,-186.57699584960938 9.220000267028809,-187.46099853515625 10.079999923706055,-187.46099853515625 C10.935999870300293,-187.46099853515625 11.611000061035156,-186.95399475097656 11.611000061035156,-186.09800720214844 C11.611000061035156,-186.09800720214844 11.611000061035156,-186.05799865722656 11.611000061035156,-186.05799865722656 C12.527000427246094,-182.0970001220703 13.85099983215332,-177.10800170898438 16.42300033569336,-172.6929931640625 C19.708999633789062,-166.98599243164062 25.047000885009766,-163.2050018310547 30.351999282836914,-162.8209991455078 C34.917999267578125,-162.50399780273438 39.209999084472656,-164.47300720214844 43.79199981689453,-166.53799438476562 C48.882999420166016,-168.83099365234375 54.12799835205078,-171.21299743652344 59.861000061035156,-170.322998046875 C65.35600280761719,-169.4429931640625 69.8010025024414,-165.68600463867188 73.72100067138672,-162.37100219726562 C73.72100067138672,-162.37100219726562 74.21700286865234,-161.9530029296875 74.21700286865234,-161.9530029296875 C77.93499755859375,-158.7760009765625 82.30799865722656,-155.38999938964844 87.24600219726562,-155.3520050048828 C92.80899810791016,-155.39199829101562 97.52899932861328,-159.76800537109375 99.63600158691406,-164.2550048828125 C100.90799713134766,-166.97999572753906 101.65499877929688,-170.08700561523438 101.98200225830078,-174.02699279785156 C102.05500030517578,-174.8769989013672 102.72899627685547,-175.53500366210938 103.65799713134766,-175.44200134277344 C104.51000213623047,-175.37100219726562 105.14399719238281,-174.6219940185547 105.07499694824219,-173.76800537109375 C104.71600341796875,-169.45199584960938 103.87899780273438,-166.00999450683594 102.44599914550781,-162.94000244140625 C99.93900299072266,-157.5970001220703 94.3270034790039,-152.2519989013672 87.40299987792969,-152.25z"/></g><g opacity="1" transform="matrix(1,0,0,1,0,0)"><path fill="rgb(247,40,120)" fill-opacity="1" d=" M169.2220001220703,11.946000099182129 C168.88400268554688,16.631999969482422 165.7169952392578,20.812000274658203 160.98899841308594,22.374000549316406 C160.98899841308594,22.374000549316406 44.55099868774414,59.779998779296875 44.55099868774414,59.779998779296875 C38.26100158691406,61.805999755859375 31.54800033569336,58.34400177001953 29.52199935913086,52.05400085449219 C29.52199935913086,52.05400085449219 18.29199981689453,17.138999938964844 18.29199981689453,17.138999938964844 C26.101999282836914,11.734999656677246 32.30799865722656,2.953000068664551 41.63800048828125,1.687000036239624 C57.891998291015625,-0.550000011920929 70.26200103759766,21.319000244140625 86.4739990234375,18.701000213623047 C97.23999786376953,16.92799949645996 103.86799621582031,4.810999870300293 114.54900360107422,2.489000082015991 C121.09300231933594,1.0959999561309814 127.80599975585938,3.628999948501587 133.6320037841797,6.880000114440918 C139.45799255371094,10.088000297546387 144.98899841308594,14.057999610900879 151.406005859375,15.831000328063965 C157.57000732421875,17.520000457763672 165,16.716999053955078 169.2220001220703,11.946000099182129z"/></g><g opacity="1" transform="matrix(1,0,0,1,0,0)"><path fill="rgb(100,88,79)" fill-opacity="1" d=" M40.909000396728516,61.90599822998047 C35.20399856567383,61.90599822998047 29.88800048828125,58.25 28.047000885009766,52.52899932861328 C28.047000885009766,52.52899932861328 -21.479000091552734,-101.73699951171875 -21.479000091552734,-101.73699951171875 C-27.586999893188477,-120.71600341796875 -25.93199920654297,-140.93899536132812 -16.81999969482422,-158.68299865722656 C-7.703999996185303,-176.427001953125 7.775000095367432,-189.55299377441406 26.770999908447266,-195.63900756835938 C34.231998443603516,-198.01499938964844 41.90299987792969,-199.21800231933594 49.57400131225586,-199.21800231933594 C78.35600280761719,-199.21800231933594 104.86499786376953,-182.4219970703125 117.10600280761719,-156.42799377441406 C117.4729995727539,-155.65499877929688 117.13800048828125,-154.72999572753906 116.36699676513672,-154.36500549316406 C115.59200286865234,-154.0019989013672 114.66699981689453,-154.33299255371094 114.30400085449219,-155.10800170898438 C102.56800079345703,-180.02000427246094 77.16100311279297,-196.11700439453125 49.57400131225586,-196.11700439453125 C42.22200012207031,-196.11700439453125 34.86899948120117,-194.96200561523438 27.711000442504883,-192.68499755859375 C9.51099967956543,-186.8509979248047 -5.326000213623047,-174.2729949951172 -14.062999725341797,-157.26600646972656 C-22.79599952697754,-140.26100158691406 -24.381999969482422,-120.87699890136719 -18.52400016784668,-102.68499755859375 C-18.52400016784668,-102.68499755859375 30.99799919128418,51.57899856567383 30.99799919128418,51.57899856567383 C32.75400161743164,57.03900146484375 38.625,60.05500030517578 44.07500076293945,58.30500030517578 C44.07500076293945,58.30500030517578 160.51499938964844,20.89900016784668 160.51499938964844,20.89900016784668 C164.55999755859375,19.562999725341797 167.37399291992188,16.003999710083008 167.677001953125,11.835000038146973 C167.8260040283203,10.458000183105469 167.677001953125,9.131999969482422 167.2449951171875,7.835999965667725 C167.2449951171875,7.835999965667725 142.83999633789062,-68.18000030517578 142.83999633789062,-68.18000030517578 C142.58200073242188,-68.99600219726562 143.0290069580078,-69.87000274658203 143.84500122070312,-70.12999725341797 C144.65699768066406,-70.38400268554688 145.5330047607422,-69.9469985961914 145.7949981689453,-69.12899780273438 C145.7949981689453,-69.12899780273438 170.1929931640625,6.86899995803833 170.1929931640625,6.86899995803833 C170.76199340820312,8.57699966430664 170.95599365234375,10.347999572753906 170.76600646972656,12.11400032043457 C170.3780059814453,17.483999252319336 166.72900390625,22.11199951171875 161.4720001220703,23.84600067138672 C161.4720001220703,23.84600067138672 45.02399826049805,61.25600051879883 45.02399826049805,61.25600051879883 C43.659000396728516,61.69599914550781 42.27399826049805,61.90599822998047 40.909000396728516,61.90599822998047z"/></g><g opacity="1" transform="matrix(1,0,0,1,0,0)"><path fill="rgb(238,36,114)" fill-opacity="1" d=" M77.51000213623047,13.013999938964844 C77.51000213623047,13.013999938964844 60.49599838256836,18.47800064086914 60.49599838256836,18.47800064086914 C59.03799819946289,18.945999145507812 57.474998474121094,18.14299964904785 57.00699996948242,16.684999465942383 C57.00699996948242,16.684999465942383 10.53499984741211,-128.02200317382812 10.53499984741211,-128.02200317382812 C10.067000389099121,-129.47999572753906 10.869999885559082,-131.04200744628906 12.32800006866455,-131.50999450683594 C12.32800006866455,-131.50999450683594 29.341999053955078,-136.9739990234375 29.341999053955078,-136.9739990234375 C30.799999237060547,-137.44200134277344 32.362998962402344,-136.63999938964844 32.83100128173828,-135.1820068359375 C32.83100128173828,-135.1820068359375 79.3030014038086,9.524999618530273 79.3030014038086,9.524999618530273 C79.77100372314453,10.982999801635742 78.96800231933594,12.545999526977539 77.51000213623047,13.013999938964844z"/></g><g opacity="1" transform="matrix(1,0,0,1,0,0)"><path fill="rgb(238,36,114)" fill-opacity="1" d=" M124.00299835205078,-1.9170000553131104 C124.00299835205078,-1.9170000553131104 106.98899841308594,3.546999931335449 106.98899841308594,3.546999931335449 C105.53099822998047,4.014999866485596 103.96800231933594,3.2119998931884766 103.5,1.753999948501587 C103.5,1.753999948501587 57.02799987792969,-142.9530029296875 57.02799987792969,-142.9530029296875 C56.560001373291016,-144.41099548339844 57.362998962402344,-145.97300720214844 58.82099914550781,-146.4409942626953 C58.82099914550781,-146.4409942626953 75.83499908447266,-151.90499877929688 75.83499908447266,-151.90499877929688 C77.29299926757812,-152.3730010986328 78.85600280761719,-151.5709991455078 79.3239974975586,-150.11300659179688 C79.3239974975586,-150.11300659179688 125.7959976196289,-5.406000137329102 125.7959976196289,-5.406000137329102 C126.26399993896484,-3.947999954223633 125.46099853515625,-2.384999990463257 124.00299835205078,-1.9170000553131104z"/></g><g opacity="1" transform="matrix(1,0,0,1,0,0)"><path fill="rgb(204,30,97)" fill-opacity="1" d=" M68.99600219726562,15.746000289916992 C64.56300354003906,17.180999755859375 59.917999267578125,15.829999923706055 56.92100143432617,12.663999557495117 C59.07400131225586,13.29699993133545 61.43899917602539,13.34000015258789 63.76100158691406,12.579999923706055 C69.92500305175781,10.595999717712402 73.302001953125,4.010000228881836 71.31800079345703,-2.1540000438690186 C71.31800079345703,-2.1540000438690186 30.322999954223633,-129.82200622558594 30.322999954223633,-129.82200622558594 C29.774999618530273,-131.55299377441406 28.84600067138672,-133.072998046875 27.663999557495117,-134.2969970703125 C31.295000076293945,-133.28399658203125 34.33399963378906,-130.4980010986328 35.55799865722656,-126.65599822998047 C35.55799865722656,-126.65599822998047 76.5530014038086,1.0119999647140503 76.5530014038086,1.0119999647140503 C78.53800201416016,7.176000118255615 75.16000366210938,13.76200008392334 68.99600219726562,15.746000289916992z"/></g><g opacity="1" transform="matrix(1,0,0,1,0,0)"><path fill="rgb(204,30,97)" fill-opacity="1" d=" M115.47799682617188,0.8009999990463257 C111.08699798583984,2.2360000610351562 106.4010009765625,0.8849999904632568 103.44599914550781,-2.2809998989105225 C105.5989990234375,-1.6050000190734863 107.96399688720703,-1.562999963760376 110.24299621582031,-2.322999954223633 C116.40699768066406,-4.307000160217285 119.78399658203125,-10.894000053405762 117.80000305175781,-17.058000564575195 C117.80000305175781,-17.058000564575195 76.80599975585938,-144.76800537109375 76.80599975585938,-144.76800537109375 C76.25800323486328,-146.49899291992188 75.3290023803711,-148.0189971923828 74.14700317382812,-149.2429962158203 C77.7770004272461,-148.22999572753906 80.81700134277344,-145.48500061035156 82.04100036621094,-141.6009979248047 C82.04100036621094,-141.6009979248047 123.0770034790039,-13.934000015258789 123.0770034790039,-13.934000015258789 C125.06099700927734,-7.769999980926514 121.64199829101562,-1.1829999685287476 115.47799682617188,0.8009999990463257z"/></g><g opacity="1" transform="matrix(1,0,0,1,0,0)"><path fill="rgb(255,255,255)" fill-opacity="1" d=" M151.45399475097656,10.914999961853027 C148.5709991455078,10.914999961853027 145.9409942626953,12.303000450134277 144.07200622558594,14.552000045776367 C142.17100524902344,16.801000595092773 140.99899291992188,19.875999450683594 140.99899291992188,23.288000106811523 C140.99899291992188,16.464000701904297 136.34100341796875,10.914999961853027 130.5749969482422,10.914999961853027 C133.45799255371094,10.914999961853027 136.05599975585938,9.527999877929688 137.95700073242188,7.315999984741211 C139.8260040283203,5.066999912261963 140.99899291992188,1.9919999837875366 140.99899291992188,-1.4199999570846558 C140.99899291992188,1.9919999837875366 142.17100524902344,5.066999912261963 144.07200622558594,7.315999984741211 C145.9409942626953,9.527999877929688 148.5709991455078,10.914999961853027 151.45399475097656,10.914999961853027z"/></g><g opacity="1" transform="matrix(1,0,0,1,0,0)"><path fill="rgb(255,255,255)" fill-opacity="1" d=" M126.62200164794922,-79.94100189208984 C123.89900207519531,-78.76399993896484 118.83599853515625,-84.41500091552734 115.58899688720703,-92.67400360107422 C112.33300018310547,-100.92900085449219 112.18399810791016,-108.51499938964844 114.97699737548828,-109.51000213623047 C117.78399658203125,-110.51100158691406 122.41999816894531,-104.69200134277344 125.6050033569336,-96.61799621582031 C128.77999877929688,-88.54000091552734 129.35699462890625,-81.12200164794922 126.62200164794922,-79.94100189208984z"/></g><g opacity="1" transform="matrix(1,0,0,1,0,0)"><path fill="rgb(255,255,255)" fill-opacity="1" d=" M132.30499267578125,-67.04000091552734 C131.1300048828125,-66.50299835205078 129.25100708007812,-68.0790023803711 128.14199829101562,-70.5770034790039 C127.03099822998047,-73.072998046875 127.11299896240234,-75.52300262451172 128.30299377441406,-76.03800201416016 C129.49099731445312,-76.552001953125 131.3280029296875,-74.95700073242188 132.4290008544922,-72.48400115966797 C133.52699279785156,-70.01000213623047 133.48699951171875,-67.58000183105469 132.30499267578125,-67.04000091552734z"/></g></g><g style="display: block;" transform="matrix(1,0,0,1,256,256)" opacity="1"><g opacity="1" transform="matrix(1,0,0,1,0,0)"><path fill="rgb(44,145,179)" fill-opacity="1" d=" M29.142000198364258,60.37099838256836 C29.142000198364258,60.37099838256836 22.302000045776367,73.29000091552734 22.302000045776367,73.29000091552734 C22.302000045776367,73.29000091552734 22.006999969482422,73.83799743652344 22.006999969482422,73.83799743652344 C22.006999969482422,73.83799743652344 21.964000701904297,73.83799743652344 21.964000701904297,73.83799743652344 C20.613000869750977,76.37100219726562 18.25,78.39800262451172 15.251999855041504,79.36900329589844 C15.251999855041504,79.36900329589844 -101.18599700927734,116.77400207519531 -101.18599700927734,116.77400207519531 C-107.47599792480469,118.80000305175781 -114.23200225830078,115.33799743652344 -116.25800323486328,109.0479965209961 C-116.25800323486328,109.0479965209961 -156.36500549316406,-15.833000183105469 -156.36500549316406,-15.833000183105469 C-156.36500549316406,-15.833000183105469 -165.77999877929688,-45.21699905395508 -165.77999877929688,-45.21699905395508 C-178.10800170898438,-83.63600158691406 -156.95599365234375,-124.84100341796875 -118.53800201416016,-137.16900634765625 C-111.10800170898438,-139.5330047607422 -103.59200286865234,-140.6719970703125 -96.16200256347656,-140.6719970703125 C-65.25800323486328,-140.6719970703125 -36.50699996948242,-120.91400146484375 -26.54400062561035,-89.9260025024414 C-26.54400062561035,-89.9260025024414 11.748000144958496,29.424999237060547 11.748000144958496,29.424999237060547 C11.748000144958496,29.424999237060547 22.176000595092773,61.805999755859375 22.176000595092773,61.805999755859375 C22.176000595092773,61.805999755859375 29.142000198364258,60.37099838256836 29.142000198364258,60.37099838256836z"/></g><g opacity="1" transform="matrix(1,0,0,1,0,0)"><path fill="rgb(100,88,79)" fill-opacity="1" d=" M-90.68699645996094,114.9520034790039 C-91.34100341796875,114.9520034790039 -91.95099639892578,114.53500366210938 -92.16500091552734,113.87699890136719 C-92.4229965209961,113.06099700927734 -91.9749984741211,112.18900299072266 -91.15899658203125,111.927001953125 C-91.15899658203125,111.927001953125 14.779999732971191,77.89399719238281 14.779999732971191,77.89399719238281 C17.323999404907227,77.06800079345703 19.391000747680664,75.36900329589844 20.5939998626709,73.11000061035156 C20.650999069213867,73.00499725341797 20.7189998626709,72.90599822998047 20.79599952697754,72.81900024414062 C20.79599952697754,72.81900024414062 26.229999542236328,62.551998138427734 26.229999542236328,62.551998138427734 C26.229999542236328,62.551998138427734 22.490999221801758,63.323001861572266 22.490999221801758,63.323001861572266 C21.655000686645508,63.47600173950195 20.94099998474121,63.03099822998047 20.698999404907227,62.279998779296875 C20.698999404907227,62.279998779296875 -28.02400016784668,-89.45099639892578 -28.02400016784668,-89.45099639892578 C-37.571998596191406,-119.16200256347656 -64.9540023803711,-139.1219940185547 -96.16200256347656,-139.1219940185547 C-103.54199981689453,-139.1219940185547 -110.91000366210938,-137.9669952392578 -118.06800079345703,-135.69000244140625 C-155.61500549316406,-123.64099884033203 -176.35899353027344,-83.26499938964844 -164.3040008544922,-45.689998626708984 C-164.3040008544922,-45.689998626708984 -133.5749969482422,50.05699920654297 -133.5749969482422,50.05699920654297 C-133.31700134277344,50.87300109863281 -133.76499938964844,51.74700164794922 -134.58099365234375,52.00699996948242 C-135.38400268554688,52.266998291015625 -136.26499938964844,51.823001861572266 -136.531005859375,51.005001068115234 C-136.531005859375,51.005001068115234 -167.25900268554688,-44.74399948120117 -167.25900268554688,-44.74399948120117 C-179.8350067138672,-83.947998046875 -158.1909942626953,-126.0719985961914 -119.00900268554688,-138.6439971923828 C-111.5479965209961,-141.02000427246094 -103.86100006103516,-142.22300720214844 -96.16200256347656,-142.22300720214844 C-63.60100173950195,-142.22300720214844 -35.03200149536133,-121.39700317382812 -25.06800079345703,-90.4000015258789 C-25.06800079345703,-90.4000015258789 23.22599983215332,60.00699996948242 23.22599983215332,60.00699996948242 C23.22599983215332,60.00699996948242 28.826000213623047,58.85200119018555 28.826000213623047,58.85200119018555 C29.410999298095703,58.73099899291992 30.020999908447266,58.957000732421875 30.3799991607666,59.43899917602539 C30.73900032043457,59.91899871826172 30.79199981689453,60.566001892089844 30.509000778198242,61.095001220703125 C30.509000778198242,61.095001220703125 23.371000289916992,74.57099914550781 23.371000289916992,74.57099914550781 C23.31399917602539,74.68000030517578 23.246000289916992,74.77899932861328 23.165000915527344,74.87000274658203 C21.562000274658203,77.69000244140625 18.934999465942383,79.80500030517578 15.729000091552734,80.84500122070312 C15.729000091552734,80.84500122070312 -90.21499633789062,114.87799835205078 -90.21499633789062,114.87799835205078 C-90.37200164794922,114.9280014038086 -90.52999877929688,114.9520034790039 -90.68699645996094,114.9520034790039z"/></g><g opacity="1" transform="matrix(1,0,0,1,0,0)"><path fill="rgb(243,237,236)" fill-opacity="1" d=" M-0.3269999921321869,198.21299743652344 C-1.8890000581741333,198.72000122070312 -3.493000030517578,199.01499938964844 -5.0970001220703125,199.14199829101562 C-5.0970001220703125,199.14199829101562 -5.138999938964844,199.14199829101562 -5.138999938964844,199.14199829101562 C-6.953999996185303,199.31100463867188 -8.770999908447266,199.18499755859375 -10.543999671936035,198.88900756835938 C-12.654999732971191,198.50900268554688 -14.722999572753906,197.83299255371094 -16.665000915527344,196.9040069580078 C-23.841999053955078,193.44200134277344 -29.753000259399414,186.39199829101562 -31.86400032043457,177.31500244140625 C-31.86400032043457,177.31500244140625 -44.61399841308594,123.19200134277344 -44.61399841308594,123.19200134277344 C-44.61399841308594,123.19200134277344 -54.957000732421875,79.28399658203125 -54.957000732421875,79.28399658203125 C-54.957000732421875,79.28399658203125 -25.108999252319336,69.70099639892578 -25.108999252319336,69.70099639892578 C-25.108999252319336,69.70099639892578 -14.722999572753906,95.03199768066406 -14.722999572753906,95.03199768066406 C-14.722999572753906,95.03199768066406 -14.722999572753906,95.03199768066406 -14.680999755859375,95.03199768066406 C-14.680999755859375,95.03199768066406 -3.4089999198913574,122.4739990234375 -3.4089999198913574,122.4739990234375 C-3.4089999198913574,122.4739990234375 -2.184000015258789,125.47100067138672 -2.184000015258789,125.47100067138672 C-2.184000015258789,125.47100067138672 4.105999946594238,140.79600524902344 4.105999946594238,140.79600524902344 C4.105999946594238,140.79600524902344 13.182999610900879,162.8769989013672 13.182999610900879,162.8769989013672 C19.219999313354492,177.56900024414062 12.972000122070312,193.94900512695312 -0.3269999921321869,198.21299743652344z"/></g><g opacity="1" transform="matrix(1,0,0,1,0,0)"><path fill="rgb(172,110,97)" fill-opacity="1" d=" M-0.3269999921321869,198.21299743652344 C-1.8890000581741333,198.72000122070312 -3.493000030517578,199.01499938964844 -5.0970001220703125,199.14199829101562 C-5.0970001220703125,199.14199829101562 -5.138999938964844,199.14199829101562 -5.138999938964844,199.14199829101562 C-5.181000232696533,199.0570068359375 -5.267000198364258,198.9320068359375 -5.309000015258789,198.8470001220703 C-6.913000106811523,196.01800537109375 -6.913000106811523,192.38699340820312 -5.35099983215332,189.6009979248047 C-3.4089999198913574,186.0970001220703 0.5600000023841858,184.19700622558594 2.9660000801086426,180.98800659179688 C5.879000186920166,177.10400390625 6.090000152587891,171.78500366210938 5.245999813079834,167.01400756835938 C4.443999767303467,162.2010040283203 2.6700000762939453,157.60000610351562 2.0369999408721924,152.78700256347656 C1.4889999628067017,148.69200134277344 1.9110000133514404,144.17300415039062 4.105999946594238,140.79600524902344 C4.105999946594238,140.79600524902344 13.182999610900879,162.8769989013672 13.182999610900879,162.8769989013672 C19.219999313354492,177.56900024414062 12.972000122070312,193.94900512695312 -0.3269999921321869,198.21299743652344z"/></g><g opacity="1" transform="matrix(1,0,0,1,0,0)"><path fill="rgb(172,110,97)" fill-opacity="1" d=" M-14.734999656677246,95.01399993896484 C-16.381999969482422,94.50700378417969 -17.985000610351562,94.12699890136719 -19.5049991607666,94.76000213623047 C-23.30500030517578,96.3219985961914 -22.840999603271484,102.31700134277344 -26.006999969482422,104.93499755859375 C-28.28700065612793,106.79299926757812 -31.621999740600586,106.3280029296875 -34.49300003051758,107.00299835205078 C-39.64400100708008,108.22699737548828 -43.189998626708984,113.33599853515625 -44.202999114990234,118.57099914550781 C-44.499000549316406,120.09100341796875 -44.625999450683594,121.61100006103516 -44.625999450683594,123.1729965209961 C-44.625999450683594,123.1729965209961 -54.96900177001953,79.26599884033203 -54.96900177001953,79.26599884033203 C-54.96900177001953,79.26599884033203 -25.1200008392334,69.68299865722656 -25.1200008392334,69.68299865722656 C-25.1200008392334,69.68299865722656 -14.734999656677246,95.01399993896484 -14.734999656677246,95.01399993896484z"/></g><g opacity="1" transform="matrix(1,0,0,1,0,0)"><path fill="rgb(45,191,241)" fill-opacity="1" d=" M21.79599952697754,67.08300018310547 C21.79599952697754,67.08300018310547 -94.64199829101562,104.48899841308594 -94.64199829101562,104.48899841308594 C-100.93199920654297,106.51499938964844 -107.68800354003906,103.0530014038086 -109.71399688720703,96.76300048828125 C-109.71399688720703,96.76300048828125 -149.8209991455078,-28.118999481201172 -149.8209991455078,-28.118999481201172 C-149.8209991455078,-28.118999481201172 -159.23599243164062,-57.50299835205078 -159.23599243164062,-57.50299835205078 C-171.2259979248047,-94.90899658203125 -151.51100158691406,-134.93099975585938 -115.03399658203125,-148.4409942626953 C-114.02100372314453,-148.7790069580078 -113.00700378417969,-149.11599731445312 -111.99400329589844,-149.45399475097656 C-108.23699951171875,-150.63600158691406 -104.43699645996094,-151.5229949951172 -100.63700103759766,-152.156005859375 C-96.96399688720703,-152.66299438476562 -93.29100036621094,-152.95799255371094 -89.61799621582031,-152.95799255371094 C-60.95199966430664,-152.95799255371094 -34.14400100708008,-135.94500732421875 -22.492000579833984,-108.75599670410156 C-21.520999908447266,-106.6449966430664 -20.716999053955078,-104.44999694824219 -20,-102.21199798583984 C-20,-102.21199798583984 -17.847000122070312,-95.54100036621094 -17.847000122070312,-95.54100036621094 C-17.847000122070312,-95.54100036621094 -16.201000213623047,-90.3479995727539 -16.201000213623047,-90.3479995727539 C-16.201000213623047,-90.3479995727539 18.29199981689453,17.138999938964844 18.29199981689453,17.138999938964844 C18.29199981689453,17.138999938964844 29.52199935913086,52.05400085449219 29.52199935913086,52.05400085449219 C31.54800033569336,58.34400177001953 28.086000442504883,65.05699920654297 21.79599952697754,67.08300018310547z"/></g><g opacity="1" transform="matrix(1,0,0,1,0,0)"><path fill="rgb(46,191,239)" fill-opacity="1" d=" M-22.492000579833984,-108.75599670410156 C-22.7450008392334,-107.91200256347656 -23.124000549316406,-107.10900115966797 -23.631000518798828,-106.39099884033203 C-25.31999969482422,-103.85800170898438 -28.56999969482422,-102.16999816894531 -31.44099998474121,-103.14099884033203 C-33.93199920654297,-103.98500061035156 -35.45199966430664,-106.51799774169922 -36.2130012512207,-109.0510025024414 C-36.93000030517578,-111.6259994506836 -37.05699920654297,-114.28600311279297 -37.94300079345703,-116.7770004272461 C-39.96900177001953,-122.68699645996094 -46.301998138427734,-126.82499694824219 -52.54999923706055,-126.2760009765625 C-55.75899887084961,-126.02300262451172 -59.22100067138672,-124.62899780273438 -62.17599868774414,-126.06500244140625 C-67.28399658203125,-128.55599975585938 -66.05999755859375,-136.78799438476562 -70.23999786376953,-140.6719970703125 C-72.81500244140625,-143.12100219726562 -76.78399658203125,-143.20599365234375 -80.28800201416016,-142.61500549316406 C-83.75,-142.0659942626953 -87.25399780273438,-140.9250030517578 -90.75800323486328,-141.4320068359375 C-94.13600158691406,-141.89700317382812 -97.21800231933594,-143.96600341796875 -98.99099731445312,-146.87899780273438 C-99.96199798583984,-148.4409942626953 -100.5530014038086,-150.29800415039062 -100.63700103759766,-152.156005859375 C-96.96399688720703,-152.66299438476562 -93.29100036621094,-152.95799255371094 -89.61799621582031,-152.95799255371094 C-60.95199966430664,-152.95799255371094 -34.14400100708008,-135.94500732421875 -22.492000579833984,-108.75599670410156z"/></g><g opacity="1" transform="matrix(1,0,0,1,0,0)"><path fill="rgb(46,191,239)" fill-opacity="1" d=" M-16.201000213623047,-90.3479995727539 C-18.354000091552734,-86.29499816894531 -22.492000579833984,-83.21299743652344 -27.135000228881836,-82.79100036621094 C-27.558000564575195,-82.7490005493164 -27.937000274658203,-82.7490005493164 -28.316999435424805,-82.7490005493164 C-34.606998443603516,-82.7490005493164 -40.560001373291016,-87.43599700927734 -41.9109992980957,-93.64199829101562 C-42.417999267578125,-96.0479965209961 -42.25,-98.4540023803711 -42.12300109863281,-100.7760009765625 C-41.99599838256836,-102.25399780273438 -41.9109992980957,-103.64800262451172 -41.99599838256836,-105.08300018310547 C-42.165000915527344,-108.16500091552734 -43.854000091552734,-111.6259994506836 -46.597999572753906,-112.00599670410156 C-48.03300094604492,-112.21700286865234 -49.595001220703125,-111.5 -51.242000579833984,-110.78199768066406 C-52.676998138427734,-110.14900207519531 -54.112998962402344,-109.51499938964844 -55.75899887084961,-109.26200103759766 C-60.44599914550781,-108.62899780273438 -64.625,-111.87999725341797 -66.9469985961914,-115.13099670410156 C-68.25599670410156,-116.94599914550781 -69.22699737548828,-118.93000030517578 -70.197998046875,-120.78800201416016 C-71,-122.39199829101562 -71.76000213623047,-123.87000274658203 -72.68900299072266,-125.26300048828125 C-73.74400329589844,-126.90899658203125 -76.65699768066406,-130.66700744628906 -80.6259994506836,-130.66700744628906 C-82.82099914550781,-130.66700744628906 -84.88999938964844,-129.52699279785156 -87.08499908447266,-128.30299377441406 C-88.77400207519531,-127.3740005493164 -90.50499725341797,-126.40299987792969 -92.4469985961914,-125.85399627685547 C-99.58200073242188,-123.87000274658203 -106.84300231933594,-128.59800720214844 -110.38899993896484,-134.2550048828125 C-113.09200286865234,-138.60299682617188 -114.27400207519531,-143.6280059814453 -115.03399658203125,-148.4409942626953 C-114.02100372314453,-148.7790069580078 -113.00700378417969,-149.11599731445312 -111.99400329589844,-149.45399475097656 C-111.2760009765625,-144.76800537109375 -110.17900085449219,-139.91299438476562 -107.68800354003906,-135.94400024414062 C-104.7750015258789,-131.25799560546875 -98.86399841308594,-127.3740005493164 -93.29100036621094,-128.8939971923828 C-91.72899627685547,-129.35800170898438 -90.2509994506836,-130.20199584960938 -88.64700317382812,-131.08900451660156 C-86.197998046875,-132.44000244140625 -83.66600036621094,-133.83299255371094 -80.6259994506836,-133.83299255371094 C-80.6259994506836,-133.83299255371094 -80.625,-133.83299255371094 -80.58300018310547,-133.83299255371094 C-76.6989974975586,-133.83299255371094 -72.85800170898438,-131.34300231933594 -70.02899932861328,-126.99400329589844 C-69.01599884033203,-125.4739990234375 -68.21299743652344,-123.8270034790039 -67.36900329589844,-122.26499938964844 C-66.44000244140625,-120.36499786376953 -65.55400085449219,-118.59200286865234 -64.37200164794922,-116.98799896240234 C-62.55699920654297,-114.49700164794922 -59.474998474121094,-111.96399688720703 -56.18199920654297,-112.4280014038086 C-55,-112.59700012207031 -53.81700134277344,-113.10399627685547 -52.54999923706055,-113.69499969482422 C-50.650001525878906,-114.53900146484375 -48.540000915527344,-115.46900177001953 -46.132999420166016,-115.1729965209961 C-41.4900016784668,-114.54000091552734 -39.08399963378906,-109.55799865722656 -38.83000183105469,-105.25199890136719 C-38.744998931884766,-103.64800262451172 -38.82899856567383,-102.08499908447266 -38.95600128173828,-100.56500244140625 C-39.08300018310547,-98.37000274658203 -39.209999084472656,-96.3010025024414 -38.83000183105469,-94.31700134277344 C-37.731998443603516,-89.29299926757812 -32.53900146484375,-85.45099639892578 -27.430999755859375,-85.95800018310547 C-22.576000213623047,-86.37999725341797 -18.354000091552734,-90.72799682617188 -17.847000122070312,-95.54100036621094 C-17.847000122070312,-95.54100036621094 -16.201000213623047,-90.3479995727539 -16.201000213623047,-90.3479995727539z"/></g><g opacity="1" transform="matrix(1,0,0,1,0,0)"><path fill="rgb(46,191,239)" fill-opacity="1" d=" M21.79599952697754,67.08300018310547 C21.79599952697754,67.08300018310547 -94.64199829101562,104.48899841308594 -94.64199829101562,104.48899841308594 C-100.93199920654297,106.51499938964844 -107.68800354003906,103.0530014038086 -109.71399688720703,96.76300048828125 C-109.71399688720703,96.76300048828125 -149.8209991455078,-28.118999481201172 -149.8209991455078,-28.118999481201172 C-142.26400756835938,-18.197999954223633 -134.2429962158203,-8.656000137329102 -124.27899932861328,-1.2259999513626099 C-112.03600311279297,7.935999870300293 -96.2040023803711,13.467000007629395 -81.25900268554688,10.08899974822998 C-69.35299682617188,7.428999900817871 -58.5880012512207,-0.7200000286102295 -46.387001037597656,-0.2549999952316284 C-35.790000915527344,0.16699999570846558 -26.672000885009766,7.006999969482422 -17.76300048828125,12.791000366210938 C-8.854999542236328,18.575000762939453 2.0369999408721924,23.72599983215332 12.085000038146973,20.305999755859375 C14.322999954223633,19.58799934387207 16.350000381469727,18.447999954223633 18.29199981689453,17.138999938964844 C18.29199981689453,17.138999938964844 29.52199935913086,52.05400085449219 29.52199935913086,52.05400085449219 C31.54800033569336,58.34400177001953 28.086000442504883,65.05699920654297 21.79599952697754,67.08300018310547z"/></g><g opacity="1" transform="matrix(1,0,0,1,0,0)"><path fill="rgb(100,88,79)" fill-opacity="1" d=" M-98.30500030517578,106.61699676513672 C-104.02200317382812,106.61699676513672 -109.3479995727539,102.96399688720703 -111.18900299072266,97.23899841308594 C-111.18900299072266,97.23899841308594 -160.71400451660156,-57.02899932861328 -160.71400451660156,-57.02899932861328 C-169.6929931640625,-85.0260009765625 -161.3560028076172,-115.81400299072266 -139.46200561523438,-135.46400451660156 C-138.82400512695312,-136.0330047607422 -137.8470001220703,-135.97900390625 -137.2740020751953,-135.34500122070312 C-136.7050018310547,-134.70700073242188 -136.7570037841797,-133.72799682617188 -137.39100646972656,-133.15499877929688 C-158.3769989013672,-114.322998046875 -166.37100219726562,-84.81199645996094 -157.75900268554688,-57.97600173950195 C-157.75900268554688,-57.97600173950195 -108.23699951171875,96.28800201416016 -108.23699951171875,96.28800201416016 C-106.47699737548828,101.75299835205078 -100.60700225830078,104.78199768066406 -95.12000274658203,103.01399993896484 C-95.12000274658203,103.01399993896484 21.323999404907227,65.60800170898438 21.323999404907227,65.60800170898438 C26.785999298095703,63.847999572753906 29.80299949645996,57.979000091552734 28.047000885009766,52.52899932861328 C28.047000885009766,52.52899932861328 -21.479000091552734,-101.73699951171875 -21.479000091552734,-101.73699951171875 C-27.499000549316406,-120.47000122070312 -41.16899871826172,-136.0540008544922 -58.981998443603516,-144.49400329589844 C-59.75699996948242,-144.86099243164062 -60.0880012512207,-145.78599548339844 -59.72100067138672,-146.5590057373047 C-59.354000091552734,-147.33200073242188 -58.42499923706055,-147.65899658203125 -57.65800094604492,-147.29600524902344 C-39.06999969482422,-138.49099731445312 -24.809999465942383,-122.2300033569336 -18.52400016784668,-102.68499755859375 C-18.52400016784668,-102.68499755859375 30.99799919128418,51.57899856567383 30.99799919128418,51.57899856567383 C33.275001525878906,58.65599822998047 29.363000869750977,66.2750015258789 22.273000717163086,68.55999755859375 C22.273000717163086,68.55999755859375 -94.1709976196289,105.96499633789062 -94.1709976196289,105.96499633789062 C-95.54000091552734,106.40699768066406 -96.93599700927734,106.61699676513672 -98.30500030517578,106.61699676513672z"/></g><g opacity="1" transform="matrix(1,0,0,1,0,0)"><path fill="rgb(44,145,179)" fill-opacity="1" d=" M-69.9800033569336,60.37900161743164 C-69.9800033569336,60.37900161743164 -70.44200134277344,60.52799987792969 -70.44200134277344,60.52799987792969 C-76.47100067138672,62.4640007019043 -82.92900085449219,59.145999908447266 -84.86499786376953,53.117000579833984 C-84.86499786376953,53.117000579833984 -126.02100372314453,-75.03800201416016 -126.02100372314453,-75.03800201416016 C-127.95700073242188,-81.06700134277344 -124.63899993896484,-87.52400207519531 -118.61000061035156,-89.45999908447266 C-118.61000061035156,-89.45999908447266 -118.14800262451172,-89.60900115966797 -118.14800262451172,-89.60900115966797 C-112.11900329589844,-91.54499816894531 -105.66100311279297,-88.22699737548828 -103.7249984741211,-82.197998046875 C-103.7249984741211,-82.197998046875 -62.569000244140625,45.957000732421875 -62.569000244140625,45.957000732421875 C-60.632999420166016,51.986000061035156 -63.95100021362305,58.44300079345703 -69.9800033569336,60.37900161743164z"/></g><g opacity="1" transform="matrix(1,0,0,1,0,0)"><path fill="rgb(44,145,179)" fill-opacity="1" d=" M-23.48699951171875,45.448001861572266 C-23.48699951171875,45.448001861572266 -23.948999404907227,45.59700012207031 -23.948999404907227,45.59700012207031 C-29.97800064086914,47.53300094604492 -36.43600082397461,44.21500015258789 -38.37200164794922,38.18600082397461 C-38.37200164794922,38.18600082397461 -79.52799987792969,-89.96900177001953 -79.52799987792969,-89.96900177001953 C-81.46399688720703,-95.99800109863281 -78.14600372314453,-102.45500183105469 -72.11699676513672,-104.39099884033203 C-72.11699676513672,-104.39099884033203 -71.65499877929688,-104.54000091552734 -71.65499877929688,-104.54000091552734 C-65.6259994506836,-106.47599792480469 -59.167999267578125,-103.15799713134766 -57.231998443603516,-97.12899780273438 C-57.231998443603516,-97.12899780273438 -16.076000213623047,31.025999069213867 -16.076000213623047,31.025999069213867 C-14.140000343322754,37.05500030517578 -17.45800018310547,43.512001037597656 -23.48699951171875,45.448001861572266z"/></g><g opacity="1" transform="matrix(1,0,0,1,0,0)"><path fill="rgb(50,116,138)" fill-opacity="1" d=" M-70.23899841308594,60.4109992980957 C-74.79900360107422,61.888999938964844 -79.61199951171875,60.36899948120117 -82.56700134277344,56.992000579833984 C-80.66699981689453,57.41400146484375 -78.5979995727539,57.32899856567383 -76.61399841308594,56.69599914550781 C-70.44999694824219,54.71200180053711 -67.072998046875,48.125999450683594 -69.05699920654297,41.96200180053711 C-69.05699920654297,41.96200180053711 -110.0510025024414,-85.74800109863281 -110.0510025024414,-85.74800109863281 C-110.55799865722656,-87.30999755859375 -111.36000061035156,-88.7030029296875 -112.41500091552734,-89.84300231933594 C-108.44599914550781,-89.04100036621094 -105.0270004272461,-86.16999816894531 -103.6760025024414,-82.03299713134766 C-103.6760025024414,-82.03299713134766 -62.63999938964844,45.676998138427734 -62.63999938964844,45.676998138427734 C-60.698001861572266,51.840999603271484 -64.07499694824219,58.426998138427734 -70.23899841308594,60.4109992980957z"/></g><g opacity="1" transform="matrix(1,0,0,1,0,0)"><path fill="rgb(50,116,138)" fill-opacity="1" d=" M-23.71500015258789,45.465999603271484 C-28.316999435424805,46.944000244140625 -33.12900161743164,45.465999603271484 -36.08399963378906,42.04600143432617 C-34.141998291015625,42.46799850463867 -32.11600112915039,42.38399887084961 -30.131999969482422,41.750999450683594 C-23.968000411987305,39.766998291015625 -20.548999786376953,33.180999755859375 -22.533000946044922,27.017000198364258 C-22.533000946044922,27.017000198364258 -63.569000244140625,-100.6510009765625 -63.569000244140625,-100.6510009765625 C-64.07599639892578,-102.21299743652344 -64.87799835205078,-103.60700225830078 -65.93299865722656,-104.78900146484375 C-61.9640007019043,-103.98699951171875 -58.50299835205078,-101.11599731445312 -57.152000427246094,-96.93599700927734 C-57.152000427246094,-96.93599700927734 -16.158000946044922,30.73200035095215 -16.158000946044922,30.73200035095215 C-14.173999786376953,36.895999908447266 -17.593000411987305,43.481998443603516 -23.71500015258789,45.465999603271484z"/></g><g opacity="1" transform="matrix(1,0,0,1,0,0)"><path fill="rgb(172,110,97)" fill-opacity="1" d=" M-1.2979999780654907,168.9980010986328 C-3.2820000648498535,170.77099609375 -5.815000057220459,171.1510009765625 -8.220999717712402,171.48899841308594 C-9.402999877929688,171.6580047607422 -10.543999671936035,171.8260040283203 -11.557000160217285,172.1219940185547 C-15.440999984741211,173.38800048828125 -18.481000900268555,177.69500732421875 -18.733999252319336,182.38099670410156 C-18.94499969482422,186.56100463867188 -17.214000701904297,191.16299438476562 -13.878999710083008,195.3000030517578 C-12.866000175476074,196.56700134277344 -11.72599983215332,197.74899291992188 -10.543999671936035,198.88900756835938 C-12.654999732971191,198.50900268554688 -14.722999572753906,197.83299255371094 -16.665000915527344,196.9040069580078 C-20.253999710083008,192.25999450683594 -22.111000061035156,187.0679931640625 -21.899999618530273,182.21299743652344 C-21.562000274658203,176.13400268554688 -17.719999313354492,170.77099609375 -12.484999656677246,169.125 C-11.218000411987305,168.7030029296875 -9.90999984741211,168.53399658203125 -8.685999870300293,168.36500549316406 C-6.617000102996826,168.06900024414062 -4.675000190734863,167.7740020751953 -3.4089999198913574,166.63400268554688 C-1.2979999780654907,164.73399353027344 -1.7200000286102295,160.89300537109375 -3.197999954223633,158.27499389648438 C-4.084000110626221,156.67100524902344 -5.265999794006348,155.27699279785156 -6.5329999923706055,153.7570037841797 C-7.672999858856201,152.36399841308594 -8.897000312805176,150.9709930419922 -9.868000030517578,149.36700439453125 C-13.246000289916992,143.83599853515625 -13.666999816894531,136.7429962158203 -10.92300033569336,130.875 C-9.319000244140625,127.37100219726562 -6.659999847412109,124.45800018310547 -3.4089999198913574,122.4739990234375 C-3.4089999198913574,122.4739990234375 -2.184000015258789,125.47100067138672 -2.184000015258789,125.47100067138672 C-4.7170000076293945,127.16000366210938 -6.785999774932861,129.48199462890625 -8.052000045776367,132.2259979248047 C-10.289999961853027,137.08099365234375 -9.95300006866455,143.16099548339844 -7.165999889373779,147.67799377441406 C-6.28000020980835,149.11300659179688 -5.223999977111816,150.3800048828125 -4.125999927520752,151.7310028076172 C-2.816999912261963,153.25100708007812 -1.465999960899353,154.85499572753906 -0.453000009059906,156.71299743652344 C1.7000000476837158,160.51199340820312 2.0799999237060547,165.95799255371094 -1.2979999780654907,168.9980010986328z"/></g><g opacity="1" transform="matrix(1,0,0,1,0,0)"><path fill="rgb(255,255,255)" fill-opacity="1" d=" M-66.375,6.171000003814697 C-69.25800323486328,6.171000003814697 -71.88800048828125,7.559000015258789 -73.75700378417969,9.807999610900879 C-75.65799713134766,12.057000160217285 -76.83000183105469,15.130999565124512 -76.83000183105469,18.542999267578125 C-76.83000183105469,11.718999862670898 -81.48699951171875,6.171000003814697 -87.25299835205078,6.171000003814697 C-84.37000274658203,6.171000003814697 -81.77200317382812,4.783999919891357 -79.87100219726562,2.572000026702881 C-78.00199890136719,0.3230000138282776 -76.83000183105469,-2.752000093460083 -76.83000183105469,-6.164000034332275 C-76.83000183105469,-2.752000093460083 -75.65799713134766,0.3230000138282776 -73.75700378417969,2.572000026702881 C-71.88800048828125,4.783999919891357 -69.25800323486328,6.171000003814697 -66.375,6.171000003814697z"/></g><g opacity="1" transform="matrix(1,0,0,1,0,0)"><path fill="rgb(255,255,255)" fill-opacity="1" d=" M-79.85600280761719,-10.187000274658203 C-81.89900207519531,-10.187000274658203 -83.76200103759766,-9.204000473022461 -85.08699798583984,-7.610000133514404 C-86.43399810791016,-6.015999794006348 -87.26499938964844,-3.8380000591278076 -87.26499938964844,-1.4199999570846558 C-87.26499938964844,-6.255000114440918 -90.56500244140625,-10.187000274658203 -94.6510009765625,-10.187000274658203 C-92.60800170898438,-10.187000274658203 -90.76699829101562,-11.170000076293945 -89.41999816894531,-12.737000465393066 C-88.09500122070312,-14.331000328063965 -87.26499938964844,-16.510000228881836 -87.26499938964844,-18.92799949645996 C-87.26499938964844,-16.510000228881836 -86.43399810791016,-14.331000328063965 -85.08699798583984,-12.737000465393066 C-83.76200103759766,-11.170000076293945 -81.89900207519531,-10.187000274658203 -79.85600280761719,-10.187000274658203z"/></g><g opacity="1" transform="matrix(1,0,0,1,0,0)"><path fill="rgb(255,255,255)" fill-opacity="1" d=" M-141.63600158691406,-104.5459976196289 C-138.843994140625,-103.27899932861328 -140.36300659179688,-94.30899810791016 -140.3730010986328,-83.77999877929688 C-140.63499450683594,-73.25599670410156 -139.13600158691406,-64.4010009765625 -141.927001953125,-63.09299850463867 C-143.21800231933594,-62.542999267578125 -145.56100463867188,-64.24299621582031 -147.5590057373047,-67.99299621582031 C-149.5919952392578,-71.69400024414062 -151.22999572753906,-77.45600128173828 -151.13699340820312,-83.89900207519531 C-151.08599853515625,-90.34300231933594 -149.3470001220703,-96.0270004272461 -147.28700256347656,-99.68599700927734 C-145.23300170898438,-103.37999725341797 -142.98699951171875,-105.11000061035156 -141.63600158691406,-104.5459976196289z"/></g><g opacity="1" transform="matrix(1,0,0,1,0,0)"><path fill="rgb(255,255,255)" fill-opacity="1" d=" M-131.70700073242188,-120.4469985961914 C-130.71499633789062,-119.50499725341797 -131.93899536132812,-116.80000305175781 -133.87399291992188,-113.947998046875 C-135.85800170898438,-111.13300323486328 -138.08200073242188,-109.11000061035156 -139.2209930419922,-109.68299865722656 C-140.3979949951172,-110.27200317382812 -139.91900634765625,-113.50700378417969 -137.7169952392578,-116.64099884033203 C-135.5570068359375,-119.80899810791016 -132.58399963378906,-121.29900360107422 -131.70700073242188,-120.4469985961914z"/></g></g></g></svg>