<svg id="SvgjsSvg1001" width="550" height="550" xmlns="http://www.w3.org/2000/svg" version="1.1" xmlns:xlink="http://www.w3.org/1999/xlink" xmlns:svgjs="http://svgjs.com/svgjs"><defs id="SvgjsDefs1002"></defs><g id="SvgjsG1008"><svg xmlns="http://www.w3.org/2000/svg" enable-background="new 0 0 600 500" viewBox="0 0 600 500" width="550" height="550"><path fill="#d2dbff" d="M552.1 147.3c-8.9 82.8-43.6 209.4-36.8 215 25.8 21.6 30.3 25.4 34.3 45.6v.2c2 10.4-6.1 19.9-16.6 19.9H60.7c-9 0-16.5-7.1-16.9-16.1-.4-9 .9-18.2 4.1-26.6 5.8-15.6 17.4-29.3 18.8-46C66.6 339.2-9 60.2 185 59.6c42.5-.1 113.9-.2 159.5.2C361 60 461.2 57.7 516.3 88c23.6 12.8 38.7 32.1 35.8 59.3z" opacity=".3" class="colord2e4ff svgShape"></path><path fill="#c6d0fa" d="M429 353.1h-31.6c-.2 0-.4-.2-.4-.4s.2-.4.4-.4H429c.2 0 .4.2.4.4s-.2.4-.4.4zM429 368.8h-31.6c-.2 0-.4-.2-.4-.4s.2-.4.4-.4H429c.2 0 .4.2.4.4s-.2.4-.4.4zM423.2 361h-44.8c-.2 0-.4-.2-.4-.4s.2-.4.4-.4h44.8c.2 0 .4.2.4.4s-.1.4-.4.4z" class="colorc6e2fa svgShape"></path><path fill="#c6d0fa" d="M403.9 353.1c-.2 0-.4-.2-.4-.4V346c0-.2.2-.4.4-.4s.4.2.4.4v6.7c-.1.3-.2.4-.4.4zM415 361c-.2 0-.4-.2-.4-.4v-7.8c0-.2.2-.4.4-.4s.4.2.4.4v7.8c0 .2-.2.4-.4.4zM406.5 368.6c-.2 0-.4-.2-.4-.4v-7.6c0-.2.2-.4.4-.4s.4.2.4.4v7.6c0 .2-.2.4-.4.4z" class="colorc6e2fa svgShape"></path><path fill="#2b2c34" d="M189 281c-1.3 0-2.7-.1-4-.2l.1-1c1.3.1 2.6.2 4 .2l-.1 1zm4-.1-.1-1c1.3-.1 2.7-.2 3.9-.4l.2 1c-1.3.1-2.6.3-4 .4zm-12.1-.7c-1.1-.2-2.3-.4-3.4-.7l-.5-.1.2-1 .5.1c1.1.3 2.2.5 3.3.7l-.1 1zm20.1-.6-.2-1c1.3-.3 2.6-.7 3.8-1.2l.3.9c-1.3.6-2.6 1-3.9 1.3zm-27.9-1.4c-1.3-.4-2.5-.9-3.8-1.4l.4-.9c1.2.5 2.5.9 3.7 1.3l-.3 1zm35.5-1.4-.5-.9c1.2-.6 2.3-1.3 3.4-2l.6.8c-1.1.8-2.3 1.5-3.5 2.1zm-43-1.5c-1.2-.5-2.4-1.1-3.6-1.7l.5-.9c1.2.6 2.4 1.2 3.6 1.7l-.5.9zm-7.2-3.6c-1.1-.6-2.3-1.3-3.5-2l.5-.9c1.2.7 2.3 1.4 3.4 2l-.4.9zm-6.8-4.2c-1.1-.7-2.2-1.5-3.3-2.2l.6-.8c1.1.7 2.2 1.5 3.3 2.2l-.6.8zm-6.7-4.5c-1.1-.8-2.2-1.5-3.3-2.3l.6-.8c1.1.8 2.2 1.6 3.3 2.3l-.6.8zm-6.5-4.7c-1.1-.8-2.1-1.6-3.2-2.4l.6-.8c1.1.8 2.1 1.6 3.2 2.4l-.6.8zm-6.3-4.9c-1-.8-2.1-1.7-3.1-2.5l.6-.8c1 .9 2 1.7 3.1 2.5l-.6.8zm-6.2-5.1-3-2.7.7-.7 3 2.7-.7.7zm-5.9-5.4c-1-.9-1.9-1.9-2.9-2.8l.7-.7c.9.9 1.9 1.9 2.9 2.8l-.7.7zm-5.7-5.7c-.9-1-1.8-1.9-2.7-2.9l.7-.7c.9 1 1.8 1.9 2.7 2.9l-.7.7zm-5.4-5.9c-.9-1-1.7-2-2.6-3.1l.8-.6c.8 1 1.7 2 2.6 3l-.8.7zm-5.1-6.2c-.8-1.1-1.6-2.1-2.4-3.2l.8-.6c.8 1.1 1.6 2.1 2.4 3.2l-.8.6zm-4.8-6.5c-.8-1.1-1.5-2.2-2.2-3.3l.8-.5c.7 1.1 1.5 2.2 2.2 3.3l-.8.5zm-4.4-6.7c-.7-1.1-1.4-2.3-2-3.5l.9-.5c.7 1.2 1.3 2.3 2 3.4l-.9.6zm-3.9-7-1.8-3.6.9-.4 1.8 3.6-.9.4zm-3.5-7.2c-.5-1.2-1.1-2.5-1.5-3.7l.9-.4c.5 1.2 1 2.5 1.5 3.7l-.9.4zm-2.9-7.5c-.4-1.3-.9-2.5-1.3-3.8l1-.3c.4 1.3.8 2.5 1.2 3.8l-.9.3zm-2.4-7.7c-.3-1.3-.7-2.6-1-3.9l1-.2c.3 1.3.6 2.6 1 3.9l-1 .2zm-1.8-7.8c-.2-1.3-.5-2.6-.7-4l1-.1.6 3.9-.9.2zm-1.1-8c-.1-1.3-.2-2.7-.3-4l1-.1c.1 1.3.2 2.6.3 4l-1 .1zm-.5-8v-4h1v4h-1zm1.3-8-1-.1c.1-1.3.2-2.7.4-4l1 .1c-.2 1.4-.3 2.7-.4 4zm.9-7.9-1-.2c.2-1.3.5-2.6.8-3.9l1 .2c-.3 1.3-.5 2.6-.8 3.9zm1.8-7.7-1-.3c.3-.9.5-1.9.8-2.8.1-.3.2-.7.3-1l.9.3c-.1.3-.2.7-.3 1-.2.9-.4 1.9-.7 2.8zm246.8-2h-1.2v-1h3.9v1h-2.7zm-5.2-.1c-.4 0-.9 0-1.3-.1-.9 0-1.8-.1-2.7-.1l.1-1c.9.1 1.8.1 2.7.1.4 0 .9 0 1.3.1l-.1 1zm12.1-.1v-1c1.3-.1 2.7-.1 4-.2l.1 1c-1.5.1-2.8.2-4.1.2zm-20.1-.4c-1.3-.1-2.7-.3-4-.4l.1-1c1.3.1 2.6.3 4 .4l-.1 1zm28.1-.1-.1-1c1.3-.1 2.6-.3 4-.4l.1 1c-1.4.1-2.7.3-4 .4zm-36.1-.8c-1.3-.2-2.6-.4-4-.6l.2-1 3.9.6-.1 1zm44-.2-.1-1 3.9-.6.2 1c-1.3.3-2.6.5-4 .6zm-51.9-1.1c-1.3-.2-2.6-.5-3.9-.8l.2-1c1.3.3 2.6.5 3.9.8l-.2 1zm59.8-.1-.2-1c1.3-.2 2.6-.5 3.9-.8l.2 1c-1.2.3-2.5.5-3.9.8zm-67.6-1.5-3.9-.9.2-1 3.9.9-.2 1zm75.5-.2-.2-1 3.9-.9.2 1-3.9.9zM85 127.6l-.9-.4c.5-1.2 1-2.5 1.6-3.7l.9.4c-.6 1.2-1.1 2.4-1.6 3.7zm199.6-.8c-1.3-.3-2.6-.7-3.9-1.1l.3-1c1.3.4 2.6.7 3.8 1.1l-.2 1zm91.1-.2-.3-1c1.3-.3 2.6-.7 3.8-1.1l.3 1c-1.2.4-2.5.8-3.8 1.1zm-98.8-2.1c-1.3-.4-2.6-.8-3.8-1.2l.3-1c1.3.4 2.5.8 3.8 1.2l-.3 1zm106.5-.1-.3-1c1.3-.4 2.5-.8 3.8-1.2l.3 1c-1.3.4-2.5.8-3.8 1.2zm-114.1-2.3c-1.3-.4-2.5-.9-3.8-1.3l.3-.9c1.3.4 2.5.9 3.8 1.3l-.3.9zm121.7-.2-.3-.9c1.3-.4 2.5-.9 3.8-1.3l.3.9c-1.3.4-2.5.9-3.8 1.3zm-302.6-1.5-.9-.5c.6-1.2 1.3-2.4 2-3.5l.9.5c-.8 1.1-1.4 2.3-2 3.5zm173.3-1c-1.3-.5-2.5-.9-3.8-1.4l.4-.9c1.2.5 2.5.9 3.7 1.4l-.3.9zm136.8-.2-.4-.9c1.2-.5 2.5-1 3.7-1.4l.4.9c-1.2.4-2.4.9-3.7 1.4zm-144.3-2.6c-1.2-.5-2.5-1-3.7-1.5l.4-.9c1.2.5 2.5 1 3.7 1.5l-.4.9zm151.8-.4-.4-.9c1.2-.5 2.4-1.1 3.6-1.6l.4.9c-1.2.5-2.4 1.1-3.6 1.6zm-159.2-2.6c-1.2-.5-2.5-1-3.7-1.5l.4-.9c1.2.5 2.5 1 3.7 1.5l-.4.9zm-154.3 0-.8-.6c.7-1.1 1.5-2.2 2.3-3.3l.8.6c-.8 1.1-1.6 2.2-2.3 3.3zm320.8-.9-.5-.9c1.2-.6 2.3-1.2 3.5-1.9l.5.9c-1.2.7-2.4 1.3-3.5 1.9zm-173.9-2.2c-1.2-.5-2.5-1-3.7-1.6l.4-.9c1.2.5 2.4 1.1 3.7 1.6l-.4.9zm180.9-1.6-.5-.9c1.1-.6 2.3-1.3 3.5-2l.5.9c-1.2.7-2.3 1.4-3.5 2zM232 107.3c-1.2-.5-2.4-1.1-3.7-1.6l.4-.9c1.2.5 2.4 1.1 3.7 1.6l-.4.9zm-134.8-.1-.8-.6 2.7-3 .7.7c-.8.9-1.7 1.9-2.6 2.9zm330-2.3-.5-.9c1.1-.7 2.3-1.4 3.4-2.1l.5.8c-1.1.8-2.2 1.5-3.4 2.2zm-202.5-.8-3.7-1.6.4-.9 3.7 1.6-.4.9zm-122-2.7-.7-.7c1-.9 2-1.9 3-2.7l.7.8c-1.1.8-2.1 1.7-3 2.6zm114.7-.5-3.6-1.6.4-.9 3.7 1.6-.5.9zm216.6-.2-.5-.8c1.1-.7 2.3-1.4 3.4-2.1l.5.8c-1.1.6-2.2 1.3-3.4 2.1zm-223.9-3.1c-1.2-.5-2.4-1.1-3.7-1.6l.4-.9c1.2.5 2.5 1.1 3.7 1.6l-.4.9zm230.7-1.3-.5-.8 3.4-2.2.5.8-3.4 2.2zm-332.2-.1-.6-.8c1.1-.8 2.1-1.6 3.2-2.4l.6.8c-1 .8-2.1 1.6-3.2 2.4zm94.2-1.8c-1.2-.5-2.5-1-3.7-1.5l.4-.9c1.2.5 2.5 1 3.7 1.5l-.4.9zM447.5 92l-.5-.8 3.4-2.2.5.8-3.4 2.2zm-332.4-.4-.5-.8c1.1-.7 2.3-1.4 3.5-2l.5.9c-1.2.6-2.3 1.2-3.5 1.9zm80.3-.2c-1.2-.5-2.5-1-3.7-1.4l.3-1c1.3.5 2.5.9 3.7 1.4l-.3 1zm-7.5-2.8c-1.3-.4-2.5-.9-3.8-1.3l.3-1c1.3.4 2.5.8 3.8 1.3l-.3 1zm-65.8-.8-.4-.9c1.2-.6 2.5-1.1 3.7-1.6l.4.9c-1.3.5-2.5 1.1-3.7 1.6zm58.2-1.6c-1.3-.4-2.6-.7-3.8-1.1l.3-1c1.3.3 2.6.7 3.9 1.1l-.4 1zm-50.8-1.3-.3-.9 3.9-1.2.3 1c-1.4.3-2.7.6-3.9 1.1zm43.1-.8c-1.3-.3-2.6-.6-3.9-.8l.2-1c1.3.3 2.6.5 3.9.8l-.2 1zm-35.5-1.3-.2-1c.6-.1 1.3-.3 1.9-.4.7-.1 1.4-.2 2-.3l.1 1c-.7.1-1.3.2-2 .3-.5.2-1.1.3-1.8.4zm27.7-.2c-1.3-.2-2.7-.4-3.9-.5l.1-1c1.3.2 2.6.3 4 .5l-.2 1zm-19.8-.9-.1-1c1.3-.1 2.7-.2 4-.2v1c-1.3 0-2.6.1-3.9.2zm11.9-.1c-1.3-.1-2.7-.2-4-.2v-1c1.3 0 2.7.1 4 .2v1z" class="color060405 svgShape"></path><path fill="#bfbfbf" d="M388.1 99v320.1c0 3.7-3 6.6-6.6 6.6H135.4c-.8 0-1.6-.2-2.3-.4-2.5-.9-4.3-3.4-4.3-6.2V99c0-3.7 3-6.6 6.6-6.6h246.1c3.7-.1 6.6 2.9 6.6 6.6z" class="colorbdd6ff svgShape"></path><path fill="#ffffff" d="M142 109.1h234.3v302.8H142z" class="colorfff svgShape"></path><path fill="#2b2c34" d="M291.8 115.8h-65.2c-3.3 0-6-2.7-6-6V81.9c0-3.3 2.7-6 6-6h65.2c3.3 0 6 2.7 6 6v27.9c0 3.3-2.7 6-6 6zm-65.2-35.6c-1 0-1.8.8-1.8 1.7v27.9c0 1 .8 1.7 1.8 1.7h65.2c1 0 1.7-.8 1.7-1.7V81.9c0-1-.8-1.7-1.7-1.7h-65.2z" class="color060405 svgShape"></path><path fill="#2b2c34" d="M316 103.6v23.2c0 1.8-1.5 3.2-3.3 3.2H205.6c-1.8 0-3.2-1.4-3.2-3.2v-23.2c0-1.8 1.4-3.2 3.2-3.2h107.1c1.8 0 3.3 1.4 3.3 3.2z" class="color060405 svgShape"></path><path fill="#ffffff" d="M347.5 271.2c2.6-8.6 4-17.7 4-27.2 0-51.6-41.8-93.4-93.4-93.4s-93.4 41.8-93.4 93.4c0 9.5 1.4 18.6 4 27.2h178.8z" class="colorfff svgShape"></path><path d="M347.8 271.7H168.4l-.1-.4c-2.7-8.8-4.1-18-4.1-27.4 0-51.8 42.1-93.9 93.9-93.9s93.9 42.2 93.9 94c0 9.3-1.4 18.5-4.1 27.4l-.1.3zm-178.7-1h178c2.6-8.6 3.9-17.6 3.9-26.7 0-51.2-41.7-92.9-92.9-92.9s-92.9 41.7-92.9 92.9c0 9.1 1.4 18.1 3.9 26.7z" fill="#000000" class="color000 svgShape"></path><path fill="#787878" d="M258.1 161.4v37.8c12.3 0 23.4 5 31.5 13l26.8-26.6c-14.9-14.9-35.5-24.2-58.3-24.2z" class="colorefc102 svgShape"></path><path fill="#4263eb" d="M258.1 199.2v-37.8c-22.8 0-43.4 9.3-58.3 24.2 5.5 5.4 13.4 13.3 26.8 26.6 8.1-8 19.2-13 31.5-13z" class="color6193f6 svgShape"></path><path fill="#a2a2a2" d="M340.6 240.5c.1 1.6-1.2 2.9-2.8 2.9h-32.3c-1.5 0-2.6-1.1-2.7-2.6-.8-11.2-5.7-21.2-13.2-28.7l26.8-26.6c14.3 14.3 23.3 33.6 24.2 55z" class="colorff7545 svgShape"></path><path fill="#bfbfbf" d="M199.8 185.6c5.5 5.4 13.4 13.3 26.8 26.6-7.5 7.4-12.4 17.5-13.2 28.7-.1 1.5-1.3 2.6-2.7 2.6h-32.3c-1.6 0-2.8-1.3-2.8-2.9.9-21.5 10-40.8 24.2-55z" class="colorbdd6ff svgShape"></path><path fill="#2b2c34" d="M269.2 243.4c0 6.1-4.9 11-11 11s-11-4.9-11-11 11-36.3 11-36.3 11 30.2 11 36.3z" class="color060405 svgShape"></path><path fill="#ffffff" d="M193.1 230.2c-2.1-.6-3.3-2.7-2.7-4.7 8.3-30.4 36.2-51.7 67.8-51.7 14.7 0 28.8 4.5 40.7 13 1.7 1.2 2.1 3.6.9 5.4-1.2 1.7-3.6 2.1-5.4.9-10.6-7.6-23.2-11.6-36.3-11.6-28.1 0-52.9 18.9-60.3 46-.6 2-2.7 3.2-4.7 2.7zM318.5 227.5c-1.6-5.9-4.1-11.5-7.3-16.7-1.1-1.8-.6-4.2 1.2-5.3 1.8-1.1 4.2-.6 5.3 1.2 3.7 5.8 6.4 12.1 8.2 18.8.6 2.1-.6 4.2-2.7 4.7s-4.2-.7-4.7-2.7z" opacity=".1" class="colorfff svgShape"></path><circle cx="258.1" cy="243.4" r="5.5" fill="#ffffff" class="colorfff svgShape"></circle><path d="M182.2 251.2c-.5-.3-1.1-.4-1.8-.4h-2.5c-.2 0-.4.1-.5.2-.1.1-.2.3-.2.5v6.7c0 .2.1.4.2.5.1.1.3.2.5.2s.4-.1.5-.2c.1-.1.2-.3.2-.5v-2.1h1.7c.7 0 1.3-.1 1.8-.4.5-.3.8-.6 1-1 .2-.4.3-.8.3-1.3s-.1-.9-.3-1.3c0-.3-.4-.6-.9-.9zm-.1 2.3c0 .4-.1.6-.4.9-.3.2-.7.4-1.4.4h-1.6v-2.5h1.6c.7 0 1.1.1 1.4.4.3.2.4.5.4.8zM191.4 251.3c-.6-.4-1.3-.5-2.1-.5s-1.5.2-2.1.5c-.6.4-1.1.9-1.4 1.5-.3.6-.5 1.3-.5 2.2 0 .8.2 1.5.5 2.1.3.6.8 1.1 1.4 1.5.6.4 1.3.5 2.1.5s1.5-.2 2.1-.5c.6-.4 1.1-.9 1.4-1.5.3-.6.5-1.3.5-2.2 0-.8-.2-1.5-.5-2.1-.3-.7-.8-1.2-1.4-1.5zm-2.2 6.3c-.5 0-1-.1-1.4-.4-.4-.2-.7-.6-.9-1-.2-.4-.3-.9-.3-1.4 0-.5.1-1 .3-1.4.2-.4.5-.7.9-1 .4-.2.8-.4 1.4-.4.5 0 1 .1 1.4.4.4.2.7.6.9 1 .2.4.3.9.3 1.4 0 .5-.1 1-.3 1.4-.2.4-.5.7-.9 1-.4.3-.8.4-1.4.4zM201.3 251.3c-.6-.4-1.3-.5-2.1-.5s-1.5.2-2.1.5c-.6.4-1.1.9-1.4 1.5-.3.6-.5 1.3-.5 2.2 0 .8.2 1.5.5 2.1.3.6.8 1.1 1.4 1.5.6.4 1.3.5 2.1.5s1.5-.2 2.1-.5c.6-.4 1.1-.9 1.4-1.5.3-.6.5-1.3.5-2.2 0-.8-.2-1.5-.5-2.1-.3-.7-.8-1.2-1.4-1.5zm-2.1 6.3c-.5 0-1-.1-1.4-.4-.4-.2-.7-.6-.9-1-.2-.4-.3-.9-.3-1.4 0-.5.1-1 .3-1.4.2-.4.5-.7.9-1 .4-.2.8-.4 1.4-.4.5 0 1 .1 1.4.4.4.2.7.6.9 1 .2.4.3.9.3 1.4 0 .5-.1 1-.3 1.4-.2.4-.5.7-.9 1-.4.3-.9.4-1.4.4zM211.6 254.6c.3-.4.4-.9.4-1.3 0-.7-.3-1.3-.8-1.8-.5-.4-1.3-.7-2.4-.7h-2.5c-.2 0-.4.1-.5.2-.1.1-.2.3-.2.5v6.7c0 .2.1.4.2.5.3.3.8.3 1.1 0 .1-.1.2-.3.2-.5V256h2c.4 0 .7.1.9.3.2.2.3.4.4.7.1.3.1.6.1 1v.3c0 .2.1.4.2.5.1.1.3.2.5.2s.4-.1.5-.2c.1-.1.2-.3.2-.5v-.5c0-.5-.1-1.1-.3-1.6-.1-.4-.4-.7-.7-.9.3-.2.5-.4.7-.7zm-1.1-1.2c0 .4-.1.6-.4.8-.3.2-.8.3-1.3.3H207v-2.3h1.7c.9 0 1.3.2 1.5.3.2.3.3.5.3.9zM308.8 254.3h-2.2c-.2 0-.4.1-.5.2-.1.1-.2.3-.2.5s.1.4.2.5c.1.1.3.2.5.2h1.5v1.6c-1 .5-2.3.5-3.1 0-.4-.2-.7-.6-.9-1-.2-.4-.3-.9-.3-1.4 0-.6.1-1.1.3-1.5.2-.4.5-.7.9-.9.7-.4 1.7-.4 2.4-.2.3.1.6.2 1 .4.3.2.7.1.9-.1.1-.1.2-.3.2-.5 0-.1 0-.3-.1-.4l-.2-.2c-.4-.3-.8-.5-1.3-.6-.4-.1-1-.2-1.6-.2-.7 0-1.4.2-2.1.5-.6.3-1.1.8-1.5 1.5-.4.6-.5 1.4-.5 2.2 0 .8.2 1.5.5 2.1.3.6.8 1.1 1.5 1.5.6.4 1.3.5 2.1.5.9 0 1.8-.2 2.6-.6.2-.1.3-.2.4-.4.1-.2.2-.3.2-.5V255c0-.2-.1-.4-.2-.6-.1 0-.3-.1-.5-.1zM317.9 251.3c-.6-.4-1.3-.5-2.1-.5s-1.5.2-2.1.5c-.6.4-1.1.9-1.4 1.5-.3.6-.5 1.3-.5 2.2 0 .8.2 1.5.5 2.1.3.6.8 1.1 1.4 1.5.6.4 1.3.5 2.1.5s1.5-.2 2.1-.5c.6-.4 1.1-.9 1.4-1.5.3-.6.5-1.3.5-2.2 0-.8-.2-1.5-.5-2.1-.3-.7-.8-1.2-1.4-1.5zm-2.2 6.3c-.5 0-1-.1-1.4-.4-.4-.2-.7-.6-.9-1-.2-.4-.3-.9-.3-1.4 0-.5.1-1 .3-1.4.2-.4.5-.7.9-1 .4-.2.8-.4 1.4-.4.5 0 1 .1 1.4.4.4.2.7.6.9 1 .2.4.3.9.3 1.4 0 .5-.1 1-.3 1.4-.2.4-.5.7-.9 1-.4.3-.8.4-1.4.4zM327.8 251.3c-.6-.4-1.3-.5-2.1-.5s-1.5.2-2.1.5c-.6.4-1.1.9-1.4 1.5-.3.6-.5 1.3-.5 2.2 0 .8.2 1.5.5 2.1.3.6.8 1.1 1.4 1.5.6.4 1.3.5 2.1.5s1.5-.2 2.1-.5c.6-.4 1.1-.9 1.4-1.5.3-.6.5-1.3.5-2.2 0-.8-.2-1.5-.5-2.1-.3-.7-.8-1.2-1.4-1.5zm-2.1 6.3c-.5 0-1-.1-1.4-.4-.4-.2-.7-.6-.9-1-.2-.4-.3-.9-.3-1.4 0-.5.1-1 .3-1.4.2-.4.5-.7.9-1 .4-.2.8-.4 1.4-.4.5 0 1 .1 1.4.4.4.2.7.6.9 1 .2.4.3.9.3 1.4 0 .5-.1 1-.3 1.4-.2.4-.5.7-.9 1-.4.3-.9.4-1.4.4zM338.6 253c-.3-.6-.8-1.1-1.4-1.5-.6-.4-1.4-.6-2.3-.6h-2.2c-.2 0-.4.1-.5.2-.1.1-.2.3-.2.5v6.6c0 .2.1.4.2.5.1.1.3.2.5.2h2.2c.9 0 1.6-.2 2.3-.6.6-.4 1.1-.9 1.4-1.5.3-.6.5-1.3.5-1.9s-.2-1.3-.5-1.9zm-1 1.9c0 .5-.1 1-.3 1.4-.2.4-.5.7-.9.9-.4.2-.9.3-1.4.3h-1.3v-5.2h1.3c.6 0 1 .1 1.4.3.4.2.7.5.9.9.2.4.3.9.3 1.4z" fill="#000000" class="color000 svgShape"></path><circle cx="191.1" cy="343.3" r="35.8" fill="#4263eb" class="color6193f6 svgShape"></circle><path fill="#ffffff" d="M198.1 326.9s4.8 14.1 4.8 17c0 6.4-6.7 4.3-6.7 4.3l-6.2-.4-3.4-1.8-1.8-3.4s-.9-7.3-.6-7.5c.3-.2 2.1-9.1 2.4-9.3.3-.3 4.2-.6 4.7-.5.4-.1 6.8 1.6 6.8 1.6z" class="colorfff svgShape"></path><path fill="#787878" d="M207.1 369.7s-5.4-15.2-15.9-14.7c-10.5.6-13.4 14.7-13.4 14.7s13.4 7.7 29.3 0z" class="colorefc102 svgShape"></path><path fill="#ffffff" d="M192.6 348.9c.2.3 2.1 8.9.4 10.1-1 .7-2.8.6-4.3.4-1.3-.2-2.3-1.1-2.6-2.3l-.6-8.2h7.1z" class="colorfff svgShape"></path><path fill="#2b2c34" d="M188.3 331.1s-.8 13 2.8 13.9c3.6.8 5-3.2 7.5-2.3s4.3 1.2 4.3 1.2 1.1 5.9-3.5 7.5c-4.5 1.6-12.7.3-14.2-2.1s-5.6-29.3 2.3-31.3c7.8-2 3.3 2.9 3.3 2.9s6.8-5.8 7.5-3.4c.7 2.3-.9 4.2-.9 4.2s7.5-.4 3.4 4.3c-4.2 4.6-11.4 2.4-12.5 5.1z" class="color060405 svgShape"></path><path fill="#2b2c34" d="M196 339.8c0-.3.3-.6.7-.6.1-.3 0-.6-.4-1.2-.5-.9-.8-2-.7-3.1 0-.3.3-.6.7-.6.3 0 .6.3.6.7-.2 2.4 1.6 3.1 1.1 4.6-.5 1.1-2.1 1.2-2 .2z" class="color060405 svgShape"></path><ellipse cx="193" cy="334.7" fill="#2b2c34" rx=".7" ry=".9" transform="rotate(-6.975 192.911 334.594)" class="color060405 svgShape"></ellipse><ellipse cx="198.7" cy="333.6" fill="#2b2c34" rx=".7" ry="1" transform="rotate(-6.975 198.663 333.455)" class="color060405 svgShape"></ellipse><path fill="#ffffff" d="M197.1 347.7c-.3 0-.7 0-1-.1-.3-.1-.5-.4-.5-.7.1-.3.4-.5.7-.5 1 .2 2.2-.1 2.9-.8.3-.2.6-.2.9 0 .2.3.2.6 0 .9-.8.7-1.9 1.2-3 1.2z" class="colorfff svgShape"></path><path fill="#bfbfbf" d="M302.3 331.4h-59.1c-1.1 0-2-.9-2-2V315c0-1.1.9-2 2-2h59.1c1.1 0 2 .9 2 2v14.4c0 1.1-.9 2-2 2z" class="colorbdd6ff svgShape"></path><path fill="#d2dbff" d="M241.1 339.1H363v4.1H241.1zM241.1 349.3H363v4.1H241.1zM241.1 359.5H363v4.1H241.1zM241.1 369.6h20.5v4.1h-20.5zM276 369.6h14.3v4.1H276zM302 369.6h21.1v4.1H302z" class="colord2e4ff svgShape"></path><path fill="#2b2c34" d="M154.7 140.3v62.1c0 2.5-2.1 4.6-4.6 4.6h-21.3v-71.3h21.3c2.5 0 4.6 2.1 4.6 4.6z" opacity=".05" class="color060405 svgShape"></path><path fill="#4263eb" d="M146 203.4H55.6c-2.5 0-4.6-2.1-4.6-4.6v-62.1c0-2.5 2.1-4.6 4.6-4.6H146c2.5 0 4.6 2.1 4.6 4.6v62.1c0 2.5-2 4.6-4.6 4.6z" class="color6193f6 svgShape"></path><path fill="#ffffff" d="M63.3 153.6h9.2V191h-9.2zM79.7 175.8h9.2V191h-9.2zM96.2 164.6h9.2V191h-9.2zM112.7 170.4h9.2V191h-9.2zM129.1 144.4h9.2V191h-9.2z" class="colorfff svgShape"></path><path fill="#2b2c34" d="M146.2 295.6V419c0 3.5-2.8 6.3-6.3 6.3H133c-2.5-.9-4.3-3.4-4.3-6.2V289.3h11.1c3.6 0 6.4 2.8 6.4 6.3z" opacity=".05" class="color060405 svgShape"></path><path fill="#2b2c34" d="M44 301.4c0-3.3 2.7-6 6-6h85.5c3.3 0 6 2.7 6 6v117.8c0 3.3-2.7 6-6 6H50.1c-3.3 0-6-2.7-6-6V301.4z" class="color060405 svgShape"></path><path d="M70 359.3H57c-.9 0-1.6-.7-1.6-1.6v-13.2c0-.9.7-1.6 1.6-1.6h13c.9 0 1.6.7 1.6 1.6v13.2c0 .9-.7 1.6-1.6 1.6zM90.4 359.3h-13c-.9 0-1.6-.7-1.6-1.6v-13.2c0-.9.7-1.6 1.6-1.6h13c.9 0 1.6.7 1.6 1.6v13.2c0 .9-.7 1.6-1.6 1.6zM110.2 359.3h-13c-.9 0-1.6-.7-1.6-1.6v-13.2c0-.9.7-1.6 1.6-1.6h13c.9 0 1.6.7 1.6 1.6v13.2c0 .9-.7 1.6-1.6 1.6zM130.7 359.3h-13c-.9 0-1.6-.7-1.6-1.6v-13.2c0-.9.7-1.6 1.6-1.6h13c.9 0 1.6.7 1.6 1.6v13.2c-.1.9-.8 1.6-1.6 1.6zM70 379.3H57c-.9 0-1.6-.7-1.6-1.6v-13.2c0-.9.7-1.6 1.6-1.6h13c.9 0 1.6.7 1.6 1.6v13.2c0 .8-.7 1.6-1.6 1.6zM89.8 379.3h-13c-.9 0-1.6-.7-1.6-1.6v-13.2c0-.9.7-1.6 1.6-1.6h13c.9 0 1.6.7 1.6 1.6v13.2c0 .8-.7 1.6-1.6 1.6zM110.2 379.3h-13c-.9 0-1.6-.7-1.6-1.6v-13.2c0-.9.7-1.6 1.6-1.6h13c.9 0 1.6.7 1.6 1.6v13.2c0 .8-.7 1.6-1.6 1.6zM130.7 379.3h-13c-.9 0-1.6-.7-1.6-1.6v-13.2c0-.9.7-1.6 1.6-1.6h13c.9 0 1.6.7 1.6 1.6v13.2c-.1.8-.8 1.6-1.6 1.6zM70 399.2H57c-.9 0-1.6-.7-1.6-1.6v-13.2c0-.9.7-1.6 1.6-1.6h13c.9 0 1.6.7 1.6 1.6v13.2c0 .9-.7 1.6-1.6 1.6zM89.8 399.2h-13c-.9 0-1.6-.7-1.6-1.6v-13.2c0-.9.7-1.6 1.6-1.6h13c.9 0 1.6.7 1.6 1.6v13.2c0 .9-.7 1.6-1.6 1.6zM110.2 399.2h-13c-.9 0-1.6-.7-1.6-1.6v-13.2c0-.9.7-1.6 1.6-1.6h13c.9 0 1.6.7 1.6 1.6v13.2c0 .9-.7 1.6-1.6 1.6zM70 419.1H57c-.9 0-1.6-.7-1.6-1.6v-13.2c0-.9.7-1.6 1.6-1.6h13c.9 0 1.6.7 1.6 1.6v13.2c0 .9-.7 1.6-1.6 1.6zM89.8 419.1h-13c-.9 0-1.6-.7-1.6-1.6v-13.2c0-.9.7-1.6 1.6-1.6h13c.9 0 1.6.7 1.6 1.6v13.2c0 .9-.7 1.6-1.6 1.6zM110.2 419.1h-13c-.9 0-1.6-.7-1.6-1.6v-13.2c0-.9.7-1.6 1.6-1.6h13c.9 0 1.6.7 1.6 1.6v13.2c0 .9-.7 1.6-1.6 1.6zM130.7 419.1h-13c-.9 0-1.6-.7-1.6-1.6v-33.1c0-.9.7-1.6 1.6-1.6h13c.9 0 1.6.7 1.6 1.6v33.1c-.1.9-.8 1.6-1.6 1.6zM134.2 310.6v21c0 2-1.6 3.6-3.6 3.6H58.8c-1.8-.2-3.2-1.7-3.2-3.6v-21c0-2 1.6-3.6 3.6-3.6h71.4c1.9 0 3.6 1.6 3.6 3.6z" opacity=".1" fill="#000000" class="color000 svgShape"></path><path fill="#d2dbff" d="M53.5 308.5v21c0 2 1.6 3.6 3.6 3.6H128.9c.4 0 .7-.1 1-.3 1.3-.6 2.2-1.8 2.2-3.3v-21c0-2-1.6-3.6-3.6-3.6H57.1c-.3 0-.6 0-.8.1-1.6.3-2.8 1.8-2.8 3.5z" class="colord2e4ff svgShape"></path><path fill="#bfbfbf" d="M53.5 308.5v1.9c20.1-.5 40.2-1 60.3-1.4 3.6-.1 7.5-.1 10.3 2.1 3.1 2.3 4.1 6.5 4.2 10.4.1 3.9-.4 7.8.6 11.5 1.8-.2 3.2-1.7 3.2-3.6v-21c0-2-1.6-3.6-3.6-3.6H57.1c-1.9.1-3.6 1.7-3.6 3.7z" class="colorbdd6ff svgShape"></path><path fill="#0032fe" d="m132.1 311.4.1-.8-.1.8z" class="color00f2fe svgShape"></path><path fill="#ffffff" d="M113.3 304.9l-18.2 28.2h7l18.3-28.2zM102.4 304.9l-18.2 28.2h-3.5l18.2-28.2zM91.8 304.9l-18.3 28.2H56.7c-.4 0-.7-.1-1-.3l18-27.9h18.1zM132.1 308.5v6.1l-12 18.5h-9l18.2-28.1c1.6.3 2.8 1.8 2.8 3.5z" opacity=".25" class="colorfff svgShape"></path><path fill="#ffffff" d="M68.7 358.2h-13c-.9 0-1.6-.7-1.6-1.6v-13.2c0-.9.7-1.6 1.6-1.6h13c.9 0 1.6.7 1.6 1.6v13.2c0 .9-.8 1.6-1.6 1.6zM88.7 358.6h-13c-.9 0-1.6-.7-1.6-1.6v-13.2c0-.9.7-1.6 1.6-1.6h13c.9 0 1.6.7 1.6 1.6V357c0 .9-.7 1.6-1.6 1.6zM108.5 358.6h-13c-.9 0-1.6-.7-1.6-1.6v-13.2c0-.9.7-1.6 1.6-1.6h13c.9 0 1.6.7 1.6 1.6V357c0 .9-.7 1.6-1.6 1.6z" class="colorfff svgShape"></path><path fill="#a2a2a2" d="M129.3 358.2h-13c-.9 0-1.6-.7-1.6-1.6v-13.2c0-.9.7-1.6 1.6-1.6h13c.9 0 1.6.7 1.6 1.6v13.2c0 .9-.7 1.6-1.6 1.6z" class="colorff7545 svgShape"></path><path fill="#ffffff" d="M68.7 378.1h-13c-.9 0-1.6-.7-1.6-1.6v-13.2c0-.9.7-1.6 1.6-1.6h13c.9 0 1.6.7 1.6 1.6v13.2c0 .9-.8 1.6-1.6 1.6zM88.1 378.5h-13c-.9 0-1.6-.7-1.6-1.6v-13.2c0-.9.7-1.6 1.6-1.6h13c.9 0 1.6.7 1.6 1.6v13.2c-.1.9-.8 1.6-1.6 1.6zM108.5 378.5h-13c-.9 0-1.6-.7-1.6-1.6v-13.2c0-.9.7-1.6 1.6-1.6h13c.9 0 1.6.7 1.6 1.6v13.2c0 .9-.7 1.6-1.6 1.6z" class="colorfff svgShape"></path><path fill="#4263eb" d="M129.3 378.1h-13c-.9 0-1.6-.7-1.6-1.6v-13.2c0-.9.7-1.6 1.6-1.6h13c.9 0 1.6.7 1.6 1.6v13.2c0 .9-.7 1.6-1.6 1.6z" class="color6193f6 svgShape"></path><path fill="#ffffff" d="M68.7 398h-13c-.9 0-1.6-.7-1.6-1.6v-13.2c0-.9.7-1.6 1.6-1.6h13c.9 0 1.6.7 1.6 1.6v13.2c0 .9-.8 1.6-1.6 1.6zM88.1 398.4h-13c-.9 0-1.6-.7-1.6-1.6v-13.2c0-.9.7-1.6 1.6-1.6h13c.9 0 1.6.7 1.6 1.6v13.2c-.1.9-.8 1.6-1.6 1.6zM108.5 398.4h-13c-.9 0-1.6-.7-1.6-1.6v-13.2c0-.9.7-1.6 1.6-1.6h13c.9 0 1.6.7 1.6 1.6v13.2c0 .9-.7 1.6-1.6 1.6zM68.7 418h-13c-.9 0-1.6-.7-1.6-1.6v-13.2c0-.9.7-1.6 1.6-1.6h13c.9 0 1.6.7 1.6 1.6v13.2c0 .9-.8 1.6-1.6 1.6zM88.1 418.4h-13c-.9 0-1.6-.7-1.6-1.6v-13.2c0-.9.7-1.6 1.6-1.6h13c.9 0 1.6.7 1.6 1.6v13.2c-.1.9-.8 1.6-1.6 1.6zM108.5 418.4h-13c-.9 0-1.6-.7-1.6-1.6v-13.2c0-.9.7-1.6 1.6-1.6h13c.9 0 1.6.7 1.6 1.6v13.2c0 .9-.7 1.6-1.6 1.6z" class="colorfff svgShape"></path><path fill="#8e8e8e" d="M129.3 418h-13c-.9 0-1.6-.7-1.6-1.6v-33.1c0-.9.7-1.6 1.6-1.6h13c.9 0 1.6.7 1.6 1.6v33.1c0 .9-.7 1.6-1.6 1.6z" class="colorf2cb2a svgShape"></path><path fill="#4263eb" d="M462 426v-3.2h18.9c.2 6.1.7 17.6.9 17.6h-30.7C450 430.4 462 426 462 426z" class="color6193f6 svgShape"></path><path fill="#2b2c34" d="M451.5 436.1c-.4 1.3-.6 2.8-.4 4.4h30.7c-.1 0-.2-1.8-.3-4.4h-30z" class="color060405 svgShape"></path><path fill="#4263eb" d="M530.4 426v-3.2h18.9c.2 6.1.7 17.6.9 17.6h-30.7c-1.1-10 10.9-14.4 10.9-14.4z" class="color6193f6 svgShape"></path><path fill="#2b2c34" d="M519.9 436.1c-.4 1.3-.6 2.8-.4 4.4h30.7c-.1 0-.2-1.8-.3-4.4h-30zM460 424.9l7.4-142 39.9-.8-25.2 142.8c0 1.6-22.1 1.6-22.1 0z" class="color060405 svgShape"></path><path fill="#2b2c34" d="m528 426.1-38.5-149 43.7 3.7 16.9 145.4c0 1.4-22.1 1.4-22.1-.1z" class="color060405 svgShape"></path><path fill="#ffffff" d="m471.5 231.5-28.7 10.4-41.3-22.8s-5.5 1.6-8.5-1.7 1.9-8 1.9-8-9-6.9-8.4-9.2c.6-2.3 12.6 6.7 12.6 6.7s-.6-3.2.4-4.2c1.1-1.1 3.7 5.3 3.7 5.3l40.5 9.4 12.5-10.4 15.3 24.5z" class="colorfff svgShape"></path><path fill="#2b2c34" d="m442.8 242.4-41.3-22.8c-1.1.3-5.9 1.2-8.8-1.9-2.5-2.7-.3-6.3 1.5-8.2-2.2-1.7-8.7-7.1-8.1-9.4.1-.3.3-.6.6-.7 1.9-.6 8.6 4.1 11.8 6.4-.1-1.1-.1-2.7.7-3.5.2-.2.5-.3.8-.3 1.3.3 2.9 3.7 3.6 5.5l40 9.2 12.8-10.6 15.8 25.5-29.4 10.8zm-41.2-23.9.2.1 41.1 22.7 27.9-10.1-14.6-23.5-12.3 10.2-41-9.5-.1-.2c-1.1-2.6-2.4-5-2.9-5.1-.6.6-.4 2.6-.2 3.8l.3 1.3-1.1-.8c-5.6-4.2-11-7.4-11.8-7-.3 1.2 4 5.4 8.2 8.6l.5.4-.4.4s-4.5 4.4-1.9 7.3c2.8 3 8 1.6 8 1.5l.1-.1z" class="color060405 svgShape"></path><path fill="#4263eb" d="m485.6 210.3-20.7 17.4c-6.5-5.6-10.7-14-11.1-20.5 7.6-6.4 13.1-11.8 22.1-17.4l9.7 20.5z" class="color6193f6 svgShape"></path><path fill="#4263eb" d="M540 193.5c-3-7.5-22.2-12.3-22.2-12.3H491s-19.5 7.3-26.6 21.2c-4.8 9.4.9 84.5.9 84.5 0 7 70.4 6.8 70.4-.2 0 0 13.6-69.7 4.3-93.2z" class="color6193f6 svgShape"></path><path fill="#2b2c34" d="M459.6 223c-.2-.5 2.1-15.6 10.9-23l.6.8c-8.1 6.8-10.6 20.8-10.6 22.1h-.4l-.5.1z" class="color060405 svgShape"></path><path fill="#ffffff" d="M511.6 147.5s-2.5 22.3 6.1 33.7c0 0-8 13.8-20 13.5-12-.3-15-8.7-14.1-9.8.9-1.1 11.1-6.9 11.1-19.2s16.9-18.2 16.9-18.2z" class="colorfff svgShape"></path><path fill="#2b2c34" d="M498.1 195.2c-12.2 0-16.3-8.9-14.9-10.7.2-.2.5-.5 1.1-.9 2.7-2.1 9.9-7.8 9.9-17.9 0-9.2 9.2-15.8 18-18.9-1.1 10.3-.4 25.8 5.9 34.2l.2.3-.2.3c-.3.4-8.1 13.6-20 13.6zm13-47c-3.2 1.3-15.8 7.1-15.8 17.4 0 10.6-7.5 16.5-10.3 18.7-.4.4-.8.7-.9.8-.6.9 2.4 8.7 13.7 9 10.6.3 18.2-11 19.4-12.9-7.7-10.3-6.5-28.8-6.1-33z" class="color060405 svgShape"></path><path fill="#ffffff" d="M512 143.8c-.2 4.8-2.1 12.1-5 16.9-3 5.2-9.2 9.5-16.6 8.3-10.5-1.6-7.4-29.2-3.9-40.6.7-2.3 1.5-3.9 2.3-4.6 4.6-3.8 19.7 2.6 21.5 7.3 1.4 3.7 1.9 8.8 1.7 12.7z" class="colorfff svgShape"></path><path fill="#2b2c34" d="M492.9 169.8c-.8 0-1.7-.1-2.5-.2-11.2-1.7-7.7-30.2-4.3-41.2.8-2.5 1.6-4.1 2.4-4.8 4.9-4 20.3 2.4 22.3 7.5 1.8 4.6 2.1 12.2 1.3 16.5-1 5.3-2.5 9.8-4.6 13.4l-.1.1c-2.4 4.2-7.6 8.7-14.5 8.7zm-3.8-45.5c-.4.3-1.2 1.3-2.1 4.3-3.2 10.3-6.7 38.4 3.5 39.9 7.6 1.2 13.4-3.5 16-8l.1-.1c2.8-4.8 4.7-11.9 4.9-16.7.2-3.6-.2-8.7-1.6-12.4-1.8-4.5-16.5-10.5-20.8-7z" class="color060405 svgShape"></path><path fill="#2b2c34" d="M523.5 123.6c7 11.2-2.1 28.3-11.9 38.4l-4.5-1.2c2.8-4.8 4.8-12.1 5-16.9 0 0 .2-5.2-1.8-4.5-2.1.7-2.4 4.3-2.4 4.3h-2.6s.2-13.7-2.3-14.3c-1.5-.3-10.1 1.3-17.4 2.1-3.5.4-10.6 1.2-13.1-9.5-3-13.1 6.3-14.6 12.8-14.1 19.4 1.3 34.7 10.1 38.2 15.7zM498.4 262.8c0 1.6-1.3 2.9-2.9 2.9h-66.3c-1.6 0-2.9-1.3-2.9-2.9 0-1.6 1.3-2.9 2.9-2.9h66.3c1.7.1 2.9 1.4 2.9 2.9z" class="color060405 svgShape"></path><path fill="#ffffff" d="M466.7 260h-41c-2.2 0-4-1.5-4.6-3.5l-8.4-31.9c-.8-3 1.5-6 4.6-6h41c2.1 0 4 1.5 4.6 3.6l8.4 31.9c.8 2.9-1.5 5.9-4.6 5.9z" class="colorfff svgShape"></path><path fill="#2b2c34" d="M466.7 260.5h-41c-2.4 0-4.5-1.6-5.1-3.9l-8.4-31.9c-.9-3.3 1.6-6.6 5.1-6.6h41c2.4 0 4.5 1.6 5.1 3.9l8.4 31.9c.4 1.6.1 3.2-.9 4.5-1 1.3-2.5 2.1-4.2 2.1zm-49.3-41.4c-2.8 0-4.8 2.6-4.1 5.3l8.4 31.9c.5 1.9 2.2 3.2 4.1 3.2h41c1.3 0 2.5-.6 3.4-1.7.8-1 1.1-2.4.7-3.7l-8.4-31.9c-.5-1.9-2.2-3.2-4.1-3.2h-41z" class="color060405 svgShape"></path><path fill="#d2dbff" d="M429.6 255.5c.3 1.4.4 3 0 4.4h-3.8c-2.2 0-4-1.5-4.6-3.5l-8.4-31.9c-.8-3 1.5-6 4.6-6H431c-8.3 4.7-11.4 11.2-7 22.4 1.9 5 4.5 9.6 5.6 14.6z" class="colord2e4ff svgShape"></path><path fill="#2b2c34" d="M495.6 266.2h-66.3c-1.9 0-3.4-1.5-3.4-3.4s1.5-3.4 3.4-3.4h66.3c1.9 0 3.4 1.5 3.4 3.4s-1.6 3.4-3.4 3.4zm-66.3-5.7c-1.3 0-2.4 1.1-2.4 2.4s1.1 2.4 2.4 2.4h66.3c1.3 0 2.4-1.1 2.4-2.4s-1.1-2.4-2.4-2.4h-66.3z" class="color060405 svgShape"></path><path fill="#2b2c34" d="M466.7 260.5h-40.9c-2.4 0-4.5-1.6-5.1-3.9l-8.4-31.9c-.9-3.3 1.6-6.6 5.1-6.6h40.9c2.4 0 4.5 1.6 5.1 3.9l8.4 31.9c.4 1.6.1 3.2-.9 4.5-1 1.3-2.5 2.1-4.2 2.1zm-49.3-41.4c-2.8 0-4.8 2.6-4.1 5.3l8.4 31.9c.5 1.9 2.2 3.2 4.1 3.2h40.9c1.3 0 2.5-.6 3.4-1.6.8-1 1.1-2.4.7-3.7l-8.4-31.9c-.5-1.9-2.2-3.2-4.1-3.2h-40.9z" class="color060405 svgShape"></path><path fill="#d2dbff" d="M443.9 239.8c.2 1.8-1.2 3.3-3 3.3s-3.4-1.5-3.6-3.3c-.2-1.8 1.2-3.3 3-3.3 1.9 0 3.5 1.5 3.6 3.3z" class="colord2e4ff svgShape"></path><path fill="#ffffff" d="M553.2 266.2c-4.6 6.9-63.2 5.6-63.2 5.6s-15.9 6.5-21.3-1.4 8.8-7.6 8.8-7.6-3-1.2-1.1-4 12.5 1.9 12.5 1.9l40.8-13.4-1.9-20.3 26 .8c-.1.1 4.8 30.2-.6 38.4z" class="colorfff svgShape"></path><path fill="#2b2c34" d="M468.2 270.7c-1.3-2-1.6-3.7-.9-5.1 1.4-2.6 6.1-3.2 8.6-3.3-.9-.9-1.1-2.2 0-3.8 2-3 11.2.9 13 1.7l40.2-13.2-1.9-20.5 27 .8.1.4c.2 1.2 4.9 30.4-.6 38.7-4.6 6.9-60 5.9-63.6 5.8-6.9 2.8-17.7 4.7-21.9-1.5zm8.9-7.4c-2.3 0-7.7.5-8.9 2.8-.6 1-.3 2.4.8 4 5.1 7.5 20.5 1.2 20.7 1.2h.2c16.2.3 59.2.1 62.8-5.4 5-7.5 1.1-34 .5-37.6l-25-.7 1.9 20.1-41.3 13.5-.2-.1c-3.9-1.8-10.7-3.9-11.9-2.1-1 1.5-.5 2.7.9 3.3l2.6 1H477.1z" class="color060405 svgShape"></path><path fill="#4263eb" d="M537.5 190.2s13.9 7.6 17.4 37.3c-.2 1.8-28.4 4-28.2 2.2-.1 0-7.5-32.5 10.8-39.5z" class="color6193f6 svgShape"></path><path fill="#2b2c34" d="M531.1 230.8c-1.3 0-2.3 0-3-.1-.6-.1-1-.1-1.3-.2-.6-.2-.7-.5-.7-.8-.3-1.4-4.5-21.2 1.5-31.7l.9.5c-5.8 10.1-1.7 29.8-1.4 31 2.1 1.2 25.9-.7 27.3-2.2 0 0 0 .1-.1.1l1 .1c-.2 2-16.5 3.3-24.2 3.3z" class="color060405 svgShape"></path><ellipse cx="498.7" cy="141.7" fill="#2b2c34" rx="1.4" ry="1.9" class="color060405 svgShape"></ellipse><ellipse cx="488" cy="140.8" fill="#2b2c34" rx="1.4" ry="1.9" class="color060405 svgShape"></ellipse><path fill="#2b2c34" d="M491.6 150.5c-.6 0-1.3-.5-1.5-1.1-.7-2.2 2.5-3.2 2.5-8h1c0 3.5-1.9 5.8-1.9 5.9-.4.5-.9 1.2-.7 1.8.1.3.3.5.5.4l.1 1zM493.4 158.6l.4-.9c1.7.7 3.6-.2 4.2-1.9l.9.3c-.8 2.3-3.4 3.4-5.5 2.5z" class="color060405 svgShape"></path><path fill="#bfbfbf" d="m463 108 23-48.5-32.7 14.7 4 9 14.2-9.4-12 17.7z" class="colorbdd6ff svgShape"></path><path fill="#2b2c34" d="m457.3 83.2 6.7 1.7 7.5-11.1z" class="color060405 svgShape"></path><path fill="#c6d0fa" d="M127.7 263.9H96c-.2 0-.4-.2-.4-.4s.2-.4.4-.4h31.6c.2 0 .4.2.4.4s-.1.4-.3.4zM127.7 279.6H96c-.2 0-.4-.2-.4-.4s.2-.4.4-.4h31.6c.2 0 .4.2.4.4s-.1.4-.3.4zM121.9 271.7H77.1c-.2 0-.4-.2-.4-.4s.2-.4.4-.4h44.8c.2 0 .4.2.4.4s-.2.4-.4.4z" class="colorc6e2fa svgShape"></path><path fill="#c6d0fa" d="M102.5 263.9c-.2 0-.4-.2-.4-.4v-6.7c0-.2.2-.4.4-.4s.4.2.4.4v6.7c0 .2-.2.4-.4.4zM113.6 271.7c-.2 0-.4-.2-.4-.4v-7.8c0-.2.2-.4.4-.4s.4.2.4.4v7.8c0 .2-.1.4-.4.4zM105.2 279.3c-.2 0-.4-.2-.4-.4v-7.6c0-.2.2-.4.4-.4s.4.2.4.4v7.6c0 .2-.2.4-.4.4zM409.1 71.8h-31.6c-.2 0-.4-.2-.4-.4s.2-.4.4-.4h31.6c.2 0 .4.2.4.4s-.2.4-.4.4zM409.1 87.5h-31.6c-.2 0-.4-.2-.4-.4s.2-.4.4-.4h31.6c.2 0 .4.2.4.4s-.2.4-.4.4zM403.3 79.6h-44.8c-.2 0-.4-.2-.4-.4s.2-.4.4-.4h44.8c.2 0 .4.2.4.4s-.1.4-.4.4z" class="colorc6e2fa svgShape"></path><path fill="#c6d0fa" d="M384 71.8c-.2 0-.4-.2-.4-.4v-6.7c0-.2.2-.4.4-.4s.4.2.4.4v6.7c-.1.2-.2.4-.4.4zM395.1 79.6c-.2 0-.4-.2-.4-.4v-7.8c0-.2.2-.4.4-.4s.4.2.4.4v7.8c0 .3-.2.4-.4.4zM386.6 87.2c-.2 0-.4-.2-.4-.4v-7.6c0-.2.2-.4.4-.4s.4.2.4.4v7.6c0 .3-.2.4-.4.4z" class="colorc6e2fa svgShape"></path></svg></g></svg>