<svg id="SvgjsSvg1279" width="288" height="288" xmlns="http://www.w3.org/2000/svg" version="1.1" xmlns:xlink="http://www.w3.org/1999/xlink" xmlns:svgjs="http://svgjs.com/svgjs"><defs id="SvgjsDefs1280"></defs><g id="SvgjsG1281"><svg xmlns="http://www.w3.org/2000/svg" enable-background="new 0 0 103 103" viewBox="0 0 103 103" width="288" height="288"><path d="M10.5820313 10.1491528c-2.7036133 0-4.902832 2.203125-4.902832 4.9121094 0 2.7041016 2.1992188 4.9033203 4.902832 4.9033203 2.7089844 0 4.9125977-2.1992188 4.9125977-4.9033203C15.4946289 12.3522778 13.2910156 10.1491528 10.5820313 10.1491528zM10.5820313 17.9645824c-1.6005859 0-2.902832-1.3027344-2.902832-2.9033203 0-1.6054688 1.3022461-2.9121094 2.902832-2.9121094 1.605957 0 2.9125977 1.3066406 2.9125977 2.9121094C13.4946289 16.6618481 12.1879883 17.9645824 10.5820313 17.9645824zM85.4589844 53.4235687c0 2.703125 2.1992188 4.9023438 4.902832 4.9023438 2.7089844 0 4.9130859-2.1992188 4.9130859-4.9023438 0-2.7089844-2.2041016-4.9130859-4.9130859-4.9130859C87.6582031 48.5104828 85.4589844 50.7145844 85.4589844 53.4235687zM93.2749023 53.4235687c0 1.6005859-1.3066406 2.9023438-2.9130859 2.9023438-1.6005859 0-2.902832-1.3017578-2.902832-2.9023438 0-1.6064453 1.3022461-2.9130859 2.902832-2.9130859C91.9682617 50.5104828 93.2749023 51.8171234 93.2749023 53.4235687zM44.4335938 11.8307934c.2275391 0 .4560547-.0771484.6435547-.2353516.4223633-.3554688.4765625-.9863281.1206055-1.4091797L43.9375 8.6901684c-.3569336-.4228516-.9873047-.4765625-1.4086914-.1201172-.4223633.3554688-.4765625.9863281-.1206055 1.4091797l1.2602539 1.4960938C43.8662109 11.7096996 44.1489258 11.8307934 44.4335938 11.8307934zM46.6176758 14.9753246l1.2602539 1.4970703c.1977539.2353516.480957.3564453.765625.3564453.2275391 0 .4560547-.0771484.6435547-.2353516.4223633-.3554688.4765625-.9863281.1210938-1.4082031l-1.2602539-1.4970703c-.3564453-.4238281-.9882813-.4775391-1.4091797-.1210938C46.3164063 13.9225903 46.262207 14.5534496 46.6176758 14.9753246zM47.6591797 12.106184c.2275391 0 .4560547-.0771484.6435547-.2353516l1.496582-1.2597656c.4223633-.3554688.4765625-.9863281.1210938-1.4082031-.3564453-.4238281-.987793-.4785156-1.4091797-.1210938l-1.496582 1.2597656c-.4223633.3554688-.4765625.9863281-.1210938 1.4082031C47.0913086 11.9850903 47.3745117 12.106184 47.6591797 12.106184zM41.8959961 15.9606762c.1982422.234375.480957.3554688.765625.3554688.2275391 0 .4560547-.0771484.6435547-.2353516l1.4960938-1.2597656c.4223633-.3554688.4765625-.9863281.1210938-1.4091797-.3574219-.421875-.9873047-.4765625-1.4091797-.1201172l-1.4960938 1.2597656C41.5947266 14.9069653 41.5405273 15.5378246 41.8959961 15.9606762zM9.7734375 67.6198578c.2275391 0 .4560547-.0771484.6435547-.2353516.4223633-.3554688.4765625-.9863281.1206055-1.4091797l-1.2602539-1.4960938c-.3564453-.421875-.9868164-.4765625-1.4086914-.1201172-.4223633.3554688-.4765625.9863281-.1206055 1.4091797l1.2602539 1.4960938C9.2060547 67.498764 9.4887695 67.6198578 9.7734375 67.6198578zM11.9580078 70.7663422l1.2602539 1.4960938c.1977539.234375.4804688.3554688.7651367.3554688.2275391 0 .4560547-.0771484.6435547-.2353516.4223633-.3554688.4765625-.9863281.1206055-1.4091797l-1.2602539-1.4960938c-.355957-.421875-.9873047-.4775391-1.4086914-.1201172C11.65625 69.7126312 11.6020508 70.3434906 11.9580078 70.7663422zM12.9990234 67.896225c.2275391 0 .4560547-.0771484.6435547-.2353516l1.4960938-1.2597656c.4223633-.3554688.4765625-.9863281.1210938-1.4091797-.3574219-.421875-.987793-.4775391-1.4091797-.1201172l-1.4960938 1.2597656c-.4223633.3554688-.4765625.9863281-.1210938 1.4091797C12.4316406 67.7751312 12.7143555 67.896225 12.9990234 67.896225zM7.2358398 71.7507172c.1977539.234375.4804688.3554688.7651367.3554688.2275391 0 .4560547-.0771484.6435547-.2353516l1.496582-1.2607422c.4228516-.3554688.4765625-.9863281.1206055-1.4091797-.3564453-.4228516-.987793-.4765625-1.4086914-.1201172l-1.496582 1.2607422C6.9335938 70.6970062 6.8798828 71.3278656 7.2358398 71.7507172zM98.8911133 92.6657562H97.90625c-.5522461 0-1 .4472656-1 1s.4477539 1 1 1h.9848633c.5522461 0 1-.4472656 1-1S99.4433594 92.6657562 98.8911133 92.6657562zM4.1088867 94.6657562h1.6826172c.5522461 0 1-.4472656 1-1s-.4477539-1-1-1H4.1088867c-.5522461 0-1 .4472656-1 1S3.5566406 94.6657562 4.1088867 94.6657562zM78.7709961 23.2731762c0-4.0107422-3.269043-7.2734375-7.2875977-7.2734375-4.0107422 0-7.2734375 3.2626953-7.2734375 7.2734375 0 4.0185547 3.2626953 7.2880859 7.2734375 7.2880859C75.5019531 30.5612621 78.7709961 27.2917309 78.7709961 23.2731762zM66.2099609 23.2731762c0-2.9082031 2.3657227-5.2734375 5.2734375-5.2734375 2.9155273 0 5.2875977 2.3652344 5.2875977 5.2734375 0 2.9160156-2.3720703 5.2880859-5.2875977 5.2880859C68.5756836 28.5612621 66.2099609 26.1891918 66.2099609 23.2731762zM39.8666992 25.6764965c0-3.9462891-3.2104492-7.15625-7.15625-7.15625s-7.15625 3.2099609-7.15625 7.15625c0 3.9375 3.2104492 7.1416035 7.15625 7.1416035S39.8666992 29.6139965 39.8666992 25.6764965zM27.5541992 25.6764965c0-2.8427734 2.3129883-5.15625 5.15625-5.15625s5.15625 2.3134766 5.15625 5.15625c0 2.8349609-2.3129883 5.1416016-5.15625 5.1416016S27.5541992 28.5114574 27.5541992 25.6764965z" fill="#ffffff" class="color000 svgShape"></path><path d="M21.1948242,39.114975l-3.6367188-4.9882813c-0.6816406-1.1660156-1.8232422-2.0087891-3.140625-2.3164082
		c-1.3378906-0.3154297-2.7548828-0.0507813-3.8916016,0.7187519c-2.0703125,1.4013672-2.3051758,3.9462891-0.5776367,6.5117188
		l6.0751953,8.3535156c1.5914917,2.5766602,5.0450439,3.0888672,7.324707,1.21875
		c0.6352539-0.5224609,1.4003906-1.1064453,2.2543945-1.4775391c0.3725586-0.1621094,0.9985352-0.4335938,1.3798828-0.5361328
		c0.9355469,2.078125,0.5405273,4.53125-1.0336914,6.2119141l-5.6010742,5.9824219
		c-1.3105469,1.3994141-0.3171997,3.6845703,1.597168,3.6845703h2.5566406
		c-1.3901367,3.4433594-5.059082,12.5292969-7.1396484,17.6728516c-0.4833984,1.1953125-0.4213867,2.5380859,0.1694336,3.6835938
		c0.2044678,0.3967285,0.4813232,0.737793,0.7865601,1.0498047h-3.6991577c-2.8266602,0-5.1259766,2.2998047-5.1259766,5.1259766
		v2.6552734H9.2666016c-0.5522461,0-1,0.4472656-1,1s0.4477539,1,1,1h85.0083008c0.5522461,0,1-0.4472656,1-1
		c0-0.4628906-0.3203125-0.8344727-0.746582-0.9489746v-2.7062988c0-2.8261719-2.2993164-5.1259766-5.1259766-5.1259766H74.5239868
		c0.2319336-0.3271484,0.4379883-0.6748047,0.5844116-1.0615234c0.4663086-1.2314453,0.4057617-2.5625-0.1704102-3.7460938
		l-4.8491211-9.9648438c-1.2568359-2.5830078-1.230957-5.6542969,0.0693359-8.2148438l1.6347656-3.2197266
		c2.9042969,10.0771484,9.934082,15.1376953,14.0009766,17.3007813c1.2602539,0.6699219,2.7392578,0.7373047,4.0561523,0.1826172
		c1.3242188-0.5576172,2.3154297-1.6699219,2.7197266-3.0498047c0.6899414-2.3544922-0.5751953-4.8886719-2.8798828-5.7695313
		c-3.8964844-1.4882813-6.3696289-4.5830078-7.7583008-6.9160156c-0.8476563-1.4238281-1.2919922-3.0625-1.2851563-4.7392578
		l0.0522461-13.1621094c0.0092773-2.2431641,1.2446289-4.2919922,3.2236328-5.3466797
		c0.0512695-0.0273438,0.1000977-0.0595703,0.1455078-0.0947266l4.4545898-3.4814453
		c1.7719727-1.421875,4.1279297-3.6972675,4.1259766-6.970705l0.7055664-11.1386719
		c0-2.5478516-2.0727539-4.6201172-4.6201172-4.6201172c-2.5478516,0-4.6206055,2.0722656-4.6206055,4.6201172v8.0742188
		c0,1.984375-0.9707031,3.8486328-2.597168,4.9873047l-0.1757813,0.1230469
		c-3.5146484,2.4599609-7.6396484,3.7597675-11.9282227,3.7597675H66.746582c-2.4165039,0-4.6044922-1.430666-5.5742188-3.6435566
		l-2.8203125-6.4355469c-1.0058594-2.2929688-3.6923828-3.3457031-5.987793-2.3476563
		c-1.1484375,0.5-2.0200195,1.421875-2.4541016,2.5976563c-0.4345703,1.1748047-0.371582,2.4433594,0.1762695,3.5703125
		l4.8876953,10.0459003c1.3432617,2.7607422,4.1933594,4.5458984,7.3422852,4.5458984c0.0024414,0,0.0053711,0,0.0083008,0
		l3.3623047-0.2666016c0.9482422,8.1992188-2.456543,15.875-5.5473633,20.9453125
		c-1.6181641,2.6542969-1.3530273,6.3359375,0.7885742,10.9423828l5.4638672,11.7519531
		c0.1240234,0.2668457,0.2759399,0.5102539,0.4400024,0.7421875H42.9150391
		c0.4069214-0.6501465,0.6523438-1.4116211,0.6523438-2.2333984V61.6432953h2.1616211
		c0.8027344,0,1.5161133-0.4179688,1.9086914-1.1181641c0.3925781-0.6992188,0.3769531-1.5263672-0.0244141-2.1826172
		l-4.2807617-7.5517578c-0.1083984-0.1923828-0.0449219-0.3583984,0.0029297-0.4394531
		c0.0473633-0.0820313,0.1606445-0.2197266,0.3818359-0.2197266h12.2197266c1.9785156,0,3.5883789-1.609375,3.5883789-3.5878906
		s-1.6098633-3.5878906-3.5883789-3.5878906h-7.315918c-1.421875,0-2.7490234-0.6357422-3.640625-1.7431641l-3.4770508-4.3203125
		c-1.2734375-1.5820313-3.1679688-2.4892578-5.1987305-2.4892578h-7.1254883c-1.5537109,0-3.0678711,0.546875-4.2636719,1.5390625
		L21.1948242,39.114975z M62.7416992,71.5466156c-1.8417969-3.9619141-2.1425781-7.0097656-0.894043-9.0576172
		c3.3793945-5.5449219,7.1103516-14.0722656,5.6914063-23.2109375c-0.0761719-0.4902344-0.4990234-0.8466797-0.9873047-0.8466797
		c-0.0263672,0-0.0532227,0.0009766-0.0800781,0.0029297l-4.2260742,0.3378906c-2.3129883,0-4.4614258-1.34375-5.4726563-3.4238281
		l-4.8876953-10.0459003c-0.3076172-0.6318359-0.3427734-1.34375-0.0991211-2.0029297
		c0.2431641-0.6582031,0.7319336-1.1757813,1.3759766-1.4560547c1.2866211-0.5605469,2.7944336,0.03125,3.3579102,1.3164063
		l2.8203125,6.4355469c1.2885742,2.9404316,4.1958008,4.8408222,7.40625,4.8408222h2.6655273
		c4.7011719,0,9.222168-1.4248047,13.0756836-4.1220722l0.1757813-0.1230469c2.1601563-1.5117188,3.449707-3.9882813,3.449707-6.625
		v-8.0742188c0-1.4443359,1.1757813-2.6201172,2.6206055-2.6201172s2.6201172,1.1757813,2.6220703,2.5566406l-0.7055664,11.1386719
		c0,1.8857422-1.0737305,3.625-3.3691406,5.4658222l-4.378418,3.421875
		c-2.5834961,1.4140625-4.1918945,4.1113281-4.2041016,7.0615234l-0.0522461,13.1621094
		c-0.0083008,2.0400391,0.5336914,4.0351563,1.5664063,5.7705078c1.5507813,2.6054688,4.3300781,6.0673828,8.7631836,7.7617188
		c1.3598633,0.5195313,2.0800781,1.9541016,1.6748047,3.3378906c-0.2348633,0.8007813-0.8095703,1.4453125-1.5771484,1.7685547
		c-0.7602539,0.3203125-1.6132813,0.28125-2.340332-0.1044922c-4.8657227-2.5878906-11.1435547-7.7490234-13.4199219-17.640625
		c-0.1308594-0.5673828-0.5874023-0.9804688-1.1635742-1.0507813c-0.565918-0.0654297-1.1079102,0.2177734-1.3686523,0.7304688
		L68.375,60.9909515c-1.5820313,3.1162109-1.6137695,6.8525391-0.0849609,9.9960938l4.8496094,9.9648438
		c0.3325195,0.6835938,0.3676758,1.4521484,0.0981445,2.1630859c-0.269043,0.7109375-0.8037109,1.2636719-1.5058594,1.5556641
		c-1.3569336,0.5615234-2.90625-0.0380859-3.5263672-1.3720703L62.7416992,71.5466156z M89.4023438,86.8845062
		c1.7236328,0,3.1259766,1.4023438,3.1259766,3.1259766V92.66185H11.4926758v-2.6513672
		c0-1.7236328,1.4023438-3.1259766,3.1259766-3.1259766H89.4023438z M35.7529297,84.8845062H24.6150513
		c0.4794922-0.4885254,0.8643799-1.0800781,1.0778198-1.7744141l6.4506836-20.9755859
		c0.1572266-0.5117188,0.6225586-0.8554688,1.1582031-0.8554688h0.5869141c0.668457,0,1.2119141,0.5439453,1.2119141,1.2119141
		v20.1601563C35.1005859,83.4728851,35.3460083,84.2343597,35.7529297,84.8845062z M29.1791992,36.4030609h7.1254883
		c1.421875,0,2.7490234,0.6357422,3.640625,1.7431641l3.4770508,4.3203125
		c1.2734375,1.5820313,3.1679688,2.4892578,5.1987305,2.4892578h7.315918c0.8759766,0,1.5883789,0.7119141,1.5883789,1.5878906
		s-0.7124023,1.5878906-1.5883789,1.5878906H43.7172852c-1.8701782,0-3.0482788,2.0166016-2.1245117,3.6455078l4.296875,7.5800781
		c0.0380859,0.0625,0.0395508,0.1259766,0.0039063,0.1894531c-0.0361328,0.0644531-0.0913086,0.0966797-0.1645508,0.0966797
		h-3.1616211c-0.5522461,0-1,0.4472656-1,1v22.0078125c0,1.2314453-1.0019531,2.2333984-2.2333984,2.2333984
		s-2.2333984-1.0019531-2.2333984-2.2333984V62.4909515c0-1.7714844-1.440918-3.2119141-3.2119141-3.2119141h-0.5869141
		c-1.4189453,0-2.652832,0.9111328-3.0703125,2.2675781L23.78125,82.5222015
		c-0.375,1.2167969-1.6411133,1.9384766-2.878418,1.6435547c-0.6889648-0.1640625-1.2700195-0.6191406-1.5942383-1.2480469
		c-0.3232422-0.6269531-0.3574219-1.3613281-0.0922852-2.0166016c2.6035156-6.4365234,7.6943359-19.0488281,7.6943359-19.0488281
		c0.1245117-0.3076172,0.0874023-0.6582031-0.0981445-0.9335938c-0.1860352-0.2753906-0.496582-0.4404297-0.8291016-0.4404297
		h-4.0385742c-0.0307617,0-0.1235352,0-0.1728516-0.1132813c-0.0488281-0.1142578,0.0146484-0.1816406,0.0356445-0.2041016
		l5.6010742-5.9824219c2.2470703-2.3994141,2.7172852-5.9619141,1.1704102-8.8632813
		c-0.7167969-1.3417969-2.4116211-0.6064453-3.7734375-0.0136719c-1.0805664,0.46875-1.9853516,1.15625-2.7275391,1.7666016
		c-0.5229492,0.4296875-1.184082,0.6660156-1.8603516,0.6660156c-1.0229492,0-1.9545898-0.5195313-2.5341797-1.453125
		l-6.0966797-8.3867188c-0.5097656-0.7578125-1.5249023-2.6357422,0.0600586-3.7089844
		c0.6865234-0.4628906,1.5102539-0.6142578,2.315918-0.4277344c0.8071289,0.1884766,1.4770508,0.6884766,1.8867188,1.4091797
		c0.0185547,0.0332031,0.0390625,0.0644531,0.0610352,0.0947266l3.6679688,5.03125
		c0.3149414,0.4316406,0.7988281,0.7167969,1.3286133,0.7832031c0.5273438,0.0615234,1.0683594-0.0917969,1.4799805-0.4326172
		l3.8061523-3.1621094C27.0307617,36.7858734,28.0908203,36.4030609,29.1791992,36.4030609z" fill="#ffffff" class="color000 svgShape"></path></svg></g></svg>