<svg id="SvgjsSvg1240" width="288" height="288" xmlns="http://www.w3.org/2000/svg" version="1.1" xmlns:xlink="http://www.w3.org/1999/xlink" xmlns:svgjs="http://svgjs.com/svgjs"><defs id="SvgjsDefs1241"></defs><g id="SvgjsG1242"><svg xmlns="http://www.w3.org/2000/svg" data-name="Layer 1" viewBox="0 0 168 168" width="288" height="288"><path fill="#ffffff" d="M75.515 123.578a2 2 0 0 0 1.414-3.414 10.013 10.013 0 0 1 0-14.142 2 2 0 0 0-2.828-2.829 14.017 14.017 0 0 0 0 19.8 1.993 1.993 0 0 0 1.414.585zm15.556-.586a2 2 0 0 0 2.828 0 14.017 14.017 0 0 0 0-19.799 2 2 0 0 0-2.828 2.829 10.013 10.013 0 0 1 0 14.142 2 2 0 0 0 0 2.828z" class="color0bceb2 svgShape"></path><circle cx="2" cy="150.093" r="2" fill="#ffffff" class="color2d4356 svgShape"></circle><path fill="#ffffff" d="M11 148.093H8a2 2 0 0 0 0 4h3a2 2 0 0 0 0-4zm149 0h-3a2 2 0 0 0 0 4h3a2 2 0 0 0 0-4z" class="color2d4356 svgShape"></path><circle cx="166" cy="150.093" r="2" fill="#ffffff" class="color2d4356 svgShape"></circle><path fill="#ffffff" d="M118.154 156.093h-8.308a2.006 2.006 0 0 0 0 4h8.308a2.006 2.006 0 0 0 0-4zm-60 0h-8.308a2.006 2.006 0 0 0 0 4h8.308a2.006 2.006 0 0 0 0-4zm45.846 0H64a2 2 0 0 0 0 4h15.94v2H72a2 2 0 0 0 0 4h25a2 2 0 0 0 0-4h-8.94v-2H104a2 2 0 0 0 0-4z" class="color0bceb2 svgShape"></path><path fill="#ffffff" d="M150.721 148.093H148v-4a4 4 0 0 0-4-4h-5.665L128 115.194V89.851l11.482-2.31 2.801-.563a2 2 0 1 0-.789-3.922l-.84.169-1.577-7.843.84-.169a2 2 0 1 0-.79-3.921L127 73.732v-8.89h11a2 2 0 0 0 2-2 10.011 10.011 0 0 0-10-10h-10a10.011 10.011 0 0 0-10 10 2 2 0 0 0 2 2h11v9.694l-10.482 2.109-2.801.563a2 2 0 0 0 .392 3.962 2.044 2.044 0 0 0 .397-.04l.84-.169 1.577 7.842-.84.17a2 2 0 0 0 .393 3.96 2.044 2.044 0 0 0 .397-.039L124 90.656v24.441l-13.205 24.996h-3.073a1.982 1.982 0 0 0-.415-.514l-7.898-6.821A24.98 24.98 0 0 0 86 88.18v-3.087h15a2 2 0 0 0 0-4h-3v-6h3a2 2 0 0 0 0-4H67a2 2 0 0 0 0 4h3v6h-3a2 2 0 0 0 0 4h15v3.087a24.98 24.98 0 0 0-13.409 44.578l-7.898 6.821a1.982 1.982 0 0 0-.415.514h-3.073L44 115.097V90.656l11.127 2.238a2.04 2.04 0 0 0 .397.04 2 2 0 0 0 .392-3.962l-.84-.169 1.578-7.842.84.169a2.04 2.04 0 0 0 .397.04 2 2 0 0 0 .392-3.962l-2.8-.563L45 74.535v-9.692h11a2 2 0 0 0 2-2 10.011 10.011 0 0 0-10-10H38a10.011 10.011 0 0 0-10 10 2 2 0 0 0 2 2h11v8.888l-12.127-2.44a2 2 0 0 0-.79 3.922l.84.17-1.577 7.842-.84-.17a2 2 0 0 0-.79 3.923l2.801.563L40 89.851v25.343l-10.335 24.899H24a4 4 0 0 0-4 4v4h-2.721a2.017 2.017 0 1 0 0 4H150.72a2.017 2.017 0 1 0 0-4Zm-36.378-87.25a6.01 6.01 0 0 1 5.657-4h10a6.01 6.01 0 0 1 5.657 4Zm2.502 27.171-1.578-7.842 19.888-4 1.578 7.842Zm8.938 32.272 8.221 19.807H115.32ZM74 81.093v-6h20v6Zm-11 32a21 21 0 1 1 21 21 21.024 21.024 0 0 1-21-21Zm9.057 21.957a24.96 24.96 0 0 0 23.886 0l5.84 5.043H66.217ZM32.343 60.843a6.01 6.01 0 0 1 5.657-4h10a6.01 6.01 0 0 1 5.657 4Zm-1.076 23.17 1.578-7.842 19.888 4.001-1.578 7.842Zm10.95 36.273 10.464 19.807H33.996ZM24 148.093v-4h120v4Z" class="color2d4356 svgShape"></path><path fill="#ffffff" d="M31 28.093v13.5a2 2 0 0 1-4 0v-13.5zm20 0v13.5a2 2 0 0 1-4 0v-13.5zm20 0v2.5a2 2 0 0 1-4 0v-2.5zm20 0v8.5a2 2 0 0 1-4 0v-8.5zm20 0v17.5a2 2 0 0 1-4 0v-17.5zm20 0v2.5a2 2 0 0 1-4 0v-2.5z" class="color0bceb2 svgShape"></path><path fill="#ffffff" d="M148 26.093a2.006 2.006 0 0 1-2 2h-5v8.5a2 2 0 0 1-4 0v-8.5h-16v8.5a2 2 0 0 1-4 0v-8.5h-16v2.5a2 2 0 0 1-4 0v-2.5H81v17.5a2 2 0 0 1-4 0v-17.5H61v8.5a2 2 0 0 1-4 0v-8.5H41v8.5a2 2 0 0 1-4 0v-8.5H22a2 2 0 0 1 0-4h124a2.006 2.006 0 0 1 2 2zm-31.603-15a3 3 0 1 0-3-3 3.003 3.003 0 0 0 3 3zm0-4.5a1.5 1.5 0 1 1-1.5 1.5 1.501 1.501 0 0 1 1.5-1.5zm-60.74-4a2 2 0 1 0 2 2 2.002 2.002 0 0 0-2-2zm0 3a1 1 0 1 1 1-1 1.001 1.001 0 0 1-1 1zm85.676 7.981a2 2 0 1 0 2 2 2.002 2.002 0 0 0-2-2zm0 3a1 1 0 1 1 1-1 1.001 1.001 0 0 1-1 1zM162 45.593a2 2 0 1 0 2 2 2.002 2.002 0 0 0-2-2zm0 3a1 1 0 1 1 1-1 1.001 1.001 0 0 1-1 1zM37.996 17.574a2 2 0 1 0-2 2 2.002 2.002 0 0 0 2-2zm-3 0a1 1 0 1 1 1 1 1.001 1.001 0 0 1-1-1z" class="color2d4356 svgShape"></path><path fill="#ffffff" d="m8.111 44.348 1.486-1.955-.939-.532-.954 2.19h-.032l-.969-2.175-.956.548 1.472 1.909v.031l-2.301-.297v1.064l2.316-.297v.031l-1.487 1.908.892.564 1.018-2.206h.031l.939 2.19.986-.563-1.502-1.878v-.031l2.362.282v-1.064l-2.362.313v-.032zM3.09 3.746l-.856 1.099.513.325.586-1.271h.018l.541 1.262.567-.325-.864-1.081v-.018l1.36.162v-.613l-1.36.18v-.017l.856-1.127-.541-.306-.55 1.261h-.018l-.558-1.252-.55.315.847 1.1v.018l-1.325-.172v.613l1.334-.171v.018zM165.724 5.114V4.071l-2.317.307v-.031l1.459-1.918-.921-.522-.936 2.148h-.032l-.95-2.133-.938.537 1.444 1.873v.031l-2.257-.292v1.043l2.272-.291v.031l-1.459 1.872.875.553.999-2.165h.029l.921 2.149.968-.552-1.474-1.842v-.031l2.317.276zM87.351 19.362l1.258-1.655-.794-.45-.807 1.853h-.027l-.821-1.84-.808.464 1.245 1.615v.026l-1.947-.251v.9l1.96-.251v.026l-1.258 1.615.754.477.862-1.867h.026l.794 1.853.834-.476-1.271-1.589v-.026l1.999.238v-.9l-1.999.264v-.026z" class="color0bceb2 svgShape"></path></svg></g></svg>