<svg xmlns="http://www.w3.org/2000/svg" xmlns:xlink="http://www.w3.org/1999/xlink" id="Capa_1" x="0px" y="0px" viewBox="0 0 100 15.8" style="enable-background:new 0 0 100 15.8;" xml:space="preserve"><style type="text/css">	.st0{fill:url(#SVGID_1_);}	.st1{fill:url(#SVGID_00000000199395587545227740000000128666426170079125_);}	.st2{fill:url(#SVGID_00000022541191178077489680000005519816117559865791_);}	.st3{fill:url(#SVGID_00000121236911944563391990000010341092564960169119_);}	.st4{fill:url(#SVGID_00000031179221698844471360000003976634182481183411_);}	.st5{fill:url(#SVGID_00000145055781003338822510000011226247467303461026_);}	.st6{fill:url(#SVGID_00000024724284118726321600000017489240188117455287_);}	.st7{fill:url(#SVGID_00000141425733408745537820000010349214703936401334_);}</style><g>	<g>		<g>			<linearGradient id="SVGID_1_" gradientUnits="userSpaceOnUse" x1="27.316" y1="26.4138" x2="72.684" y2="-18.9543">				<stop offset="0" style="stop-color:#ffffff"/>				<stop offset="0.3054" style="stop-color:#ffffff"/>				<stop offset="0.6522" style="stop-color:#ffffff"/>				<stop offset="1" style="stop-color:#ffffff"/>			</linearGradient>			<path class="st0" d="M93.5,5.3c-1-0.6-2.1-1.1-3.1-1.6c1.1-0.5,2.1-1,3.1-1.6c0.1-0.1,0.1-0.2,0.1-0.2c-0.1-0.1-0.2-0.1-0.2-0.1    c-1.1,0.7-2.2,1.2-3.4,1.7c-2.4-1-5-1.5-7.7-1.7C78.6,1.7,74.9,2.3,71.8,3c-0.5,0.1-1,0.2-1.5,0.3c-0.4,0.1-0.8,0.2-1.2,0.3    C65.5,2.8,62,2.2,58.4,2.4c-2.1,0.1-4.1,0.5-5.9,1.2c-0.9-0.3-1.7-0.7-2.4-1.2c-0.1,0-0.1,0-0.2,0c-0.7,0.5-1.5,0.8-2.4,1.2    c-1.8-0.7-3.8-1.1-5.9-1.2C38,2.2,34.5,2.8,31,3.5c-0.4-0.1-0.8-0.2-1.2-0.3c-0.5-0.1-1-0.2-1.5-0.3c-3.1-0.6-6.8-1.3-10.4-1.1    c-2.6,0.1-5.2,0.7-7.7,1.7C9,3.1,7.8,2.5,6.7,1.8c-0.1-0.1-0.2,0-0.2,0.1C6.4,2,6.5,2.1,6.5,2.1c1,0.6,2.1,1.1,3.1,1.6    c-1.1,0.5-2.1,1-3.1,1.6C6.5,5.4,6.4,5.5,6.5,5.6c0,0.1,0.1,0.1,0.2,0.1c0,0,0.1,0,0.1,0C7.8,5,9,4.4,10.1,3.9    c2.4,1,5,1.5,7.7,1.7c0.4,0,0.8,0,1.2,0c3.2,0,6.4-0.6,9.2-1.1c0.5-0.1,1-0.2,1.5-0.3C30.2,4.1,30.6,4,31,3.9    c3.5,0.7,7.1,1.3,10.6,1.2c2.1-0.1,4.1-0.5,5.9-1.2c0.9,0.3,1.7,0.7,2.4,1.2c0,0,0.1,0,0.1,0c0,0,0.1,0,0.1,0    c0.7-0.5,1.5-0.8,2.4-1.2c1.8,0.7,3.8,1.1,5.9,1.2c0.4,0,0.8,0,1.2,0c3.2,0,6.4-0.6,9.5-1.2c0.4,0.1,0.8,0.2,1.2,0.3    c0.5,0.1,1,0.2,1.5,0.3c2.8,0.6,6,1.1,9.2,1.1c0.4,0,0.8,0,1.2,0c2.6-0.1,5.2-0.7,7.7-1.7C91,4.4,92.2,5,93.3,5.6    c0,0,0.1,0,0.1,0c0.1,0,0.1,0,0.2-0.1C93.6,5.5,93.5,5.4,93.5,5.3z M29.7,3.8c-0.5,0.1-1,0.2-1.5,0.3C25,4.8,21.4,5.4,17.8,5.2    c-2.5-0.1-4.9-0.6-7.2-1.5c2.3-0.9,4.7-1.4,7.2-1.5C21.4,2,25,2.7,28.2,3.3c0.5,0.1,1,0.2,1.5,0.3c0.1,0,0.3,0.1,0.4,0.1    C30,3.8,29.8,3.8,29.7,3.8z M41.6,4.7c-3.3,0.2-6.5-0.4-9.7-1c3.2-0.6,6.5-1.2,9.7-1c1.9,0.1,3.7,0.4,5.4,1    C45.3,4.3,43.5,4.6,41.6,4.7z M50,4.7c-0.6-0.4-1.3-0.7-2-1c0.7-0.3,1.4-0.6,2-1c0.6,0.4,1.3,0.7,2,1C51.3,4,50.6,4.4,50,4.7z     M58.4,4.7c-1.9-0.1-3.7-0.4-5.4-1c1.6-0.6,3.5-0.9,5.4-1c3.3-0.2,6.5,0.4,9.7,1C64.9,4.4,61.7,4.9,58.4,4.7z M82.2,5.2    C78.6,5.4,75,4.8,71.8,4.1c-0.5-0.1-1-0.2-1.5-0.3c-0.1,0-0.3-0.1-0.4-0.1c0.1,0,0.3-0.1,0.4-0.1c0.5-0.1,1-0.2,1.5-0.3    C75,2.7,78.6,2,82.2,2.2c2.5,0.1,4.9,0.6,7.2,1.5C87.1,4.6,84.6,5.1,82.2,5.2z"/>							<linearGradient id="SVGID_00000119113481818006145040000009206874743661540494_" gradientUnits="userSpaceOnUse" x1="94.8471" y1="5.5485" x2="98.4909" y2="1.9047">				<stop offset="0" style="stop-color:#ffffff"/>				<stop offset="0.3054" style="stop-color:#ffffff"/>				<stop offset="0.6522" style="stop-color:#ffffff"/>				<stop offset="1" style="stop-color:#ffffff"/>			</linearGradient>			<path style="fill:url(#SVGID_00000119113481818006145040000009206874743661540494_);" d="M100,3.6c-0.1-0.3-0.4-0.7-0.9-0.8    c-0.7-0.2-1.5-0.2-2.3-0.1c-1.3,0.2-2.5,0.7-3.7,1.1c0.7,0.2,1.5,0.4,2.2,0.6c0.6,0.2,1.3,0.4,2,0.4c0.7,0.1,1.5,0,2-0.3    C99.8,4.3,100,4,100,3.6z"/>							<linearGradient id="SVGID_00000019660830325495846360000014787948573913050299_" gradientUnits="userSpaceOnUse" x1="1.5091" y1="5.5178" x2="5.1529" y2="1.8741">				<stop offset="0" style="stop-color:#ffffff"/>				<stop offset="0.3054" style="stop-color:#ffffff"/>				<stop offset="0.6522" style="stop-color:#ffffff"/>				<stop offset="1" style="stop-color:#ffffff"/>			</linearGradient>			<path style="fill:url(#SVGID_00000019660830325495846360000014787948573913050299_);" d="M4.7,3c-0.6-0.2-1.3-0.4-2-0.4    c-0.7-0.1-1.5,0-2,0.3C0.2,3.1,0,3.5,0,3.8c0.1,0.3,0.4,0.7,0.9,0.8c0.7,0.2,1.5,0.2,2.3,0.1C4.5,4.5,5.7,4,7,3.7    C6.2,3.5,5.5,3.3,4.7,3z"/>		</g>		<g>							<linearGradient id="SVGID_00000172403730612042582480000001837455726852616087_" gradientUnits="userSpaceOnUse" x1="39.5097" y1="19.4106" x2="60.4902" y2="-1.5698">				<stop offset="0" style="stop-color:#ffffff"/>				<stop offset="0.3054" style="stop-color:#ffffff"/>				<stop offset="0.6522" style="stop-color:#ffffff"/>				<stop offset="1" style="stop-color:#ffffff"/>			</linearGradient>			<path style="fill:url(#SVGID_00000172403730612042582480000001837455726852616087_);" d="M31.1,10.9c0.8,1.3,2.6,1.8,3.9,1.2    c1-0.5,1.6-1.6,1.5-2.6c-0.1-0.5-0.4-1.1-0.9-1.4c-0.4-0.3-0.9-0.5-1.4-0.4c-0.5,0.1-1,0.5-1.3,1c-0.2,0.5-0.2,1,0,1.5    c0,0,0,0.1,0.1,0.1c0,0,0.1,0,0.1,0c0,0,0.1,0,0.1-0.1c0,0,0-0.1,0-0.1c-0.2-0.4-0.2-0.8,0-1.2c0.2-0.5,0.6-0.8,1.1-0.9    c0.4-0.1,0.9,0,1.2,0.3c0.4,0.3,0.7,0.8,0.8,1.2c0.1,0.9-0.4,1.9-1.3,2.3c-1.2,0.6-2.8,0.1-3.6-1.1c-0.7-1.1-0.6-2.7,0.2-3.9    c0.8-1.1,2.3-1.6,3.7-1.5c1.3,0.1,2.6,0.9,3.5,2.1c0.3,0.3,0.5,0.7,0.7,1.1c0.3,0.6,0.7,1.1,1.2,1.6c1.5,1.5,4.3,1.6,5.8,0.1    c0.5-0.4,0.9-1,1.2-1.5c0.1-0.2,0.3-0.4,0.5-0.7c0.6-0.8,1.2-1.3,1.9-1.5l0,0l0,0c0.7,0.2,1.3,0.7,1.9,1.5    c0.2,0.2,0.3,0.4,0.5,0.7c0.4,0.5,0.7,1.1,1.2,1.5c1.6,1.5,4.3,1.4,5.8-0.1c0.5-0.5,0.8-1.1,1.2-1.6c0.2-0.4,0.5-0.8,0.7-1.1    c0.9-1.2,2.2-1.9,3.5-2.1c1.4-0.2,2.9,0.4,3.7,1.5c0.9,1.1,1,2.7,0.2,3.9c-0.8,1.2-2.4,1.6-3.6,1.1c-0.9-0.4-1.5-1.4-1.3-2.3    c0.1-0.5,0.4-0.9,0.8-1.2c0.4-0.3,0.8-0.4,1.2-0.3c0.4,0.1,0.9,0.4,1.1,0.9c0.2,0.4,0.2,0.9,0,1.2c0,0,0,0.1,0,0.1    c0,0,0,0.1,0.1,0.1c0,0,0.1,0,0.1,0c0,0,0.1,0,0.1-0.1c0.2-0.4,0.2-1,0-1.5c-0.3-0.5-0.8-0.9-1.3-1c-0.5-0.1-1,0.1-1.4,0.4    c-0.5,0.3-0.8,0.9-0.9,1.4c-0.1,1,0.5,2.1,1.5,2.6c1.3,0.6,3.1,0.1,3.9-1.2c0.8-1.2,0.7-3-0.2-4.2c-0.8-1-2.1-1.6-3.4-1.6    c-0.2,0-0.3,0-0.5,0c-0.1,0-0.2,0-0.4,0.1l0,0c0,0-0.6,0.1-0.8,0.2l0,0l-0.2,0.1c-0.9,0.4-1.7,1-2.3,1.8    c-0.3,0.4-0.5,0.7-0.7,1.1C60,9,59.7,9.5,59.2,10c-1.4,1.4-4,1.5-5.5,0.1c-0.5-0.4-0.8-0.9-1.2-1.5c-0.2-0.2-0.3-0.5-0.5-0.7    c-0.4-0.6-0.8-1-1.3-1.2l-0.3-0.2l0.3,0c0.7,0.1,1.4,0.5,2.2,1.1c0.1,0.1,0.3,0.2,0.4,0.3c0.7,0.6,1.5,1.2,2.4,1.5    c0.7,0.2,1.5,0,2-0.3c0.4-0.2,0.6-0.6,0.7-1l0,0l0,0C58.8,8.1,58.9,8,59,8c0.3-0.2,0.4-0.6,0.2-0.9c-0.1-0.3-0.5-0.5-0.9-0.4    c-0.3,0.1-0.6,0.4-0.7,0.7c0,0.3,0.1,0.6,0.4,0.8c0,0,0.1,0,0.1,0.1l0.1,0l0,0.1c-0.1,0.4-0.4,0.6-0.6,0.7    c-0.5,0.3-1.2,0.5-1.8,0.3c-0.9-0.2-1.6-0.8-2.3-1.4c-0.1-0.1-0.3-0.2-0.4-0.4c-1.2-1-2.2-1.3-3.1-1.2c0,0,0,0-0.1,0c0,0,0,0,0,0    l0,0l0,0c0,0,0,0,0,0c0,0,0,0-0.1,0c-0.9-0.2-2,0.2-3.1,1.2c-0.1,0.1-0.3,0.2-0.4,0.3l0,0c-0.7,0.6-1.4,1.2-2.3,1.4    c-0.6,0.2-1.3,0-1.8-0.3c-0.2-0.1-0.5-0.4-0.6-0.8l0-0.1l0.1,0C41.8,8,41.8,8,41.9,8c0.3-0.2,0.4-0.6,0.2-0.9    c-0.1-0.3-0.5-0.5-0.9-0.4c-0.3,0.1-0.6,0.4-0.7,0.7c0,0.3,0.1,0.6,0.4,0.8c0.1,0.1,0.2,0.1,0.3,0.1l0.1,0l0,0.1    c0.1,0.4,0.3,0.7,0.7,1c0.6,0.4,1.4,0.5,2,0.3c0.9-0.2,1.7-0.9,2.4-1.5l0,0c0.1-0.1,0.3-0.2,0.4-0.3c0.8-0.6,1.5-1,2.2-1.1l0.3,0    l-0.3,0.2c-0.4,0.3-0.9,0.7-1.3,1.2c-0.2,0.2-0.3,0.4-0.5,0.7l0,0c-0.4,0.5-0.7,1.1-1.2,1.5c-0.7,0.7-1.7,1-2.7,1    c-1,0-2.1-0.4-2.8-1.1c-0.5-0.5-0.8-1-1.1-1.6c-0.2-0.4-0.5-0.8-0.7-1.1c-0.7-0.9-1.5-1.5-2.5-1.9l-0.2-0.1c0,0-0.6-0.2-1-0.2    c-0.2,0-0.3,0-0.5,0c-1.4,0-2.7,0.6-3.4,1.6C30.4,7.9,30.3,9.7,31.1,10.9z"/>							<linearGradient id="SVGID_00000181064327070478813670000001335279771347831999_" gradientUnits="userSpaceOnUse" x1="48.0503" y1="13.836" x2="51.9504" y2="9.936">				<stop offset="0" style="stop-color:#ffffff"/>				<stop offset="0.3054" style="stop-color:#ffffff"/>				<stop offset="0.6522" style="stop-color:#ffffff"/>				<stop offset="1" style="stop-color:#ffffff"/>			</linearGradient>			<path style="fill:url(#SVGID_00000181064327070478813670000001335279771347831999_);" d="M50,8c-0.4,1-0.6,2.1-0.9,3.5    c-0.1,0.7-0.3,1.5-0.2,2.2c0,0.5,0.2,1,0.4,1.4c0.2,0.3,0.5,0.5,0.6,0.7l0,0l0,0c0.2-0.2,0.4-0.5,0.6-0.7    c0.2-0.4,0.4-0.9,0.4-1.3c0.1-0.7-0.1-1.5-0.2-2.2C50.6,10.1,50.4,9,50,8z"/>							<linearGradient id="SVGID_00000056402497054022458470000012909927558743884220_" gradientUnits="userSpaceOnUse" x1="49.4464" y1="4.2831" x2="50.5421" y2="3.1874">				<stop offset="0" style="stop-color:#ffffff"/>				<stop offset="0.3054" style="stop-color:#ffffff"/>				<stop offset="0.6522" style="stop-color:#ffffff"/>				<stop offset="1" style="stop-color:#ffffff"/>			</linearGradient>			<path style="fill:url(#SVGID_00000056402497054022458470000012909927558743884220_);" d="M49.6,4.3c0.1,0.1,0.3,0.1,0.4,0.1    c0.1,0,0.2,0,0.3,0c0.1,0,0.3-0.1,0.3-0.2c0.2-0.2,0.2-0.4,0.2-0.7c-0.1-0.2-0.2-0.4-0.4-0.5C50.1,3,49.7,3,49.5,3.2    c-0.2,0.2-0.4,0.5-0.3,0.8C49.3,4.2,49.4,4.3,49.6,4.3z"/>							<linearGradient id="SVGID_00000165929037608535720760000005912159703786189955_" gradientUnits="userSpaceOnUse" x1="47.1316" y1="4.052" x2="47.7693" y2="3.4143">				<stop offset="0" style="stop-color:#ffffff"/>				<stop offset="0.3054" style="stop-color:#ffffff"/>				<stop offset="0.6522" style="stop-color:#ffffff"/>				<stop offset="1" style="stop-color:#ffffff"/>			</linearGradient>			<path style="fill:url(#SVGID_00000165929037608535720760000005912159703786189955_);" d="M47.2,4.1c0.1,0,0.2,0.1,0.3,0.1    c0.1,0,0.1,0,0.1,0c0.1,0,0.1-0.1,0.2-0.1c0.1-0.1,0.1-0.3,0.1-0.4c0-0.1-0.1-0.2-0.2-0.3c-0.2-0.1-0.4-0.1-0.5,0    C47,3.5,47,3.7,47,3.9C47,4,47.1,4.1,47.2,4.1z"/>							<linearGradient id="SVGID_00000021098241669080780570000010765848219265140613_" gradientUnits="userSpaceOnUse" x1="52.2306" y1="4.0451" x2="52.8685" y2="3.4073">				<stop offset="0" style="stop-color:#ffffff"/>				<stop offset="0.3054" style="stop-color:#ffffff"/>				<stop offset="0.6522" style="stop-color:#ffffff"/>				<stop offset="1" style="stop-color:#ffffff"/>			</linearGradient>			<path style="fill:url(#SVGID_00000021098241669080780570000010765848219265140613_);" d="M52.3,4.1c0.1,0,0.1,0,0.2,0    c0.1,0,0.2,0,0.3-0.1C53,4,53,3.8,53,3.6c0-0.1-0.1-0.2-0.2-0.2c-0.1-0.1-0.3-0.1-0.4,0c-0.1,0-0.1,0.1-0.2,0.1    c-0.1,0.1-0.1,0.3-0.1,0.4C52.1,3.9,52.2,4.1,52.3,4.1z"/>		</g>	</g></g></svg>