<svg xmlns="http://www.w3.org/2000/svg" enable-background="new 0 0 64 64" viewBox="0 0 64 64" id="Food"><path d="M49.101 49h-1.424l-3.2-8H60.5c1.93 0 3.5-1.57 3.5-3.5S62.43 34 60.5 34h-57C1.57 34 0 35.57 0 37.5S1.57 41 3.5 41h5.17c-.146.379-.221.785-.21 1.206.021.865.387 1.661 1.023 2.236l17.693 16.241C28.101 61.532 29.302 62 30.558 62H49v2h2V50c0-1.654 1.346-3 3-3h10v-2H54C51.586 45 49.566 46.721 49.101 49zM2 37.5C2 36.673 2.673 36 3.5 36h57c.827 0 1.5.673 1.5 1.5S61.327 39 60.5 39H43h-4H3.5C2.673 39 2 38.327 2 37.5zM21.728 47.079l-1.635-4.473c-.133-.311-.124-.648.026-.951.15-.303.414-.515.741-.597.492-.121 1.01.099 1.25.519l3.905 7.185-.012.16.104.008 2.25 4.14L21.728 47.079zM30.311 41.318c.195.205.294.474.281.756L30.094 52.08l-2.039-3.752.494-6.383C28.59 41.415 29.038 41 29.569 41 29.853 41 30.116 41.113 30.311 41.318zM26.555 41.791l-.256 3.306L24.072 41h2.667C26.647 41.251 26.576 41.513 26.555 41.791zM32.414 41H38v8.382l-5.916 2.958.505-10.166C32.609 41.767 32.547 41.37 32.414 41zM18.241 41c-.308.769-.318 1.621-.007 2.343l.315.863L15.003 41H18.241zM30.558 60c-.753 0-1.474-.28-2.029-.79L10.83 42.963c-.231-.209-.363-.496-.371-.808-.008-.312.109-.604.33-.825.423-.421 1.101-.44 1.541-.051l7.69 6.951.041.113.06-.022 8.209 7.421c.306.276.75.338 1.118.152l10-5C39.786 50.725 40 50.379 40 50v-9h2.323l3.749 9.371C46.224 50.751 46.591 51 47 51h2v9H30.558zM3 32h58c.552 0 1-.448 1-1C62 16.112 49.888 4 35 4h-2V2h4V0H27v2h4v2h-2C14.112 4 2 16.112 2 31 2 31.552 2.448 32 3 32zM29 6h6c13.45 0 24.454 10.677 24.98 24H4.02C4.546 16.677 15.55 6 29 6z" fill="#ffffff" class="color000000 svgShape"></path><path d="M32.95,12.464l-0.707,0.707l-0.707-0.707c-1.949-1.95-5.122-1.95-7.071,0c-1.949,1.949-1.949,5.122,0,7.071l7.071,7.071  c0.195,0.195,0.451,0.293,0.707,0.293s0.512-0.098,0.707-0.293l7.071-7.071c0.945-0.944,1.465-2.2,1.465-3.536  c0-1.336-0.52-2.591-1.465-3.536C38.071,10.515,34.899,10.516,32.95,12.464z M38.606,18.122l-6.364,6.364l-6.364-6.364  c-1.169-1.17-1.169-3.073,0-4.243c0.585-0.585,1.353-0.877,2.122-0.877c0.768,0,1.537,0.292,2.122,0.877l1.414,1.415  c0.375,0.375,1.039,0.375,1.414,0l1.414-1.415c1.169-1.17,3.072-1.171,4.243,0c0.567,0.567,0.879,1.32,0.879,2.122  S39.173,17.555,38.606,18.122z" fill="#ffffff" class="color000000 svgShape"></path><rect width="2" height="2" x="55" y="26" fill="#ffffff" class="color000000 svgShape"></rect><rect width="2" height="2" x="51" y="26" fill="#ffffff" class="color000000 svgShape"></rect><rect width="2" height="2" x="47" y="26" fill="#ffffff" class="color000000 svgShape"></rect></svg>